<?xml version="1.0" encoding="UTF-8" standalone="no"?>
<svg width="420px" height="351px" viewBox="0 0 420 351" version="1.1" xmlns="http://www.w3.org/2000/svg" xmlns:xlink="http://www.w3.org/1999/xlink">
    <!-- Generator: Sketch 43.1 (39012) - http://www.bohemiancoding.com/sketch -->
    <title>Group 21</title>
    <desc>Created with Sketch.</desc>
    <defs>
        <radialGradient cx="50%" cy="32.8244579%" fx="50%" fy="32.8244579%" r="67.1755421%" gradientTransform="translate(0.500000,0.328245),scale(0.359174,1.000000),rotate(90.000000),translate(-0.500000,-0.328245)" id="radialGradient-1">
            <stop stop-color="#FFEFAF" stop-opacity="0.726392663" offset="0%"></stop>
            <stop stop-color="#78C13B" offset="100%"></stop>
        </radialGradient>
        <radialGradient cx="50%" cy="32.8244579%" fx="50%" fy="32.8244579%" r="67.1755421%" gradientTransform="translate(0.500000,0.328245),scale(0.379189,1.000000),rotate(90.000000),translate(-0.500000,-0.328245)" id="radialGradient-2">
            <stop stop-color="#FFEFAF" stop-opacity="0.726392663" offset="0%"></stop>
            <stop stop-color="#78C13B" offset="100%"></stop>
        </radialGradient>
        <radialGradient cx="50%" cy="32.8244579%" fx="50%" fy="32.8244579%" r="67.1755421%" gradientTransform="translate(0.500000,0.328245),scale(0.295335,1.000000),rotate(90.000000),translate(-0.500000,-0.328245)" id="radialGradient-3">
            <stop stop-color="#FFEFAF" stop-opacity="0.726392663" offset="0%"></stop>
            <stop stop-color="#78C13B" offset="100%"></stop>
        </radialGradient>
        <radialGradient cx="50%" cy="32.8244579%" fx="50%" fy="32.8244579%" r="67.1755421%" gradientTransform="translate(0.500000,0.328245),scale(0.220616,1.000000),rotate(90.000000),translate(-0.500000,-0.328245)" id="radialGradient-4">
            <stop stop-color="#FFEFAF" stop-opacity="0.726392663" offset="0%"></stop>
            <stop stop-color="#78C13B" offset="100%"></stop>
        </radialGradient>
        <radialGradient cx="50%" cy="32.8244579%" fx="50%" fy="32.8244579%" r="67.1755421%" gradientTransform="translate(0.500000,0.328245),scale(0.184460,1.000000),rotate(90.000000),translate(-0.500000,-0.328245)" id="radialGradient-5">
            <stop stop-color="#FFEFAF" stop-opacity="0.726392663" offset="0%"></stop>
            <stop stop-color="#78C13B" offset="100%"></stop>
        </radialGradient>
        <radialGradient cx="50%" cy="32.8244579%" fx="50%" fy="32.8244579%" r="67.1755421%" gradientTransform="translate(0.500000,0.328245),scale(0.177709,1.000000),rotate(90.000000),translate(-0.500000,-0.328245)" id="radialGradient-6">
            <stop stop-color="#FFEFAF" stop-opacity="0.726392663" offset="0%"></stop>
            <stop stop-color="#78C13B" offset="100%"></stop>
        </radialGradient>
        <radialGradient cx="50%" cy="32.8244579%" fx="50%" fy="32.8244579%" r="67.1755421%" gradientTransform="translate(0.500000,0.328245),scale(0.144094,1.000000),rotate(90.000000),translate(-0.500000,-0.328245)" id="radialGradient-7">
            <stop stop-color="#FFEFAF" stop-opacity="0.726392663" offset="0%"></stop>
            <stop stop-color="#78C13B" offset="100%"></stop>
        </radialGradient>
        <radialGradient cx="50%" cy="32.8244579%" fx="50%" fy="32.8244579%" r="67.1755421%" gradientTransform="translate(0.500000,0.328245),scale(0.300945,1.000000),rotate(90.000000),translate(-0.500000,-0.328245)" id="radialGradient-8">
            <stop stop-color="#FFEFAF" stop-opacity="0.726392663" offset="0%"></stop>
            <stop stop-color="#78C13B" offset="100%"></stop>
        </radialGradient>
    </defs>
    <g id="Page-1" stroke="none" stroke-width="1" fill="none" fill-rule="evenodd">
        <g id="Group-21">
            <g id="Group-19">
                <g id="Group-17">
                    <polygon id="Path-48" fill="#F5F5F5" points="0 350.478788 385.8447 350.478788 420 312.629426 76.499892 312.629426"></polygon>
                    <g id="Group-7" transform="translate(74.000000, 0.000000)">
                        <g id="Group-3">
                            <g id="Group-2">
                                <path d="M122,200 C166.18278,200 202,166.421356 202,125 C202,83.5786438 166.18278,50 122,50 C77.81722,50 44.7155702,70.1188885 44.7155702,111.540245 C44.7155702,122.896421 57.869899,155.442004 62.3922837,166.557498 C66.9146684,177.672992 89.9304747,200 122,200 Z" id="Oval-2" fill="#FFE0B2"></path>
                                <path d="M164.277812,115.685262 L164.277812,120.701551 L127.935592,120.701551 C127.935592,120.701551 135.944224,116.547504 140.88766,115.685262 C145.831096,114.823019 164.277812,115.685262 164.277812,115.685262 Z" id="Path-2" fill="#553422" transform="translate(146.106702, 118.001797) scale(-1, 1) rotate(1.000000) translate(-146.106702, -118.001797) "></path>
                                <path d="M96.3775236,116.629519 L96.3775236,121.645809 L60.035304,121.645809 C60.035304,121.645809 68.0439361,117.491762 72.9873717,116.629519 C77.9308074,115.767276 96.3775236,116.629519 96.3775236,116.629519 Z" id="Path-2" fill="#553422" transform="translate(78.206414, 118.946054) rotate(-4.000000) translate(-78.206414, -118.946054) "></path>
                                <path d="M173.826631,6.83518684 C165.441567,4.02977546 151.500561,1.19279091 142.701027,0.499589518 L145.290772,0.703602033 C142.536257,0.486609437 138.060598,0.44019345 135.314558,0.598748209 L128.267988,1.00561309 C121.094842,1.41978639 109.78255,3.66023769 103.000638,6.01002246 L109.760254,3.6679628 C104.02226,5.65605281 94.5011644,8.01926867 88.5083352,8.94418585 L99.3706962,7.2677182 C89.0060958,8.86736281 72.9194246,20.6242439 67.6823537,27.752923 L67.6823537,27.752923 L67.3733439,28.0764646 C58.6010716,37.2612684 46.8371682,53.8846798 43.9918443,59.4973621 L43.9918443,59.4973621 L38.7264605,67.2811399 C34.7064321,73.2239183 29.0927785,83.3706282 26.1930956,89.9329515 L28.560111,84.5761175 C26.3292158,89.6248956 23.9672474,98.1591934 23.7977415,99.5194329 L23.7977415,99.5194329 L23.7977415,110.003343 L23.7977415,110.003343 C24.1970303,116.141997 27.8906455,125.306132 32.0454881,130.469311 L37.1890522,136.861164 L34.1642758,130.219021 C31.8754057,125.192864 29.6967624,116.650513 29.2988447,111.148893 L29.1033421,108.44587 L30.8306205,89.7099977 L30.1948044,96.0855292 C29.5920064,102.129977 29.1033421,111.954315 29.1033421,117.556723 L29.1033421,109.55139 C29.1033421,113.972613 30.0163885,121.029164 31.1362618,125.288197 L31.4475551,126.472088 C31.4475551,126.472088 32.3781575,129.555373 33.1314204,130.943667 C33.8846832,132.331961 35.8202273,134.531101 35.8202273,134.531101 L35.8202273,134.531101 C39.4114313,138.134187 48.1349321,141.055064 49.8653806,141.055064 L49.8653806,141.055064 L64.3006614,145.845428 L64.3006614,145.845428 C59.8472749,140.883556 56.2370918,126.121118 56.2370918,115.158539 L56.2370918,115.158539 L56.2370918,110.884835 C56.2370918,104.261665 58.0751654,93.8537979 60.3511204,87.6147026 L61.7113386,83.8859244 L67.6823537,70.0925576 L70.1703933,84.7115393 L71.8957886,93.7177388 L71.8957886,93.7177388 C73.1594695,98.0702034 78.4661461,106.165819 80.6039271,108.44587 L80.6039271,108.44587 L85.5646134,112.894395 L85.5646134,112.894395 C81.2367195,105.507607 76.7552838,91.5230872 76.2351647,87.2485561 L76.2351647,87.2485561 L81.2549044,99.0476173 C83.635091,104.642323 89.8956631,111.542691 95.2265812,114.453629 L88.0897996,110.556602 C93.4259571,113.470402 102.146457,118.051574 107.565711,120.787992 L106.841352,120.422231 C112.757615,123.409611 122.828029,124.822075 129.339889,123.575978 L130.475267,123.358714 L129.134605,122.736193 C124.121252,120.408301 116.711042,115.539142 112.595042,111.870966 L112.484918,111.772823 C110.423173,109.935397 108.082031,106.303258 107.260658,103.675656 L102.656242,88.9459644 L107.322219,96.0367515 C109.75249,99.7299828 114.387172,105.121316 117.672507,108.077222 L123.026541,112.894395 L125.236926,114.79471 C129.8395,118.751641 138.491928,122.225977 144.556071,122.5545 L147.36399,122.706618 L140.948409,119.56021 C135.991608,117.129234 129.63014,111.332688 126.75039,106.630762 L116.434216,89.7869721 L127.969619,103.827916 C130.771608,107.23851 136.120882,111.833134 139.920249,114.091897 L143.186349,116.033628 C146.509879,118.009501 152.282429,120.239267 156.053295,121.008562 L158.325206,121.472056 C161.034706,122.024822 165.348222,121.771837 167.321482,121.118359 L167.321482,121.118359 L162.855712,113.907304 C160.529719,110.151431 157.650261,103.671678 156.418185,99.413366 L155.175854,95.1196121 C155.175854,95.1196121 162.238252,109.178504 166.521178,115.158539 C170.804103,121.138573 177.303027,126.014675 177.303027,126.014675 L178.745273,139.714487 C179.496466,146.850025 179.067896,158.361085 177.788095,165.42483 L176.620363,171.870015 C176.325634,173.496747 175.437721,176.000951 174.646809,177.445675 L176.086708,174.815475 C173.387562,179.745887 167.545347,187.033507 167.321482,187.266636 C167.321482,187.266636 168.415648,186.092119 167.321482,187.266636 C166.227316,188.441153 164.759901,190.369487 164.759901,190.369487 L160.399409,194.85136 L169.379343,193.524419 C172.659569,193.039709 176.818258,190.406482 178.65926,187.656052 L187.254111,174.815475 C187.254111,174.815475 180.749362,185.31233 181.706025,182.087728 C182.662689,178.863127 181.706025,182.087728 181.706025,182.087728 C183.561753,175.673668 183.575597,176.567327 181.738719,184.07653 L181.167678,186.410962 L186.700003,173.843105 L186.700003,173.843105 C182.589886,184.469238 172.641149,199.754018 168.594565,203.833484 L168.594565,203.833484 L161.585559,215.272003 L150.875916,218.316114 L150.875916,218.316114 C146.436598,221.73548 136.798815,234.367008 136.798815,234.367008 L138.885554,230.960092 C137.733079,232.84168 137.175872,236.109127 137.644786,238.275654 L137.950354,239.687473 L140.014766,232.903848 C140.174109,232.380251 140.418129,232.392872 140.557802,232.924431 L141.03546,234.742268 C141.597799,236.882383 143.424877,239.756592 145.124424,241.168703 L148.8296,244.247238 L146.910071,238.587201 C145.668007,234.924775 147.250021,230.181649 150.432475,228.000756 L151.832145,227.04158 L157.340425,224.215996 L163.228278,219.714519 L167.321482,222.435622 L167.321482,222.435622 C171.738233,224.297082 180.892665,224.155416 186.700003,222.435622 L186.700003,222.435622 L193.60482,224.052758 C194.676983,224.303863 196.428465,224.656397 197.526916,224.841863 L195.546143,224.507423 C199.794087,225.224659 204.81668,221.625035 206.771216,216.44944 L208.406717,212.118646 L216.5055,206.482941 L218.73582,196.096405 L221.631611,201.274137 C223.790595,205.134445 226.994939,211.541423 228.781953,215.569287 L228.377905,214.658577 C229.274105,216.678579 231.224521,219.619096 232.734019,221.226126 L238.869748,227.758299 L251.08956,233.888134 L241.263658,219.085365 C239.126486,215.865706 235.441065,210.791899 233.044242,207.768094 L227.857292,201.224297 L230.480312,204.453742 C232.568207,207.024344 235.566609,211.46521 237.168829,214.357169 L239.150429,217.933897 C241.559166,222.281591 247.097286,227.650147 251.507029,229.918144 L259.226012,233.888134 L266.539662,237.469631 L266.539662,237.469631 C264.092293,231.028038 258.547756,218.077358 254.156209,208.544819 L253.475697,207.067661 C250.470512,200.544439 247.140829,189.507446 246.037531,182.408709 L243.511832,166.158084 L251.08956,179.228279 L261.862194,202.161195 C264.445488,207.660543 268.120365,216.790417 270.067892,222.546335 L270.755505,224.578576 C272.170824,228.761554 271.198418,235.043502 268.584372,238.608612 L258.35704,252.556942 L254.525413,257.721375 L265.479528,255.95977 L265.376539,256.054613 C259.686503,261.2946 250.016229,269.247924 245.384328,272.641518 L247.8044,270.868436 C246.467831,271.847682 245.049604,273.933337 244.631968,275.545148 L244.317702,276.758014 C243.348602,280.498119 242.562992,286.656273 242.562992,290.528716 L242.562992,294.860927 L242.562992,294.860927 C243.621389,298.463472 247.730553,302.89781 249.986322,303.948206 L249.986322,303.948206 L249.986322,296.582849 C249.986322,292.167209 252.293584,285.849736 255.13929,282.472907 L249.986322,288.587626 C254.15786,283.637511 256.547722,279.62465 256.547722,279.62465 L256.547722,279.62465 L256.547722,279.62465 C262.066118,279.62465 270.126488,269.968277 271.272073,266.884159 L271.272073,266.884159 L276.836742,253.422414 C278.52583,249.336262 279.695589,242.444861 279.449944,238.038509 L277.877572,209.833519 C277.692838,206.519792 277.059592,201.188768 276.464654,197.934432 L277.525358,203.736533 C275.339582,191.780228 269.591582,173.07556 266.539662,166.158084 L266.539662,166.158084 L268.71541,158.162416 C269.584642,154.968072 268.182487,150.696104 265.601513,148.635008 L266.019095,148.968477 C263.859228,147.243665 263.913652,147.169213 266.143488,148.804261 L272.822153,153.701455 L267.788391,147.406919 C267.098737,146.544532 265.932793,145.189393 265.186031,144.382132 L266.539662,145.845428 C264.092293,143.199783 259.432223,136.396564 256.129769,130.647688 L255.68851,129.879549 L255.073817,127.142197 L255.692479,122.112134 C256.164817,118.27177 256.963266,112.049443 257.475064,108.220178 L256.547722,115.158539 C258.026901,104.091345 251.261361,83.7602237 249.986322,81.9417314 L256.302517,90.9500483 C252.814179,85.9748922 247.845285,77.5057867 245.20567,72.0368562 L242.442872,66.3127049 C236.683579,54.3802164 223.291064,38.4421113 212.518923,30.7061019 L208.406717,27.752923 L208.406717,27.752923 C198.060896,12.5970029 175.539312,7.06701106 175.11942,7.2677182 L175.11942,7.2677182 L173.826631,6.83518684 Z" id="Path-9" fill="#3A1503"></path>
                                <path d="M58.635553,144.783767 L51.4869045,155.368777 L44.1633814,164.079824 L30.9133981,176.414042 L30.9133981,176.414042 C21.7919366,181.277704 6.05715609,186.939022 0.925543974,187.996395 L0.925543974,187.996395 L3.09980228,188.11872 C8.61568336,188.429048 17.2324362,186.994999 22.3540116,184.912368 L28.631789,182.359581 L25.0552946,186.570549 C18.9771184,193.727001 10.8896342,206.452338 6.99323229,214.989356 L8.95424031,210.692787 C7.80901248,213.201981 6.42222275,217.423861 5.85461983,220.132828 L5.46243281,222.004598 C4.66995591,225.786808 4.38863873,231.972025 4.83181627,235.799998 L5.02678403,237.484044 C5.7248366,243.513515 5.88812211,247.530762 5.88812211,247.530762 L5.88812211,247.530762 L10.3141737,256.192804 C11.5731491,258.656693 14.4250135,261.925596 16.7083223,263.510998 L18.5887196,264.81664 L18.5887196,264.81664 C13.8846389,255.06058 10.6215792,249.980169 10.6215792,249.980169 L10.0712281,247.15173 C10.3751786,248.713834 8.36485938,220.480925 8.36485938,220.480925 L9.27950042,232.43687 C8.77435812,225.833784 8.98115359,225.825349 9.73977735,232.404036 L10.443835,238.509533 C11.1396643,244.543675 14.7880122,253.265328 18.5998023,257.998774 L18.3630342,257.704758 C21.1363273,261.148608 25.963482,266.431921 27.5122308,267.928162 L23.9157006,264.453566 C25.9020094,266.372532 29.4067161,269.103856 31.7554164,270.561429 L48.8601488,281.176411 L48.0348072,288.600774 C47.8517214,290.247722 47.1119302,292.78038 46.3769841,294.268666 L45.9707269,295.091348 C44.7460177,297.571418 42.0286615,301.000034 39.8950805,302.754527 L35.1288683,306.673892 L35.1288683,306.673892 C41.5577146,304.347667 50.4487414,297.390159 53.5161578,293.162013 L53.5161578,293.162013 L56.8895746,287.235553 L62.2316582,293.077052 C62.9801804,293.895551 63.4637038,295.44761 63.3122869,296.538995 L62.276635,304.003776 L71.893908,297.374015 L74.1941324,300.311503 C75.8989449,302.488625 79.3507827,305.112967 81.8968633,306.170162 L88.3542741,308.851436 L82.4182747,299.079801 L78.7951036,290.454608 L77.484761,281.848492 L90.9662873,294.481895 L96.3620198,270.217576 L97.6728237,262.789423 C98.5361024,257.897337 98.2692469,250.023709 97.0767538,245.203055 L96.4608808,242.713389 L96.386939,241.781358 C95.9936984,236.824595 98.4293283,229.870467 101.835821,226.239552 L102.618884,225.404899 L102.618884,225.404899 C107.414536,222.770236 117.563362,220.500365 118.471341,220.480925 L118.471341,220.480925 L129.146601,215.60985 L133.136599,211.138555 L133.136599,198.778465 L128.473812,199.263047 C122.980252,199.833969 114.154369,199.33427 108.758627,198.146494 L118.526842,200.296792 C110.404934,198.508899 94.5736672,192.53151 88.8841347,189.745542 L88.8841347,189.745542 L88.8841347,189.745542 C83.5726615,186.89296 73.4028444,179.056321 68.6280243,174.558229 L68.6280243,174.558229 L70.718849,183.944826 L72.3315479,188.680618 L62.8276576,179.56723 L50.2129844,196.723052 L50.2129844,196.723052 C46.9772483,205.232903 43.0183936,220.079346 42.2728805,224.51515 L42.2728805,224.51515 L42.2728805,224.51515 C41.0301721,232.123207 45.3566517,247.15173 45.3566517,247.15173 L44.8452156,246.302103 C45.1276739,246.771339 45.6622632,247.491641 46.0242591,247.894264 L52.063594,254.611404 L59.3775778,256.847051 L45.8188705,254.947011 L49.6151466,258.039809 C53.8946838,261.526315 59.972636,267.991799 63.1858116,272.474145 L67.3775045,278.321513 C69.6280635,281.461019 71.5823478,287.139486 71.7421308,290.995318 L71.9644413,296.360044" id="Path-10" fill="#321202"></path>
                                <path d="M141.784581,29.0677806 L157.021533,64.1558335 L168.452392,102.922239 L174.646849,122.925274 L189.002196,133.558721 L202.942386,136.386436 L195.285685,127.061364 L190.220572,91.9075047 L191.242497,121.99625 L180.720704,84.2284221 C179.089853,78.3745059 174.787468,69.7184892 171.096777,64.8759288 L158.958934,48.9498493 L177.281985,84.1791912 L184.078372,111.945378 L171.077679,81.0705626 C168.291613,74.4540478 163.017109,64.1124245 159.294613,57.9683823 L141.784581,29.0677806 Z" id="Path-12" fill="#250E02"></path>
                                <path d="M143,2 L158.715581,10.1270131 L158.715581,10.1270131 C169.602828,19.864319 188.110415,41.2007634 197.73558,54.5650254 L189.554716,43.2061338 C194.072883,49.4794764 200.454005,60.2114837 203.809312,67.1808134 L213.089359,86.4564593 L222.419671,96.5096788 L210.170463,86.1818136 C203.415314,80.4862404 194.464848,69.6046892 190.183719,61.8856323 L190.312806,62.1183813 C185.223205,52.9416129 176.024123,38.682811 169.759475,30.2615756 L164.852436,23.6653017 L143,2 Z" id="Path-13" fill="#250E02"></path>
                                <path d="M101.927809,29.5200723 L101.927809,51.2661979 L107.212552,75.5101825 L113.813965,92.3388677 L124.965515,112.110992 L130.060586,117.274305 L141.636642,121.645809 L115.898357,87.2066657 C115.898357,87.2066657 108.487281,68.4146781 106.180893,58.8912412 C103.874506,49.3678042 101.927809,29.5200723 101.927809,29.5200723 Z" id="Path-14" fill="#250E02"></path>
                                <path d="M193.127886,13.5994823 L203.291797,21.6654652 C205.459169,23.3854701 208.51504,26.5983464 210.126417,28.8544213 L207.500054,25.1772738 C215.192184,35.9469578 225.030615,54.7751962 228.069657,63.2929841 L228.069657,63.2929841 L231.895232,83.911788 L236.082171,98.4767468 L241.04543,107.410127 L234.246256,97.9391776 C231.991206,94.7979924 229.473694,89.1940061 228.623137,85.4218841 L225.623757,72.1199858 L223.834543,66.9272188 C220.596636,57.5299711 213.477892,43.2187055 207.936644,34.9654788 L204.697998,30.1417868 L193.127886,13.5994823 Z" id="Path-15" fill="#250E02"></path>
                                <path d="M204,22 L218.73579,35.6585918 L227.013818,46.6040465 C232.678409,54.0939378 240.037123,67.2669391 243.438411,75.9971109 L246.168623,83.0048124 L238.25956,77.4725092 L238.25956,77.4725092 C234.832878,67.5079476 226.645834,51.7050819 219.956982,42.1525398 L214.267878,34.027766 L204,22 Z" id="Path-16" fill="#250E02"></path>
                                <path d="M80.9711493,93.4175781 L84.2548292,97.6704896 C89.9925989,105.101855 101.0667,115.210059 104.213311,117.210834 L101.67403,115.59623 C103.076436,116.487951 105.510089,117.591633 107.096488,118.057479 L121.096713,122.168646 L111.601005,114.156702 C108.224902,111.308137 103.246815,106.207896 100.483088,102.766182 L102.900493,105.776616 C98.7522245,100.61071 94.1651575,91.1934014 92.6547208,84.7413084 L90.4773903,75.440463 C89.2177501,70.0596913 88.4196515,61.223561 88.6946083,55.7079989 L89.0989138,47.5977357 L91.1824151,68.1288562 L99.1883099,93.2425859 L104.007319,100.12785 C107.809025,105.559619 115.143628,113.245529 120.39591,117.299671 L128.366703,123.452183 L118.534044,124.090761 C116.882597,124.198014 114.359649,123.670868 112.885548,122.906434 L106.763272,119.731566 L97.335086,115.54623 C94.8159301,114.427933 91.399296,111.758108 89.7021648,109.580886 L87.0958776,106.237322 L80.9711493,93.4175781 Z" id="Path-17" fill="#250E02"></path>
                                <polygon id="Path-18" fill="#250E02" points="198.850043 81.755393 199.970118 91.0615389 212.880496 100.762033 222.659703 102.791234"></polygon>
                                <path d="M195.178118,91.3386059 L208.159337,100.435377 L219.240654,103.924987 L234.401205,106.757543 L234.401205,106.757543 C236.826048,108.182975 237.477309,112.173132 235.845614,115.691854 L235.713337,115.977105 L234.19276,117.591188 C230.781903,121.211792 224.040277,123.541879 219.114191,122.792431 L211.055947,121.56646 L217.45683,120.35168 C222.882512,119.321977 230.329557,115.207562 232.931648,112.408293 L232.931648,112.408293 L232.931648,112.408293 C228.356266,114.215406 219.321312,116.408674 212.748884,117.307454 L220.852128,116.199335 C212.209736,117.381182 199.209475,114.599543 196.705784,113.037522 L196.705784,113.037522 L195.144271,103.094276 L195.144271,103.094276 C199.01189,108.238266 207.772944,110.880293 214.690086,109.001532 L216.698039,108.456153 L228.016856,108.456153 L207.532001,104.74802 L199.952349,101.157175 C196.960016,99.7395639 194.772174,95.9106796 195.06449,92.6183816 L195.178118,91.3386059 Z" id="Path-19" fill="#250E02"></path>
                                <path d="M241.198792,120.795868 L233.851793,129.603765 L228.410163,131.360588 C224.353103,132.670405 217.712822,132.871408 213.582604,131.81055 L209.894155,130.863161 L204.856572,129.533711 L207.949817,131.748964 C211.415016,134.230595 217.675863,136.242354 221.939832,136.242354 L224.336273,136.242354 L230.065328,135.674691 C234.31142,135.253968 238.671324,131.588342 239.80886,127.467675 L241.112209,122.746356 L241.198792,120.795868 Z" id="Path-20" fill="#250E02"></path>
                                <polygon id="Path-21" fill="#250E02" points="246.723603 113.233197 246.374121 124.14035 242.665201 130.840334 233.988753 140.61954 246.365462 136.368293 252.016213 130.087845 255.374863 120.238585 255.164702 114.509122 251.037033 116.949988"></polygon>
                                <path d="M237,69 L243.944464,82.0019995 L249.728373,97.9688962 L249.542567,105.62392 L247.80705,108.79163 C245.527092,112.953069 243.621026,120.183561 243.549999,124.923639 L243.549628,124.948372 L254.187694,115.931746 L253.872696,92.461518 L249.679018,114.261678 L250.130466,88.0486478 L237,69 Z" id="Path-22" fill="#250E02"></path>
                                <path d="M243,69 L243.553603,83.7763659 C243.628316,85.7705375 244.109212,88.9440724 244.631042,90.8769817 L246.065529,96.1904619 C246.585869,98.1178521 247.007688,101.303004 247.007688,103.299092 L247.007688,108.640888 L247.007688,108.640888 C248.785734,108.187975 250.126214,106.200081 250.002666,104.215786 L248.913601,86.7243299 C248.789636,84.7333266 248.08569,81.6216542 247.340895,79.7732226 L243,69 Z" id="Path-23" fill="#250E02"></path>
                                <polygon id="Path-25" fill="#250E02" points="53.5004967 52.1309269 42.2968007 79.5542994 39.8308972 97.7300554 39.8308972 115.555726 45.0171381 133.231223 37.8853395 124.132823 32.2839698 101.791431 32.7937939 119.541536 37.9599479 133.965829 47.1874775 137.877031 44.29688 115.184597 44.6364439 80.5978606"></polygon>
                                <path d="M52.3332182,197.271472 L47.8331362,210.024502 L50.9647795,234.05724 L61.5417301,252.352033 L59.4267009,243.242159 C56.4704108,230.508797 54.6336815,213.117574 54.6336815,213.117574 L54.6336815,213.117574 L63.0601779,246.356776 L81.6554966,266.972413 L92.2661899,282.858392 L95.1846369,271.196914 L90.7274656,250.54108 L83.2492658,231.942007 L76.2388381,221.363791 L72.7736311,206.339687 L76.5014471,181.729331 L69.6038592,174.944583 L72.7849151,188.214541 L60.860828,180.930221 L52.3332182,197.271472 Z" id="Path-26" fill="#250E02"></path>
                                <polygon id="Path-27" fill="#250E02" points="84.9962307 188.367388 83.3774928 205.021513 83.3774928 218.404311 89.9314323 234.217267 86.4662253 208.067161 86.7288342 202.275403 96.9053536 234.217267 103.256486 226.405583 110.148609 222.551835 117.303285 201.771728"></polygon>
                                <path d="M171.05758,184.043322 L152.970839,192.084609 L153.432942,205.424867 L152.970839,213.032525 L157.610878,218.235973 L171.428747,209.220817 L181.695705,196.114897 L189.087117,175.861684 C189.087117,175.861684 187.639043,173.536361 186.668351,173.536361 C185.697659,173.536361 184.380984,175.861684 184.380984,175.861684 L183.884127,175.566347 L170.889291,190.881309 L161.856896,194.369481 L171.05758,184.043322 Z" id="Path-28" fill="#250E02"></path>
                                <path d="M170.317726,222.461122 L178.083401,231.724813 L180.882587,245.670547 L173.708442,257.286579 L164.084518,270.848458 L160.672149,284.192819 L159.304975,310.981151 L176.162159,298.079498 L188.712442,305.697964 L215.306472,319.659018 L215.306472,319.659018 C210.33487,314.645016 203.483021,302.552368 202.718009,300.375736 L202.718009,300.375736 L203.565202,300.117107 C209.90459,298.181829 219.898089,294.31196 225.887434,291.472976 L215.04368,296.612977 C221.453057,293.574896 233.235916,283.208921 233.550394,282.831612 L233.550394,282.831612 L233.550394,282.831612 C237.093956,288.342443 233.706204,299.205152 225.974392,307.103599 L224.297529,308.816601 L243.175302,298.153316 L243.427268,284.721357 L246.84948,273.028555 L255.413375,266.904597 L267.554008,255.988363 L257.055092,255.988363 L265.684931,250.836837 L271.886644,236.148 C271.886644,236.148 272.581685,231.280795 272.45282,228.84492 C272.323955,226.409044 271.09925,221.264283 271.09925,221.264283 L265.675088,202.932764 L241.187132,159.819985 L244.49025,184.954588 L252.627968,213.55471 L260.239116,228.84492 L264.319786,236.075166 L246.734323,226.02408 L225.546466,197.194526 L235.271834,213.42479 L248.988239,232.379335 L231.58683,218.81844 L218.899942,194.516505 L210.161836,208.570506 L198.185572,219.059579 L180.259561,222.384351 L170.317726,222.461122 Z" id="Path-29" fill="#2A0F01"></path>
                                <path d="M130.89889,213.54572 L126.377161,215.513986 L117.24291,217.849544 L117.24291,217.849544 C112.339523,219.279585 102.353431,225.474376 102.353431,225.474376 L102.353431,225.474376 L98.2392234,230.547107 C98.2392234,230.547107 96.6526766,234.521075 96.2496993,236.377623 C95.8467219,238.234171 96.0988689,240.407886 96.0988689,240.407886 L96.2496993,243.164621 L94.8123242,254.825815 L90.7760595,295.852077 L89.8470822,312.705786 L168.800175,312.705786 L168.800175,312.705786 C172.213521,305.654531 174.228874,279.208902 174.048632,274.238479 L174.048632,274.238479 L177.555464,261.212978 L179.359902,249.033285 L182.499356,239.630383 L182.499356,239.630383 C181.437212,233.634386 174.448377,225.079581 170.041957,222.423209 L170.041957,222.423209 L162.187709,219.261239 L159.657275,217.849544 L156.890566,216.231573 L148.145689,221.391229 L144.086133,216.939241 L137.930909,220.945162 L130.89889,213.54572 Z" id="Path-3" fill="#171A1E"></path>
                                <polygon id="Path-30" fill="#1A0A01" points="181.578262 223.754175 180.67894 234.842132 175.71244 270.871096 164.277812 292.59459 181.444007 265.638846 186.021536 242.944304 187.492819 221.883807"></polygon>
                                <path d="M200.532066,218.22491 L200.532066,232.255433 L197.91686,259.445663 L208.605731,247.930115 L211.944781,242.141688 C214.524595,237.669437 215.678636,229.969592 214.519972,224.933033 L210.659091,208.150299 L200.532066,218.22491 Z" id="Path-31" fill-opacity="0.770040761" fill="#1A0A01"></path>
                                <polygon id="Path-32" fill-opacity="0.770040761" fill="#1A0A01" points="218.519421 199.148805 223.414195 219.719182 226.274921 239.990704 222.756716 258.762436 213.202571 277.462444 231.320503 251.252456 236.878274 223.060833 231.575219 218.084218"></polygon>
                                <path d="M53.2686488,141.801164 L52.9698533,152.248239 L54.5220754,160.317627 C55.5811224,165.823193 58.2263473,174.474364 60.4240362,179.625758 L61.5687145,182.30889 L73.2782964,189.723727 L71.7313195,180.303953 C70.8227233,174.771375 69.2348088,165.820843 68.1834313,160.306182 L68.8352154,163.724905 C67.784367,158.213019 66.1503921,149.265791 65.1865298,143.745865 L63.3886638,133.449696 L54.723939,111.394823 L53.8763342,120.901631 L55.6112324,129.561317 C55.6112324,129.561317 57.0341001,135.268433 58.3150143,137.915847 C59.5959285,140.56326 62.5508251,143.904173 62.5508251,143.904173 L53.2686488,141.801164 Z" id="Path-33" fill="#361505"></path>
                                <path d="M57.9828922,177.139124 L46.8686389,203.369395 C46.8686389,203.369395 41.9286221,216.278984 40.8931674,222.903711 C39.8577127,229.528437 40.1201526,232.421957 40.1201526,232.421957 L44.6788886,249.709777 L43.5614346,256.808402 L44.6788886,256.808402 L58.9055849,267.560637 L64.4745874,276.410721 L65.4140112,277.507452 L71.9945465,297.104849 C71.9945465,297.104849 72.8526552,294.047085 72.7864689,292.798962 C72.7202826,291.55084 70.439844,271.329679 70.439844,271.329679 L69.6597823,253.480539 L62.985691,245.761823 L54.4036991,207.018225 L52.5915496,220.93854 L60.6196093,249.709777 L52.5915496,234.237398 L49.3106885,208.898429 L61.9498378,181.079164 L57.9828922,177.139124 Z" id="Path-34" fill="#3D1704"></path>
                                <path d="M133.154249,199.113593 L132.404619,215.411988 L143.903784,219.341298 L153.397534,210.624715 L152.850076,193.638283 C152.850076,193.638283 145.801722,196.201567 142.249815,197.188974 C138.697907,198.176381 133.154249,199.113593 133.154249,199.113593 Z" id="Path-4" fill="#E8CA9F"></path>
                                <g id="Group-5" transform="translate(142.177618, 242.609286) rotate(3.000000) translate(-142.177618, -242.609286) translate(124.177618, 216.609286)">
                                    <polygon id="Path-36" fill="#A8A8A8" transform="translate(16.967268, 5.448467) rotate(-3.000000) translate(-16.967268, -5.448467) " points="13.8128682 1.01377984 17.4744478 2.10303191 21 0.896933595 20.8586591 6.18783657 16.5185369 10 12.9345354 3.93143494"></polygon>
                                    <polygon id="Path-37" fill="#D5D5D5" points="13.9153026 5.75515151 0.784512802 34.3252677 1.3670442 41.802257 6.15035224 32.448534"></polygon>
                                    <polygon id="Path-38" fill="#D5D5D5" points="20.3365125 4.70366295 33.8760395 42.1129405 35.1655628 32.7592174"></polygon>
                                    <polygon id="Path-39" stroke="#4A4949" fill="#A4A4A4" points="1.3104287 42.6659944 7.98169995 44.5010852 15.8758573 9.08248491 14.0643571 6.76428004"></polygon>
                                    <polygon id="Path-40" stroke="#4A4949" fill="#A4A4A4" points="18.3270635 8.85167646 29.9134223 44.4243502 34.4421945 43.8104697 20.7262704 5.8607715"></polygon>
                                    <polygon id="Path-41" fill="#818080" points="7.68080382 31.1197213 2.53349498 50.3815906 11.5938091 50.17152 13.3409544 52 18.2818209 29.2034018 16.5669285 9.35290669 8.53596163 29.426061"></polygon>
                                    <polygon id="Path-42" fill="#818080" points="19.4751775 29.4659726 21.1832076 50.8512485 25.0116929 48.9454558 33.2643126 49.9401561 27.9647613 30.5682622 18.9653075 8.20415522 16.9134754 8.92498087"></polygon>
                                    <path d="M15.7654044,9.07971781 L8.48755993,44.1864101 C8.48755993,44.1864101 8.87150338,44.3296707 8.90511422,44.1864101 C8.93872505,44.0431496 16.5530245,9.80872265 16.5530245,9.80872265 L15.7654044,9.07971781 Z" id="Path-43" fill="#4B4B4B"></path>
                                    <path d="M26.7810648,8 L19.5032203,43.1066923 C19.5032203,43.1066923 19.8871638,43.2499528 19.9207746,43.1066923 C19.9543855,42.9634318 27.5686849,8.72900485 27.5686849,8.72900485 L26.7810648,8 Z" id="Path-43" fill="#4B4B4B" transform="translate(23.535953, 25.585182) scale(-1, 1) rotate(3.000000) translate(-23.535953, -25.585182) "></path>
                                </g>
                                <circle id="Oval" fill="#363636" cx="85.1846369" cy="141" r="10"></circle>
                                <g id="Group" transform="translate(141.451427, 217.298611) rotate(6.000000) translate(-141.451427, -217.298611) translate(123.451427, 206.298611)" fill="#767676">
                                    <polygon id="Path-6" transform="translate(10.241846, 11.685877) rotate(-20.000000) translate(-10.241846, -11.685877) " points="8.64555706 3.84373636 2.21631583 9.81891022 12.0162358 19.5280167 18.2673768 14.2176327"></polygon>
                                    <polygon id="Path-6" transform="translate(26.507398, 9.966347) scale(-1, 1) rotate(-9.000000) translate(-26.507398, -9.966347) " points="24.9111085 2.12420694 18.4818673 8.09938081 28.2817872 17.8084873 34.5329283 12.4981033"></polygon>
                                </g>
                                <path d="M117.142809,177.374707 C118.996935,175.541587 122.003424,175.541942 123.857191,177.374707 L132,185.425265 L109,185.425265 L117.142809,177.374707 Z" id="Triangle" fill-opacity="0.945510643" fill="#FFFFFF" transform="translate(120.500000, 180.712633) scale(-1, -1) translate(-120.500000, -180.712633) "></path>
                                <polygon id="Path-24" stroke="#636363" points="141.896316 217.363084 146.344728 224.07921 158.146269 217.293943 153.612805 210.123685"></polygon>
                                <polygon id="Path-35" stroke="#636363" transform="translate(133.437505, 217.183659) rotate(-10.000000) translate(-133.437505, -217.183659) " points="130.98563 209.62074 141.597498 218.774793 136.001828 224.746578 125.277511 216.270185"></polygon>
                            </g>
                            <path d="M75,133.016277 L77.1201005,132.478688 C77.6620596,132.341264 78.4457059,131.944615 78.8784273,131.586115 L79.5858879,131" id="Path-7" stroke="#2A2A2A" transform="translate(77.292944, 132.008139) scale(-1, 1) translate(-77.292944, -132.008139) "></path>
                            <path d="M73,135.664487 L75.1600979,135.292911 C75.6086587,135.21575 76.3126457,134.992852 76.7200116,134.800935 L78.4200935,134" id="Path-8" stroke="#2A2A2A" transform="translate(75.710047, 134.832243) scale(-1, 1) translate(-75.710047, -134.832243) "></path>
                            <ellipse id="Oval-3" fill="#FFFFFF" cx="90" cy="139.5" rx="5" ry="5.5"></ellipse>
                        </g>
                        <path d="M142.546016,335.410409 L170.673971,312.653218 L150.230098,312.653218 L150.230098,312.653218 C148.012639,312.653218 142.546016,312.653218 142.546016,312.653218 L142.546016,312.653218 L142.546016,335.410409 Z" id="Path-46" fill="#A0A0A0"></path>
                        <g id="Group-11" transform="translate(172.655977, 326.473997) rotate(-15.000000) translate(-172.655977, -326.473997) translate(155.655977, 313.973997)">
                            <g id="Group-10" transform="translate(3.000000, -0.000000)" stroke="#C2C2C2" stroke-opacity="0.572775136" stroke-width="0.6" fill="#FFFFFF">
                                <ellipse id="Oval-5" cx="14.707267" cy="9.70436662" rx="14.707267" ry="9.70436662"></ellipse>
                            </g>
                            <path d="M17.7000332,7.25931475 C18.0110585,3.57241695 15.3701083,1.38661977 11.8202122,2.41257661 C11.8202122,2.41257661 9.2487092,3.03366259 7.98548921,3.69878897 C6.72226922,4.36391535 7.26040074,4.1207869 7.26040074,4.1207869 C4.49858636,5.94496481 3.51440687,9.78943491 5.09157144,12.7239575 C5.09157144,12.7239575 6.09552233,14.7026382 6.66470357,15.4976744 C7.23388481,16.2927107 11.4966159,20.5945504 11.4966159,20.5945504 C14.0787418,23.2336234 16.4242191,22.3828317 16.7351295,18.6972958 L17.7000332,7.25931475 Z" id="Path-47" fill-opacity="0.0462805707" fill="#949494" transform="translate(11.031734, 12.144044) rotate(-29.000000) translate(-11.031734, -12.144044) "></path>
                            <ellipse id="Oval-6" fill="#8C8C8C" cx="8.96096893" cy="10.7464897" rx="1.96096893" ry="1"></ellipse>
                        </g>
                        <path d="M168.563976,222.018404 C163.459458,223.042113 159.520697,229.442961 159.765767,236.294388 L162.305569,307.299767 L180.644694,308.836063 C182.849655,309.020776 184.508138,307.391099 184.348173,305.1844 L179.079197,232.499681 C178.582368,225.645999 172.725608,221.18379 168.563976,222.018404 L168.563976,222.018404 L168.563976,222.018404 Z" id="Path-5" fill="#3A3A3A" transform="translate(172.196027, 265.544409) scale(-1, 1) rotate(-2.000000) translate(-172.196027, -265.544409) "></path>
                        <path d="M101.526371,221.69149 C96.2031177,222.758081 92.0872207,229.193692 92.3333228,236.067632 L94.8746646,307.050498 L117.226853,308.921247 L111.663787,232.250412 C111.166499,225.39673 105.296734,220.936043 101.526371,221.69149 L101.526371,221.69149 L101.526371,221.69149 Z" id="Path-5" fill="#3A3A3A" transform="translate(104.774845, 265.264787) rotate(7.000000) translate(-104.774845, -265.264787) "></path>
                        <path d="M100.825316,318.351074 C106.072021,318.351074 105.286239,314.196029 110.325316,308.851074 C115.364393,303.50612 106.072021,299.351074 100.825316,299.351074 C95.5786111,299.351074 91.3253162,303.604369 91.3253162,308.851074 C91.3253162,314.097779 95.5786111,318.351074 100.825316,318.351074 Z" id="Oval-4" fill="#F4D7AB" transform="translate(101.550722, 308.851074) rotate(-2.000000) translate(-101.550722, -308.851074) "></path>
                        <path d="M158.537007,327.221243 C158.593129,327.762114 159.042338,328.002344 159.539448,327.758253 L170.366899,322.441748 L164.620716,316.961939 C164.620716,316.961939 163.383692,317.399704 162.911549,317.764004 C162.439406,318.128303 160.986382,319.766145 160.986382,319.766145 C160.986382,319.766145 160.014365,320.500673 159.43935,321.502161 C158.864334,322.50365 158.802591,323.543827 158.638624,324.259454 C158.29296,325.76809 158.537007,327.221243 158.537007,327.221243 Z" id="Path-99" fill-opacity="0.679574275" fill="#D8D8D8"></path>
                        <path d="M166.444747,321.163894 C169.931209,321.163894 172.560965,318.773943 175.633369,316.361599 C178.705772,313.949256 179.094778,314.763528 180.785363,312.970323 C185.82444,307.625369 171.691452,302.163894 166.444747,302.163894 C161.198041,302.163894 156.944747,306.417189 156.944747,311.663894 C156.944747,316.910599 161.198041,321.163894 166.444747,321.163894 Z" id="Oval-4" fill="#FFE0B2" transform="translate(169.399303, 311.663894) scale(-1, 1) rotate(53.000000) translate(-169.399303, -311.663894) "></path>
                    </g>
                    <g id="Group-9" transform="translate(88.000000, 251.000000)">
                        <rect id="Rectangle" fill="#D8D8D8" x="0" y="-2.84217094e-14" width="128.603897" height="84.6438333"></rect>
                        <g id="Group-8" transform="translate(56.672904, 25.509100)" fill-opacity="0.648635643" fill="#8A8A8A">
                            <path d="M9.07356948,5.79930729 L9.07356948,5.16973482 L9.07356948,5.16973482 C9.07356948,4.66475853 9.60502607,3.32827658 9.81570809,2.96074505 L9.81570809,2.96074505 L10.6126342,1.66457225 L10.6126342,1.66457225 C10.9393329,1.36784546 12.0322736,0.656264392 12.0322736,0.656264392 L12.0322736,0.656264392 L13.8654497,0.0955904535 L13.8654497,0.957863291 C13.8654497,1.50605998 13.6666167,2.34671188 13.4186351,2.84090976 L12.9278864,3.81891351 L11.8666773,4.89628802 L10.9390322,5.47738538 C10.9390322,5.47738538 10.2472239,5.73947448 9.90050666,5.79930729 C9.55378939,5.85914011 9.07356948,5.79930729 9.07356948,5.79930729 Z" id="Path-44"></path>
                            <path d="M10.3060276,6.66055443 L12.1459592,5.99503263 L14.4511019,5.85756483 L15.0828485,5.94304901 C16.1752672,6.0908686 17.6838197,6.85383744 18.4576053,7.65266985 L18.7338712,7.93787819 C18.7338712,7.93787819 17.9544494,8.73060608 17.5872633,9.17399184 C17.2200773,9.61737761 16.7806582,10.2964286 16.7806582,10.2964286 C16.7806582,10.2964286 16.4244933,11.1396971 16.3432064,11.5760435 C16.2619194,12.01239 16.2681242,13.0476986 16.2681242,13.0476986 C16.2681242,13.0476986 16.2633873,13.7025859 16.3432064,14.0128945 C16.4230254,14.323203 16.8598691,15.3481948 16.8598691,15.3481948 C16.8598691,15.3481948 17.3013289,16.0359733 17.5872633,16.3363089 C17.8731978,16.6366445 18.3467955,16.9100104 18.3467955,16.9100104 L19.5141724,17.7506142 C19.5141724,17.7506142 18.8972276,19.1992494 18.5358418,19.9054911 C18.1744561,20.6117327 17.4663737,21.7525451 17.4663737,21.7525451 C17.4663737,21.7525451 16.7186184,22.7482268 16.2681242,23.1811775 C15.8176301,23.6141283 15.2932397,23.8410515 15.2932397,23.8410515 L15.2932397,23.8410515 C14.9502607,24.0626596 13.3107531,24.1969947 13.3107531,24.1969947 L14.6722213,24.2423085 C13.9203032,24.2172824 11.6308755,23.5860896 10.999246,23.3563909 L10.999246,23.3563909 C10.999246,23.3563909 10.6203838,23.2049935 10.4323662,23.1811775 C10.2443486,23.1573616 9.61600715,23.1811775 9.61600715,23.1811775 L7.35222342,23.9312851 C7.35222342,23.9312851 6.82442611,24.2027665 6.56159049,24.2423085 C6.29875488,24.2818505 5.71351706,24.1778184 5.71351706,24.1778184 C5.71351706,24.1778184 5.13733922,24.089092 4.88697707,23.9312851 C4.63661492,23.7734782 4.1977623,23.3563909 4.1977623,23.3563909 C4.1977623,23.3563909 3.60187622,22.7807922 3.23233983,22.3333491 C2.86280345,21.8859059 2.10105697,20.9092229 2.10105697,20.9092229 C2.10105697,20.9092229 1.3976741,19.5745073 1.16432857,19.0324217 C0.930983029,18.4903362 0.32496151,16.4505679 0.32496151,16.4505679 L0.32496151,16.4505679 C0.145490224,15.533754 -3.55271368e-15,12.4383922 -3.55271368e-15,12.4383922 L-3.55271368e-15,12.4383922 C-3.55271368e-15,12.4383922 0.124208071,10.7881702 0.32496151,9.99855314 C0.52571495,9.20893608 1.0060031,8.48151243 1.0060031,8.48151243 C1.0060031,8.48151243 1.69688233,7.56414758 2.10105697,7.16392125 C2.50523161,6.76369491 2.99586961,6.51108457 2.99586961,6.51108457 L2.99586961,6.51108457 C3.76150961,6.09829667 5.54679563,5.99503263 5.54679563,5.99503263 L5.54679563,5.99503263 L5.54679563,5.99503263 C7.18360348,6.11414246 9.10925415,6.49098888 9.10925415,6.49098888 L9.10925415,6.49098888 L9.51736325,6.66055443 L10.3060276,6.66055443 Z" id="Path-45"></path>
                        </g>
                    </g>
                    <g id="Group-14" transform="translate(271.000000, 282.000000)">
                        <path d="M1.16186041,6.11127725 L15.3098606,6.58265187 C16.0543771,6.60745723 17.2526442,6.60603897 17.9997842,6.57899475 L30.9212334,6.11127725 L30.9491296,6.13112531 C31.5569881,6.56361489 31.6822722,7.38300183 31.2226136,7.96937229 L30.7552776,8.56553657 L18.222779,8.7874088 C17.4810308,8.80054053 16.2779946,8.79405396 15.5330086,8.77284337 L2.00003856,8.3875446 L0.524262017,7.93148056 L0.524262017,7.93148056 C0.176342577,7.42482948 0.380745667,6.66763187 0.98561131,6.23681194 L1.16186041,6.11127725 Z" id="Path-49" fill="#E7E6E6"></path>
                        <path d="M5.54610386,46.4840456 L4.45979921,47.5341003 C3.66417165,48.3031779 3.83940185,49.3009971 4.84054419,49.7579344 L5.48818078,50.0535261 C6.86784143,50.6832253 9.21058067,51.2889596 10.7306451,51.4072349 L13.9649631,51.6588951 L20.6086332,51.4803252 L23.5817826,50.9779951 C25.0768064,50.7254025 27.4048542,49.9864643 28.7716535,49.332302 L26.9969709,50.1816809 C28.3682337,49.5253823 28.7230443,48.0375759 27.774191,46.8392861 L27.2444232,46.1702519 C27.2444232,46.1702519 25.1720783,47.4369491 24.6037134,47.7266108 C24.0353484,48.0162725 22.9266269,47.9887241 22.9266269,47.9887241 C22.9266269,47.9887241 21.7266861,47.9190663 20.6086332,47.9887241 C19.4905803,48.0583818 16.9603166,49.2119617 16.9603166,49.2119617 L13.633099,47.9887241 C13.633099,47.9887241 11.9752686,50.1253067 11.2448045,50.0662358 C10.5143404,50.007165 8.8083904,49.6921774 8.8083904,49.6921774 C8.8083904,49.6921774 7.26282868,48.8003166 6.60540685,48.5054098 C5.94798501,48.210503 5.54610386,46.4840456 5.54610386,46.4840456 Z" id="Path-51" fill-opacity="0.819180254" fill="#2C2C2C"></path>
                        <path d="M1.52074496,8.24542214 L4.36919692,46.179588 C4.45187662,47.2806722 5.35593328,48.5169133 6.36931621,48.9329489 L7.35039641,49.3357229 C8.3723521,49.7552779 10.1015992,50.0829085 11.2086411,50.0675635 L20.604435,49.9373266 C21.713329,49.921956 23.4501945,49.6070695 24.4859139,49.2332568 L25.5491403,48.8495161 C26.5839279,48.4760397 27.5019983,47.2888196 27.6014591,46.1782335 L30.9766128,8.49102603 L1.52074496,8.24542214 Z" id="Path-50" fill="#6C3326"></path>
                        <path d="M1.71752649,6.17115619 L1.59709509,5.90390432 C1.30097483,5.24677756 1.64667904,4.71407108 2.35861107,4.71407108 L9.84743852,4.71407108 C10.5641324,4.71407108 11.7226706,4.67803485 12.4515216,4.63255765 L15.2354477,4.45885248 C15.9569492,4.41383386 16.7719408,4.91222451 17.1396902,5.51761707 C17.1396902,5.51761707 17.0421755,5.82214949 17.7799721,6.02015548 C18.5177687,6.21816147 21.1244615,6.08362269 21.6822812,6.02015548 C22.6041344,5.91526955 23.8944676,4.77458511 23.8944676,4.77458511 C24.4549095,4.33449458 25.4926375,4.00056548 26.2103336,4.0286567 L28.8716655,4.13282341 C29.5902411,4.16094904 30.2762963,4.76661984 30.4019072,5.47377299 L30.5516564,6.31681831 L23.3531287,6.51236856 C23.3531287,6.51236856 18.9970268,6.62945163 16.8309516,6.62945163 L14.8867676,6.62945163 C14.1729749,6.62945163 13.0214886,6.60734709 12.3006963,6.57953356 L1.71752649,6.17115619 Z" id="Path-52" fill="#C38F47"></path>
                        <polygon id="Path-53" fill="#F0E0BC" points="4.19377949 5.11063447 5.90408718 1.7356032 10.9146625 5.38236217"></polygon>
                        <polygon id="Path-54" fill="#F0E0BC" points="22.4364569 5.60347428 25.0672846 1.55889177 27.6981122 3.97626252"></polygon>
                        <polygon id="Path-55" fill="#47A511" points="7.68329385 3.06948858 11.0267957 0.493174786 11.3798723 1.36423314 11.4611927 1.99404009 11.8388878 2.24134734 12.2766203 3.21437288 12.6433309 4.22085901 12.1388 6.34777809"></polygon>
                        <path d="M24.8844527,5.29890734 L16.4037892,2.08471396 L16.9968563,3.34891064 L15.6714292,4.20556593 L17.1848693,6.22059177 C17.1848693,6.22059177 19.6560994,6.35906371 20.8128687,6.22059177 C21.969638,6.08211984 24.8844527,5.29890734 24.8844527,5.29890734 Z" id="Path-56" fill="#299207"></path>
                        <polygon id="Path-57" fill="#CCB47F" points="12.7091114 2.65576293 12.391151 5.63935406 15.8559883 4.59772223 16.9492173 3.43287949"></polygon>
                        <polygon id="Path-58" fill="#AE9C72" points="20.4650005 3.6884558 23.1222508 1.87121341 24.255458 2.88786466 23.1222508 4.67995834"></polygon>
                        <path d="M22.9371904,8.4181635 L22.6345404,43.0142581 L22.3832408,49.7960504 L22.3832408,49.7960504 C23.9255603,49.8725593 26.4463802,48.4884758 26.8751948,48.0004 L26.8751948,48.0004 L26.8751948,48.0004 C27.4786022,47.2485157 28.1178656,44.7174229 28.301562,42.3658318 L30.9534108,8.4181635 L22.9371904,8.4181635 Z" id="Path-59" fill="#59291E"></path>
                        <g id="Group-12" transform="translate(6.153846, 18.587031)" stroke="#000000">
                            <polygon id="Path-60" stroke-width="0.2" fill="#FFFFFF" points="0.0401828143 3.7777311 0.533015583 4.28484127 1.00167431 3.42026443 1.79385932 2.0385651 2.40959148 2.07469061 2.93418576 3.14506109 2.93418576 4.42771969 1.94596166 5.46061165 2.01654279 7.12955615 1.76650913 8.53385084 0.802811968 8.18504347 1.26555953 6.53882963 0.740082985 4.7360719 0.104764552 5.24128786"></polygon>
                            <polygon id="Path-61" stroke-width="0.2" fill="#FFFFFF" points="2.95059588 1.31551367 3.70166737 1.31551367 3.7612202 3.7690718 4.3152821 3.03830818 4.79276348 3.91627987 4.79276348 5.62134988 4.79276348 6.15971471 4.27699184 6.44547156 4.13686216 4.07072963 3.87106209 4.43976153 3.87106209 6.05282649 3.23768464 7.11900263"></polygon>
                            <polygon id="Path-62" stroke-width="0.2" fill="#FFFFFF" points="4.96971163 3.05812484 5.24623943 6.17536387 5.69058133 6.11430467 5.67673939 2.59719944"></polygon>
                            <polygon id="Path-63" stroke-width="0.2" fill="#FFFFFF" points="4.66083412 1.17745383 5.69781336 0.864883206 5.77386628 1.96621464 4.84147925 2.02977822"></polygon>
                            <polygon id="Path-64" stroke-width="0.2" fill="#FFFFFF" points="6.00210281 0.918310005 6.61962453 0.992964415 6.6265455 5.78348784 6.25413503 5.78348784"></polygon>
                            <polygon id="Path-65" stroke-width="0.2" fill="#FFFFFF" points="7.26043127 1.9543222 8.46698211 1.92812159 7.49430607 4.61275195 8.49769618 4.76661921 8.44081117 5.57687555 6.81603714 5.49935315 7.61876202 2.84965692 7.04018583 2.60433285"></polygon>
                            <g id="Group-18" transform="translate(13.000000, 0.000000)">
                                <path d="M2.05553417,2.37470952 L2.16572088,3.25120336 L2.77936229,2.07561042 L2.38116724,0.707192752 L1.93451368,0.309471391 C1.42782841,-0.141705031 0.892829354,0.0206115469 0.737414291,0.681134328 L0.579403419,1.35268945 L0.341177455,3.01775298 L0.368948088,4.69920416 C0.368948088,4.69920416 0.345734166,5.45995936 0.440486264,5.7654807 C0.535238362,6.07100203 0.903628765,6.4232436 0.903628765,6.4232436 L1.32157816,6.84242867 C1.79570133,7.3179536 2.3679302,7.19641065 2.60307804,6.56180354 L2.75383123,6.15495719 L2.18005411,4.71667123 L2.14470476,5.20114153 C2.0954572,5.87608986 1.8140227,5.93092879 1.51506361,5.32150853 L1.26490295,4.81156258 L1.35026246,2.67547683 L1.50604644,1.89755885 C1.63769999,1.24013781 1.84286277,1.23480548 1.96721531,1.90132652 L2.05553417,2.37470952 Z" id="Path-66" stroke-width="0.2" fill="#FFFFFF"></path>
                                <path d="M2.92955375,1.96083423 L2.41615367,3.07048003 C2.41615367,3.07048003 2.24482653,3.86772994 2.2993017,4.23422421 C2.35377687,4.60071849 2.78993641,5.58518967 2.78993641,5.58518967 L2.83217744,5.59941396 C3.35177961,5.77438536 3.89951237,5.4917872 4.05882376,4.95730657 L4.27435122,4.23422421 L4.13915032,2.87258451 C4.08545653,2.33182188 3.58948347,1.92085606 3.0485974,1.95362264 L2.92955375,1.96083423 Z" id="Path-67" stroke-width="0.2" fill="#FFFFFF"></path>
                                <path d="M5.41513203,2.99806055 L6.01420988,1.85004264 L5.9395189,1.73262543 C5.6443578,1.26862034 4.96638844,0.932722429 4.56696824,0.969371374 L4.56696824,0.969371374 L4.21707889,3.04280179 L4.00342283,5.38279254 L4.00342283,6.54842387 L4.4718049,6.52742929 L4.76806233,4.55095134 L5.11390109,4.50904083 L5.10026238,3.83965203 L4.86378968,3.74883281 L4.74529696,2.76405361 L4.94126371,2.25467964 L5.37826649,2.35249706 L5.41513203,2.99806055 Z" id="Path-68" stroke-width="0.2" fill="#FFFFFF"></path>
                                <path d="M6.2670079,2.94062544 L6.60459388,3.17649019 L6.60459388,3.57850165 L7.12151138,2.89322258 L7.11075657,2.87143381 C6.87640908,2.39665611 6.25834785,2.11402426 6.06020562,2.16135211 L6.06020562,2.16135211 L5.57463917,3.92790336 L5.28987817,3.91059219 L5.24331459,4.40808558 L5.4266146,4.58843286 L5.19926438,7.11309183 L5.73880226,7.12512851 L5.85635767,5.17965004 L6.30276838,5.17965004 L6.47522119,4.27946897 L5.99935549,4.19527986 L6.2670079,2.94062544 Z" id="Path-69" stroke-width="0.2" fill="#FFFFFF"></path>
                                <polygon id="Path-70" stroke-width="0.2" fill="#FFFFFF" points="7.37157016 5.95574515 7.97381014 5.54102081 7.99934074 4.3637257 7.36089934 3.69048331 6.75380899 3.98504376 6.51517063 4.96488328 6.58964591 6.07022882 6.91889806 7.06663567 7.74548984 6.85024599 8.08651518 7.7511709 8.87831656 8.44172447 9.16492952 8.01036517 8.62446566 7.60233538 8.36184 6.98920874 9.02929545 7.04330616 9.51142254 6.59849012 9.51142254 5.2841933 8.95526111 4.64699332 8.45404118 4.80326724 7.8665287 6.0161314 7.51769868 6.41814285 7.40838891 6.07022882"></polygon>
                                <polygon id="Path-76" stroke-width="0.1" fill="#6C3326" points="3.10546581 2.94183555 2.77309364 4.06246789 3.23605429 4.77361056 3.78341813 3.25955113"></polygon>
                                <polygon id="Path-77" stroke-width="0.1" fill="#59291E" points="6.88985428 5.13649509 7.24281991 4.37563756 7.60497195 5.09959571"></polygon>
                                <polygon id="Path-78" stroke-width="0.1" fill="#59291E" points="8.53437509 5.76316956 8.88026834 5.31687925 9.12330457 6.20945988 8.43513113 5.92083754"></polygon>
                            </g>
                        </g>
                        <g id="Group-13" transform="translate(14.769231, 20.292683)">
                            <polygon id="Path-71" fill="#FFCB3B" points="1.79457388 0.245373874 1.14922656 0.638292857 0.906210693 0.969204581 0.976306816 1.52969058 0.744482008 1.3666383 0.421376732 1.56560387 0.110976195 2.29909042 0.28543896 3.19562926 0.921233387 4.91021503 0.900342454 5.90951959 1.55209849 6.56391733 2.63390847 6.69657762 3.33950561 6.59928346 3.82401682 5.99407995 3.91529729 4.99084583 3.65709474 4.41603431 3.70339515 1.72865615 3.86251247 0.823263339 2.99979322 0.358977191 2.00407031 0.239597851"></polygon>
                            <polygon id="Path-72" fill="#FFDAA5" points="1.09073749 1.58167033 1.59320551 2.01835001 2.27365724 2.23447636 3.14127648 2.01626087 3.63068766 1.76422124 3.81850067 0.933987676 3.37832402 0.532126974 2.80575987 0.253575182 1.75264558 0.235867247 1.15596297 0.616140185 0.978918183 0.920706725"></polygon>
                            <polygon id="Path-73" fill="#7D500D" points="1.8364147 0.940702764 1.46375214 1.17060748 1.37619801 1.40921693 1.52486986 1.66906596 1.87177085 1.74865219 2.46780795 1.79287228 3.13197532 1.6734432 3.51185581 1.39046443 3.21451211 0.970398375 2.47438038 0.935032245"></polygon>
                            <polygon id="Path-74" fill="#6C3326" points="0.982820562 2.28421775 0.759123266 2.01059035 0.533665498 2.19592678 0.533665498 2.75253295 1.08140699 4.23223986 1.08891834 2.67190215"></polygon>
                        </g>
                        <ellipse id="Oval-7" fill-opacity="0.483412591" fill="#FFF4B1" cx="16.6153846" cy="24.7317073" rx="1" ry="1.90243902"></ellipse>
                        <polygon id="Path-75" stroke="#000000" stroke-width="0.1" fill="#6C3326" points="7.5544201 22.6123045 8.07145635 21.7372246 8.48321638 22.523104"></polygon>
                    </g>
                    <g id="Group-16" transform="translate(301.000000, 308.000000)">
                        <ellipse id="Oval-8" stroke-opacity="0.403985507" stroke="#7D7D7D" stroke-width="0.5" fill="#FFFFFF" cx="33" cy="24.5" rx="33" ry="10.7692308"></ellipse>
                        <g id="Group-15" transform="translate(34.610354, 19.239381) rotate(-9.000000) translate(-34.610354, -19.239381) translate(9.610354, 3.739381)">
                            <path d="M0.418176218,15.9650789 C0.418176218,15.9650789 -0.00626237211,14.294984 1.11660838,13.2949919 C2.23947914,12.2949998 8.52491917,7.96475755 8.52491917,7.96475755 C9.88298441,7.02200799 10.8062866,4.92906093 10.5871029,3.28951089 L10.8186644,5.02165011 C10.6721157,3.92542829 11.3491298,2.62688266 12.3387832,2.11716468 L12.6086413,1.97817506 C13.5947284,1.47029387 15.2844925,0.989528631 16.3869034,0.904040358 L20.0035158,0.623584179 C23.3077964,0.367348273 28.4118322,1.31046702 31.412106,2.73408814 L30.6746726,2.38417815 C32.6738853,3.33279874 34.5184543,5.87374298 34.6954574,7.27462072 L34.6954574,7.27462072 L34.6954574,7.27462072 C36.5418866,7.27462072 40.5973747,8.09434201 42.8463592,8.81485169 L42.8463592,8.81485169 C43.6546106,9.44245176 44.7618003,9.9199982 45.5700517,10.5475983 C46.3783031,11.1751983 47.5065274,12.433431 47.5065274,12.433431 L47.5065274,12.433431 C48.361468,13.9123809 47.4191013,16.6297697 46.6811611,17.3149308 L46.6811611,17.3149308 L43.4796834,19.2507728 L37.09854,27.0674258 L37.09854,27.0674258 C35.5173403,27.6277628 32.1185629,27.331426 29.5194778,26.409907 L8.73536003,19.0407907 C4.57208687,17.5646807 0.418176218,15.9650789 0.418176218,15.9650789 L0.418176218,15.9650789 Z" id="Path-79" fill="#CAA152"></path>
                            <path d="M0.474395968,14.0167043 L0.0593471888,17.458258 C0.0593471888,17.458258 5.48974239,20.1184681 8.26984989,21.1485344 C11.0499574,22.1786006 35.4294613,30.5633488 35.4294613,30.5633488 L36.1937537,27.2831268 C36.1937537,27.2831268 33.2223792,27.0223312 30.6727362,26.1347099 C28.1230932,25.2470886 7.32396896,17.7199223 7.32396896,17.7199223 C4.20851826,16.5930825 0.474395968,14.0167043 0.474395968,14.0167043 L0.474395968,14.0167043 Z" id="Path-80" fill="#552904"></path>
                            <path d="M35.228618,30.5693351 L38.7816952,30.0182777 L36.8251376,27.063622 C36.8251376,27.063622 36.207704,27.2323022 35.8710668,27.262622 C35.5344296,27.2929418 34.6156644,27.262622 34.6156644,27.262622 L35.228618,30.5693351 Z" id="Path-81" fill="#7A461A"></path>
                            <path d="M36.7019571,27.1237711 L43.3921202,19.105557 L43.9658009,18.8100333 C45.9276054,17.7994367 47.4910604,15.189397 47.4611647,13.1993075 L47.4611647,13.1993075 L47.4611647,13.1993075 C48.1653709,13.0126801 46.8833881,11.6196279 44.5862363,10.0801046 L42.616095,8.75973971 L42.616095,8.75973971 C45.3024079,9.71399047 47.6826991,11.3623607 47.6826991,11.3623607 L47.6826991,11.3623607 L48.1601504,12.0416993 C48.4783174,12.4944013 48.7727306,13.3080488 48.8177859,13.8595865 L48.9209278,15.1221819 L48.9208863,15.1279229 C48.9129196,16.2300308 48.3971694,17.8580344 47.7678896,18.765666 L47.3510745,19.3668525 L44.9662698,19.7340757 L45.2274084,21.2485394 C45.3216597,21.7951465 45.1076426,22.5741329 44.7499908,22.9877572 L38.6391352,30.0549608 L36.7019571,27.1237711 Z" id="Path-82" fill="#683204"></path>
                            <path d="M3.69510407,11.817404 L5.62347162,12.4078282 L11.5403027,10.2992915 L11.5403027,10.2992915 C11.7958253,9.52836328 13.5640311,8.02318929 15.4890172,6.93777675 L14.0646064,7.7409375 C15.0307358,7.19618087 16.7033048,6.75764588 17.8172401,6.76150049 L20.9197604,6.77223631 L29.4752874,3.39560071 L22.8883285,3.14824942 L21.322803,3.16418962 C18.7610567,3.19027335 14.6524884,3.63882437 12.1496154,4.16530825 L15.381406,3.48549523 C13.219881,3.94017594 9.94491803,5.25609145 8.06563662,6.42525642 L11.4676187,4.30876748 C9.44316196,5.56825099 6.52507549,8.21482168 4.93845806,10.2346018 L3.69510407,11.817404 Z" id="Path-83" stroke-opacity="0.800752944" stroke="#5E9134" stroke-width="0.3" fill="url(#radialGradient-1)"></path>
                            <polygon id="Path-84" stroke-opacity="0.800752944" stroke="#5E9134" stroke-width="0.3" fill="url(#radialGradient-2)" points="8.86361326 11.5192002 7.2119694 14.8513673 8.63277813 15.1895425 15.1853921 12.377837 15.4030014 10.982567 17.409627 9.69431457 20.135386 9.06005772 25.5592179 8.82628402 35.7470002 6.18747113 27.8499348 4.3693633 21.3324134 6.92743745 16.0985046 7.17048601 13.2944486 8.46016538 12.2912239 9.70739448 12.2598346 10.2718522"></polygon>
                            <polygon id="Path-85" stroke-opacity="0.800752944" stroke="#5E9134" stroke-width="0.3" fill="url(#radialGradient-3)" points="10.6683243 14.6633733 9.69631262 15.8129787 11.0270092 16.3943214 18.861296 14.5656307 20.068375 12.677367 21.9475035 11.3996973 24.816278 10.7126452 27.0736657 10.5857701 29.9505521 11.6427459 42.2486506 9.31737528 36.8442165 7.742316 34.0419239 6.7804668 26.0314689 9.03318445 21.3812608 9.09668148 18.371587 9.57231466 15.771209 10.9040876 15.3008978 12.679983"></polygon>
                            <polygon id="Path-86" stroke-opacity="0.800752944" stroke="#5E9134" stroke-width="0.3" fill="url(#radialGradient-4)" points="10.705088 16.921923 12.3829817 17.8422816 18.8207335 16.7666704 23.3135268 13.6655476 28.1146332 12.8883419 30.2849421 12.526924 35.8317789 14.3987545 46.3300335 12.0223532 40.4308389 9.98285613 29.8193266 11.901671 25.6057161 10.7701186 20.7631284 12.1950481 18.7536177 15.1685747"></polygon>
                            <polygon id="Path-87" stroke-opacity="0.800752944" stroke="#5E9134" stroke-width="0.3" fill="url(#radialGradient-5)" points="12.533759 18.3320814 14.3857342 19.3607083 22.0101297 19.3344662 22.9422929 17.4676641 25.0014413 16.1038614 31.8460823 15.2411726 36.3181351 17.0257914 48.2796527 15.9082243 42.2306129 13.2419029 35.1298601 14.4432246 29.6452451 12.7670312 23.4146665 13.7867011 19.0435205 16.8738387"></polygon>
                            <polygon id="Path-88" stroke-opacity="0.800752944" stroke="#5E9134" stroke-width="0.3" fill="url(#radialGradient-6)" points="16.7622842 19.6038011 14.8870049 19.811695 15.9179774 21.606842 23.9091791 20.8945345 25.6907759 19.0802165 32.1749029 18.2577551 35.5052888 19.7384686 49.504282 18.5371468 45.1224161 16.6144035 35.7614006 17.4246082 31.1674675 15.4550377 24.4603206 16.4189236 22.4715505 17.8856517 22.4922911 19.6669707"></polygon>
                            <polygon id="Path-89" stroke-opacity="0.800752944" stroke="#5E9134" stroke-width="0.3" fill="url(#radialGradient-7)" points="18.1477117 21.8962907 18.7459274 22.760708 25.6012883 21.8823054 26.9014228 21.115628 33.267165 21.0318733 36.6313419 21.9677886 46.9322109 20.9671323 40.4348006 19.5701735 35.2997468 20.1149717 31.7109187 18.6130446 25.9543451 19.311524 23.799883 21.3895199"></polygon>
                            <polygon id="Path-90" stroke-opacity="0.800752944" stroke="#5E9134" stroke-width="0.3" fill="url(#radialGradient-8)" points="23.3051374 22.7215806 38.4667711 25.7947329 33.0185105 21.2319102 27.0365865 21.2319102"></polygon>
                            <rect id="Rectangle-2" fill="#552D10" x="2.36297709" y="13.9775319" width="1" height="1"></rect>
                            <rect id="Rectangle-2" fill="#552D10" x="8.67183574" y="13.9775319" width="1" height="1"></rect>
                            <rect id="Rectangle-2" fill="#552D10" x="14.0794289" y="18.2315634" width="1" height="1"></rect>
                            <rect id="Rectangle-2" fill="#552D10" x="6.8693047" y="15.8006883" width="1" height="1"></rect>
                            <rect id="Rectangle-2" fill="#552D10" x="5.96803918" y="12.7620944" width="1" height="1"></rect>
                            <rect id="Rectangle-2" fill="#552D10" x="4.16550813" y="15.8006883" width="1" height="1"></rect>
                            <rect id="Rectangle-2" fill="#552D10" x="38.413598" y="22.4855949" width="1" height="1"></rect>
                            <rect id="Rectangle-2" fill="#552D10" x="31.2034738" y="24.91647" width="1" height="1"></rect>
                            <rect id="Rectangle-2" fill="#552D10" x="33.9072703" y="26.1319075" width="1" height="1"></rect>
                            <rect id="Rectangle-2" fill="#552D10" x="25.7958807" y="24.3087512" width="1" height="1"></rect>
                            <rect id="Rectangle-2" fill="#552D10" x="10.2108003" y="18.2315634" width="1" height="1"></rect>
                            <rect id="Rectangle-2" fill="#552D10" x="18.5857565" y="16.4084071" width="1" height="1"></rect>
                            <rect id="Rectangle-2" fill="#552D10" x="24.8946151" y="16.4084071" width="1" height="1"></rect>
                            <rect id="Rectangle-2" fill="#552D10" x="30.3022083" y="20.6624385" width="1" height="1"></rect>
                            <rect id="Rectangle-2" fill="#552D10" x="23.0920841" y="18.2315634" width="1" height="1"></rect>
                            <rect id="Rectangle-2" fill="#552D10" x="22.1908186" y="15.1929695" width="1" height="1"></rect>
                            <rect id="Rectangle-2" fill="#552D10" x="20.3882875" y="18.2315634" width="1" height="1"></rect>
                            <rect id="Rectangle-2" fill="#552D10" x="26.6971462" y="20.6624385" width="1" height="1"></rect>
                            <rect id="Rectangle-2" fill="#552D10" x="30.3022083" y="11.2427974" width="1" height="1"></rect>
                            <rect id="Rectangle-2" fill="#552D10" x="36.6110669" y="11.2427974" width="1" height="1"></rect>
                            <rect id="Rectangle-2" fill="#552D10" x="42.01866" y="15.4968289" width="1" height="1"></rect>
                            <rect id="Rectangle-2" fill="#552D10" x="34.8085359" y="13.0659538" width="1" height="1"></rect>
                            <rect id="Rectangle-2" fill="#552D10" x="33.9072703" y="10.0273599" width="1" height="1"></rect>
                            <rect id="Rectangle-2" fill="#552D10" x="32.1047393" y="13.0659538" width="1" height="1"></rect>
                            <rect id="Rectangle-2" fill="#552D10" x="38.413598" y="15.4968289" width="1" height="1"></rect>
                            <rect id="Rectangle-2" fill="#552D10" x="9.57310126" y="7.90034414" width="1" height="1"></rect>
                            <rect id="Rectangle-2" fill="#552D10" x="15.8819599" y="7.90034414" width="1" height="1"></rect>
                            <rect id="Rectangle-2" fill="#552D10" x="21.289553" y="12.1543756" width="1" height="1"></rect>
                            <rect id="Rectangle-2" fill="#552D10" x="14.0794289" y="9.72350048" width="1" height="1"></rect>
                            <rect id="Rectangle-2" fill="#552D10" x="13.1781633" y="6.68490658" width="1" height="1"></rect>
                            <rect id="Rectangle-2" fill="#552D10" x="11.3756323" y="9.72350048" width="1" height="1"></rect>
                            <rect id="Rectangle-2" fill="#552D10" x="17.684491" y="12.1543756" width="1" height="1"></rect>
                            <rect id="Rectangle-2" fill="#552D10" x="20.3882875" y="2.43087512" width="1" height="1"></rect>
                            <rect id="Rectangle-2" fill="#552D10" x="26.6971462" y="2.43087512" width="1" height="1"></rect>
                            <rect id="Rectangle-2" fill="#552D10" x="32.1047393" y="6.68490658" width="1" height="1"></rect>
                            <rect id="Rectangle-2" fill="#552D10" x="24.8946151" y="4.25403146" width="1" height="1"></rect>
                            <rect id="Rectangle-2" fill="#552D10" x="23.9933496" y="1.21543756" width="1" height="1"></rect>
                            <rect id="Rectangle-2" fill="#552D10" x="22.1908186" y="4.25403146" width="1" height="1"></rect>
                            <rect id="Rectangle-2" fill="#552D10" x="28.4996772" y="6.68490658" width="1" height="1"></rect>
                            <rect id="Rectangle-2" fill="#552D10" x="23.0920841" y="9.72350048" width="1" height="1"></rect>
                            <ellipse id="Oval-9" stroke="#FFFFFF" fill="#F4DE7A" transform="translate(13.925624, 9.330904) rotate(19.000000) translate(-13.925624, -9.330904) " cx="13.9256237" cy="9.33090437" rx="3.37324833" ry="3.07590218"></ellipse>
                            <ellipse id="Oval-9" stroke="#FFFFFF" fill="#F4DE7A" transform="translate(19.318750, 10.941474) rotate(19.000000) translate(-19.318750, -10.941474) " cx="19.3187504" cy="10.9414737" rx="3.37324833" ry="3.07590218"></ellipse>
                            <ellipse id="Oval-9" stroke="#FFFFFF" fill="#F4DE7A" transform="translate(25.062887, 12.156911) rotate(19.000000) translate(-25.062887, -12.156911) " cx="25.0628867" cy="12.1569113" rx="3.37324833" ry="3.07590218"></ellipse>
                            <ellipse id="Oval-9" stroke="#FFFFFF" fill="#F4DE7A" transform="translate(30.752841, 13.372349) rotate(19.000000) translate(-30.752841, -13.372349) " cx="30.752841" cy="13.3723488" rx="3.37324833" ry="3.07590218"></ellipse>
                            <ellipse id="Oval-9" stroke="#FFFFFF" fill="#FFFFFF" transform="translate(36.328706, 15.195505) rotate(19.000000) translate(-36.328706, -15.195505) " cx="36.3287057" cy="15.1955052" rx="3.37324833" ry="3.07590218"></ellipse>
                        </g>
                    </g>
                    <polygon id="Path-91" fill-opacity="0.15551404" fill="#C9C9C9" points="88.6826624 251.795528 88.2588718 334.819012 133.431673 335.348564"></polygon>
                </g>
                <text id="one-cup-at-a-time" font-family="Helvetica-Bold, Helvetica" font-size="2" font-weight="bold" fill="#FFFFFF">
                    <tspan x="279.331543" y="313">one cup at a time</tspan>
                </text>
                <polygon id="Path-92" fill="#6A6969" points="216.636803 316.000835 232.385713 316.000835 216.636803 327.984999"></polygon>
                <path d="M216.638019,317.93653 L229.490661,318.042932" id="Path-93" stroke="#979797" stroke-width="0.5"></path>
                <path d="M216.712328,320.991492 L225.743639,321.076633" id="Path-94" stroke="#979797" stroke-width="0.5"></path>
                <path d="M216.652507,323.953192 L221.772911,324.034854" id="Path-95" stroke="#979797" stroke-width="0.5"></path>
                <path d="M226.524335,316.058158 L216.711978,323.529673" id="Path-96" stroke="#979797" stroke-width="0.5"></path>
                <path d="M219,173.752756 L223.273093,169.208699 C228.404278,163.752138 235.036894,153.788863 238.090918,146.947347 L238.960205,145 L246.127851,147.278041 L246.127851,151.387359 L243.63666,166.621916 L228.653043,178.474623 L219,173.752756 Z" id="Path-97" fill-opacity="0.474184783" fill="#FFE9C8"></path>
                <polygon id="Path-98" fill="#2E8040" points="276 311 278.83666 312.15352 276.317103 314.30412 276.254759 313.194246 277.479213 312.448125 276 312.15352"></polygon>
                <polygon id="Path-98" fill="#296D38" transform="translate(297.418330, 312.652060) scale(-1, 1) translate(-297.418330, -312.652060) " points="296 311 298.83666 312.15352 296.317103 314.30412 296.254759 313.194246 297.479213 312.448125 296 312.15352"></polygon>
            </g>
            <g id="Group-20" transform="translate(210.000000, 133.000000)">
                <path d="M14.5931149,3.04467539 L16.7132154,2.50708617 C17.2551744,2.36966281 18.0388207,1.97301313 18.4715422,1.61451329 L19.1790028,1.02839837" id="Path-7" stroke="#2A2A2A" transform="translate(16.886059, 2.036537) rotate(-23.000000) translate(-16.886059, -2.036537) "></path>
                <path d="M18.9222084,3.67112802 L21.0823063,3.29955224 C21.530867,3.22239172 22.2348541,2.99949331 22.64222,2.80757678 L24.3423019,2.0066413" id="Path-8" stroke="#2A2A2A" transform="translate(21.632255, 2.838885) rotate(-31.000000) translate(-21.632255, -2.838885) "></path>
                <path d="M0,7.58963165 C0,7.58963165 3.34757031,5.42220015 5.2507563,4.61240688 C7.15394229,3.80261361 9.06630216,3.32132762 9.06630216,3.32132762 C10.731174,2.83973198 13.4482848,2.73303558 15.1563272,3.08741053 L16.4608765,3.35807104 C18.1594326,3.71047784 20.8670395,4.43219699 22.5030346,4.96828967 L25.9584447,6.1005791 L24.9485592,8.57285833 L15.5190799,6.66023752 C13.8208373,6.31577584 11.1116565,6.44238051 9.44119979,6.95116613 L2.25170301,9.14093409 L0,7.58963165 Z" id="Path-11" fill="#363636"></path>
            </g>
        </g>
    </g>
</svg>