<?xml version="1.0" encoding="UTF-8"?>
<svg width="643px" height="280px" viewBox="0 0 643 280" version="1.1" xmlns="http://www.w3.org/2000/svg" xmlns:xlink="http://www.w3.org/1999/xlink">
    <!-- Generator: Sketch 43.1 (39012) - http://www.bohemiancoding.com/sketch -->
    <title>Group 44</title>
    <desc>Created with Sketch.</desc>
    <defs>
        <rect id="path-1" x="264.71911" y="159.106719" width="52.4709762" height="43"></rect>
    </defs>
    <g id="Page-1" stroke="none" stroke-width="1" fill="none" fill-rule="evenodd">
        <g id="Desktop-HD-Copy-8" transform="translate(-747.000000, -123.000000)">
            <g id="Group-44" transform="translate(747.000000, 123.000000)">
                <rect id="Rectangle" fill="#7A84A3" x="0" y="0" width="642" height="276"></rect>
                <g id="Group-22" opacity="0.240262681" style="mix-blend-mode: difference;" transform="translate(1.000000, 73.000000)">
                    <rect id="Rectangle-19" fill="#CEA56E" x="0" y="0" width="101.469512" height="202"></rect>
                    <rect id="Rectangle-19" fill="#E4C9C9" x="198.219512" y="25.5494071" width="60.5670732" height="175.652174"></rect>
                    <rect id="Rectangle-19" fill="#80AAC3" x="302.04878" y="31.1383399" width="84.9512195" height="170.063241"></rect>
                    <rect id="Rectangle-19" fill="#BCBCBC" x="115.628049" y="88.6245059" width="60.5670732" height="112.577075"></rect>
                </g>
                <g id="Group-22" opacity="0.240262681" style="mix-blend-mode: difference;" transform="translate(391.000000, 78.000000)">
                    <rect id="Rectangle-19" fill="#FBC780" x="0" y="0" width="101.469512" height="202"></rect>
                    <rect id="Rectangle-19" fill="#E4C9C9" x="191.219512" y="25.5494071" width="60.5670732" height="175.652174"></rect>
                    <rect id="Rectangle-19" fill="#BCBCBC" x="115.628049" y="88.6245059" width="60.5670732" height="112.577075"></rect>
                </g>
                <rect id="Rectangle-19" fill="#FBC780" x="79" y="23" width="129" height="253"></rect>
                <rect id="Rectangle-19" fill="#E4C9C9" x="331" y="55" width="77" height="220"></rect>
                <rect id="Rectangle-3" fill="#9D4848" x="313" y="54" width="113" height="10"></rect>
                <rect id="Rectangle-4" fill="#FFAAAA" x="366" y="10" width="8" height="31"></rect>
                <rect id="Rectangle-3" fill="#DB3939" x="336" y="40" width="68" height="15"></rect>
                <rect id="Rectangle-19" fill="#80AAC3" x="463" y="62" width="108" height="213"></rect>
                <rect id="Rectangle-19" fill="#BCBCBC" x="226" y="134" width="77" height="141"></rect>
                <rect id="Rectangle-6" fill="#767575" x="463" y="62" width="108" height="38"></rect>
                <rect id="Rectangle-5" fill="#8BC86D" x="87" y="32" width="113" height="73"></rect>
                <g id="Rectangle-5" transform="translate(290.954598, 180.606719) rotate(89.000000) translate(-290.954598, -180.606719) ">
                    <use fill="#F35865" fill-rule="evenodd" xlink:href="#path-1"></use>
                    <rect stroke="#F3CC75" stroke-width="2" x="265.71911" y="160.106719" width="50.4709762" height="41"></rect>
                </g>
                <text id="ANIME" font-family=".SFNSText-Semibold, .SF NS Text" font-size="24" font-weight="500" letter-spacing="-0.32" fill="#000000">
                    <tspan x="105.401562" y="74">ANIME</tspan>
                </text>
                <rect id="Rectangle-20" fill="#D8D8D8" x="483" y="107" width="20" height="20"></rect>
                <rect id="Rectangle-20" fill="#D8D8D8" x="532" y="107" width="20" height="20"></rect>
                <rect id="Rectangle-20" fill="#D8D8D8" x="483" y="152" width="20" height="20"></rect>
                <rect id="Rectangle-20" fill="#D8D8D8" x="532" y="152" width="20" height="20"></rect>
                <rect id="Rectangle-20" fill="#D8D8D8" x="483" y="197" width="20" height="20"></rect>
                <rect id="Rectangle-20" fill="#D8D8D8" x="532" y="197" width="20" height="20"></rect>
                <rect id="Rectangle-20" fill="#D8D8D8" x="483" y="242" width="20" height="20"></rect>
                <rect id="Rectangle-20" fill="#D8D8D8" x="532" y="242" width="20" height="20"></rect>
                <path d="M128.285224,212.911861 L124.751105,205.03992 C120.889874,196.439363 124.464903,185.794971 131.150463,182.133452 L131.150463,182.133452 L133.273599,180.998511 C141.586147,176.554964 152.741405,179.198252 156.715705,184.818282 L156.715705,184.818282 L156.715705,184.818282 C159.462435,189.124106 160.277552,199.172868 158.533997,207.273614 L158.206348,208.795905 L128.285224,212.911861 Z" id="Path-504" stroke="#373737" fill="#F08435"></path>
                <path d="M128.214635,214.095898 L126.383549,220.444843 L126.576316,220.51855 C128.677144,221.321831 131.097093,223.655673 131.978691,225.724921 L132.533121,227.026254 L134.548366,222.67918 C134.548366,222.67918 130.701961,221.321747 129.887423,219.963111 C129.072885,218.604475 128.214635,214.095898 128.214635,214.095898 Z" id="Path-505" stroke="#292929" fill="#F08435"></path>
                <ellipse id="Oval-16" fill="#DB7C36" cx="141.5" cy="197.5" rx="16.5" ry="15.5"></ellipse>
                <ellipse id="Oval-14" stroke="#353131" stroke-width="0.7" fill="#F08435" cx="126.5" cy="226.5" rx="6.5" ry="5.5"></ellipse>
                <ellipse id="Oval-14" stroke="#353131" stroke-width="0.7" fill="#F08435" cx="161.5" cy="225.5" rx="6.5" ry="5.5"></ellipse>
                <path d="M152.91277,222.440362 L155.159723,226.480235 L156.118369,223.71218 C156.86346,221.560759 159.299325,219.578564 161.174617,219.334794 L161.174617,219.334794 L159.13867,212.654706 C159.13867,212.654706 157.727455,216.646641 156.562198,218.478151 C155.396942,220.309662 152.91277,222.440362 152.91277,222.440362 Z" id="Path-506" stroke="#292929" fill="#F08435"></path>
                <path d="M129.393101,208.821469 L126.821,205.710948 C125.762459,204.430821 124.752453,202.058481 124.564364,200.405812 L124.21222,197.311656 C124.21222,197.311656 128.567058,197.470933 130.624839,197.926875 C132.68262,198.382817 136.62966,200.062985 136.62966,200.062985 L136.62966,200.062985 C141.05159,196.85739 145.01478,197.926875 145.01478,197.926875 L145.01478,197.926875 C145.01478,197.926875 148.338642,195.113546 150.197175,193.986602 C152.055708,192.859658 156.187076,191.152417 156.187076,191.152417 C156.187076,191.152417 157.518635,194.935024 157.649916,196.835523 C157.781198,198.736021 156.607746,205.110078 156.607746,205.110078 L156.607746,205.110078 C161.097381,210.95543 157.911339,219.297535 152.051197,222.391338 L152.051197,222.391338 L151.401969,224.807789 L151.401969,224.807789 C149.45606,228.145017 145.350342,228.998872 142.238699,226.720134 L141.640572,226.282109 L139.310521,223.7477 L132.369261,221.581105 C130.78873,221.08777 129.337264,219.34586 129.130555,217.715933 L128.624764,213.727715 L129.393101,208.821469 Z" id="Path-503" stroke="#333333" fill="#F08435"></path>
                <circle id="Oval-15" fill="#D8D8D8" cx="137.5" cy="216.5" r="1.5"></circle>
                <circle id="Oval-15" fill="#D8D8D8" cx="152.5" cy="215.5" r="1.5"></circle>
                <ellipse id="Oval-13" fill="#2E2E2E" transform="translate(146.500000, 225.000000) rotate(-8.000000) translate(-146.500000, -225.000000) " cx="146.5" cy="225" rx="2.5" ry="1"></ellipse>
                <path d="M148,216.631717 L148.655416,214.103255 C148.795178,213.564081 149.360923,213.079404 149.902447,213.022445 L150.175852,212.993687 C151.273001,212.878286 152.656256,212.040324 153.272404,211.111549 L156,207 L154.258065,213.986766 L153.594525,214.747132 C152.508742,215.991357 150.29801,216.864956 148.64871,216.697558 L148,216.631717 Z" id="Path-507" fill="#2C2C2C" transform="translate(152.000000, 211.859055) rotate(-15.000000) translate(-152.000000, -211.859055) "></path>
                <path d="M133,217.631717 L133.655416,215.103255 C133.795178,214.564081 134.360923,214.079404 134.902447,214.022445 L135.175852,213.993687 C136.273001,213.878286 137.656256,213.040324 138.272404,212.111549 L141,208 L139.258065,214.986766 L138.594525,215.747132 C137.508742,216.991357 135.29801,217.864956 133.64871,217.697558 L133,217.631717 Z" id="Path-507" fill="#2C2C2C" transform="translate(137.000000, 212.859055) scale(-1, 1) translate(-137.000000, -212.859055) "></path>
                <path d="M141.174693,178.561268 L135.717769,166.649481 L134.74937,164.161763 C133.345712,160.555913 133.067498,154.620098 134.127745,150.904507 L134.151442,150.82146 C135.666591,145.511683 139.713794,137.727774 143.189842,133.437195 L149.249563,125.957516 L149.249563,125.957516 C149.520276,126.959031 150.361533,127.126839 151.13227,126.328488 L153.263122,124.121287 L151.433635,130.811654 C151.141269,131.880824 151.758333,132.504611 152.828434,132.200215 L154.752607,131.652872 L150.029413,140.567717 C148.995323,142.519523 148.535,145.862516 148.995041,148.005562 L150.486135,154.951644 C151.296944,158.728701 150.953505,164.769543 149.727584,168.418818 L146.320376,178.561268 L141.174693,178.561268 Z" id="Path-508" stroke="#414141" fill="#F08435"></path>
                <path d="M125.464124,135.591209 C125.464124,135.591209 135.905486,149.538754 142.408443,154.866566 C148.911399,160.194379 164.592758,168.10218 164.592758,168.10218 L163.54547,170.268633 L154.44745,169.029653 L148.826273,167.680198 C148.288904,167.551194 147.441293,167.255783 146.937517,167.022434 L145.805512,166.49809 C143.299083,165.337113 139.660327,162.825881 137.692696,160.903336 L136.597962,159.833687 L136.338511,159.496499 C134.655704,157.309485 132.232134,153.564129 130.924382,151.129275 L130.485321,150.311802 C129.177987,147.877726 127.561806,143.74251 126.872752,141.06494 L125.464124,135.591209 Z" id="Path-509" fill="#D67731" transform="translate(145.028441, 152.929921) rotate(58.000000) translate(-145.028441, -152.929921) "></path>
                <path d="M122.898528,181.407263 L118.090026,170.435153 L117.121626,167.947435 C115.717968,164.341585 115.439754,158.40577 116.500001,154.690179 L116.523699,154.607132 C118.038848,149.297355 122.086051,141.513446 125.562098,137.222867 L131.62182,129.743188 L131.62182,129.743188 C131.892533,130.744703 132.73379,130.912511 133.504526,130.11416 L135.635379,127.906959 L133.805892,134.597326 C133.513526,135.666496 134.13059,136.290283 135.20069,135.985887 L137.124864,135.438544 L132.40167,144.353389 C131.36758,146.305195 130.907257,149.648188 131.367298,151.791234 L132.858392,158.737316 C133.669201,162.514373 133.325762,168.555215 132.099841,172.20449 L128.692633,182.34694 L122.898528,181.407263 Z" id="Path-508" stroke="#414141" fill="#F08435" transform="translate(126.490532, 155.126949) rotate(-26.000000) translate(-126.490532, -155.126949) "></path>
                <path d="M157.294053,182.332799 L152.243595,171.470607 L151.275195,168.98289 C149.871537,165.37704 149.593323,159.441224 150.65357,155.725633 L150.677268,155.642587 C152.192417,150.332809 156.23962,142.5489 159.715667,138.258321 L165.775389,130.778643 L165.775389,130.778643 C166.046102,131.780157 166.887359,131.947966 167.658095,131.149614 L169.788948,128.942413 L167.959461,135.63278 C167.667095,136.70195 168.284159,137.325738 169.354259,137.021341 L171.278433,136.473999 L166.555239,145.388844 C165.521149,147.340649 165.060826,150.683642 165.520867,152.826688 L167.011961,159.772771 C167.82277,163.549827 167.497863,169.596723 166.291151,173.264031 L163.192289,182.681759 L157.294053,182.332799 Z" id="Path-508" stroke="#414141" fill="#F08435" transform="translate(160.644101, 155.812086) scale(-1, 1) rotate(-26.000000) translate(-160.644101, -155.812086) "></path>
                <path d="M139.350922,138.975959 C139.350922,138.975959 149.792284,152.923504 156.29524,158.251316 C162.798197,163.579129 178.479555,171.48693 178.479555,171.48693 L177.432268,173.653384 L168.334247,172.414403 L162.71307,171.064949 C162.175701,170.935944 161.32809,170.640533 160.824314,170.407185 L159.692309,169.88284 C157.18588,168.721863 153.547124,166.210631 151.579493,164.288086 L150.484759,163.218438 L150.225308,162.881249 C148.542501,160.694235 146.118932,156.948879 144.81118,154.514025 L144.372118,153.696553 C143.064785,151.262476 141.448604,147.12726 140.759549,144.44969 L139.350922,138.975959 Z" id="Path-509" fill="#D67731" transform="translate(158.915239, 156.314671) scale(-1, 1) rotate(34.000000) translate(-158.915239, -156.314671) "></path>
                <path d="M170.333482,191.167847 L164.876559,179.25606 L163.908159,176.768342 C162.504501,173.162492 162.226287,167.226677 163.286534,163.511086 L163.310231,163.428039 C164.825381,158.118262 168.872584,150.334353 172.348631,146.043774 L178.408352,138.564095 L178.408352,138.564095 C178.679065,139.56561 179.520323,139.733418 180.291059,138.935067 L182.421912,136.727866 L180.592424,143.418233 C180.300059,144.487403 180.917122,145.11119 181.987223,144.806794 L183.911397,144.259451 L179.188203,153.174296 C178.154112,155.126102 177.69379,158.469095 178.153831,160.612141 L179.644924,167.558223 C180.455733,171.33528 180.112295,177.376122 178.886374,181.025397 L175.479165,191.167847 L170.333482,191.167847 Z" id="Path-508" stroke="#414141" fill="#F08435" transform="translate(173.277065, 163.947856) scale(-1, 1) rotate(-46.000000) translate(-173.277065, -163.947856) "></path>
                <path d="M150.706306,146.574486 C150.706306,146.574486 161.147667,160.522032 167.650624,165.849844 C174.153581,171.177657 189.834939,179.085458 189.834939,179.085458 L188.787651,181.251911 L179.689631,180.012931 L174.068454,178.663476 C173.531085,178.534472 172.683474,178.239061 172.179698,178.005712 L171.047693,177.481368 C168.541264,176.32039 164.902508,173.809159 162.934877,171.886614 L161.840143,170.816965 L161.580692,170.479777 C159.897885,168.292763 157.474315,164.547407 156.166564,162.112552 L155.727502,161.29508 C154.420169,158.861004 152.803987,154.725788 152.114933,152.048218 L150.706306,146.574486 Z" id="Path-509" fill="#D67731" transform="translate(170.270622, 163.913199) scale(-1, 1) rotate(8.000000) translate(-170.270622, -163.913199) "></path>
                <path d="M177.275041,200.235348 L171.949256,188.757292 L170.980856,186.269575 C169.577198,182.663725 169.298984,176.727909 170.359231,173.012318 L170.382929,172.929272 C171.898078,167.619495 175.945281,159.835585 179.421328,155.545006 L185.481049,148.065328 L185.481049,148.065328 C185.751763,149.066843 186.59302,149.234651 187.363756,148.436299 L189.494609,146.229098 L187.665122,152.919465 C187.372756,153.988635 187.98982,154.612423 189.05992,154.308026 L190.984094,153.760684 L186.2609,162.675529 C185.22681,164.627334 184.766487,167.970328 185.226528,170.113374 L186.717622,177.059456 C187.528431,180.836513 187.219028,186.871983 186.020676,190.558134 L182.881585,200.214023 L177.275041,200.235348 Z" id="Path-508" stroke="#414141" fill="#F08435" transform="translate(180.349762, 173.232223) scale(-1, 1) rotate(-59.000000) translate(-180.349762, -173.232223) "></path>
                <path d="M158.233212,155.174836 C158.233212,155.174836 168.674574,169.122381 175.177531,174.450194 C181.680487,179.778006 197.361846,187.685807 197.361846,187.685807 L196.314558,189.852261 L187.216538,188.613281 L181.59536,187.263826 C181.057992,187.134822 180.210381,186.839411 179.706605,186.606062 L178.5746,186.081717 C176.068171,184.92074 172.429415,182.409508 170.461784,180.486964 L169.36705,179.417315 L169.107599,179.080126 C167.424792,176.893112 165.001222,173.147757 163.69347,170.712902 L163.254409,169.89543 C161.947075,167.461354 160.330894,163.326137 159.64184,160.648568 L158.233212,155.174836 Z" id="Path-509" fill="#D67731" transform="translate(177.797529, 172.513548) scale(-1, 1) rotate(-1.000000) translate(-177.797529, -172.513548) "></path>
                <path d="M108.200765,137.599753 C108.200765,137.599753 118.642127,151.547298 125.145084,156.875111 C131.64804,162.202923 147.329399,170.110724 147.329399,170.110724 L146.282111,172.277178 L137.184091,171.038198 L131.562913,169.688743 C131.025544,169.559739 130.177933,169.264328 129.674158,169.030979 L128.542153,168.506634 C126.035724,167.345657 122.396967,164.834425 120.429336,162.911881 L119.334603,161.842232 L119.075152,161.505043 C117.392345,159.318029 114.968775,155.572674 113.661023,153.137819 L113.221962,152.320347 C111.914628,149.886271 110.298447,145.751054 109.609393,143.073485 L108.200765,137.599753 Z" id="Path-509" fill="#D67731" transform="translate(127.765082, 154.938465) rotate(34.000000) translate(-127.765082, -154.938465) "></path>
                <path d="M95.2472782,143.974198 C95.2472782,143.974198 105.68864,157.921744 112.191597,163.249556 C118.694553,168.577369 134.375912,176.48517 134.375912,176.48517 L133.328624,178.651623 L124.230604,177.412643 L118.609426,176.063188 C118.072058,175.934184 117.224447,175.638773 116.720671,175.405424 L115.588666,174.88108 C113.082237,173.720102 109.44348,171.208871 107.47585,169.286326 L106.381116,168.216677 L106.121665,167.879489 C104.438858,165.692475 102.015288,161.947119 100.707536,159.512264 L100.268475,158.694792 C98.9611412,156.260716 97.3449601,152.1255 96.6559058,149.44793 L95.2472782,143.974198 Z" id="Path-509" fill="#D67731" transform="translate(114.811595, 161.312911) rotate(15.000000) translate(-114.811595, -161.312911) "></path>
                <path d="M110.584153,188.406313 L105.12723,176.494526 L104.15883,174.006809 C102.755172,170.400959 102.476958,164.465143 103.537205,160.749552 L103.560902,160.666506 C105.076052,155.356728 109.123255,147.572819 112.599302,143.28224 L118.659023,135.802562 L118.659023,135.802562 C118.929737,136.804076 119.770994,136.971885 120.54173,136.173533 L122.672583,133.966332 L120.843095,140.656699 C120.55073,141.725869 121.167794,142.349657 122.237894,142.04526 L124.162068,141.497918 L119.438874,150.412763 C118.404784,152.364568 117.944461,155.707561 118.404502,157.850607 L119.895595,164.79669 C120.706404,168.573746 120.572852,174.668687 119.596058,178.414881 L116.670424,189.635248 L110.584153,188.406313 Z" id="Path-508" stroke="#414141" fill="#F08435" transform="translate(113.527736, 161.800790) rotate(-42.000000) translate(-113.527736, -161.800790) "></path>
                <path d="M95.2472782,143.974198 C95.2472782,143.974198 105.68864,157.921744 112.191597,163.249556 C118.694553,168.577369 134.375912,176.48517 134.375912,176.48517 L133.328624,178.651623 L124.230604,177.412643 L118.609426,176.063188 C118.072058,175.934184 117.224447,175.638773 116.720671,175.405424 L115.588666,174.88108 C113.082237,173.720102 109.44348,171.208871 107.47585,169.286326 L106.381116,168.216677 L106.121665,167.879489 C104.438858,165.692475 102.015288,161.947119 100.707536,159.512264 L100.268475,158.694792 C98.9611412,156.260716 97.3449601,152.1255 96.6559058,149.44793 L95.2472782,143.974198 Z" id="Path-509" fill="#D67731" transform="translate(114.811595, 161.312911) rotate(15.000000) translate(-114.811595, -161.312911) "></path>
                <path d="M100.755827,198.089133 L96.0428112,187.148164 L95.0744113,184.660446 C93.6707534,181.054596 93.3925394,175.11878 94.4527864,171.403189 L94.4764837,171.320143 C95.9916332,166.010366 100.038836,158.226457 103.514883,153.935877 L109.574605,146.456199 L109.574605,146.456199 C109.845318,147.457714 110.686575,147.625522 111.457311,146.82717 L113.588164,144.61997 L111.758677,151.310337 C111.466311,152.379506 112.083375,153.003294 113.153475,152.698897 L115.077649,152.151555 L110.354455,161.0664 C109.320365,163.018205 108.860042,166.361199 109.320083,168.504245 L110.811177,175.450327 C111.621986,179.227384 111.372959,185.287801 110.255189,188.985894 L107.337941,198.637473 L100.755827,198.089133 Z" id="Path-508" stroke="#414141" fill="#F08435" transform="translate(104.443317, 171.628721) rotate(-57.000000) translate(-104.443317, -171.628721) "></path>
                <path d="M86.8571685,154.187473 C86.8571685,154.187473 97.2985304,168.135018 103.801487,173.46283 C110.304443,178.790643 125.985802,186.698444 125.985802,186.698444 L124.938514,188.864898 L115.840494,187.625917 L110.219317,186.276463 C109.681948,186.147458 108.834337,185.852047 108.330561,185.618699 L107.198556,185.094354 C104.692127,183.933377 101.053371,181.422145 99.0857398,179.4996 L97.9910061,178.429952 L97.7315551,178.092763 C96.048748,175.905749 93.6251781,172.160393 92.3174265,169.725539 L91.8783651,168.908067 C90.5710315,166.47399 88.9548503,162.338774 88.265796,159.661204 L86.8571685,154.187473 Z" id="Path-509" fill="#D67731"></path>
                <rect id="Rectangle-21" fill="#E4B473" x="96" y="256" width="21" height="6"></rect>
                <rect id="Rectangle-21" fill="#E4B473" x="120" y="256" width="21" height="6"></rect>
                <rect id="Rectangle-21" fill="#E4B473" x="105" y="244" width="21" height="6"></rect>
                <rect id="Rectangle-21" fill="#A5A5A5" x="249" y="250" width="15" height="4"></rect>
                <rect id="Rectangle-21" fill="#A5A5A5" x="242" y="257" width="15" height="4"></rect>
                <rect id="Rectangle-21" fill="#A5A5A5" x="259" y="257" width="15" height="4"></rect>
                <rect id="Rectangle-21" fill="#A5A5A5" x="274" y="231" width="15" height="4"></rect>
                <rect id="Rectangle-21" fill="#A5A5A5" x="267" y="238" width="15" height="4"></rect>
                <rect id="Rectangle-21" fill="#A5A5A5" x="284" y="238" width="15" height="4"></rect>
                <rect id="Rectangle-22" fill="#D2A3A3" x="349" y="202" width="42" height="73"></rect>
            </g>
        </g>
    </g>
</svg>