<?xml version="1.0" encoding="UTF-8"?>
<svg width="446px" height="346px" viewBox="0 0 446 346" version="1.1" xmlns="http://www.w3.org/2000/svg" xmlns:xlink="http://www.w3.org/1999/xlink">
    <!-- Generator: Sketch 43.1 (39012) - http://www.bohemiancoding.com/sketch -->
    <title>Group 48</title>
    <desc>Created with Sketch.</desc>
    <defs></defs>
    <g id="Page-1" stroke="none" stroke-width="1" fill="none" fill-rule="evenodd">
        <g id="Desktop-HD-Copy-7" transform="translate(-572.000000, -512.000000)">
            <g id="Group-48" transform="translate(572.000000, 512.000000)">
                <rect id="Rectangle-18" fill="#FFC35D" x="0" y="0" width="446" height="346"></rect>
                <rect id="Rectangle-18" fill="#FF9378" x="0" y="0" width="446" height="194"></rect>
                <g id="Group-2" transform="translate(18.000000, 102.000000)">
                    <path d="M40.8636625,82.6321036 L41.0603578,101.092926 L32.8056967,97.3469844 L31.1405311,100.639616 L40.0537404,105.527765 L39.2007049,110.371873 L38.0370829,112.414643 C37.491784,113.37193 36.2458881,114.557213 35.2727351,115.05266 L35.5060493,114.933876 C34.5246411,115.433526 33.5674387,116.714324 33.3661784,117.804913 L33.2437047,118.468573 L33.2437047,118.468573 C33.6671021,119.350306 34.8247375,120.436893 35.8315255,120.896524 L35.4165203,120.707061 C36.4223369,121.166248 37.7514569,120.804336 38.3870583,119.896042 L39.80693,117.867001 L44.12772,116.354563 L48.1580367,120.214234 L50.4983689,120.881869 L52.7352889,120.225244 L55.0641308,116.158877 L58.0221783,116.02525 L61.4853367,116.870554 L65.7293719,119.490045 L60.3873294,104.59688 L60.0292935,84.8981442 C60.0292935,84.8981442 55.2496039,84.5579302 53.5920012,83.8751712 C51.9343985,83.1924123 48.2821313,80.0595422 48.2821313,80.0595422 C48.2821313,80.0595422 45.6939533,81.3176201 44.12772,81.8607553 C42.5614867,82.4038905 40.8636625,82.6321036 40.8636625,82.6321036 Z" id="Path-138" fill="#935D13"></path>
                    <path d="M38.4385336,112.877227 L63.2308552,113.140327 L66.1228919,119.992346 L62.756541,118.232148 L59.1699034,116.95592 L55.5138446,116.730405 L53.7379782,119.53287 L51.9784005,121.179888 L49.3528019,121.508869 L47.2662848,120.279096 L44.3564079,116.889617 L40.2524072,118.428945 L39.3901534,119.705003 C38.4597659,121.081893 36.4784083,121.663486 34.9498104,120.997553 L34.6451835,120.864843 L33.4429153,119.367323 L33.4519479,119.264413 C33.5968936,117.613023 34.9855061,115.844399 36.5588997,115.312253 L36.6711993,115.274272 L38.4385336,112.877227 Z" id="Path-142" fill="#A06718"></path>
                    <path d="M40.4557377,83.4750231 L41.0259115,101.242026 L39.0119121,111.279791 L37.1953927,114.697957 L34.7257511,115.95384 L34.7257511,115.95384 C33.8888329,116.570057 33.6081977,119.280863 33.6975534,119.777542 L33.6975534,119.777542 L35.6901096,121.701154 L36.9156283,121.548782 L39.5420623,118.536445 L43.8273477,116.733958 L45.5130417,110.320763 C46.529585,106.453341 47.4041773,100.081579 47.4667009,96.0760543 L47.7010987,81.0595422 C47.7010987,81.0595422 44.4917031,82.1960236 42.8460696,82.5521819 C41.2004361,82.9083402 40.4557377,83.4750231 40.4557377,83.4750231 Z" id="Path-143" fill-opacity="0.343608469" fill="#653F0B"></path>
                    <path d="M47.5578977,83.755101 L44.0626607,85.3018092 L41.3516011,86.1464729 L41.3516011,86.1464729 C37.775675,86.0674158 32.444908,84.0320691 29.866226,81.941837 L29.866226,81.941837 L29.866226,81.941837 C27.5985156,83.0435497 22.1761461,83.9777135 21.6936994,83.9832392 L21.6936994,83.9832392 L21.6936994,83.9832392 C18.7346825,83.8669788 12.5016182,81.4658891 10.3085453,80.1464662 L16.3359254,83.7727311 C13.0070953,81.7700003 8.18670367,77.2708279 6.58671157,75.1024293 L7.77455594,76.7122623 C7.11852761,75.8231761 6.27675579,74.2612478 5.894761,73.2245614 L6.58671157,75.1024293 C5.59091316,72.3999562 4.7971695,65.7395471 4.80425875,63.3942327 L4.79215666,67.3979279 C4.79884046,65.1867481 5.47187938,61.7294062 6.28961096,59.6902523 L6.57894237,58.9687548 C6.98832756,57.9478827 7.32019982,56.2338332 7.32019982,55.2602002 L7.32019982,57.1203023 C7.32019982,56.0929963 6.68226728,54.6347408 5.89375315,53.8616439 L7.22966934,55.1714398 C5.25700834,53.237349 2.64637735,49.6748431 1.39871847,47.214472 L3.65785064,51.6694585 C2.09832039,48.5940802 0.936483333,42.9624375 1.06223524,39.1085985 L0.834071326,46.1009934 C0.994498414,41.1844862 2.83870061,33.0642825 3.28011229,31.999583 L1.74802811,35.6950205 C2.59417484,33.6540867 4.49024096,30.6894408 5.99204045,29.063522 L3.91985051,31.3069723 C6.54459648,28.4652989 11.4401817,24.6912188 12.8392996,23.9479118 L8.67237349,26.1616675 C10.9737033,24.939044 14.9834424,23.3281491 15.8334315,23.0824604 L13.92025,23.635464 C14.976871,23.3300486 15.9668629,22.1991575 16.1318017,21.1072781 L15.896395,22.6656481 C16.3916059,19.3873988 18.2001345,14.4400394 19.9352406,11.6164143 L16.7930536,16.7298527 C18.6901838,13.6425576 22.6071504,9.11027534 24.8246226,7.21857106 L20.2281117,11.1398104 C22.7666946,8.97416973 27.924432,6.7286043 30.1534645,6.37627559 L30.1534645,6.37627559 L30.1534645,6.37627559 C32.1010877,6.18618982 35.5461128,4.80342704 37.8577651,3.28145372 L36.6940722,4.04761982 C38.0736972,3.13928573 40.4615844,1.95747104 42.018066,1.41129692 L39.720449,2.21753773 C41.808342,1.4848897 45.2982221,0.825526455 47.4992595,0.745393195 L44.6413835,0.849440003 C46.8496089,0.769045053 50.3412076,1.28368475 52.4247976,1.99370962 L49.1854691,0.889843799 C51.8031991,1.78188754 55.7566794,3.8052144 58.0093127,5.40445498 L53.9252886,2.50503188 C56.4844522,4.32189137 60.3074776,8.39248798 60.5704283,8.78317242 L60.0101513,7.95072933 C60.3195837,8.41047495 60.7467324,9.19046019 60.9709393,9.70841051 L60.8143337,9.34662885 C61.4737106,10.8698843 62.0459702,13.4453239 62.0700403,14.3005894 L62.0700403,14.3005894 L62.0700403,14.3005894 C63.6335586,14.1265562 68.928698,14.2683348 71.467439,14.4466293 L66.4738567,14.0959325 C69.231736,14.289617 73.4429108,15.4994122 75.7438444,16.7256425 L73.0963638,15.3147278 C74.558527,16.0939545 76.7960705,17.5691415 78.0839038,18.6015111 L75.7438444,16.7256425 C78.0947723,18.6102237 82.0058332,23.1045442 83.5911734,25.449887 L80.7885478,21.3036994 C82.3363952,23.5935756 84.1975801,27.6005851 84.9477466,30.2611455 L83.5911734,25.449887 C84.4510403,28.4995139 85.3375189,33.4910328 85.3375189,33.4910328 L85.2626556,32.4953356 C85.3040015,33.0452439 85.731408,33.723367 86.2064845,34.0035895 L85.3375189,33.4910328 C87.8890127,34.9960237 91.5147411,38.9376137 93.4298759,42.2844501 L90.6575835,37.439669 C92.8538575,41.2778163 95.2667842,47.9177318 96.0445364,52.2565572 L95.3166653,48.1960024 C95.8047549,50.9188944 95.8642874,55.3424454 95.4502071,58.0725075 L96.2004296,53.1262346 C95.5402765,57.4786732 93.2878269,64.1504562 91.8812465,66.7251487 L94.2805862,62.3332475 C92.9554675,64.7588276 90.3382179,68.3359111 88.4192829,70.3390809 L87.168808,71.6444474 L87.168808,71.6444474 C83.8051237,74.0242947 77.5141043,76.3212422 74.3068327,76.6521185 L79.2814628,76.1389137 C76.5340504,76.4223489 72.990055,78.4674736 71.3730912,80.6966756 L71.3730912,80.6966756 C69.7528305,82.9304228 66.4759386,85.8026964 64.0391365,87.1200858 L68.4393497,84.7412326 C65.8470171,86.1427054 60.6295182,87.6436373 57.5857041,88 L63.7455162,87.2788235 C60.3435459,87.6771183 54.5061463,87.3993585 50.8338424,86.6831068 L55.7407282,87.6401532 C53.03073,87.1115911 49.1574832,85.1847941 47.5578977,83.755101 L47.5578977,83.755101 Z" id="Path-144" fill="#F86828"></path>
                    <path d="M9.98527124,21.1032671 L9.98527124,21.1032671 C2.39169453,28.7087433 7.98379133,39.3012599 7.98379133,39.3012599 L7.98379133,39.3012599 L7.98379133,39.3012599 C9.53913492,41.5456959 14.3781729,43.3651708 16.0134354,43.3651708 L16.0134354,43.3651708 L15.6779141,43.9498397 C14.3013225,46.3486448 13.6122936,50.4924031 14.1379225,53.2000185 L14.1920455,53.4788165 L14.1920455,53.4788165 C15.6214251,56.0788728 22.1599238,58.269411 25.1624416,58.3156095 L25.1624416,58.3156095 L32.1600726,57.4997358 L32.1600726,57.4997358 C30.8661863,59.8949036 33.8800944,63.2538433 33.8800944,63.2538433 L31.9914179,62.5949965 C33.0345051,62.9588675 34.769345,63.1255701 35.868372,62.967037 L38.7639142,62.5493591 C41.492968,62.1556969 45.6085578,60.6596478 47.9598357,59.205679 L49.6687083,58.1489568 L50.8121016,59.1348721 C52.9032931,60.9380467 56.7507518,63.0031412 59.4150244,63.7500202 L55.4322438,62.6335222 C58.0923154,63.3792235 62.3393765,63.1763963 64.9045489,62.1858129 L62.3764819,63.1620674 C64.9478199,62.1691031 68.1648147,59.4233498 69.5524295,57.0453838 L71.9152221,52.9962483 L71.9152221,52.9962483 C75.7319632,53.7701825 84.0308103,53.0715929 85.7163751,52.6421716 L85.7163751,52.6421716 L85.7163751,52.6421716 C89.4723675,51.5542351 94.1636769,46.0356556 96.2004296,40.299966 L92.517201,50.6722883 C95.4289662,42.4724803 94.2010821,31.6762926 94.2010821,31.6762926 C94.2010821,31.6762926 95.6723425,32.8701078 94.2010821,31.6762926 C92.7298217,30.4824774 89.5990951,29.1794023 89.5990951,29.1794023 C89.5990951,29.1794023 89.2449736,25.3315663 87.2178833,21.8470872 C85.1907929,18.362608 82.7071882,16.9113152 80.7639734,15.6618421 C78.6533276,14.3047119 75.2970439,12.8506383 71.9152221,12.5137469 C68.5334003,12.1768555 64.3794777,12.9633691 64.3794777,12.9633691 C64.3794777,12.9633691 63.4925196,8.89969259 60.6862234,6.01251118 C57.8799271,3.12532977 54.0176202,2.16634027 51.9171878,1.58477022 C49.7048116,0.972205018 45.5972941,0.654015716 41.9488775,1.58477022 C38.3004608,2.51552472 34.8501004,4.78724226 34.8501004,4.78724226 C34.8501004,4.78724226 30.0270954,4.87778371 25.7687022,6.01251118 C21.510309,7.14723865 21.7160088,7.76277921 20.5295393,8.58099493 C19.0209013,9.62138512 16.5596353,10.9584612 15.4556921,12.9633691 C14.3517489,14.968277 14.0205826,19.1517397 14.0205826,19.1517397 L9.98527124,21.1032671 Z" id="Path-145" fill="#FE7B41"></path>
                </g>
                <g id="Group-2" transform="translate(100.000000, 102.000000)">
                    <path d="M40.8636625,82.6321036 L41.0603578,101.092926 L32.8056967,97.3469844 L31.1405311,100.639616 L40.0537404,105.527765 L39.2007049,110.371873 L38.0370829,112.414643 C37.491784,113.37193 36.2458881,114.557213 35.2727351,115.05266 L35.5060493,114.933876 C34.5246411,115.433526 33.5674387,116.714324 33.3661784,117.804913 L33.2437047,118.468573 L33.2437047,118.468573 C33.6671021,119.350306 34.8247375,120.436893 35.8315255,120.896524 L35.4165203,120.707061 C36.4223369,121.166248 37.7514569,120.804336 38.3870583,119.896042 L39.80693,117.867001 L44.12772,116.354563 L48.1580367,120.214234 L50.4983689,120.881869 L52.7352889,120.225244 L55.0641308,116.158877 L58.0221783,116.02525 L61.4853367,116.870554 L65.7293719,119.490045 L60.3873294,104.59688 L60.0292935,84.8981442 C60.0292935,84.8981442 55.2496039,84.5579302 53.5920012,83.8751712 C51.9343985,83.1924123 48.2821313,80.0595422 48.2821313,80.0595422 C48.2821313,80.0595422 45.6939533,81.3176201 44.12772,81.8607553 C42.5614867,82.4038905 40.8636625,82.6321036 40.8636625,82.6321036 Z" id="Path-138" fill="#935D13"></path>
                    <path d="M38.4385336,112.877227 L63.2308552,113.140327 L66.1228919,119.992346 L62.756541,118.232148 L59.1699034,116.95592 L55.5138446,116.730405 L53.7379782,119.53287 L51.9784005,121.179888 L49.3528019,121.508869 L47.2662848,120.279096 L44.3564079,116.889617 L40.2524072,118.428945 L39.3901534,119.705003 C38.4597659,121.081893 36.4784083,121.663486 34.9498104,120.997553 L34.6451835,120.864843 L33.4429153,119.367323 L33.4519479,119.264413 C33.5968936,117.613023 34.9855061,115.844399 36.5588997,115.312253 L36.6711993,115.274272 L38.4385336,112.877227 Z" id="Path-142" fill="#A06718"></path>
                    <path d="M40.4557377,83.4750231 L41.0259115,101.242026 L39.0119121,111.279791 L37.1953927,114.697957 L34.7257511,115.95384 L34.7257511,115.95384 C33.8888329,116.570057 33.6081977,119.280863 33.6975534,119.777542 L33.6975534,119.777542 L35.6901096,121.701154 L36.9156283,121.548782 L39.5420623,118.536445 L43.8273477,116.733958 L45.5130417,110.320763 C46.529585,106.453341 47.4041773,100.081579 47.4667009,96.0760543 L47.7010987,81.0595422 C47.7010987,81.0595422 44.4917031,82.1960236 42.8460696,82.5521819 C41.2004361,82.9083402 40.4557377,83.4750231 40.4557377,83.4750231 Z" id="Path-143" fill-opacity="0.343608469" fill="#653F0B"></path>
                    <path d="M47.5578977,83.755101 L44.0626607,85.3018092 L41.3516011,86.1464729 L41.3516011,86.1464729 C37.775675,86.0674158 32.444908,84.0320691 29.866226,81.941837 L29.866226,81.941837 L29.866226,81.941837 C27.5985156,83.0435497 22.1761461,83.9777135 21.6936994,83.9832392 L21.6936994,83.9832392 L21.6936994,83.9832392 C18.7346825,83.8669788 12.5016182,81.4658891 10.3085453,80.1464662 L16.3359254,83.7727311 C13.0070953,81.7700003 8.18670367,77.2708279 6.58671157,75.1024293 L7.77455594,76.7122623 C7.11852761,75.8231761 6.27675579,74.2612478 5.894761,73.2245614 L6.58671157,75.1024293 C5.59091316,72.3999562 4.7971695,65.7395471 4.80425875,63.3942327 L4.79215666,67.3979279 C4.79884046,65.1867481 5.47187938,61.7294062 6.28961096,59.6902523 L6.57894237,58.9687548 C6.98832756,57.9478827 7.32019982,56.2338332 7.32019982,55.2602002 L7.32019982,57.1203023 C7.32019982,56.0929963 6.68226728,54.6347408 5.89375315,53.8616439 L7.22966934,55.1714398 C5.25700834,53.237349 2.64637735,49.6748431 1.39871847,47.214472 L3.65785064,51.6694585 C2.09832039,48.5940802 0.936483333,42.9624375 1.06223524,39.1085985 L0.834071326,46.1009934 C0.994498414,41.1844862 2.83870061,33.0642825 3.28011229,31.999583 L1.74802811,35.6950205 C2.59417484,33.6540867 4.49024096,30.6894408 5.99204045,29.063522 L3.91985051,31.3069723 C6.54459648,28.4652989 11.4401817,24.6912188 12.8392996,23.9479118 L8.67237349,26.1616675 C10.9737033,24.939044 14.9834424,23.3281491 15.8334315,23.0824604 L13.92025,23.635464 C14.976871,23.3300486 15.9668629,22.1991575 16.1318017,21.1072781 L15.896395,22.6656481 C16.3916059,19.3873988 18.2001345,14.4400394 19.9352406,11.6164143 L16.7930536,16.7298527 C18.6901838,13.6425576 22.6071504,9.11027534 24.8246226,7.21857106 L20.2281117,11.1398104 C22.7666946,8.97416973 27.924432,6.7286043 30.1534645,6.37627559 L30.1534645,6.37627559 L30.1534645,6.37627559 C32.1010877,6.18618982 35.5461128,4.80342704 37.8577651,3.28145372 L36.6940722,4.04761982 C38.0736972,3.13928573 40.4615844,1.95747104 42.018066,1.41129692 L39.720449,2.21753773 C41.808342,1.4848897 45.2982221,0.825526455 47.4992595,0.745393195 L44.6413835,0.849440003 C46.8496089,0.769045053 50.3412076,1.28368475 52.4247976,1.99370962 L49.1854691,0.889843799 C51.8031991,1.78188754 55.7566794,3.8052144 58.0093127,5.40445498 L53.9252886,2.50503188 C56.4844522,4.32189137 60.3074776,8.39248798 60.5704283,8.78317242 L60.0101513,7.95072933 C60.3195837,8.41047495 60.7467324,9.19046019 60.9709393,9.70841051 L60.8143337,9.34662885 C61.4737106,10.8698843 62.0459702,13.4453239 62.0700403,14.3005894 L62.0700403,14.3005894 L62.0700403,14.3005894 C63.6335586,14.1265562 68.928698,14.2683348 71.467439,14.4466293 L66.4738567,14.0959325 C69.231736,14.289617 73.4429108,15.4994122 75.7438444,16.7256425 L73.0963638,15.3147278 C74.558527,16.0939545 76.7960705,17.5691415 78.0839038,18.6015111 L75.7438444,16.7256425 C78.0947723,18.6102237 82.0058332,23.1045442 83.5911734,25.449887 L80.7885478,21.3036994 C82.3363952,23.5935756 84.1975801,27.6005851 84.9477466,30.2611455 L83.5911734,25.449887 C84.4510403,28.4995139 85.3375189,33.4910328 85.3375189,33.4910328 L85.2626556,32.4953356 C85.3040015,33.0452439 85.731408,33.723367 86.2064845,34.0035895 L85.3375189,33.4910328 C87.8890127,34.9960237 91.5147411,38.9376137 93.4298759,42.2844501 L90.6575835,37.439669 C92.8538575,41.2778163 95.2667842,47.9177318 96.0445364,52.2565572 L95.3166653,48.1960024 C95.8047549,50.9188944 95.8642874,55.3424454 95.4502071,58.0725075 L96.2004296,53.1262346 C95.5402765,57.4786732 93.2878269,64.1504562 91.8812465,66.7251487 L94.2805862,62.3332475 C92.9554675,64.7588276 90.3382179,68.3359111 88.4192829,70.3390809 L87.168808,71.6444474 L87.168808,71.6444474 C83.8051237,74.0242947 77.5141043,76.3212422 74.3068327,76.6521185 L79.2814628,76.1389137 C76.5340504,76.4223489 72.990055,78.4674736 71.3730912,80.6966756 L71.3730912,80.6966756 C69.7528305,82.9304228 66.4759386,85.8026964 64.0391365,87.1200858 L68.4393497,84.7412326 C65.8470171,86.1427054 60.6295182,87.6436373 57.5857041,88 L63.7455162,87.2788235 C60.3435459,87.6771183 54.5061463,87.3993585 50.8338424,86.6831068 L55.7407282,87.6401532 C53.03073,87.1115911 49.1574832,85.1847941 47.5578977,83.755101 L47.5578977,83.755101 Z" id="Path-144" fill="#F86828"></path>
                    <path d="M9.98527124,21.1032671 L9.98527124,21.1032671 C2.39169453,28.7087433 7.98379133,39.3012599 7.98379133,39.3012599 L7.98379133,39.3012599 L7.98379133,39.3012599 C9.53913492,41.5456959 14.3781729,43.3651708 16.0134354,43.3651708 L16.0134354,43.3651708 L15.6779141,43.9498397 C14.3013225,46.3486448 13.6122936,50.4924031 14.1379225,53.2000185 L14.1920455,53.4788165 L14.1920455,53.4788165 C15.6214251,56.0788728 22.1599238,58.269411 25.1624416,58.3156095 L25.1624416,58.3156095 L32.1600726,57.4997358 L32.1600726,57.4997358 C30.8661863,59.8949036 33.8800944,63.2538433 33.8800944,63.2538433 L31.9914179,62.5949965 C33.0345051,62.9588675 34.769345,63.1255701 35.868372,62.967037 L38.7639142,62.5493591 C41.492968,62.1556969 45.6085578,60.6596478 47.9598357,59.205679 L49.6687083,58.1489568 L50.8121016,59.1348721 C52.9032931,60.9380467 56.7507518,63.0031412 59.4150244,63.7500202 L55.4322438,62.6335222 C58.0923154,63.3792235 62.3393765,63.1763963 64.9045489,62.1858129 L62.3764819,63.1620674 C64.9478199,62.1691031 68.1648147,59.4233498 69.5524295,57.0453838 L71.9152221,52.9962483 L71.9152221,52.9962483 C75.7319632,53.7701825 84.0308103,53.0715929 85.7163751,52.6421716 L85.7163751,52.6421716 L85.7163751,52.6421716 C89.4723675,51.5542351 94.1636769,46.0356556 96.2004296,40.299966 L92.517201,50.6722883 C95.4289662,42.4724803 94.2010821,31.6762926 94.2010821,31.6762926 C94.2010821,31.6762926 95.6723425,32.8701078 94.2010821,31.6762926 C92.7298217,30.4824774 89.5990951,29.1794023 89.5990951,29.1794023 C89.5990951,29.1794023 89.2449736,25.3315663 87.2178833,21.8470872 C85.1907929,18.362608 82.7071882,16.9113152 80.7639734,15.6618421 C78.6533276,14.3047119 75.2970439,12.8506383 71.9152221,12.5137469 C68.5334003,12.1768555 64.3794777,12.9633691 64.3794777,12.9633691 C64.3794777,12.9633691 63.4925196,8.89969259 60.6862234,6.01251118 C57.8799271,3.12532977 54.0176202,2.16634027 51.9171878,1.58477022 C49.7048116,0.972205018 45.5972941,0.654015716 41.9488775,1.58477022 C38.3004608,2.51552472 34.8501004,4.78724226 34.8501004,4.78724226 C34.8501004,4.78724226 30.0270954,4.87778371 25.7687022,6.01251118 C21.510309,7.14723865 21.7160088,7.76277921 20.5295393,8.58099493 C19.0209013,9.62138512 16.5596353,10.9584612 15.4556921,12.9633691 C14.3517489,14.968277 14.0205826,19.1517397 14.0205826,19.1517397 L9.98527124,21.1032671 Z" id="Path-145" fill="#FE7B41"></path>
                </g>
                <g id="Group-2" transform="translate(327.000000, 102.000000)">
                    <path d="M40.8636625,82.6321036 L41.0603578,101.092926 L32.8056967,97.3469844 L31.1405311,100.639616 L40.0537404,105.527765 L39.2007049,110.371873 L38.0370829,112.414643 C37.491784,113.37193 36.2458881,114.557213 35.2727351,115.05266 L35.5060493,114.933876 C34.5246411,115.433526 33.5674387,116.714324 33.3661784,117.804913 L33.2437047,118.468573 L33.2437047,118.468573 C33.6671021,119.350306 34.8247375,120.436893 35.8315255,120.896524 L35.4165203,120.707061 C36.4223369,121.166248 37.7514569,120.804336 38.3870583,119.896042 L39.80693,117.867001 L44.12772,116.354563 L48.1580367,120.214234 L50.4983689,120.881869 L52.7352889,120.225244 L55.0641308,116.158877 L58.0221783,116.02525 L61.4853367,116.870554 L65.7293719,119.490045 L60.3873294,104.59688 L60.0292935,84.8981442 C60.0292935,84.8981442 55.2496039,84.5579302 53.5920012,83.8751712 C51.9343985,83.1924123 48.2821313,80.0595422 48.2821313,80.0595422 C48.2821313,80.0595422 45.6939533,81.3176201 44.12772,81.8607553 C42.5614867,82.4038905 40.8636625,82.6321036 40.8636625,82.6321036 Z" id="Path-138" fill="#935D13"></path>
                    <path d="M38.4385336,112.877227 L63.2308552,113.140327 L66.1228919,119.992346 L62.756541,118.232148 L59.1699034,116.95592 L55.5138446,116.730405 L53.7379782,119.53287 L51.9784005,121.179888 L49.3528019,121.508869 L47.2662848,120.279096 L44.3564079,116.889617 L40.2524072,118.428945 L39.3901534,119.705003 C38.4597659,121.081893 36.4784083,121.663486 34.9498104,120.997553 L34.6451835,120.864843 L33.4429153,119.367323 L33.4519479,119.264413 C33.5968936,117.613023 34.9855061,115.844399 36.5588997,115.312253 L36.6711993,115.274272 L38.4385336,112.877227 Z" id="Path-142" fill="#A06718"></path>
                    <path d="M40.4557377,83.4750231 L41.0259115,101.242026 L39.0119121,111.279791 L37.1953927,114.697957 L34.7257511,115.95384 L34.7257511,115.95384 C33.8888329,116.570057 33.6081977,119.280863 33.6975534,119.777542 L33.6975534,119.777542 L35.6901096,121.701154 L36.9156283,121.548782 L39.5420623,118.536445 L43.8273477,116.733958 L45.5130417,110.320763 C46.529585,106.453341 47.4041773,100.081579 47.4667009,96.0760543 L47.7010987,81.0595422 C47.7010987,81.0595422 44.4917031,82.1960236 42.8460696,82.5521819 C41.2004361,82.9083402 40.4557377,83.4750231 40.4557377,83.4750231 Z" id="Path-143" fill-opacity="0.343608469" fill="#653F0B"></path>
                    <path d="M47.5578977,83.755101 L44.0626607,85.3018092 L41.3516011,86.1464729 L41.3516011,86.1464729 C37.775675,86.0674158 32.444908,84.0320691 29.866226,81.941837 L29.866226,81.941837 L29.866226,81.941837 C27.5985156,83.0435497 22.1761461,83.9777135 21.6936994,83.9832392 L21.6936994,83.9832392 L21.6936994,83.9832392 C18.7346825,83.8669788 12.5016182,81.4658891 10.3085453,80.1464662 L16.3359254,83.7727311 C13.0070953,81.7700003 8.18670367,77.2708279 6.58671157,75.1024293 L7.77455594,76.7122623 C7.11852761,75.8231761 6.27675579,74.2612478 5.894761,73.2245614 L6.58671157,75.1024293 C5.59091316,72.3999562 4.7971695,65.7395471 4.80425875,63.3942327 L4.79215666,67.3979279 C4.79884046,65.1867481 5.47187938,61.7294062 6.28961096,59.6902523 L6.57894237,58.9687548 C6.98832756,57.9478827 7.32019982,56.2338332 7.32019982,55.2602002 L7.32019982,57.1203023 C7.32019982,56.0929963 6.68226728,54.6347408 5.89375315,53.8616439 L7.22966934,55.1714398 C5.25700834,53.237349 2.64637735,49.6748431 1.39871847,47.214472 L3.65785064,51.6694585 C2.09832039,48.5940802 0.936483333,42.9624375 1.06223524,39.1085985 L0.834071326,46.1009934 C0.994498414,41.1844862 2.83870061,33.0642825 3.28011229,31.999583 L1.74802811,35.6950205 C2.59417484,33.6540867 4.49024096,30.6894408 5.99204045,29.063522 L3.91985051,31.3069723 C6.54459648,28.4652989 11.4401817,24.6912188 12.8392996,23.9479118 L8.67237349,26.1616675 C10.9737033,24.939044 14.9834424,23.3281491 15.8334315,23.0824604 L13.92025,23.635464 C14.976871,23.3300486 15.9668629,22.1991575 16.1318017,21.1072781 L15.896395,22.6656481 C16.3916059,19.3873988 18.2001345,14.4400394 19.9352406,11.6164143 L16.7930536,16.7298527 C18.6901838,13.6425576 22.6071504,9.11027534 24.8246226,7.21857106 L20.2281117,11.1398104 C22.7666946,8.97416973 27.924432,6.7286043 30.1534645,6.37627559 L30.1534645,6.37627559 L30.1534645,6.37627559 C32.1010877,6.18618982 35.5461128,4.80342704 37.8577651,3.28145372 L36.6940722,4.04761982 C38.0736972,3.13928573 40.4615844,1.95747104 42.018066,1.41129692 L39.720449,2.21753773 C41.808342,1.4848897 45.2982221,0.825526455 47.4992595,0.745393195 L44.6413835,0.849440003 C46.8496089,0.769045053 50.3412076,1.28368475 52.4247976,1.99370962 L49.1854691,0.889843799 C51.8031991,1.78188754 55.7566794,3.8052144 58.0093127,5.40445498 L53.9252886,2.50503188 C56.4844522,4.32189137 60.3074776,8.39248798 60.5704283,8.78317242 L60.0101513,7.95072933 C60.3195837,8.41047495 60.7467324,9.19046019 60.9709393,9.70841051 L60.8143337,9.34662885 C61.4737106,10.8698843 62.0459702,13.4453239 62.0700403,14.3005894 L62.0700403,14.3005894 L62.0700403,14.3005894 C63.6335586,14.1265562 68.928698,14.2683348 71.467439,14.4466293 L66.4738567,14.0959325 C69.231736,14.289617 73.4429108,15.4994122 75.7438444,16.7256425 L73.0963638,15.3147278 C74.558527,16.0939545 76.7960705,17.5691415 78.0839038,18.6015111 L75.7438444,16.7256425 C78.0947723,18.6102237 82.0058332,23.1045442 83.5911734,25.449887 L80.7885478,21.3036994 C82.3363952,23.5935756 84.1975801,27.6005851 84.9477466,30.2611455 L83.5911734,25.449887 C84.4510403,28.4995139 85.3375189,33.4910328 85.3375189,33.4910328 L85.2626556,32.4953356 C85.3040015,33.0452439 85.731408,33.723367 86.2064845,34.0035895 L85.3375189,33.4910328 C87.8890127,34.9960237 91.5147411,38.9376137 93.4298759,42.2844501 L90.6575835,37.439669 C92.8538575,41.2778163 95.2667842,47.9177318 96.0445364,52.2565572 L95.3166653,48.1960024 C95.8047549,50.9188944 95.8642874,55.3424454 95.4502071,58.0725075 L96.2004296,53.1262346 C95.5402765,57.4786732 93.2878269,64.1504562 91.8812465,66.7251487 L94.2805862,62.3332475 C92.9554675,64.7588276 90.3382179,68.3359111 88.4192829,70.3390809 L87.168808,71.6444474 L87.168808,71.6444474 C83.8051237,74.0242947 77.5141043,76.3212422 74.3068327,76.6521185 L79.2814628,76.1389137 C76.5340504,76.4223489 72.990055,78.4674736 71.3730912,80.6966756 L71.3730912,80.6966756 C69.7528305,82.9304228 66.4759386,85.8026964 64.0391365,87.1200858 L68.4393497,84.7412326 C65.8470171,86.1427054 60.6295182,87.6436373 57.5857041,88 L63.7455162,87.2788235 C60.3435459,87.6771183 54.5061463,87.3993585 50.8338424,86.6831068 L55.7407282,87.6401532 C53.03073,87.1115911 49.1574832,85.1847941 47.5578977,83.755101 L47.5578977,83.755101 Z" id="Path-144" fill="#F86828"></path>
                    <path d="M9.98527124,21.1032671 L9.98527124,21.1032671 C2.39169453,28.7087433 7.98379133,39.3012599 7.98379133,39.3012599 L7.98379133,39.3012599 L7.98379133,39.3012599 C9.53913492,41.5456959 14.3781729,43.3651708 16.0134354,43.3651708 L16.0134354,43.3651708 L15.6779141,43.9498397 C14.3013225,46.3486448 13.6122936,50.4924031 14.1379225,53.2000185 L14.1920455,53.4788165 L14.1920455,53.4788165 C15.6214251,56.0788728 22.1599238,58.269411 25.1624416,58.3156095 L25.1624416,58.3156095 L32.1600726,57.4997358 L32.1600726,57.4997358 C30.8661863,59.8949036 33.8800944,63.2538433 33.8800944,63.2538433 L31.9914179,62.5949965 C33.0345051,62.9588675 34.769345,63.1255701 35.868372,62.967037 L38.7639142,62.5493591 C41.492968,62.1556969 45.6085578,60.6596478 47.9598357,59.205679 L49.6687083,58.1489568 L50.8121016,59.1348721 C52.9032931,60.9380467 56.7507518,63.0031412 59.4150244,63.7500202 L55.4322438,62.6335222 C58.0923154,63.3792235 62.3393765,63.1763963 64.9045489,62.1858129 L62.3764819,63.1620674 C64.9478199,62.1691031 68.1648147,59.4233498 69.5524295,57.0453838 L71.9152221,52.9962483 L71.9152221,52.9962483 C75.7319632,53.7701825 84.0308103,53.0715929 85.7163751,52.6421716 L85.7163751,52.6421716 L85.7163751,52.6421716 C89.4723675,51.5542351 94.1636769,46.0356556 96.2004296,40.299966 L92.517201,50.6722883 C95.4289662,42.4724803 94.2010821,31.6762926 94.2010821,31.6762926 C94.2010821,31.6762926 95.6723425,32.8701078 94.2010821,31.6762926 C92.7298217,30.4824774 89.5990951,29.1794023 89.5990951,29.1794023 C89.5990951,29.1794023 89.2449736,25.3315663 87.2178833,21.8470872 C85.1907929,18.362608 82.7071882,16.9113152 80.7639734,15.6618421 C78.6533276,14.3047119 75.2970439,12.8506383 71.9152221,12.5137469 C68.5334003,12.1768555 64.3794777,12.9633691 64.3794777,12.9633691 C64.3794777,12.9633691 63.4925196,8.89969259 60.6862234,6.01251118 C57.8799271,3.12532977 54.0176202,2.16634027 51.9171878,1.58477022 C49.7048116,0.972205018 45.5972941,0.654015716 41.9488775,1.58477022 C38.3004608,2.51552472 34.8501004,4.78724226 34.8501004,4.78724226 C34.8501004,4.78724226 30.0270954,4.87778371 25.7687022,6.01251118 C21.510309,7.14723865 21.7160088,7.76277921 20.5295393,8.58099493 C19.0209013,9.62138512 16.5596353,10.9584612 15.4556921,12.9633691 C14.3517489,14.968277 14.0205826,19.1517397 14.0205826,19.1517397 L9.98527124,21.1032671 Z" id="Path-145" fill="#FE7B41"></path>
                </g>
                <g id="Group-2" transform="translate(253.000000, 102.000000)">
                    <path d="M40.8636625,82.6321036 L41.0603578,101.092926 L32.8056967,97.3469844 L31.1405311,100.639616 L40.0537404,105.527765 L39.2007049,110.371873 L38.0370829,112.414643 C37.491784,113.37193 36.2458881,114.557213 35.2727351,115.05266 L35.5060493,114.933876 C34.5246411,115.433526 33.5674387,116.714324 33.3661784,117.804913 L33.2437047,118.468573 L33.2437047,118.468573 C33.6671021,119.350306 34.8247375,120.436893 35.8315255,120.896524 L35.4165203,120.707061 C36.4223369,121.166248 37.7514569,120.804336 38.3870583,119.896042 L39.80693,117.867001 L44.12772,116.354563 L48.1580367,120.214234 L50.4983689,120.881869 L52.7352889,120.225244 L55.0641308,116.158877 L58.0221783,116.02525 L61.4853367,116.870554 L65.7293719,119.490045 L60.3873294,104.59688 L60.0292935,84.8981442 C60.0292935,84.8981442 55.2496039,84.5579302 53.5920012,83.8751712 C51.9343985,83.1924123 48.2821313,80.0595422 48.2821313,80.0595422 C48.2821313,80.0595422 45.6939533,81.3176201 44.12772,81.8607553 C42.5614867,82.4038905 40.8636625,82.6321036 40.8636625,82.6321036 Z" id="Path-138" fill="#935D13"></path>
                    <path d="M38.4385336,112.877227 L63.2308552,113.140327 L66.1228919,119.992346 L62.756541,118.232148 L59.1699034,116.95592 L55.5138446,116.730405 L53.7379782,119.53287 L51.9784005,121.179888 L49.3528019,121.508869 L47.2662848,120.279096 L44.3564079,116.889617 L40.2524072,118.428945 L39.3901534,119.705003 C38.4597659,121.081893 36.4784083,121.663486 34.9498104,120.997553 L34.6451835,120.864843 L33.4429153,119.367323 L33.4519479,119.264413 C33.5968936,117.613023 34.9855061,115.844399 36.5588997,115.312253 L36.6711993,115.274272 L38.4385336,112.877227 Z" id="Path-142" fill="#A06718"></path>
                    <path d="M40.4557377,83.4750231 L41.0259115,101.242026 L39.0119121,111.279791 L37.1953927,114.697957 L34.7257511,115.95384 L34.7257511,115.95384 C33.8888329,116.570057 33.6081977,119.280863 33.6975534,119.777542 L33.6975534,119.777542 L35.6901096,121.701154 L36.9156283,121.548782 L39.5420623,118.536445 L43.8273477,116.733958 L45.5130417,110.320763 C46.529585,106.453341 47.4041773,100.081579 47.4667009,96.0760543 L47.7010987,81.0595422 C47.7010987,81.0595422 44.4917031,82.1960236 42.8460696,82.5521819 C41.2004361,82.9083402 40.4557377,83.4750231 40.4557377,83.4750231 Z" id="Path-143" fill-opacity="0.343608469" fill="#653F0B"></path>
                    <path d="M47.5578977,83.755101 L44.0626607,85.3018092 L41.3516011,86.1464729 L41.3516011,86.1464729 C37.775675,86.0674158 32.444908,84.0320691 29.866226,81.941837 L29.866226,81.941837 L29.866226,81.941837 C27.5985156,83.0435497 22.1761461,83.9777135 21.6936994,83.9832392 L21.6936994,83.9832392 L21.6936994,83.9832392 C18.7346825,83.8669788 12.5016182,81.4658891 10.3085453,80.1464662 L16.3359254,83.7727311 C13.0070953,81.7700003 8.18670367,77.2708279 6.58671157,75.1024293 L7.77455594,76.7122623 C7.11852761,75.8231761 6.27675579,74.2612478 5.894761,73.2245614 L6.58671157,75.1024293 C5.59091316,72.3999562 4.7971695,65.7395471 4.80425875,63.3942327 L4.79215666,67.3979279 C4.79884046,65.1867481 5.47187938,61.7294062 6.28961096,59.6902523 L6.57894237,58.9687548 C6.98832756,57.9478827 7.32019982,56.2338332 7.32019982,55.2602002 L7.32019982,57.1203023 C7.32019982,56.0929963 6.68226728,54.6347408 5.89375315,53.8616439 L7.22966934,55.1714398 C5.25700834,53.237349 2.64637735,49.6748431 1.39871847,47.214472 L3.65785064,51.6694585 C2.09832039,48.5940802 0.936483333,42.9624375 1.06223524,39.1085985 L0.834071326,46.1009934 C0.994498414,41.1844862 2.83870061,33.0642825 3.28011229,31.999583 L1.74802811,35.6950205 C2.59417484,33.6540867 4.49024096,30.6894408 5.99204045,29.063522 L3.91985051,31.3069723 C6.54459648,28.4652989 11.4401817,24.6912188 12.8392996,23.9479118 L8.67237349,26.1616675 C10.9737033,24.939044 14.9834424,23.3281491 15.8334315,23.0824604 L13.92025,23.635464 C14.976871,23.3300486 15.9668629,22.1991575 16.1318017,21.1072781 L15.896395,22.6656481 C16.3916059,19.3873988 18.2001345,14.4400394 19.9352406,11.6164143 L16.7930536,16.7298527 C18.6901838,13.6425576 22.6071504,9.11027534 24.8246226,7.21857106 L20.2281117,11.1398104 C22.7666946,8.97416973 27.924432,6.7286043 30.1534645,6.37627559 L30.1534645,6.37627559 L30.1534645,6.37627559 C32.1010877,6.18618982 35.5461128,4.80342704 37.8577651,3.28145372 L36.6940722,4.04761982 C38.0736972,3.13928573 40.4615844,1.95747104 42.018066,1.41129692 L39.720449,2.21753773 C41.808342,1.4848897 45.2982221,0.825526455 47.4992595,0.745393195 L44.6413835,0.849440003 C46.8496089,0.769045053 50.3412076,1.28368475 52.4247976,1.99370962 L49.1854691,0.889843799 C51.8031991,1.78188754 55.7566794,3.8052144 58.0093127,5.40445498 L53.9252886,2.50503188 C56.4844522,4.32189137 60.3074776,8.39248798 60.5704283,8.78317242 L60.0101513,7.95072933 C60.3195837,8.41047495 60.7467324,9.19046019 60.9709393,9.70841051 L60.8143337,9.34662885 C61.4737106,10.8698843 62.0459702,13.4453239 62.0700403,14.3005894 L62.0700403,14.3005894 L62.0700403,14.3005894 C63.6335586,14.1265562 68.928698,14.2683348 71.467439,14.4466293 L66.4738567,14.0959325 C69.231736,14.289617 73.4429108,15.4994122 75.7438444,16.7256425 L73.0963638,15.3147278 C74.558527,16.0939545 76.7960705,17.5691415 78.0839038,18.6015111 L75.7438444,16.7256425 C78.0947723,18.6102237 82.0058332,23.1045442 83.5911734,25.449887 L80.7885478,21.3036994 C82.3363952,23.5935756 84.1975801,27.6005851 84.9477466,30.2611455 L83.5911734,25.449887 C84.4510403,28.4995139 85.3375189,33.4910328 85.3375189,33.4910328 L85.2626556,32.4953356 C85.3040015,33.0452439 85.731408,33.723367 86.2064845,34.0035895 L85.3375189,33.4910328 C87.8890127,34.9960237 91.5147411,38.9376137 93.4298759,42.2844501 L90.6575835,37.439669 C92.8538575,41.2778163 95.2667842,47.9177318 96.0445364,52.2565572 L95.3166653,48.1960024 C95.8047549,50.9188944 95.8642874,55.3424454 95.4502071,58.0725075 L96.2004296,53.1262346 C95.5402765,57.4786732 93.2878269,64.1504562 91.8812465,66.7251487 L94.2805862,62.3332475 C92.9554675,64.7588276 90.3382179,68.3359111 88.4192829,70.3390809 L87.168808,71.6444474 L87.168808,71.6444474 C83.8051237,74.0242947 77.5141043,76.3212422 74.3068327,76.6521185 L79.2814628,76.1389137 C76.5340504,76.4223489 72.990055,78.4674736 71.3730912,80.6966756 L71.3730912,80.6966756 C69.7528305,82.9304228 66.4759386,85.8026964 64.0391365,87.1200858 L68.4393497,84.7412326 C65.8470171,86.1427054 60.6295182,87.6436373 57.5857041,88 L63.7455162,87.2788235 C60.3435459,87.6771183 54.5061463,87.3993585 50.8338424,86.6831068 L55.7407282,87.6401532 C53.03073,87.1115911 49.1574832,85.1847941 47.5578977,83.755101 L47.5578977,83.755101 Z" id="Path-144" fill="#F86828"></path>
                    <path d="M9.98527124,21.1032671 L9.98527124,21.1032671 C2.39169453,28.7087433 7.98379133,39.3012599 7.98379133,39.3012599 L7.98379133,39.3012599 L7.98379133,39.3012599 C9.53913492,41.5456959 14.3781729,43.3651708 16.0134354,43.3651708 L16.0134354,43.3651708 L15.6779141,43.9498397 C14.3013225,46.3486448 13.6122936,50.4924031 14.1379225,53.2000185 L14.1920455,53.4788165 L14.1920455,53.4788165 C15.6214251,56.0788728 22.1599238,58.269411 25.1624416,58.3156095 L25.1624416,58.3156095 L32.1600726,57.4997358 L32.1600726,57.4997358 C30.8661863,59.8949036 33.8800944,63.2538433 33.8800944,63.2538433 L31.9914179,62.5949965 C33.0345051,62.9588675 34.769345,63.1255701 35.868372,62.967037 L38.7639142,62.5493591 C41.492968,62.1556969 45.6085578,60.6596478 47.9598357,59.205679 L49.6687083,58.1489568 L50.8121016,59.1348721 C52.9032931,60.9380467 56.7507518,63.0031412 59.4150244,63.7500202 L55.4322438,62.6335222 C58.0923154,63.3792235 62.3393765,63.1763963 64.9045489,62.1858129 L62.3764819,63.1620674 C64.9478199,62.1691031 68.1648147,59.4233498 69.5524295,57.0453838 L71.9152221,52.9962483 L71.9152221,52.9962483 C75.7319632,53.7701825 84.0308103,53.0715929 85.7163751,52.6421716 L85.7163751,52.6421716 L85.7163751,52.6421716 C89.4723675,51.5542351 94.1636769,46.0356556 96.2004296,40.299966 L92.517201,50.6722883 C95.4289662,42.4724803 94.2010821,31.6762926 94.2010821,31.6762926 C94.2010821,31.6762926 95.6723425,32.8701078 94.2010821,31.6762926 C92.7298217,30.4824774 89.5990951,29.1794023 89.5990951,29.1794023 C89.5990951,29.1794023 89.2449736,25.3315663 87.2178833,21.8470872 C85.1907929,18.362608 82.7071882,16.9113152 80.7639734,15.6618421 C78.6533276,14.3047119 75.2970439,12.8506383 71.9152221,12.5137469 C68.5334003,12.1768555 64.3794777,12.9633691 64.3794777,12.9633691 C64.3794777,12.9633691 63.4925196,8.89969259 60.6862234,6.01251118 C57.8799271,3.12532977 54.0176202,2.16634027 51.9171878,1.58477022 C49.7048116,0.972205018 45.5972941,0.654015716 41.9488775,1.58477022 C38.3004608,2.51552472 34.8501004,4.78724226 34.8501004,4.78724226 C34.8501004,4.78724226 30.0270954,4.87778371 25.7687022,6.01251118 C21.510309,7.14723865 21.7160088,7.76277921 20.5295393,8.58099493 C19.0209013,9.62138512 16.5596353,10.9584612 15.4556921,12.9633691 C14.3517489,14.968277 14.0205826,19.1517397 14.0205826,19.1517397 L9.98527124,21.1032671 Z" id="Path-145" fill="#FE7B41"></path>
                </g>
                <g id="Group-7" transform="translate(52.000000, 46.000000)" fill="#F3F3F3">
                    <ellipse id="Oval-6" cx="8.66666667" cy="14.2372881" rx="8.66666667" ry="7.59322034"></ellipse>
                    <ellipse id="Oval-6" cx="43.3333333" cy="14.2372881" rx="8.66666667" ry="7.59322034"></ellipse>
                    <ellipse id="Oval-6" cx="25.2352941" cy="14" rx="13.5098039" ry="14"></ellipse>
                </g>
                <g id="Group-7" transform="translate(148.000000, 18.000000)" fill="#F3F3F3">
                    <ellipse id="Oval-6" cx="8.66666667" cy="14.2372881" rx="8.66666667" ry="7.59322034"></ellipse>
                    <ellipse id="Oval-6" cx="43.3333333" cy="14.2372881" rx="8.66666667" ry="7.59322034"></ellipse>
                    <ellipse id="Oval-6" cx="25.2352941" cy="14" rx="13.5098039" ry="14"></ellipse>
                </g>
                <g id="Group-7" transform="translate(338.000000, 46.000000)" fill="#F3F3F3">
                    <ellipse id="Oval-6" cx="8.66666667" cy="14.2372881" rx="8.66666667" ry="7.59322034"></ellipse>
                    <ellipse id="Oval-6" cx="43.3333333" cy="14.2372881" rx="8.66666667" ry="7.59322034"></ellipse>
                    <ellipse id="Oval-6" cx="25.2352941" cy="14" rx="13.5098039" ry="14"></ellipse>
                </g>
                <g id="Group-4" transform="translate(146.000000, 18.000000)">
                    <g id="Group-3">
                        <path d="M78.2261359,0.508560248 L76.7120573,7.11546242 C74.0847848,18.5799489 64.2830719,33.5202066 54.8046771,40.4962381 L51.2727843,43.0956863 L106.542469,43.0956863 L101.969057,39.4383035 C92.7879101,32.0960893 82.795111,16.9614573 79.6496585,5.63467094 L78.2261359,0.508560248 Z" id="Path-208" fill="#5E3823"></path>
                        <polygon id="Path-209" fill="#3C291F" points="62.4419998 42.7890665 62.4419998 48.5253654 95.1488394 48.5253654 95.1488394 42.8764626"></polygon>
                        <polygon id="Path-210" fill="#B27D38" points="79.2518099 48.4502255 42.7357761 47.7777171 50.1110429 57.5848589 107.704461 57.9333116 114.824505 48.4623412"></polygon>
                        <polygon id="Path-211" fill="#82531E" points="79.2175844 48.527942 42.8891976 47.7741405 50.0808963 57.464046 79.2175844 57.8213874"></polygon>
                        <polygon id="Path-212" fill="#FAF4C1" points="50.0583354 57.4987912 50.198025 88.2267463 107.88834 88.2267463 107.72997 57.8669951"></polygon>
                        <polygon id="Path-213" fill="#5E3823" points="46.1071237 89.6104521 46.1071237 74.8715203 111.244457 75.0160912 111.064505 90.6262237 109.308291 88.4250224 109.308291 77.6487632 104.859256 77.7045725 104.859256 88.2227606 103.185171 88.2227606 103.020113 77.6295772 98.2524928 77.6295772 98.2524928 88.4250224 96.6170259 88.4250224 96.6170259 77.6487632 92.1230789 77.7070371 92.2938528 88.2227606 90.0676121 88.4250224 90.0676121 77.6487632 86.0772941 77.6295772 86.0772941 88.4250224 84.2632702 89.098499 84.2632702 77.7070371 79.448899 77.6295772 79.448899 88.4250224 77.5059558 88.5442779 77.5059558 77.7070371 72.8650253 77.6487632 72.9700657 88.5442779 71.5156044 88.7132549 71.3659755 77.7070371 67.1507865 77.7045725 67.2441251 88.2227606 65.4920928 88.2227606 65.4920928 77.6487632 61.2039599 77.6487632 61.2039599 88.2227606 59.1369384 88.2227606 59.1369384 77.7070371 54.3994918 77.7070371 54.5325486 88.2227606 52.2664927 88.2227606 52.2664927 77.7070371 47.9217843 77.7070371 47.9217843 88.1148336"></polygon>
                        <polygon id="Path-214" fill="#B27D38" points="46.849158 88.3196264 30.6749312 108.585943 22.7791118 109.034839 29.8074951 118.19925 127.49579 118.473107 132.813687 109.425972 127.283649 109.425972 111.002629 90.0486681 110.653101 88.0053943"></polygon>
                        <polygon id="Path-215" fill="#FAF4C1" points="29.7619241 118.16775 29.772153 171.630757 126.787526 172.046409 127.518685 118.349662"></polygon>
                        <polygon id="Path-216" fill="#5E3823" points="24.2005206 173.591135 24.1303791 150.959165 132.403497 150.373618 132.300969 175.186449 129.393867 174.422189 129.417742 153.904827 122.028708 153.930272 122.028708 174.422189 118.807757 174.480348 118.738302 154.036987 111.747004 154.036987 111.747004 174.480348 108.914144 174.480348 108.484542 153.991035 100.773196 153.724816 100.773196 174.422189 97.8224659 174.480348 97.8224659 153.733171 90.0072093 153.645445 90.2874352 174.422189 87.2789506 174.203302 87.2789506 153.7195 79.3573418 153.7195 79.1721529 174.203302 76.3973343 174.203302 76.5617991 153.714563 68.6439886 153.617342 68.6439886 174.422189 65.7401945 174.480348 65.7401945 153.737349 58.6311489 153.695574 59.0516448 174.422189 56.0979595 174.422189 56.0979595 153.698233 48.5141274 153.939766 48.5141274 174.203302 45.9806668 174.422189 45.9806668 154.082939 37.8515085 153.98192 37.8515085 174.203302 34.7927984 174.203302 34.7927984 154.091294 26.6470904 153.874825 26.6470904 174.203302"></polygon>
                        <polygon id="Path-217" fill="#B27D38" points="24.1901656 173.611809 8.66938963 194.091809 0.86833275 194.091809 8.4778066 203.295809 148.099589 202.775024 154.789125 194.135303 146.966793 193.980517 129.475553 171.032546 25.6343513 171.469512"></polygon>
                        <path d="M7.99861871,203.636322 L7.99861871,234.245712 L7.99861871,234.245712 C12.7805341,234.88299 20.5791403,237.561629 25.4195305,240.229852 L33.0315306,244.425902 L33.0604123,244.402147 C38.6048861,239.841838 46.1605999,241.095351 48.3748746,244.67633 L48.3748746,244.67633 L53.0052871,244.826359 C53.5620137,244.844397 54.2399642,244.479295 54.5268412,243.998635 L57.2154403,239.493904 C63.4155013,229.10574 72.7683595,229.489709 78.1025092,240.345164 L78.9422754,242.05416 C79.6722669,243.539756 81.5969222,244.873346 83.2467191,245.033361 L83.3616946,245.044513 C86.1087956,245.310956 89.3690018,243.545682 90.647713,241.093717 L88.3357609,245.526951 C92.2601729,238.001779 98.7016354,238.286899 102.718331,246.154304 L102.800981,246.316189 L109.936376,241.492344 L109.936376,241.492344 C117.536419,233.074979 128.758564,234.641654 134.829428,244.705955 L134.829428,244.705955 L142.563526,243.609649 L148.24878,236.830571 L148.488866,202.501397 L7.99861871,203.636322 Z" id="Path-218" fill="#FAF4C1"></path>
                        <polygon id="Path-219" fill="#5E3823" points="50.6575929 245.627135 50.6575929 207.867328 104.686013 207.78489 104.686013 245.627135"></polygon>
                        <polygon id="Path-220" fill="#82531E" points="78.6190388 88.1849254 78.493683 117.772961 29.9847427 117.683156 22.7606492 108.975614 30.9735059 108.70033 47.0092489 88.1849254"></polygon>
                        <polygon id="Path-221" fill="#82531E" points="78.6833692 171.0384 25.8635494 171.687434 8.86035232 194.304534 1.12174939 194.312215 8.09549128 203.680477 78.4687405 203.253499"></polygon>
                    </g>
                    <polygon id="Path-447" fill="#934141" points="1.90877432 234.152042 152.267221 233 152.286228 245.646987 2.40641538 247"></polygon>
                </g>
                <g id="Group-18" transform="translate(308.604246, 293.260962) scale(-1, 1) rotate(43.000000) translate(-308.604246, -293.260962) translate(278.604246, 242.260962)">
                    <circle id="Oval" fill="#9D7051" cx="56" cy="46" r="1"></circle>
                    <path d="M22.3213442,87.8312911 L24.7367648,88.9836575 L29.6115628,87.8459548 C30.1440703,87.7216757 30.9461222,87.8702352 31.4011699,88.1765426 L31.9336487,88.5349714 C32.3895139,88.8418291 32.5329798,89.4811231 32.2588582,89.9546359 L31.5298963,91.213832 C31.2536393,91.6910334 31.4657388,92.1625846 32.0202661,92.270302 L33.5952299,92.5762401 C34.1423106,92.6825111 34.5460174,93.2071024 34.4960824,93.7573354 L34.4345715,94.4351222 C34.3850179,94.9811522 33.9122562,95.5149874 33.3686147,95.6295875 L32.3893234,95.8360228 C31.8501653,95.9496777 31.7097122,96.3771115 32.0779612,96.7933776 L33.0902609,97.9376742 C33.4574584,98.3527518 33.3316219,98.8493842 32.8223452,99.041962 L31.9774592,99.361447 C31.4622959,99.5562508 30.6186863,99.587887 30.0848149,99.4296215 L27.2043148,98.575701 C26.6741995,98.418549 25.9025283,97.9919798 25.4924126,97.6331462 L22.391458,94.9199434 C22.391458,94.9199434 21.9508155,92.5122919 21.9391201,91.3298629" id="Path-343" fill="#F48359" transform="translate(28.219689, 93.666300) rotate(-295.000000) translate(-28.219689, -93.666300) "></path>
                    <path d="M45.0983088,79.9327653 L47.5137294,81.0851317 L52.3885275,79.947429 C52.921035,79.8231499 53.7230868,79.9717094 54.1781345,80.2780168 L54.7106134,80.6364456 C55.1664786,80.9433033 55.3099445,81.5825973 55.0358229,82.0561101 L54.3068609,83.3153062 C54.030604,83.7925076 54.2427034,84.2640588 54.7972307,84.3717762 L56.3721946,84.6777143 C56.9192753,84.7839852 57.3229821,85.3085766 57.2730471,85.8588096 L57.2115362,86.5365964 C57.1619826,87.0826264 56.6892208,87.6164616 56.1455793,87.7310617 L55.1662881,87.937497 C54.62713,88.0511519 54.4866769,88.4785857 54.8549259,88.8948518 L55.8672256,90.0391484 C56.2344231,90.454226 56.1085865,90.9508584 55.5993099,91.1434362 L54.7544239,91.4629212 C54.2392606,91.657725 53.395651,91.6893612 52.8617796,91.5310957 L49.9812795,90.6771752 C49.4511642,90.5200232 48.6794929,90.093454 48.2693773,89.7346204 L45.1684226,87.0214176 C45.1684226,87.0214176 44.7277802,84.6137661 44.7160848,83.4313371" id="Path-343" fill="#F48359" transform="translate(50.996654, 85.767774) scale(-1, 1) rotate(-233.000000) translate(-50.996654, -85.767774) "></path>
                    <path d="M41.7338509,10.3330987 C41.0637953,8.82279259 39.7135164,6.52666555 38.7211479,5.20884379 L40.5206079,7.59844755 C33.0366311,-2.33994439 21.5487747,-1.64516843 14.8614852,9.1507211 L13.3807868,11.5411449 C12.7992262,12.4800102 12.1145359,14.1137639 11.8535571,15.1817696 L7.97535612,31.0525627 C6.14117421,38.5586002 4.61403945,50.9160005 4.56452983,58.6341518 L4.52689944,64.5004281 C4.5091845,67.2620456 5.2618585,71.6144274 6.19733985,74.1922487 L8.215126,79.7524796 C8.59245721,80.7922571 8.02518594,81.8268004 6.94132954,82.0646804 L2.14096598,83.1182431 C-0.0198326187,83.5924857 -0.346675305,85.0688329 1.44403947,86.3476009 C1.44403947,86.3476009 2.59119703,87.4530504 4.18714647,87.8622772 C5.78309592,88.2715041 13.3809922,87.8622772 13.3809922,87.8622772 L17.3871614,90.0739071 C19.3205319,91.1412359 22.668419,92.0543685 24.8791125,92.1138287 L30.5127995,92.2653559 C32.1638195,92.3097627 34.8215168,92.1537531 36.4707177,91.9137279 L34.9405076,92.1364351 C40.9545796,91.2611455 49.081958,86.8606715 51.6227771,83.9769353 L51.6227771,83.9769353 L54.4428045,74.4341792 C55.2251925,71.7866385 55.5421789,67.4314188 55.1472838,64.6819473 L54.6398583,61.148979 C54.4046453,59.5113001 53.6350421,56.9687076 52.9248405,55.4782064 L50.9757671,51.3876835 L53.4002407,51.3876835 C55.0544056,51.3876835 57.3371698,50.4278435 58.5005888,49.2421378 L58.5106979,49.231835 C59.2833928,48.4443382 59.214887,47.2445868 58.3598038,46.5538262 L55.6062944,44.3294626 C55.1806743,43.9856345 54.4301981,43.511956 53.9294409,43.2711748 L47.5659653,40.2113981 C47.0654848,39.97075 46.6276992,39.3311473 46.5869003,38.7812895 C46.5869003,38.7812895 45.671904,25.6872628 44.463267,19.3524234 C43.2546301,13.017584 41.7338509,10.3330987 41.7338509,10.3330987 Z" id="Path-342" fill="#4D4D4D"></path>
                    <path d="M36.8640397,9.43297223 L36.8640397,9.43297223 C30.3243398,6.80196407 25.6033338,11.177724 25.8931138,14.42694 L25.8931138,14.42694 C25.8931138,14.42694 24.7999564,22.6981331 24.5174302,26.7716475 C24.234904,30.845162 23.6539894,45.1134086 23.6539894,45.1134086 C23.5617616,47.3255165 25.169075,49.7582582 27.2225898,50.5389408 L36.9673009,54.2435774 C39.0304123,55.0279082 39.0317275,56.2877482 36.9489415,57.0654611 L27.3367229,60.6546662 C25.7796705,61.23607 24.9752543,62.9678161 25.5814584,64.5015776 C25.5814584,64.5015776 26.8597798,68.6048414 29.1799959,70.8585568 C31.500212,73.1122722 34.0374498,73.6834121 34.0374498,73.6834121 C36.6080514,74.6732294 40.9301294,75.4345383 43.6767793,75.2267316 C43.6767793,75.2267316 45.8133728,75.5906761 48.3742809,73.9944429 C50.9351891,72.3982097 48.3742809,73.9944429 48.3742809,73.9944429 C51.9694693,71.3480251 53.7788518,64.860273 52.419018,59.5168782 L50.0211834,50.0947144 C48.2502155,43.1357901 46.328952,31.6953277 45.4817654,24.5611591 C45.4817654,24.5611591 45.9276075,23.1539799 43.5149496,14.42694 C41.1022917,5.6999 36.8640397,9.43297223 36.8640397,9.43297223 Z" id="Path-344" fill="#EEEDED"></path>
                    <path d="M34.7264336,22.7604541 C34.7264336,22.7604541 37.0912938,20.9721002 38.4123542,20.4919065 C39.7334147,20.0117128 43.7383813,20.1269462 43.7383813,20.1269462 L41.9430035,21.7314063 C40.3887701,23.1203648 40.6987319,24.8725747 42.6449221,25.6489059 L44.6073106,26.4316984 L41.9800913,27.3643411 C40.0096845,28.0638203 37.4426859,27.2351086 36.250168,25.5185845 L35.0285297,23.7601442 L34.7264336,22.7604541 Z" id="Path-345" fill="#DF9778"></path>
                    <path d="M31.7726556,18.106914 C32.9424254,18.106914 33.8907112,19.8373892 33.8907112,18.5583944 C33.8907112,17.2793997 32.9424254,16.2425696 31.7726556,16.2425696 C30.6028858,16.2425696 29.6546001,17.2793997 29.6546001,18.5583944 C29.6546001,19.8373892 30.6028858,18.106914 31.7726556,18.106914 Z" id="Oval-11" fill="#3F3F3F"></path>
                    <path d="M41.9393223,16.4437982 C43.1090921,16.4437982 44.0573778,17.9847293 44.0573778,16.7057346 C44.0573778,15.4267399 43.1090921,14.3899098 41.9393223,14.3899098 C40.7695525,14.3899098 39.8212667,15.4267399 39.8212667,16.7057346 C39.8212667,17.9847293 40.7695525,16.4437982 41.9393223,16.4437982 Z" id="Oval-11" fill="#3F3F3F"></path>
                </g>
                <g id="Group-45" transform="translate(148.000000, 305.000000)" fill="#F06138">
                    <path d="M7.1661582,13.3881153 L7.0025004,7.72421731 C6.97115044,6.6392524 7.23816933,4.9344879 7.60277297,3.90560059 L8.98678872,0 L10.2972292,3.90560059 C10.64081,4.92959946 10.9193373,6.63478913 10.9193373,7.72421731 L10.9193373,13.3881153 L7.1661582,13.3881153 Z" id="Path-451"></path>
                    <path d="M8,12.0856126 L11.5153143,7.6416178 C12.1887008,6.7903351 13.4890507,5.65604615 14.4297093,5.10223546 L18.0003985,3 L16.4937825,6.83419853 C16.0987669,7.83947668 15.2160564,9.32476165 14.5157855,10.1593121 L10.875102,14.4981096" id="Path-451"></path>
                    <path d="M13.3734361,19.4804886 L13.2503945,15.6548908 C13.2231001,14.8062573 13.4504986,13.4857038 13.7640019,12.6909047 L14.7979334,10.0696633 L15.7726428,12.679505 C16.0694156,13.4741317 16.3099975,14.7974283 16.3099975,15.6548908 L16.3099975,19.4804886 L13.3734361,19.4804886 Z" id="Path-451" transform="translate(14.779086, 14.775076) rotate(93.000000) translate(-14.779086, -14.775076) "></path>
                    <path d="M3.37343613,19.4804886 L3.25039449,15.6548908 C3.22310012,14.8062573 3.45049862,13.4857038 3.76400192,12.6909047 L4.79793337,10.0696633 L5.7726428,12.679505 C6.06941563,13.4741317 6.30999755,14.7974283 6.30999755,15.6548908 L6.30999755,19.4804886 L3.37343613,19.4804886 Z" id="Path-451" transform="translate(4.779086, 14.775076) scale(-1, 1) rotate(93.000000) translate(-4.779086, -14.775076) "></path>
                    <path d="M5.32689364,21.658376 L5.203852,17.8327782 C5.17655763,16.9841447 5.40395613,15.6635912 5.71745943,14.8687921 L6.75139088,12.2475506 L7.72610031,14.8573924 C8.02287314,15.6520191 8.26345506,16.9753157 8.26345506,17.8327782 L8.26345506,21.658376 L5.32689364,21.658376 Z" id="Path-451" transform="translate(6.732543, 16.952963) scale(-1, 1) rotate(125.000000) translate(-6.732543, -16.952963) "></path>
                    <rect id="Rectangle" x="9" y="14" width="2" height="6"></rect>
                    <path d="M12.3268936,21.658376 L12.203852,17.8327782 C12.1765576,16.9841447 12.4039561,15.6635912 12.7174594,14.8687921 L13.7513909,12.2475506 L14.7261003,14.8573924 C15.0228731,15.6520191 15.2634551,16.9753157 15.2634551,17.8327782 L15.2634551,21.658376 L12.3268936,21.658376 Z" id="Path-451" transform="translate(13.732543, 16.952963) rotate(125.000000) translate(-13.732543, -16.952963) "></path>
                    <path d="M8.17944693,14.7542073 L4.05874271,10.8649502 C3.2693889,10.1199319 2.25274922,8.72567048 1.78302975,7.74032358 L-2.27373675e-13,4 L3.688298,5.83505532 C4.6553229,6.31618352 6.05802262,7.32498615 6.82836467,8.0953282 L10.8333454,12.1003089" id="Path-451"></path>
                </g>
                <g id="Group-43" transform="translate(18.000000, 234.000000)" fill="#FFA72E">
                    <path d="M8.1661582,13.3881153 L8.0025004,7.72421731 C7.97115044,6.6392524 8.23816933,4.9344879 8.60277297,3.90560059 L9.98678872,0 L11.2972292,3.90560059 C11.64081,4.92959946 11.9193373,6.63478913 11.9193373,7.72421731 L11.9193373,13.3881153 L8.1661582,13.3881153 Z" id="Path-451"></path>
                    <path d="M10,11.0856126 L13.5153143,6.6416178 C14.1887008,5.7903351 15.4890507,4.65604615 16.4297093,4.10223546 L20.0003985,2 L18.4937825,5.83419853 C18.0987669,6.83947668 17.2160564,8.32476165 16.5157855,9.15931205 L12.875102,13.4981096" id="Path-451"></path>
                    <path d="M14.3734361,18.4804886 L14.2503945,14.6548908 C14.2231001,13.8062573 14.4504986,12.4857038 14.7640019,11.6909047 L15.7979334,9.06966327 L16.7726428,11.679505 C17.0694156,12.4741317 17.3099975,13.7974283 17.3099975,14.6548908 L17.3099975,18.4804886 L14.3734361,18.4804886 Z" id="Path-451" transform="translate(15.779086, 13.775076) rotate(93.000000) translate(-15.779086, -13.775076) "></path>
                    <path d="M4.37343613,18.4804886 L4.25039449,14.6548908 C4.22310012,13.8062573 4.45049862,12.4857038 4.76400192,11.6909047 L5.79793337,9.06966327 L6.7726428,11.679505 C7.06941563,12.4741317 7.30999755,13.7974283 7.30999755,14.6548908 L7.30999755,18.4804886 L4.37343613,18.4804886 Z" id="Path-451" transform="translate(5.779086, 13.775076) scale(-1, 1) rotate(93.000000) translate(-5.779086, -13.775076) "></path>
                    <path d="M6.32689364,20.658376 L6.203852,16.8327782 C6.17655763,15.9841447 6.40395613,14.6635912 6.71745943,13.8687921 L7.75139088,11.2475506 L8.72610031,13.8573924 C9.02287314,14.6520191 9.26345506,15.9753157 9.26345506,16.8327782 L9.26345506,20.658376 L6.32689364,20.658376 Z" id="Path-451" transform="translate(7.732543, 15.952963) scale(-1, 1) rotate(125.000000) translate(-7.732543, -15.952963) "></path>
                    <path d="M13.3268936,20.658376 L13.203852,16.8327782 C13.1765576,15.9841447 13.4039561,14.6635912 13.7174594,13.8687921 L14.7513909,11.2475506 L15.7261003,13.8573924 C16.0228731,14.6520191 16.2634551,15.9753157 16.2634551,16.8327782 L16.2634551,20.658376 L13.3268936,20.658376 Z" id="Path-451" transform="translate(14.732543, 15.952963) rotate(125.000000) translate(-14.732543, -15.952963) "></path>
                    <rect id="Rectangle" x="10" y="14" width="2" height="6"></rect>
                    <path d="M8.17944693,13.7542073 L4.05874271,9.86495016 C3.2693889,9.11993189 2.25274922,7.72567048 1.78302975,6.74032358 L2.27373675e-13,3 L3.688298,4.83505532 C4.6553229,5.31618352 6.05802262,6.32498615 6.82836467,7.0953282 L10.8333454,11.1003089" id="Path-451"></path>
                </g>
                <g id="Group-44" transform="translate(390.000000, 254.000000)" fill="#F04638">
                    <g id="Group-40">
                        <rect id="Rectangle" x="10" y="15" width="2" height="6"></rect>
                        <path d="M8.55899245,13.9172096 L8.39533465,8.25331155 C8.36398469,7.16834665 8.63100358,5.46358215 8.99560723,4.43469484 L10.379623,0.529094247 L11.6900634,4.43469484 C12.0336443,5.45869371 12.3121716,7.16388337 12.3121716,8.25331155 L12.3121716,13.9172096 L8.55899245,13.9172096 Z" id="Path-451"></path>
                        <path d="M10.0190542,11.8507407 L13.5343685,7.40674593 C14.2077551,6.55546323 15.5081049,5.42117428 16.4487635,4.86736359 L20.0194527,2.76512813 L18.5128367,6.59932666 C18.1178211,7.60460481 17.2351106,9.08988978 16.5348397,9.92444018 L12.8941562,14.2632378" id="Path-451"></path>
                        <path d="M14.3734361,19.4804886 L14.2503945,15.6548908 C14.2231001,14.8062573 14.4504986,13.4857038 14.7640019,12.6909047 L15.7979334,10.0696633 L16.7726428,12.679505 C17.0694156,13.4741317 17.3099975,14.7974283 17.3099975,15.6548908 L17.3099975,19.4804886 L14.3734361,19.4804886 Z" id="Path-451" transform="translate(15.779086, 14.775076) rotate(93.000000) translate(-15.779086, -14.775076) "></path>
                        <path d="M4.37343613,19.4804886 L4.25039449,15.6548908 C4.22310012,14.8062573 4.45049862,13.4857038 4.76400192,12.6909047 L5.79793337,10.0696633 L6.7726428,12.679505 C7.06941563,13.4741317 7.30999755,14.7974283 7.30999755,15.6548908 L7.30999755,19.4804886 L4.37343613,19.4804886 Z" id="Path-451" transform="translate(5.779086, 14.775076) scale(-1, 1) rotate(93.000000) translate(-5.779086, -14.775076) "></path>
                        <path d="M6.32689364,21.658376 L6.203852,17.8327782 C6.17655763,16.9841447 6.40395613,15.6635912 6.71745943,14.8687921 L7.75139088,12.2475506 L8.72610031,14.8573924 C9.02287314,15.6520191 9.26345506,16.9753157 9.26345506,17.8327782 L9.26345506,21.658376 L6.32689364,21.658376 Z" id="Path-451" transform="translate(7.732543, 16.952963) scale(-1, 1) rotate(125.000000) translate(-7.732543, -16.952963) "></path>
                        <path d="M13.3268936,21.658376 L13.203852,17.8327782 C13.1765576,16.9841447 13.4039561,15.6635912 13.7174594,14.8687921 L14.7513909,12.2475506 L15.7261003,14.8573924 C16.0228731,15.6520191 16.2634551,16.9753157 16.2634551,17.8327782 L16.2634551,21.658376 L13.3268936,21.658376 Z" id="Path-451" transform="translate(14.732543, 16.952963) rotate(125.000000) translate(-14.732543, -16.952963) "></path>
                        <path d="M8.83311864,14.6470751 L4.71241441,10.757818 C3.9230606,10.0127997 2.90642093,8.61853828 2.43670145,7.63319137 L0.653671701,3.89286779 L4.34196971,5.72792311 C5.3089946,6.20905131 6.71169432,7.21785394 7.48203637,7.98819599 L11.4870171,11.9931767" id="Path-451"></path>
                    </g>
                </g>
                <g id="Group-46" transform="translate(65.000000, 234.000000)">
                    <path d="M6.21537473,32.2621041 C6.21537473,32.2621041 2.88485974,31.5233008 1.90223076,30.2859355 C0.919601785,29.0485703 0.492559137,26.9989565 0.492559137,26.9989565 C0.354294084,26.4669429 0.610382947,26.2843798 1.06521203,26.5887861 C1.06521203,26.5887861 3.14901692,28.0142111 4.27086885,28.5979112 C5.39272078,29.1816113 7.67885751,29.9049529 7.67885751,29.9049529 L16.8187253,30.6427316 C30.2438467,31.72642 37.4010295,22.3418251 34.1642172,13.4262407 L34.504763,14.3642513 C34.3166847,13.8462023 33.7172099,13.3960799 33.1678513,13.3590133 L29.5057253,13.1119201 C28.4029175,13.0375108 26.7578411,12.4956092 25.8228873,11.8961264 L22.7856384,9.94867382 C22.3185011,9.64915017 22.299806,9.12623608 22.7316408,8.79023684 L31.4183205,2.03136148 L31.4183205,2.03136148 C35.733929,-1.4413589 44.6318521,0.851955672 44.6318521,0.851955672 L44.6318521,0.851955672 L48.8293074,2.73307931 C49.3339785,2.95925175 49.3705923,3.39552169 48.913798,3.70567451 L46.3748603,5.4295547 C45.916852,5.74053175 45.0945556,5.96926938 44.5547542,5.94131138 L42.3019724,5.82463279 L44.46324,23.6688621 C45.0609905,28.6041123 44.5760585,36.5067243 43.3759511,41.3365947 L43.2726258,41.7524305 C42.6057249,44.4363946 39.8227963,46.6121774 37.4171224,46.6121774 L37.4171224,46.6121774 L33.5290749,80.4106429 L31.4183205,80.3432167 L30.3500375,46.9733328 L30.3500375,46.9733328 C24.9132478,48.4863631 14.0763687,45.5450047 14.0763687,45.5450047 L14.0763687,45.5450047 C14.0763687,45.5450047 12.3698743,51.0852253 11.073124,53.6597774 C9.77637374,56.2343296 6.89944795,60.7693074 6.89944795,60.7693074 C5.4477238,63.1128815 4.40407001,67.2460453 4.56828319,69.9993309 L5.18691624,80.3716621 L3.03849802,80.9806045 C3.03849802,80.9806045 2.16834352,75.417953 1.90223076,72.5942186 C1.63611801,69.7704843 1.60037598,67.5881852 1.60037598,67.5881852 C1.54119964,65.9288385 1.95483608,63.3137762 2.4901585,61.76085 C2.4901585,61.76085 3.77101874,58.5575626 4.27086885,55.1362503 C4.6139156,52.7882063 4.22375061,44.1628262 4.68441985,38.183247 C5.14508909,32.2036677 6.21537473,32.2621041 6.21537473,32.2621041 Z" id="Path-452" fill="#A5693B"></path>
                    <path d="M13.8990718,45.4809806 L11.8989017,51.6041994 C11.3843457,53.1794348 10.9401265,55.8026574 10.9103737,57.2812716 L10.9103737,57.2812716 L9.5452372,59.7797991 C8.4842088,61.7217357 7.8733422,65.0661992 8.18702213,67.2583016 C8.18702213,67.2583016 8.73906646,71.3003615 9.11655812,73.2892639 C9.49404978,75.2781664 10.9739218,80.9454302 10.9739218,80.9454302 L12.894096,80.6682455 L11.6476718,67.1707808 C11.4441749,64.9671232 12.2439967,61.6806205 13.4430357,59.8163153 L14.2344285,58.5858316 C15.9650573,55.8949929 18.1747995,51.251054 19.171554,48.2086396 L19.6934221,46.6157308 L13.8990718,45.4809806 Z" id="Path-453" fill="#794924"></path>
                    <path d="M37.2771827,46.6743827 L36.4575488,80.3119574 L38.6993297,80.3119574 L41.8260165,44.0601134 C41.8260165,44.0601134 40.4878488,44.9952809 39.6330346,45.7309724 C38.7782204,46.466664 37.2771827,46.6743827 37.2771827,46.6743827 Z" id="Path-454" fill="#794924"></path>
                    <path d="M42.2182329,3.20497125 L42.2182329,4.45046945 L43.4319459,4.52242351 C43.7924907,4.54379814 44.3630824,4.47373046 44.7233447,4.36060147 L45.3323759,4.16935445 C45.685051,4.05860798 45.6926382,3.85612021 45.3533445,3.71871423 L44.7023761,3.45508725 C44.3612816,3.316952 43.7931235,3.20497125 43.4319459,3.20497125 L42.2182329,3.20497125 Z" id="Path-455" fill="#FBD899"></path>
                    <ellipse id="Oval-3" fill="#2D2C2C" cx="23.5" cy="9" rx="1.5" ry="1"></ellipse>
                    <path d="M33.5,7.70372401 C34.3284271,7.70372401 35,8.32842712 35,7.5 C35,6.67157288 34.3284271,6 33.5,6 C32.6715729,6 32,6.67157288 32,7.5 C32,8.32842712 32.6715729,7.70372401 33.5,7.70372401 Z" id="Oval-4" fill="#3F3F3F"></path>
                    <path d="M0.47619885,26.6386192 L0.668705755,28.8128295 C0.785478382,30.1316821 1.94557761,31.4028524 3.2354208,31.6474337 L5.2814593,32.0354054 L4.04929184,31.3125959 C2.90226222,30.6397296 1.54765881,29.1132581 1.01636577,27.8861862 L0.47619885,26.6386192 Z" id="Path-456" fill="#FFE9D9"></path>
                    <g id="Group-41" transform="translate(8.000000, 31.000000)" fill="#FFF0BE">
                        <ellipse id="Oval-2" cx="1" cy="0.5" rx="1" ry="1"></ellipse>
                        <ellipse id="Oval-2" cx="3" cy="2.5" rx="1" ry="1"></ellipse>
                        <ellipse id="Oval-2" cx="17" cy="2.5" rx="1" ry="1"></ellipse>
                        <ellipse id="Oval-2" cx="13" cy="2.5" rx="1" ry="1"></ellipse>
                        <ellipse id="Oval-2" cx="7" cy="1.5" rx="1" ry="1"></ellipse>
                    </g>
                </g>
                <g id="Group-47" transform="translate(278.000000, 304.000000)">
                    <path d="M0.036594628,0.239693387 L3.88677411,11.1954477 L5.83669973,10.1109182 C8.51786307,8.61968147 11.1563,4.97720709 11.7316654,1.96553027 L12.087606,0.102404896 L0.036594628,0.239693387 Z" id="Path-449" fill="#FA6464"></path>
                    <path d="M3.95122135,11.4197547 L4.29284663,12.4328113 L6.9638237,10.8372646 C9.19413607,9.50495522 11.5794862,6.39866671 12.2926509,3.89567042 L13.362177,0.14195154 L12.0742035,0.103775024 L11.1774639,2.78580991 C10.3527706,5.2523632 7.9796567,8.49110917 5.87617698,10.0203248 L3.95122135,11.4197547 Z" id="Path-450" fill="#57A32F"></path>
                    <path d="M4.05101568,11.3453029 L3.8725358,11.0649561 L3.8725358,11.0649561 C4.36251257,9.57993222 6.54274613,8.00720185 7.08116872,7.89581067 L7.08116872,7.89581067 L7.90426325,7.29489235 C7.90426325,7.29489235 9.29261151,5.85771883 9.76106092,4.97723313 C10.2295103,4.09674742 10.226156,3.94258241 10.226156,3.94258241 C10.4081095,3.41855001 10.2853479,2.63258791 9.95628005,2.19285914 L9.68143641,1.82558945 C9.35043459,1.38327637 9.18783683,0.581549109 9.30396539,0.0948126619 L9.30396539,0.0948126619 L12.0033027,0.0948126619 C12.0033027,0.0948126619 11.7345129,2.17558088 11.1099861,3.9640748 C10.4854593,5.75256872 9.88625124,6.42618117 9.30396539,7.15913674 C7.87382655,8.95933198 4.05101568,11.3453029 4.05101568,11.3453029 Z" id="Path-462" fill="#E94343"></path>
                    <path d="M4,6 L4.02995682,6.66823946 C4.04303692,6.96001411 4.2870083,7.12387929 4.56296137,7.03795443 L4.70004773,6.99526917 L4.70004773,6.99526917 C4.86198443,6.79787241 4.80174953,6.51486669 4.54312847,6.34878568 L4,6 Z" id="Path-463" fill="#212121"></path>
                    <path d="M6,4 L6.02995682,4.66823946 C6.04303692,4.96001411 6.2870083,5.12387929 6.56296137,5.03795443 L6.70004773,4.99526917 L6.70004773,4.99526917 C6.86198443,4.79787241 6.80174953,4.51486669 6.54312847,4.34878568 L6,4 Z" id="Path-463" fill="#212121" transform="translate(6.500000, 4.530393) rotate(-20.000000) translate(-6.500000, -4.530393) "></path>
                    <path d="M6.55523808,1.36507588 L6.5851949,2.03331535 C6.598275,2.32508999 6.84224639,2.48895517 7.11819945,2.40303031 L7.25528581,2.36034506 L7.25528581,2.36034506 C7.41722251,2.1629483 7.35698761,1.87994257 7.09836656,1.71386157 L6.55523808,1.36507588 Z" id="Path-463" fill="#212121" transform="translate(7.055238, 1.895468) rotate(-59.000000) translate(-7.055238, -1.895468) "></path>
                    <path d="M5.91466555,10.0765161 L6.03564331,11.376666 C6.03564331,11.376666 6.72870903,11.0365192 7.0431657,10.8279352 C7.35762237,10.6193512 8.13517763,9.9937589 8.13517763,9.9937589 L7.83399643,8.57757566 L7.69982639,8.6955616 C7.24100771,9.09903579 6.45877299,9.7057189 5.95567476,10.0485692 L5.91466555,10.0765161 Z" id="Path-464" fill="#316316"></path>
                    <path d="M9.28457454,6.72203359 L9.38954063,7.98281063 C9.38954063,7.98281063 10.0870956,7.50197487 10.4175429,7.26738659 C10.7479902,7.03279831 11.4272302,6.51569211 11.4272302,6.51569211 L11.107218,5.26442468 C11.107218,5.26442468 10.5078208,5.84571892 10.1557089,6.11764621 C9.80359697,6.38957351 9.28457454,6.72203359 9.28457454,6.72203359 Z" id="Path-464" fill="#316316" transform="translate(10.355902, 6.623618) rotate(-19.000000) translate(-10.355902, -6.623618) "></path>
                    <path d="M11.3340336,3.20100253 L12.4294165,3.41810832 L13.0090685,1.3895722 L11.8028931,1.21786415 C11.8028931,1.21786415 11.6361212,1.92584657 11.5414877,2.28246347 C11.4468541,2.63908037 11.3340336,3.20100253 11.3340336,3.20100253 Z" id="Path-465" fill="#316316"></path>
                </g>
                <g id="Group-42" transform="translate(218.000000, 263.000000)">
                    <path d="M5.92996155,4.93705861 L4.66930739,4.59854135 C2.00532595,3.88319553 0.258396883,1.11161869 0.464401407,0.0174957261 L0.464401407,0.0174957261 C0.464401407,0.0174957261 2.08916501,0.387225254 3.21509997,1.09228928 C4.34103492,1.7973533 5.13945883,2.13890213 5.13945883,2.13890213 C6.13292547,2.62386627 7.84017606,2.99575905 8.93444095,2.96997831 L18.5765182,2.74281222 C24.0949629,2.61279838 32.4563539,4.71971791 37.2071083,7.54026828 C37.2071083,7.54026828 37.8397813,7.66091919 41.8237126,10.5484168 C45.8076439,13.4359144 50.3409448,19.7516704 50.3409448,19.7516704 L56.8993941,25.6701098 C58.130292,26.7808899 59.367874,29.0021548 59.6656529,30.642694 L61.3486313,39.9146477 L62.8046401,42.1638942 C63.4038565,43.0895654 63.1981668,44.4097498 62.4903186,44.9930417 L62.4903186,44.9930417 L58.9068455,44.3871368 C58.358408,44.2944053 57.5614002,43.9341988 57.140276,43.5935908 L51.9968792,39.4335778 L51.8853887,39.3021204 C50.0963118,37.192635 48.3744563,33.2646892 48.037405,30.5115581 L48.0100813,30.2883702 L39.7275812,23.2421995 C38.8875297,22.5275425 37.3648255,22.2410692 36.3083954,22.608652 L36.3953261,22.5784046 C35.3470135,22.943163 34.2539177,24.0954162 33.9511217,25.1615641 L33.2354774,27.6813551 L31.9090385,50.8959876 L29.3495123,50.8959876 C29.3495123,50.8959876 28.5812735,40.2394343 28.5685462,34.8784287 C28.555819,29.5174231 29.2779536,20.753818 29.2779536,20.753818 L29.2779536,20.753818 C24.2181296,20.753818 13.6134191,18.5237874 13.6134191,18.5237874 L13.6134191,18.5237874 L9.9525388,27.2315108 L6.87055089,31.7071991 C4.99004946,34.4380788 3.70895657,39.320454 4.01024554,42.6243045 L4.80941666,51.3877914 L2.36536026,51.4782156 L1.40338638,42.5272442 C1.1086851,39.7851086 1.5069956,35.4127075 2.2707158,32.7689143 C2.2707158,32.7689143 3.18273432,29.8757588 3.46560185,28.1375403 C3.74846937,26.3993217 4.80941666,16.7820188 4.80941666,16.7820188 C4.80941666,16.7820188 4.58820629,10.0937729 4.80941666,8.43328697 C5.03062702,6.77280107 5.92996155,4.93705861 5.92996155,4.93705861 Z" id="Path-457" fill="#A5693B"></path>
                    <path d="M0.385847504,0.0511734218 L0.868061735,2.18779461 C1.16402048,3.49914481 2.48676865,4.65002559 3.82380663,4.75846457 L5.87709806,4.92499449 L4.73248432,4.42753961 C3.4974253,3.89077677 1.91954573,2.52535783 1.20781244,1.37717927 L0.385847504,0.0511734218 Z" id="Path-456" fill="#FFE3CD"></path>
                    <path d="M50.169987,24.3737154 C50.169987,24.3737154 46.8930798,23.759709 46.1715938,23.9498115 C45.4501078,24.139914 42.5212854,25.2156751 42.5212854,25.2156751 C42.5212854,25.2156751 44.3544132,26.7502472 45.4218021,27.4122844 C46.4891909,28.0743216 47.8446477,28.3400103 47.8446477,28.3400103 L50.169987,24.3737154 Z" id="Path-458" fill="#FBD899"></path>
                    <path d="M13.5877969,18.0350391 L9.77107069,26.9907404 L9.07643246,29.5742191 C8.31749956,32.3968208 7.79103983,37.0539146 7.90057059,39.9766319 L7.88747827,39.6272767 C7.9909757,42.3890007 8.86732789,46.7144122 9.84899641,49.2992304 L10.3406314,50.5937478 L12.5314946,50.0682769 L10.5692899,41.2482238 C9.93413806,38.3932344 10.8268526,34.181761 12.5350731,31.8058475 C12.5350731,31.8058475 14.8035801,28.967834 16.1880926,26.0622493 C17.5726052,23.1566646 18.4827427,19.3140928 18.4827427,19.3140928 L13.5877969,18.0350391 Z" id="Path-459" fill="#794924"></path>
                    <path d="M34.1149325,24.3428178 L36.0179443,50.7049918 L38.6139985,50.3974838 L38.6139985,22.4679364 L37.6733546,22.1522345 C36.4921707,21.7558019 35.0932123,22.3387192 34.5486033,23.4544022 L34.1149325,24.3428178 Z" id="Path-460" fill="#794924"></path>
                    <path d="M49.6699884,25.2101365 L50.1802793,24.332436 L47.0062204,23.8868448 C46.6364679,23.834937 46.0626644,23.8947846 45.7074561,24.0268922 L42.5259727,25.2101365 C42.5259727,25.2101365 45.1655808,24.5497368 46.5681094,24.5375108 C47.970638,24.5252848 49.6699884,25.2101365 49.6699884,25.2101365 Z" id="Path-461" fill="#523C17"></path>
                    <ellipse id="Oval-3" fill="#2D2C2C" transform="translate(61.633010, 42.966716) rotate(67.000000) translate(-61.633010, -42.966716) " cx="61.6330105" cy="42.9667162" rx="1.5" ry="1"></ellipse>
                    <path d="M55.5,34.703724 C56.3284271,34.703724 57,35.3284271 57,34.5 C57,33.6715729 56.3284271,33 55.5,33 C54.6715729,33 54,33.6715729 54,34.5 C54,35.3284271 54.6715729,34.703724 55.5,34.703724 Z" id="Oval-4" fill="#3F3F3F"></path>
                    <g id="Group-41" transform="translate(9.000000, 5.000000)" fill="#FFF0BE">
                        <ellipse id="Oval-2" cx="1" cy="0.5" rx="1" ry="1"></ellipse>
                        <ellipse id="Oval-2" cx="3" cy="2.5" rx="1" ry="1"></ellipse>
                        <ellipse id="Oval-2" cx="17" cy="2.5" rx="1" ry="1"></ellipse>
                        <ellipse id="Oval-2" cx="13" cy="2.5" rx="1" ry="1"></ellipse>
                        <ellipse id="Oval-2" cx="7" cy="1.5" rx="1" ry="1"></ellipse>
                    </g>
                </g>
            </g>
        </g>
    </g>
</svg>