<?xml version="1.0" encoding="UTF-8"?>
<svg width="542px" height="357px" viewBox="0 0 542 357" version="1.1" xmlns="http://www.w3.org/2000/svg" xmlns:xlink="http://www.w3.org/1999/xlink">
    <!-- Generator: Sketch 43.1 (39012) - http://www.bohemiancoding.com/sketch -->
    <title>Group 3</title>
    <desc>Created with Sketch.</desc>
    <defs></defs>
    <g id="Page-1" stroke="none" stroke-width="1" fill="none" fill-rule="evenodd">
        <g id="Group-3">
            <rect id="Rectangle-2" fill="#9FE1E1" x="0" y="0" width="542" height="357"></rect>
            <ellipse id="Oval-5" fill-opacity="0.193302763" fill="#2F2115" cx="373" cy="292" rx="55" ry="9"></ellipse>
            <path d="M243.614204,115.26115 L242.682211,114.382415 C239.132799,111.035831 234.487893,104.784579 232.309023,100.422857 L230.90264,97.6075202 L241.113962,97.8637772 C245.98436,97.9860017 253.544521,99.6842879 257.999317,101.656679 L267.675481,105.940867 L263.258694,107.510301 C258.66715,109.141831 251.297474,112.008558 246.815713,113.905841 L243.614204,115.26115 Z" id="Path-2" fill="#E8904A"></path>
            <path d="M297.538528,111.182088 C298.028269,111.440174 298.089978,111.358513 297.674633,110.998194 L297.318233,110.689011 C289.795181,104.162635 282.825789,90.8427486 282.485115,87.7013968 L282.485115,87.7013968 L293.949361,88.944194 C303.843953,90.0168307 316.831498,97.254927 322.955786,105.108284 L329.779589,113.858649 L326.825673,114.780436 C317.319662,117.746842 301.62558,121.34027 291.772922,122.806439 L285.372053,123.758949 L272.451442,123.758949 C262.498386,123.758949 248.106526,118.739811 243.532395,115.109089 L243.532395,115.109089 L260.640706,107.646537 C269.762939,103.667468 284.29884,104.204942 293.113501,108.850155 L297.538528,111.182088 Z" id="Path-3" fill="#FEA863"></path>
            <path d="M243.387346,115.000687 L241.190032,115.78893 C233.806316,118.437691 229.142104,126.805724 230.150444,131.552445 L230.150444,131.552445 C230.150444,131.552445 244.302077,136.631186 252.803967,137.509843 C261.305858,138.388501 274.425396,139.702857 274.425396,139.702857 C282.235167,140.488607 294.926259,141.375344 302.755909,141.580069 C302.755909,141.580069 312.647942,142.266214 318.789942,141.125583 C324.931942,139.984952 340.628972,129.90706 340.628972,129.90706 C343.442033,128.164565 343.930265,124.756468 341.708917,122.283115 L342.209504,122.840493 C339.25846,119.554662 333.614982,115.399864 329.590618,113.55415 L329.199907,113.374956 C329.199907,113.374956 315.772174,117.24251 309.073781,118.746537 C302.375388,120.250565 296.891639,121.178883 296.891639,121.178883 C289.175798,122.607843 276.582588,123.339759 268.757992,122.813263 L268.840735,122.818831 C261.018793,122.292514 249.247559,118.563974 243.387346,115.000687 L243.387346,115.000687 Z" id="Path-4" fill="#FFFFFF"></path>
            <path d="M230.285316,131.212385 L230.285316,131.212385 C209.671924,157.238571 234.252367,184.682545 248.38026,186.853718 L248.38026,186.853718 C248.38026,186.853718 238.533746,188.458475 235.609317,189.533764 C232.684888,190.609054 235.609317,189.533764 235.609317,189.533764 C188.631777,207.920284 175.573111,256.264647 206.442131,297.514138 L207.178854,298.498602 L209.795874,300.947709 C216.648185,307.360361 229.816825,312.558842 239.210906,312.558842 L249.311924,312.558842 C253.181649,312.558842 259.415896,312.118004 263.253524,311.571781 L278.94424,309.338465 C289.330944,307.860088 305.475986,303.098498 315.011536,298.700234 L330.136915,291.723667 C336.153061,288.948724 344.556,282.632395 348.896145,277.62643 L355.994235,269.439424 C362.508786,261.925478 370.326939,248.182776 373.45512,238.748607 L373.111512,239.78488 C376.934895,228.254078 379.470504,209.064613 378.775818,196.939111 L378.446416,191.189523 C378.098754,185.121198 375.960492,175.629494 373.676686,170.004512 L372.478898,167.054375 C368.323834,156.820508 358.743138,142.076146 351.085989,134.128329 L343.225665,125.969624 L343.225665,125.969624 C304.531668,145.015893 238.654546,136.920259 230.285316,131.212385 L230.285316,131.212385 Z" id="Path-5" fill="#FEA863"></path>
            <path d="M235.111712,179.353254 L220.804816,181.375381 C213.736247,182.374447 203.123921,186.288495 197.083371,190.12919 L185.051467,197.779303 L188.387757,205.223078 L188.387757,205.223078 C194.716543,203.24535 205.555865,202.64733 212.403697,203.85314 L212.403697,203.85314 L214.488449,202.025044 C219.861264,197.31368 229.804159,191.997852 236.705687,190.149357 L248.177014,187.076893 L235.111712,179.353254 Z" id="Path-6" fill="#E8904A"></path>
            <ellipse id="Oval" fill="#FFA054" cx="181.039378" cy="199.5" rx="5.5" ry="3.5"></ellipse>
            <ellipse id="Oval" fill="#FFA054" transform="translate(181.921688, 202.141882) rotate(332.000000) translate(-181.921688, -202.141882) " cx="181.921688" cy="202.141882" rx="6.5" ry="3.5"></ellipse>
            <ellipse id="Oval" fill="#FFA054" transform="translate(185.210312, 205.352805) rotate(-32.000000) translate(-185.210312, -205.352805) " cx="185.210312" cy="205.352805" rx="4.5" ry="3.5"></ellipse>
            <ellipse id="Oval" fill="#F79241" cx="259.297183" cy="201.5" rx="5.5" ry="3.5"></ellipse>
            <ellipse id="Oval" fill="#F79241" transform="translate(260.179493, 204.141882) rotate(332.000000) translate(-260.179493, -204.141882) " cx="260.179493" cy="204.141882" rx="6.5" ry="3.5"></ellipse>
            <ellipse id="Oval" fill="#F79241" transform="translate(263.468117, 207.352805) rotate(-32.000000) translate(-263.468117, -207.352805) " cx="263.468117" cy="207.352805" rx="4.5" ry="3.5"></ellipse>
            <path d="M313.655419,173.083535 L296.145594,175.744798 C286.768147,177.170046 274.178306,184.175565 268.020569,191.397724 L260.823805,199.838518 L267.097892,207.42767 C267.097892,207.42767 279.380411,199.829803 285.636218,197.123639 C291.892025,194.417475 305.779232,191.70917 305.779232,191.70917 L313.655419,173.083535 Z" id="Path-7" fill="#E8904A"></path>
            <path d="M195.673006,224.882035 L195.673006,224.882035 C189.243655,224.264912 179.81772,232.143282 174.625187,242.46774 L175.203161,241.318538 C173.218953,245.263794 171.610435,252.038533 171.610435,256.459251 L171.610435,254.672351 C171.610435,266.233553 162.229929,275.605758 160.869594,275.605758 L160.869594,275.605758 L172.971237,291.064649 L174.814156,289.94645 C180.953294,286.221502 191.134981,285.824091 197.539199,289.05055 L202.744131,291.672805 L195.741281,278.468846 C190.322687,268.252021 188.439102,250.933716 191.534052,239.787778 L195.673006,224.882035 Z" id="Path-8" fill="#E8904A"></path>
            <path d="M207.874089,298.733273 L195.154814,299.76955 C174.234412,301.473996 147.894866,288.661872 136.327895,271.159077 L123.930574,252.39982 C118.145409,243.645882 105.025238,235.370989 94.6323425,233.918237 L96.3801749,234.162554 C92.0013257,233.550465 85.64377,235.269534 82.1680177,238.011796 L69.4225501,248.067581 C69.4225501,248.067581 73.5186538,250.64717 75.8091887,251.48641 C78.0997236,252.325651 83.8514823,253.354271 83.8514823,253.354271 C83.8514823,253.354271 81.4128603,253.737633 80.5198088,254.219911 C79.6267574,254.702188 78.7658332,256.100692 78.7658332,256.100692 C78.7658332,256.100692 94.4472839,266.126725 101.258315,272.342392 C108.069345,278.55806 123.167159,294.850251 123.167159,294.850251 C129.592644,301.691934 142.027965,309.652916 150.92304,312.625189 L168.295407,318.430135 L170.875891,318.704715 C194.298363,321.197009 229.912648,313.831266 233.690906,311.698344 L233.690906,311.698344 L233.690906,311.698344 C225.4969,310.636513 207.874089,298.733273 207.874089,298.733273 L207.874089,298.733273 Z" id="Path-9" fill="#FFA660"></path>
            <path d="M144.720539,233.969908 C144.720539,233.969908 147.583573,245.335105 149.466167,250.910276 C151.348761,256.485448 151.675774,256.615093 151.675774,256.615093 C153.07037,259.614156 154.384622,264.730057 154.611108,268.039902 L154.771593,270.385202 L160.742332,275.62897 L160.742332,275.62897 C166.375848,272.233616 171.343266,263.327955 171.837294,255.738812 L172.253991,249.33759 L160.742332,231.094719 L161.061977,226.930457 L158.004364,226.930457 L158.004364,226.930457 C154.84247,230.818238 146.106923,233.969908 144.720539,233.969908 L144.720539,233.969908 Z" id="Path-10" stroke="#E2E2E2" fill="#FFFFFF"></path>
            <ellipse id="Oval-2" stroke="#E98D43" fill="#FFA054" cx="140" cy="226.5" rx="5" ry="4.5"></ellipse>
            <ellipse id="Oval-2" stroke="#E98D43" fill="#FFA054" cx="143" cy="219.5" rx="5" ry="4.5"></ellipse>
            <ellipse id="Oval-2" stroke="#E98D43" fill="#FFA054" cx="151" cy="217.5" rx="5" ry="4.5"></ellipse>
            <path d="M149,233 C152.865993,233 157.25059,230.347981 157.25059,226.75813 C157.25059,223.168279 152.865993,220 149,220 C145.134007,220 142,222.910149 142,226.5 C142,228.774002 142.686606,231.838414 144.591179,233 C146.495751,234.161586 147.582932,233 149,233 Z" id="Oval-2" stroke="#E98D43" fill="#FFA054"></path>
            <path d="M250.117692,242.216954 L261.531002,234.021341 C264.224174,232.08744 269.09437,230.352685 272.402242,230.14707 L271.782543,230.18559 C276.190888,229.91157 282.931511,231.379373 286.826689,233.457908 L289.813112,235.051515 C290.790238,235.572927 292.216308,236.631988 292.995417,237.414073 L294.672923,239.097986 C298.178872,242.617325 301.949456,249.395052 303.091879,254.2243 L303.31982,255.187849 C304.082256,258.410818 304.700334,263.714041 304.700334,267.023617 L304.700334,275.417417" id="Path-12" stroke="#C5793C" stroke-width="2"></path>
            <polyline id="Path-13" stroke="#C5793C" stroke-width="2" points="221.641205 296.113284 220.725243 302.50612 226.235525 304.996244 225.021935 308.833523"></polyline>
            <path d="M230.92965,238.238548 L230.92965,238.238548 C234.810495,242.60214 246.017249,245.516902 249.701067,245.232356 L249.701067,245.232356 L236.171275,291.912441 C234.632446,297.221664 229.214325,299.900661 224.074191,297.897951 L220.13653,296.363751 C216.529271,294.958283 214.536458,290.830684 215.686156,287.14226 L230.92965,238.238548 Z" id="Path-11" fill="#FFFFFF"></path>
            <path d="M186.710442,196.736249 L186.710442,196.736249 C188.032046,198.596225 189.738493,203.64681 189.914482,204.628566 L189.914482,204.628566 L204.476614,203.173694 L204.435926,202.717477 C204.040431,198.283031 201.780425,191.634541 199.79504,188.508463 L199.79504,188.508463 L186.710442,196.736249 Z" id="Path-14" fill="#FFFFFF"></path>
            <path d="M264.462671,195.71635 L264.462671,195.71635 C267.477868,197.127361 271.427078,202.239094 272.080508,203.961946 L272.080508,203.961946 L285.432488,197.06912 L285.432488,197.06912 C283.50834,192.849457 278.492134,186.979247 275.694295,184.996449 L275.694295,184.996449 C275.694295,184.996449 271.666486,187.7639 269.922169,189.428744 C268.177853,191.093587 264.462671,195.71635 264.462671,195.71635 Z" id="Path-15" fill="#FFFFFF"></path>
            <path d="M191.456107,193.755688 L191.604979,194.10208 C192.616645,196.456017 193.781025,200.410586 194.207103,202.943229 L194.32719,203.657036 L200.726254,202.906019 C200.726254,202.906019 199.74873,198.686598 198.955992,196.637347 C198.163254,194.588095 196.134385,191.035901 196.134385,191.035901 L191.456107,193.755688 Z" id="Path-16" fill="#F06969"></path>
            <path d="M267.381807,191.999657 C267.381807,191.999657 270.432998,194.67194 271.635083,196.140081 C272.837169,197.608221 275.864636,202.362506 275.864636,202.362506 L281.967462,198.968777 C281.967462,198.968777 278.627936,194.088763 276.782768,192.215844 C274.937599,190.342925 271.635083,187.874382 271.635083,187.874382 C271.635083,187.874382 270.121301,189.058169 269.450503,189.70878 C268.779705,190.359391 267.381807,191.999657 267.381807,191.999657 Z" id="Path-17" fill="#F06969"></path>
            <path d="M148.407177,246.397753 L148.966517,246.266222 C153.256907,245.257319 159.305496,241.954122 162.476448,238.888297 L164.234837,237.188205 L167.598917,242.354964 C167.598917,242.354964 162.546816,247.739811 159.837497,249.445501 C157.128178,251.151191 150.460343,253.144792 150.460343,253.144792 L148.407177,246.397753 Z" id="Path-18" fill="#F06969"></path>
            <path d="M227.101535,250.385515 C227.101535,250.385515 232.571077,253.826095 235.411994,254.547831 C238.25291,255.269567 246.717244,255.596102 246.717244,255.596102 L243.963223,265.153028 C243.963223,265.153028 236.96899,265.191076 233.804164,264.450446 C230.639338,263.709816 223.98282,260.413098 223.98282,260.413098 L227.101535,250.385515 Z" id="Path-19" fill="#F06969"></path>
            <path d="M233.081236,121.059682 C233.081236,121.059682 239.651222,124.61699 250.107856,126.637017 C260.56449,128.657044 271.763091,128.836397 278.786022,128.59475 C286.597255,128.325978 301.798411,126.659151 314.360216,123.940303 C326.922022,121.221455 335.777642,117.220101 335.777642,117.220101 C335.777642,117.220101 338.508714,119.300461 339.562296,120.245386 C340.109854,120.736474 341.18013,121.564189 341.887042,122.390962 C342.593954,123.217734 342.853685,123.940303 342.853685,123.940303 C342.853685,123.940303 321.491738,128.923218 310.874126,130.833384 C300.256514,132.74355 289.425962,133.984478 289.425962,133.984478 C284.62403,134.586798 276.806123,134.916226 271.974915,134.702437 C271.974915,134.702437 258.296547,134.229567 251.63493,133.369378 C244.973313,132.509189 229.964338,128.371366 229.964338,128.371366 L229.964338,128.371366 C229.267248,125.924157 231.976206,121.786584 233.081236,121.059682 L233.081236,121.059682 Z" id="Path-20" fill="#F06969"></path>
            <circle id="Oval-3" fill="#373737" cx="234.5" cy="156.5" r="3.5"></circle>
            <circle id="Oval-3" fill="#373737" cx="285.5" cy="157.5" r="3.5"></circle>
            <path d="M281.560129,149.166327 C281.250778,148.781106 281.339389,148.189279 281.77734,147.82855 L285.648149,144.640273 C286.077463,144.28666 286.711288,144.347144 286.997087,144.694287 L286.42549,144 C286.741174,144.383444 286.656981,144.974034 286.218103,145.335022 L282.339112,148.525593 C281.908891,148.87946 281.280064,148.817575 281,148.468824 L281.560129,149.166327 Z" id="Path-21" stroke="#3C3C3C" fill="#494949"></path>
            <path d="M233.560129,145.166327 C233.250778,144.781106 233.339389,144.189279 233.77734,143.82855 L237.648149,140.640273 C238.077463,140.28666 238.711288,140.347144 238.997087,140.694287 L238.42549,140 C238.741174,140.383444 238.656981,140.974034 238.218103,141.335022 L234.339112,144.525593 C233.908891,144.87946 233.280064,144.817575 233,144.468824 L233.560129,145.166327 Z" id="Path-21" stroke="#3C3C3C" fill="#494949" transform="translate(235.998543, 142.583163) scale(-1, 1) translate(-235.998543, -142.583163) "></path>
            <path d="M250.099214,138.870782 L249.478699,139.422523 C247.827865,140.89039 246.803581,143.851948 246.915475,144.4833 L246.915475,144.4833 L253.197778,144.4833 L243.598273,158.747965 C242.67272,160.123317 240.581326,161.39349 238.94107,161.56953 C238.94107,161.56953 235.337931,162.038887 233.604039,161.911755 C231.870148,161.784623 228.05676,160.397449 228.05676,160.397449 C225.970229,159.697247 225.34118,160.561908 226.67196,162.335814 C226.67196,162.335814 231.87581,169.463355 234.967505,172.619287 C238.0592,175.775219 243.005713,179.812683 243.005713,179.812683 C248.05218,184.098564 257.006609,185.288525 263.009476,182.468899 L295.264786,167.318149 C299.264871,165.439255 298.953062,164.329266 294.559421,164.815413 C294.559421,164.815413 288.538876,165.587511 285.558361,165.587511 C282.577847,165.587511 276.440934,164.299564 276.440934,164.299564 C275.367874,164.087789 274.604777,163.034155 274.737781,161.935706 L276.480539,147.542592 C276.679943,145.895756 276.206739,143.376332 275.424877,141.917668 L274.104376,139.454101 L250.099214,138.870782 Z" id="Path-22" fill="#FFFFFF"></path>
            <path d="M252.859689,159.489291 L250.051107,162.335708 C248.780617,163.623312 247.557508,166.118932 247.318984,167.911562 L246.318322,175.432077" id="Path-24" stroke="#413F3F"></path>
            <path d="M252.721951,156.5757 L252.824124,159.536401 L252.721951,160.187196 C252.721951,160.187196 254.762298,160.51948 256.457147,161.703593 C258.151996,162.887706 258.085774,163.046371 258.085774,163.046371 C259.999057,164.911242 261.749747,168.576347 261.99709,171.243836 L262.401703,175.607397" id="Path-23" stroke="#413F3F"></path>
            <path d="M251.586562,154.586474 C252.362753,153.801394 253.627372,153.80763 254.397398,154.586474 L255.541272,155.743448 C256.317463,156.528528 256.054754,157.164961 254.950809,157.164961 L251.03315,157.164961 C249.930856,157.164961 249.672662,156.522292 250.442688,155.743448 L251.586562,154.586474 Z" id="Triangle" stroke="#F06969" fill="#F06969" transform="translate(252.993552, 155.582480) scale(1, -1) translate(-252.993552, -155.582480) "></path>
            <g id="Group" transform="translate(242.354062, 232.206885) rotate(48.000000) translate(-242.354062, -232.206885) translate(229.854062, 219.706885)" stroke="#E58A41" fill="#FFA054">
                <ellipse id="Oval-2" cx="5" cy="13.5" rx="5" ry="4.5"></ellipse>
                <ellipse id="Oval-2" cx="8" cy="6.5" rx="5" ry="4.5"></ellipse>
                <ellipse id="Oval-2" cx="16" cy="4.5" rx="5" ry="4.5"></ellipse>
                <path d="M17.6051375,23.0489087 C21.4711308,23.0489087 24.3105875,19.1916029 24.3105875,15.601752 C24.3105875,12.0119011 17.8659932,7 14,7 C10.1340068,7 7,9.91014913 7,13.5 C7,15.3520403 9.13637594,21.2527651 11.4038759,23.2223904 C13.6713758,25.1920158 15.7336492,23.0489087 17.6051375,23.0489087 Z" id="Oval-2"></path>
            </g>
            <path d="M208.303088,251.663638 C230.118336,251.663638 247.803088,245.395625 247.803088,237.663638 C247.803088,229.931652 230.061228,220.172906 208.24598,220.172906 C186.430733,220.172906 168.803088,229.931652 168.803088,237.663638 C168.803088,245.395625 186.48784,251.663638 208.303088,251.663638 Z" id="Oval-4" fill="#FFBF8C" transform="translate(208.303088, 235.918272) rotate(-69.000000) translate(-208.303088, -235.918272) "></path>
            <path d="M370.332083,162.559617 L329.56745,188.643847 L375.124786,174.873766 L375.124786,174.873766 C374.375445,171.250592 370.774233,163.300049 370.332083,162.559617 L370.332083,162.559617 Z" id="Path-25" fill="#E98D43"></path>
            <path d="M378.236183,191.094033 L337.449987,199.919441 L378.598686,204.807099 L378.632617,204.183262 C378.8382,200.40357 378.629528,194.289962 378.236183,191.094033 L378.236183,191.094033 Z" id="Path-26" fill="#E98D43"></path>
            <path d="M377.771502,216.049058 L337.361367,211.910437 L375.021886,230.55694 L375.021886,230.55694 C376.540457,226.588489 377.771502,219.196895 377.771502,216.049058 L377.771502,216.049058 Z" id="Path-27" fill="#E98D43"></path>
            <path d="M78.6283539,256.200637 L78.6283539,256.200637 C78.8575963,253.642374 83.9079369,253.331291 83.9079369,253.331291 L83.9079369,253.331291 L83.9079369,253.331291 C77.5425425,254.171972 69.0905145,247.989995 69.0905145,247.989995 L69.0905145,247.989995 L83.9079369,235.484629 L83.9079369,235.484629 C99.1237596,228.574753 118.541896,238.587955 127.2753,257.840354 L129.61128,262.989919 L145.653443,310.687002 C145.653443,310.687002 137.497359,307.818875 129.61128,301.052627 C121.725201,294.28638 105.295469,278.298462 95.7658318,270.435022 C79.2198873,256.782032 78.6283539,256.200637 78.6283539,256.200637 Z" id="Path-28" fill="#FFBF8C"></path>
        </g>
    </g>
</svg>