<?xml version="1.0" encoding="UTF-8" standalone="no"?>
<svg width="40px" height="40px" viewBox="0 0 40 40" version="1.1" xmlns="http://www.w3.org/2000/svg" xmlns:xlink="http://www.w3.org/1999/xlink">
    <!-- Generator: Sketch 43.1 (39012) - http://www.bohemiancoding.com/sketch -->
    <title>Group 9</title>
    <desc>Created with Sketch.</desc>
    <defs></defs>
    <g id="Page-4" stroke="none" stroke-width="1" fill="none" fill-rule="evenodd">
        <g id="Group-9">
            <circle id="Oval-4" fill="#FF4081" cx="20" cy="20" r="20"></circle>
            <path d="M18.403183,31.1165158 C18.403183,31.1165158 17.3771632,30.5485149 16.2555876,29.7245345 C15.1340121,28.9005541 14.1502276,27.7146452 13.5228387,27.099529 C12.1693963,25.7725621 10.4853656,23.4404989 10.4853656,23.4404989 C9.82371805,22.5603948 9.90350903,21.2028776 10.6652876,20.4066186 L10.3020383,20.7863097 C11.063054,19.990848 12.3270602,19.9510807 13.1403177,20.7115532 L13.0095818,20.5893028 C13.8161045,21.3434776 14.4699204,21.0651393 14.4699204,19.9500944 L14.4699204,13.9338763 C14.4699204,12.8266765 15.3638196,11.9614264 16.4676104,12.0013263 L16.9967486,12.0204536 C18.1000423,12.0603356 18.9355852,12.991937 18.8632198,14.0976674 L18.5344018,19.1219521 C18.4619316,20.2292837 18.5370503,20.2516833 18.7052413,19.1519936 L19.1087362,16.5138073 C19.1922403,15.9678287 19.7067364,15.6061848 20.2367782,15.7022268 L20.9888575,15.8385013 C21.5283537,15.9362564 21.9114504,16.451302 21.8430148,17.0010416 L21.4520787,20.1414141 C21.3843206,20.6857123 21.4828683,20.7021172 21.6666881,20.1932889 L22.478536,17.9460267 C22.6648196,17.4303781 23.2480001,17.130932 23.7802428,17.2769583 L23.7147472,17.2589889 C24.2473764,17.4051213 24.6256371,17.9713462 24.5615746,18.507302 L24.3231252,20.502205 C24.1264939,22.1472514 24.3825039,22.2139337 24.9029883,20.6265971 L25.5297956,18.7150045 C25.7005003,18.1944013 26.2394395,17.9860645 26.7146187,18.2395713 L26.5017181,18.1259894 C27.4753242,18.6454058 28.1965105,19.9637119 28.1045869,21.0641075 C28.1045869,21.0641075 27.8899407,24.4238139 27.4083055,26.652852 C26.9266702,28.88189 26.0315984,30.4032165 26.0315984,30.4032165 C26.0315984,30.4032165 25.2982764,30.9739678 24.4264443,31.3069851 C23.5546121,31.6400023 22.9390409,31.6067467 22.4057047,31.6691011 C21.2048694,31.8094953 18.403183,31.1165158 18.403183,31.1165158 Z" id="Path-3" fill="#FFFFFF"></path>
            <path d="M13.041284,12.9865523 L13.007914,12.5267931 C12.9083936,11.1556359 13.7589202,9.43164768 14.9145671,8.67158759 L14.8902544,8.68757787 C16.0427902,7.92956391 17.9853198,7.77209862 19.2524534,8.34649365 L19.5057715,8.46132342 C20.5100079,8.91654652 21.4788556,10.1657664 21.6697849,11.2517145 L21.8218215,12.1164522" id="Path-4" stroke="#878787"></path>
            <path d="M12.041284,12.9865523 L12.007914,12.5267931 C11.9083936,11.1556359 12.7589202,9.43164768 13.9145671,8.67158759 L13.8902544,8.68757787 C15.0427902,7.92956391 16.9853198,7.77209862 18.2524534,8.34649365 L18.5057715,8.46132342 C19.5100079,8.91654652 20.4788556,10.1657664 20.6697849,11.2517145 L20.8218215,12.1164522" id="Path-4" stroke="#FFFFFF"></path>
            <path d="M20.3013851,31.3069851 C20.3013851,31.3069851 19.1250719,30.7742759 18.0034964,29.9502955 C16.8819208,29.1263151 16.1546581,28.2745685 15.5272691,27.6594523 C14.1738268,26.3324855 12.3825066,23.4996938 12.3825066,23.4996938 C11.7776665,22.5868972 11.903509,21.2028776 12.6652876,20.4066186 L12.3020383,20.7863097 C13.063054,19.990848 14.3270602,19.9510807 15.1403177,20.7115532 L15.0095818,20.5893028 C15.8161045,21.3434776 16.4699204,21.0651393 16.4699204,19.9500944 L16.4699204,13.9338763 C16.4699204,12.8266765 17.3638196,11.9614264 18.4676104,12.0013263 L18.9967486,12.0204536 C20.1000423,12.0603356 20.9355852,12.991937 20.8632198,14.0976674 L20.5344018,19.1219521 C20.4619316,20.2292837 20.5370503,20.2516833 20.7052413,19.1519936 L21.1087362,16.5138073 C21.1922403,15.9678287 21.7067364,15.6061848 22.2367782,15.7022268 L22.9888575,15.8385013 C23.5283537,15.9362564 23.9114504,16.451302 23.8430148,17.0010416 L23.4520787,20.1414141 C23.3843206,20.6857123 23.4828683,20.7021172 23.6666881,20.1932889 L24.478536,17.9460267 C24.6648196,17.4303781 25.2480001,17.130932 25.7802428,17.2769583 L25.7147472,17.2589889 C26.2473764,17.4051213 26.6256371,17.9713462 26.5615746,18.507302 L26.3231252,20.502205 C26.1264939,22.1472514 26.3825039,22.2139337 26.9029883,20.6265971 L27.5297956,18.7150045 C27.7005003,18.1944013 28.2394395,17.9860645 28.7146187,18.2395713 L28.5017181,18.1259894 C29.4753242,18.6454058 30.1965105,19.9637119 30.1045869,21.0641075 C30.1045869,21.0641075 29.8899407,24.4238139 29.4083055,26.652852 C28.9266702,28.88189 28.0315984,30.4032165 28.0315984,30.4032165 C28.0315984,30.4032165 27.2982764,30.9739678 26.4264443,31.3069851 C25.5546121,31.6400023 24.9390409,31.6067467 24.4057047,31.6691011 C23.2048694,31.8094953 20.3013851,31.3069851 20.3013851,31.3069851 Z" id="Path-3" fill="#FFFFFF" style="mix-blend-mode: color;"></path>
        </g>
    </g>
</svg>