<?xml version="1.0" encoding="UTF-8" standalone="no"?>
<svg width="295px" height="295px" viewBox="0 0 295 295" version="1.1" xmlns="http://www.w3.org/2000/svg" xmlns:xlink="http://www.w3.org/1999/xlink">
    <!-- Generator: Sketch 43.1 (39012) - http://www.bohemiancoding.com/sketch -->
    <title>Group</title>
    <desc>Created with Sketch.</desc>
    <defs></defs>
    <g id="Page-1" stroke="none" stroke-width="1" fill="none" fill-rule="evenodd">
        <g id="Group">
            <circle id="Oval" fill="#F67280" cx="147.5" cy="147.5" r="147.5"></circle>
            <rect id="Rectangle" fill="#FFFFFF" x="50" y="80" width="196" height="134" rx="8"></rect>
            <path d="M50,87.9916525 C50,83.5779847 53.5904405,80 58.0027447,80 L237.997255,80 C242.417049,80 246,83.5800761 246,87.9916525 L246,96.0083475 C246,100.422015 246,104 246,104 L246,104 L90.1281747,104 L50.1201691,104 C50.0538015,104 50,100.419924 50,96.0083475 L50,87.9916525 Z" id="Rectangle" fill="#D3D3D3"></path>
            <circle id="Oval-2" fill="#EF6B6B" cx="60" cy="92" r="5"></circle>
            <circle id="Oval-2" fill="#FFF6AD" cx="75" cy="92" r="5"></circle>
            <circle id="Oval-2" fill="#84CC80" cx="90" cy="92" r="5"></circle>
            <text id="CODING-WITH-&lt;STYLE&gt;" font-family="Arial-Black, Arial Black" font-size="20" font-weight="700" fill="#605C5C">
                <tspan x="70.2832031" y="152">CODING WITH</tspan>
                <tspan x="98.1835938" y="180">&lt;STYLE&gt;</tspan>
            </text>
        </g>
    </g>
</svg>