<?xml version="1.0" encoding="UTF-8" standalone="no"?>
<svg width="567px" height="570px" viewBox="0 0 567 570" version="1.1" xmlns="http://www.w3.org/2000/svg" xmlns:xlink="http://www.w3.org/1999/xlink">
    <!-- Generator: Sketch 43.1 (39012) - http://www.bohemiancoding.com/sketch -->
    <title>Group 5</title>
    <desc>Created with Sketch.</desc>
    <defs></defs>
    <g id="Page-1" stroke="none" stroke-width="1" fill="none" fill-rule="evenodd">
        <g id="Group-5">
            <g id="Group-4">
                <g id="Group-2">
                    <rect id="Rectangle" fill="#E581B2" x="0" y="0" width="566" height="570"></rect>
                    <g id="Group" transform="translate(109.000000, 39.000000)">
                        <path d="M0.0450338139,322.51262 C0.0450338139,322.51262 9.29474995,325.0743 13.8056285,325.971863 C18.316507,326.869425 55.382542,329.320618 55.382542,329.320618 L78.2721274,314.101431 L67.897247,300.974596 L66.109391,278.661444 L39.1585806,286.631842 L5.61111157,270.842918 L10.4620643,295.462303 L0.0450338139,322.51262 Z" id="Path-37" stroke="#D0CFCF" fill="#E1E1E1"></path>
                        <path d="M12.7136358,274.603125 L23.8623496,227.173576 L24.240089,219.854875 C24.3822656,217.100204 26.6419158,214.220235 29.28654,213.422472 L30.3455789,213.103008 L29.3140508,203.09619 C29.0314227,200.354425 31.0377693,197.993717 33.7884909,197.823825 L39.528293,197.46932 L53.1249622,186.132972 L63.3031441,165.51978 C64.5268937,163.041401 67.3450832,159.739206 69.6016032,158.141389 L89.1053303,144.331015 C91.3601236,142.734421 93.7809909,143.606351 94.5064386,146.256426 L94.2936287,145.479027 C95.0217851,148.138997 94.00546,151.849906 92.0167548,153.774202 L80.5659716,164.854123 C78.9753006,166.393276 76.9393818,169.279346 76.0242064,171.28808 L75.152326,173.201784 L96.0537162,169.325703 L114.960219,177.507697 C118.508616,179.043304 119.39101,182.705424 116.929172,185.689611 L114.051935,189.177336 L93.5676098,183.495516 L73.1080962,188.241945 L68.1135533,194.169398 L88.6251709,211.673869 L95.4110999,198.052388 C95.4110999,198.052388 98.3369233,194.525632 99.94415,194.169398 C101.551377,193.813164 107.355327,195.405008 107.355327,195.405008 L107.355327,195.405008 C109.490251,196.70131 108.792681,201.517862 105.798893,206.160543 L102.864457,210.711185 L99.1427405,219.841795 L102.005251,222.557511 C104.004919,224.454631 104.012986,227.535099 102.01149,229.449193 L99.94415,231.426257 L93.1879948,229.086902 L83.7544901,248.876137 L58.1616846,274.603125 L68.6172255,278.548144 L37.8103472,286.188968 L12.7136358,274.603125 Z" id="Path-46" stroke="#BFBFBF" fill="#FDFDFD"></path>
                        <path d="M90.4739966,142.538968 L66.1678619,161.980803 L56.9678374,181.988998 C56.9678374,181.988998 45.3749186,199.371178 45.0857825,205.238819 C44.7966465,211.106461 52.8696044,265.157334 52.8696044,265.157334 L47.1167935,277.643093 L57.0347083,279.979754 L61.6010378,271.399258 L86.0652126,248.32898 L93.177493,230.77421 L109.148183,198.376198 L101.926122,196.01852 L94.365885,200.582939 C94.365885,200.582939 90.9792876,209.699947 88.1430669,211.034866 C85.3068462,212.369785 81.484875,206.64562 81.484875,206.64562 L78.9067021,205.238819 L70.8808129,188.020756 L94.6027992,182.587015 L113.93041,185.643972 L119.645009,178.313007 L92.1916243,169.12112 L73.1009279,174.027535 L76.7901538,170.752006 L94.5684084,152.219969 L93.5901822,142.089977 L90.4739966,142.538968 Z" id="Path-150" fill-opacity="0.217164855" fill="#C4A2A2"></path>
                        <polygon id="Path-38" stroke="#CABF8C" fill="#E8CCA1" points="9.03399355 288.292616 40.9686897 295.897832 67.2672009 288.985298 67.2672009 297.304854 70.4653296 305.989173 42.4153829 319.747022 5.27807341 309.424313 10.6209815 294.884209"></polygon>
                        <path d="M347.725194,77.2330594 C347.725194,77.2330594 333.488972,92.9981104 326.761218,101.173744 C320.033464,109.349377 313.105674,119.303043 313.105674,119.303043 L306.551429,128.931771 L300.235327,142.551501 L298.116167,171.896917 L300.235327,185.659542 L308.77589,187.514764 L324.454572,178.286809 L312.412218,179.02747 L311.961669,175.465499 L314.947085,140.91416 L357.480295,88.1715036 L359.419284,87.4088729 L347.725194,77.2330594 Z" id="Path-142" fill="#413E3E"></path>
                        <path d="M357.624102,98.6549243 L359.707345,101.552265 L360.102677,104.895583 L336.616303,132.757071 L336.019903,137.680963 L330.316684,138.487501 L327.426902,135.068594 L325.604443,161.946664 L350.062926,161.946664 L376.499111,135.068594 L374.170616,132.958894 L366.953342,136.915242 L361.854839,129.010105 L375.32392,119.111879 L375.32392,103.876231 C375.32392,103.876231 374.094697,99.8104475 372.420725,97.9534422 C370.746754,96.0964368 365.976215,92.6877536 365.976215,92.6877536 L357.624102,98.6549243 Z" id="Path-144" fill="#837A84"></path>
                        <path d="M329.198636,144.008085 L337.300961,147.403197 L340.664925,138.924178 L354.218118,120.254957 L359.897727,121.674129 L365.501414,118.936041 L371.981132,110.640016 L372.880007,100.042477 C372.880007,100.042477 372.45016,97.7893656 371.981132,97.295518 C371.512105,96.8016704 365.178101,92.7565696 365.178101,92.7565696 C365.178101,92.7565696 359.667322,96.3073636 357.852484,98.8121577 C356.037646,101.316952 336.144598,132.790979 336.144598,132.790979 L335.625793,138.232112 L328.980601,138.232112 L329.198636,144.008085 Z" id="Path-145" fill-opacity="0.631623641" fill="#D8D8D8"></path>
                        <polygon id="Path-35" fill="#251C2B" points="327.711874 135.383046 328.442824 137.122357 330.181379 138.525296 335.406873 138.525296 336.724053 132.967822 361.430639 103.46924 357.413963 98.4908954 332.979698 124.503467"></polygon>
                        <polygon id="Path-3" fill="#FD6DCB" points="370.624242 96.173623 420.054078 46.1356202 416.835442 67.9188153 375.583244 117.639376 374.998112 103.93857"></polygon>
                        <path d="M347.795383,77.4542593 L358.334442,86.9350885 L314.831126,139.515617 L308.994141,173.711025 L311.431699,179.114264 L323.763441,179.114264 C323.763441,179.114264 337.225165,171.117713 343.650504,166.917773 C350.075843,162.717833 349.568406,162.246779 349.568406,162.246779 L324.844467,162.246779 L328.228377,134.792085 L338.672857,118.859907 C338.672857,118.859907 341.487543,117.297328 342.617868,116.149396 C343.748193,115.001465 356.692589,100.559494 356.692589,100.559494 L366.182297,92.5620488 L364.394496,82.3372915 C364.394496,82.3372915 362.177413,79.3666224 361.040333,79.0321227 C359.903253,78.6976231 347.795383,77.4542593 347.795383,77.4542593 Z" id="Path-143" fill="#221E1E"></path>
                        <polygon id="Path-162" fill="#E063B5" points="371.771823 94.8769934 374.705911 103.759419 375.169034 119.177092 386.496491 105.10917 382.447237 84.2675936"></polygon>
                        <path d="M167.459709,525.337261 L165.615477,514.421445 L165.615477,497.807846 L149.401072,454.892626 L152.097065,423.258536 L127.512032,397.696826 L119.266319,383.415651 L119.266319,353.508877 C119.266319,353.508877 135.076828,337.084544 143.406558,329.499589 C151.736288,321.914633 155.700781,317.451066 155.700781,317.451066 L194.777303,285.12283 L199.636669,293.662079 L219.741265,279.545632 L236.262045,284.469043 L271.19825,287.257642 L287.129288,306.473622 L311.420785,296.802922 L354.984301,392.287745 L329.449276,429.502862 L317.854576,448.366599 L313.849134,459.931945 L318.927319,474.611449 L305.347244,528.099174 L167.459709,525.337261 Z" id="Path-111" stroke="#A74486" fill="#A74486"></path>
                        <path d="M106.447371,329.973609 L83.9681776,360.146431 L65.193664,323.181142 L58.2576298,328.641222 L16.6543891,327.289429 C16.6543891,327.289429 19.5834421,370.494712 22.670624,391.500093 C25.757806,412.505474 29.8324658,424.803654 29.8324658,424.803654 C29.8324658,424.803654 35.4077224,439.181645 39.6091372,446.642305 C43.810552,454.102964 48.7876658,461.346626 48.7876658,461.346626 C55.1460924,471.045201 68.0014029,473.499679 77.4510428,466.800887 C77.4510428,466.800887 84.9229391,461.723798 96.9773962,452.571958 C109.031853,443.420117 143.478545,415.758097 143.478545,415.758097 L127.483764,398.068102 C127.483764,398.068102 120.867005,386.895108 119.86277,381.09096 C118.858535,375.286812 120.23352,363.993752 120.23352,363.993752 C120.5075,361.253053 121.711717,357.02337 122.922486,354.54798 L127.483764,345.222552 L106.447371,329.973609 Z" id="Path-117" stroke="#616161" fill="#A74486"></path>
                        <path d="M127.078937,344.137524 L168.706658,371.627422 L179.452155,397.218248 L157.16984,424.592232 L147.69905,421.727721 L127.743742,397.218248 C127.743742,397.218248 121.937526,390.372128 120.81079,383.526194 C119.684054,376.68026 119.024362,377.376258 118.12967,374.111079 C115.437528,364.286099 120.160357,372.225389 120.160357,372.225389 L121.605227,355.576996 L127.078937,344.137524 Z" id="Path-112" fill-opacity="0.247820426" fill="#48668D"></path>
                        <polygon id="Path-113" fill-opacity="0.450549139" fill="#56749D" points="215.996296 373.697922 238.370353 370.472126 247.611186 357.950601 266.869239 350.309595 287.98853 357.746702 297.746954 368.872299 307.944547 370.963577 325.085182 331.310338 353.090004 390.864698 325.725636 433.827384 313.436765 455.707376 287.206915 450.390303 280.467773 434.616841 261.180964 424.189208 237.097288 415.358788 210.540675 376.949859"></polygon>
                        <path d="M130.106357,345.96388 L168.369289,369.582604 L185.99962,397.516467 L190.502245,334.400332 C190.502245,334.400332 193.666572,340.534755 193.935792,340.428972 C194.205011,340.323189 203.016976,329.483002 203.016976,329.483002 L211.357201,308.726918 L215.005386,311.590973 L215.005386,326.530485 L229.429693,330.417871 L236.508092,316.804587 L246.747779,316.804587 L247.998282,325.788597 L236.508092,337.346238 L242.019646,351.875451 L276.205819,351.875451 C276.205819,351.875451 280.913424,352.421302 286.561471,356.691172 C292.209518,360.961042 295.072289,366.324827 298.426033,368.229485 C306.532937,372.833556 307.384786,369.582604 307.384786,369.582604 L326.351101,331.781606 L310.718629,295.437253 L284.051265,306.565607 L270.706905,286.818701 L219.692472,279.065866 L199.244237,291.89219 C199.244237,291.89219 205.997062,281.999504 187.364105,291.89219 C168.731148,301.784876 155.884268,319.021098 155.884268,319.021098 C155.884268,319.021098 151.690326,322.319762 147.948581,325.788597 C144.206836,329.257431 145.382804,329.611413 143.885951,330.417871 C138.966632,333.068249 130.106357,345.96388 130.106357,345.96388 Z" id="Path-115" fill-opacity="0.213569973" fill="#F5EEEE"></path>
                        <path d="M299.029387,146.476273 L301.458079,140.631469 L306.490447,128.520753 L331.841415,93.4708751 L348.076955,77.3653887 L363.29043,80.3092032 L366.162759,92.1567524 L370.714155,96.507238 L375.523129,88.6214998 L373.544933,50.5978947 L366.204923,32.9374018 C363.872107,27.3245102 357.748835,20.2699123 352.51787,17.174396 L340.298104,9.94313437 L307.651432,1.72769686 L273.689825,0.569885554 L264.544532,1.94406204 L243.425832,3.03155533 C237.906244,3.31578281 229.585779,5.85171545 224.857465,8.68618021 L208.817619,18.3015275 L198.59694,26.0030977 L181.336665,26.9200739 L165.950267,20.8927581 L167.627294,23.0202752 C169.679942,25.6243154 173.91354,28.5089226 177.081506,29.4626858 L179.326272,30.138506 L195.373356,31.8565486 L176.482615,48.5295466 L168.435576,62.1507711 C166.468347,65.4807005 164.557601,71.3025596 164.167873,75.1535872 L162.583728,90.8070457 L169.068244,103.446379 L179.326272,103.446379 L175.579806,113.139024 L173.148273,126.034646 L174.495404,133.206894 L176.944967,131.287941 L176.601101,148.290638 L177.260499,153.644389 L131.259716,204.557177 L122.329501,226.927791 L114.099896,244.087611 L106.773102,267.515582 L106.40219,282.330157 L113.014207,297.927769 L124.952929,298.083603 L131.645795,288.355752 L122.789243,285.832609 L120.769593,275.925536 L120.769593,261.51542 L130.02364,221.065639 L126.69983,253.667746 L133.22063,275.480721 L135.893306,281.121355 L140.335778,281.121355 L149.14501,253.902457 L158.446378,260.046584 L174.202296,257.018056 L181.881508,247.321087 L193.74766,235.286472 L202.645855,236.779915 L213.877909,243.766352 L224.587542,243.260966 L238.195098,233.353893 L235.335032,222.793793 L243.330347,215.09376 L240.053119,213.51429 C240.053119,213.51429 227.706782,213.946946 224.587542,212.227284 C221.468302,210.507622 219.350081,205.839713 219.350081,205.839713 L202.396001,184.658944 L193.982371,169.576873 L193.982371,169.576873 C190.823229,162.24666 189.660694,149.732242 191.384332,141.631925 L193.270667,132.767005 L193.270667,125.403895 L193.270667,125.403895 C191.608511,120.419518 190.533799,106.52962 190.745632,98.8796661 L190.745632,98.8796661 L191.230196,90.9714216 L203.917837,86.5970911 L223.879624,83.0234277 L234.418902,72.9270716 L220.177248,87.0002639 L235.053,84.5982625 L260.358247,61.7953374 L251.817797,76.7297674 L277.730642,54.5401193 L276.719871,68.6738822 L287.927318,89.328445 L282.87914,68.4845992 L294.993253,88.5883485 L304.194004,95.7086431 L300.251535,96.2675605 L298.90384,110.677677 L298.90384,125.403895" id="Path" stroke="#46362E" fill="#6A485A"></path>
                        <path d="M103.697647,331.750673 L88.2920444,352.202988 L84.608865,356.620278 L94.7340987,382.698628 L93.8656113,430.928151 L82.0177381,464.070582 L143.977895,416.275217 L127.143389,398.6731 C127.143389,398.6731 120.624921,386.049077 119.719698,379.58994 C118.814474,373.130802 121.637219,359.384349 121.637219,359.384349 L127.854104,344.97204 L103.697647,331.750673 Z" id="Path-116" stroke="#783160" fill-opacity="0.35863904" fill="#214370"></path>
                        <polygon id="Path-118" fill-opacity="0.367300725" fill="#56749D" points="29.8241668 327.771436 32.2267383 345.885205 59.8158447 394.598223 70.9883256 420.067313 74.7351604 427.822003 94.6791381 432.323933 96.7668141 382.276455 64.8202938 324.123777 56.114122 329.348806"></polygon>
                        <polyline id="Path-2" stroke="#2B2B2B" points="299.95144 146.959597 299.576351 151.348518 298.134358 168.221282 298.678574 173.329935 300.034861 186.061632 309.390858 187.403856 341.300497 168.328232 354.683165 158.558338 376.242171 134.706322 374.910642 119.160052 417.308879 67.9149008 420.921654 46.1879834 372.301059 94.69842 370.114999 96.6951788 366.334312 92.058891 363.672323 79.5435876 347.282217 77.0719703 331.713918 94.69842 315.170443 115.671339 301.776009 138.834597"></polyline>
                        <path d="M177.949322,152.773721 L131.21016,205.044042 C131.21016,205.044042 124.488818,234.947264 126.510487,252.910288 C127.844209,264.76074 132.765983,276.441237 136.31936,281.467214 C139.872737,286.493191 140.007292,283.208737 140.007292,283.208737 L157.692558,258.871183 C157.692558,258.871183 167.282857,261.965626 175.113243,256.150415 C180.317645,252.285383 183.609066,240.038848 190.503518,235.50294 C197.397971,230.967033 200.658332,235.407282 204.336906,236.523324 C209.141311,237.980931 212.171208,241.369185 215.099675,242.174201 C218.028142,242.979218 226.112146,242.174201 226.112146,242.174201 L238.003008,233.047692 C238.003008,233.047692 245.703629,218.418605 242.404727,214.752867 C239.105825,211.087129 216.503021,200.660173 216.503021,200.660173 L177.949322,152.773721 Z" id="Path-173" fill-opacity="0.670742754" fill="#4F3442"></path>
                        <polyline id="Path-4" stroke="#2B2B2B" points="365.133262 92.5038035 356.493831 98.2919441 359.66918 101.77531 359.942972 104.794512 337.32623 129.205877 334.010776 138.22605 329.374488 138.035679 327.48468 135.038937 325.332843 162.244909 348.393429 161.960422"></polyline>
                        <polyline id="Path-5" stroke="#2B2B2B" points="367.524667 106.863996 341.843803 135.681707 338.409635 143.207787 336.721962 158.100592"></polyline>
                        <polygon id="Path-6" fill-opacity="0.819038723" fill="#DBA859" points="373.832591 115.665823 361.139744 129.418708 365.698593 138.084808 376.346676 133.413807"></polygon>
                        <polyline id="Path-7" stroke="#2B2B2B" points="375.366193 103.610943 411.798667 63.0702482 411.302672 56.2136163"></polyline>
                        <path d="M230.845917,213.253144 C238.581552,213.253144 250.390293,210.313464 257.217811,206.68913 L258.953006,205.768016 C267.7351,201.106111 280.443042,191.52767 287.340176,184.37066 L298.186612,173.115542 L299.871018,146.255935 L299.871018,125.331394 L305.568951,105.641563 C307.256356,99.8105516 304.981552,91.7544635 300.511005,87.6687791 L285.794333,74.2190442 L289.727837,89.6707155 L274.854395,54.1047973 L253.001593,76.2612175 L258.116696,65.0872805 L233.42303,85.8261695 L221.75402,86.3425144 L229.66164,77.2107508 L216.768487,85.5302864 C216.768487,85.5302864 210.945802,85.0163466 208.400745,85.5302864 C205.855689,86.0442262 193.271549,89.9672137 193.271549,89.9672137 C191.687819,90.4571091 190.381272,92.1970353 190.353412,93.8464864 L190.105749,108.509469 C190.031199,112.923243 191.713587,119.626897 193.862255,123.48032 L194.894413,125.331394 L190.277337,149.097988 C189.434252,153.437803 190.328198,160.173333 192.268706,164.131372 L198.270961,176.374124 C198.270961,176.374124 201.469109,182.846386 203.594764,185.743488 C205.72042,188.64059 225.329758,213.253144 225.329758,213.253144 L230.845917,213.253144 Z" id="Path-8" stroke="#2B2B2B" fill="#FFDCCC"></path>
                        <path d="M192.030344,121.734461 L213.287985,125.728631 L241.039283,116.834792 L290.537168,93.6431998 L274.596721,54.6369113 C274.596721,54.6369113 265.470116,64.7130928 258.240855,71.951913 C251.011594,79.1907332 253.685113,76.9460555 251.928587,78.1520374 C250.874794,78.8755418 257.367769,67.0497448 255.493944,68.0615428 C254.215065,68.7520911 246.219371,76.0048198 239.847373,81.297365 C233.475375,86.5899102 234.417118,86.3105401 232.876376,86.6509058 C225.813902,88.2110779 220.651479,86.6509058 220.651479,86.6509058 C220.651479,86.6509058 227.422188,80.1502529 226.460527,79.9589798 C225.498867,79.7677067 217.158443,85.9324752 216.590243,86.0212694 C216.038822,86.1074413 211.521968,85.5544242 206.268936,86.6509058 C201.015903,87.7473874 192.030344,91.123608 192.030344,91.123608 C192.030344,91.123608 190.367824,96.2438129 190.280493,98.9769359 C190.193163,101.710059 192.030344,121.734461 192.030344,121.734461 Z" id="Path-170" fill-opacity="0.710880888" fill="#FFE6DB"></path>
                        <path d="M220.29002,205.344022 L225.06036,213.181697 C225.06036,213.181697 238.088887,214.407132 241.912592,213.181697 C245.736297,211.956262 256.196917,204.287858 256.196917,204.287858 C256.196917,204.287858 268.899772,198.494751 273.398489,195.026365 C277.897206,191.55798 298.920836,171.348908 298.920836,171.348908 L298.920836,157.655576 C298.920836,157.655576 280.62775,152.166159 273.398489,159.404979 C266.169228,166.643799 268.842747,164.399121 267.086221,165.605103 C266.032428,166.328608 268.960046,167.738633 267.086221,168.750431 C265.807342,169.440979 261.377005,163.457886 255.005007,168.750431 C248.633009,174.042976 249.574752,173.763606 248.03401,174.103972 C240.971536,175.664144 235.809113,174.103972 235.809113,174.103972 C235.809113,174.103972 236.770774,176.828781 235.809113,176.637508 C234.847452,176.446235 232.316077,173.385541 231.747876,173.474335 C231.196456,173.560507 226.679602,173.00749 221.426569,174.103972 C216.173537,175.200453 207.261683,166.950543 207.261683,166.950543 C207.261683,166.950543 195.517943,166.017308 195.430612,168.750431 C195.393181,169.921892 197.509579,177.202996 202.734675,184.694119 C207.959772,192.185243 220.29002,205.344022 220.29002,205.344022 Z" id="Path-170" fill-opacity="0.52918365" fill="#FFE6DB"></path>
                        <ellipse id="Oval-2" stroke="#262525" fill="#614C67" cx="267.5" cy="118.5" rx="9.5" ry="7.5"></ellipse>
                        <path d="M349.324967,75.6908839 L340.174862,42.3907802 L329.569056,32.5914037 C323.078819,26.5946621 311.252631,18.879883 303.149824,15.3579194 L295.381517,11.981349 L263.181519,2.68630724 L276.223766,0.539439444 L297.180803,6.39611783 L324.152364,15.1377379 L334.451117,23.7506954 C338.68954,27.2953344 344.00109,34.2237983 346.327069,39.2523885 L342.125462,30.168832 C349.197309,45.4576305 355.575993,75.0728981 355.66794,77.5247297 L355.66794,77.5247297" id="Path-9" stroke="#2B2B2B" stroke-width="2" fill-opacity="0.590155118" fill="#F256C5"></path>
                        <path d="M375.575438,120.606421 L388.253395,142.555059 L399.696775,148.903975 L421.595656,145.80792 L421.595656,145.80792 C432.514214,141.89352 456.296015,150.810431 456.296015,150.810431 L456.296015,150.810431 L456.296015,162.333407 L432.108652,153.303264 L402.409526,158.568474 L420.277058,175.440736 C431.923858,186.438777 443.739014,208.121184 446.700313,223.86071 C446.700313,223.86071 448.352358,233.226036 452.343265,252.920456 C456.334173,272.614876 452.343265,317.742665 452.343265,317.742665 L440.355398,275.423182 C439.000121,270.638794 434.073996,265.470694 429.366944,263.884744 L422.417656,261.543316 L444.017809,291.252742 L420.889181,277.926504 L411.520199,252.025678 C409.455454,246.31763 402.987472,240.577518 397.067096,239.203279 L367.203339,232.271299 L348.959933,232.271299 L336.508514,242.678199 L324.929456,252.920456 L309.010708,256.852225 L299.257465,249.42364 L299.257465,230.855863 L300.95304,216.902999 L305.295187,195.354451 L309.010708,189.316728 L347.586272,164.58099 L375.575438,136.187055 L375.575438,120.606421 Z" id="Path-10" stroke="#2B2B2B" fill="#4F3844"></path>
                        <polygon id="Path-11" stroke="#2B2B2B" points="241.265441 213.734691 259.572903 213.438956 284.747327 201.920086 304.811454 188.280797 305.269843 202.413963 300.421271 218.633538 300.027944 237.693645 300.832343 251.261957 309.065599 257.655743 312.550834 259.727366 299.948096 267.483011 291.614289 265.658327 268.165477 280.84283 243.515982 279.018146 221.25011 272.477971 215.728741 248.764477 212.752171 248.37115 212.174741 242.879493 226.738948 242.024681 238.2105 235.105966 238.2105 230.800067 235.235408 222.99119"></polygon>
                        <polygon id="Path-12" stroke="#2B2B2B" points="258.264276 213.801231 262.222687 222.328744 304.832156 203.184352 305.226962 188.441973 277.801996 206.434477"></polygon>
                        <path d="M305.505103,191.729617 L298.761378,233.901161 L300.491046,264.689096 L382.940111,233.901161 L438.002571,267.277807 L452.522004,316.506994 C452.522004,316.506994 454.225203,284.888022 452.522004,269.062181 C450.818804,253.236341 438.002571,191.729617 438.002571,191.729617 L398.02973,153.562279 L375.338038,136.871846 C375.338038,136.871846 354.273795,158.04266 343.302742,167.273369 C332.331689,176.504079 325.635968,179.063394 325.635968,179.063394 L304.833414,187.469808 L305.505103,191.729617 Z" id="Path-174" fill-opacity="0.340749547" fill="#33212A"></path>
                        <polygon id="Path-13" stroke="#2B2B2B" fill="#434040" points="262.769796 223.62702 261.881113 235.456411 282.733373 229.095156 302.256306 219.004685 305.673521 203.542191 271.841748 219.499301"></polygon>
                        <polygon id="Path-14" stroke="#2B2B2B" points="255.469277 213.723344 252.668974 224.174129 254.940217 234.542591 262.027502 237.023806 263.588981 222.038924"></polygon>
                        <path d="M239.597496,216.839906 C239.597496,216.839906 240.68942,213.960263 240.966009,213.871898 C241.242598,213.783534 246.854828,214.521345 246.854828,214.521345 L246.421125,224.209841 L245.986847,233.911197 L239.183468,233.911197 L235.07719,222.785654 L239.597496,216.839906 Z" id="Path-15" stroke="#2B2B2B"></path>
                        <polyline id="Path-16" stroke="#555454" stroke-width="4" points="257.127176 256.76706 282.350397 249.338202 298.510335 234.193039"></polyline>
                        <polygon id="Path-17" stroke="#2B2B2B" points="235.260546 237.040071 237.610159 249.679776 240.702066 243.10707 240.060321 235.614629 237.216831 234.201017"></polygon>
                        <polygon id="Path-18" stroke="#CE77AC" fill="#EF82C4" points="240.938654 242.324852 253.625676 245.168342 261.118117 248.833975 257.863556 255.783742 240.25107 271.031828 236.354764 269.618216 235.565152 260.790532 238.000529 248.990714"></polygon>
                        <polyline id="Path-19" stroke="#2B2B2B" points="213.782806 248.517538 214.965746 260.973888 219.761085 278.524269 240.975621 285.63817 270.309555 286.689507 296.897591 267.530328"></polyline>
                        <path d="M311.968624,223.151763 C311.968624,223.151763 310.258479,228.542624 309.845763,231.388178 C309.433046,234.233733 309.845763,237.78824 309.845763,237.78824 C309.845763,237.78824 313.557922,242.219169 316.062863,243.447441 C318.567803,244.675713 323.895448,244.677359 323.895448,244.677359 L340.631959,236.18549 L339.652416,232.375948 L311.968624,223.151763 Z" id="Path-20" fill="#EDEAEA"></path>
                        <polygon id="Path-22" stroke="#2B2B2B" points="165.010356 237.147943 168.057664 246.107905 179.834602 240.784904 185.083896 235.150954 181.267274 233.381995 166.853022 233.994681"></polygon>
                        <path d="M149.210289,251.910129 L140.797824,282.621571 L136.618282,283.268217 L123.032981,300.830162 L115.949872,316.756719 L83.1338141,361.187539 L64.84112,323.676971 L58.1520173,329.425841 L53.1770011,329.425841 L15.8404527,326.388509 L22.7737729,392.541268 L36.1192394,441.294513 L50.112039,463.016094 C55.7943712,471.837005 67.3484055,474.063104 75.9005056,468.00112 L98.040666,452.307513 L141.263915,417.271392 L150.899222,420.189111 L149.145601,454.936878 L165.42801,498.493336 L167.115416,527.499648" id="Path-21" stroke="#A74486"></path>
                        <path d="M119.584587,435.784988 C117.877059,437.181996 116.721618,440.094877 117.002505,442.280729 L118.916425,457.174761 C119.549855,462.104085 122.462137,469.333099 123.956007,471.346489 L123.956007,471.346489 L124.520518,454.364854 C124.575411,452.713552 125.323854,450.239514 126.205867,448.816913 L133.784899,436.592668 L136.770695,452.056837 C137.399013,455.311051 140.071374,459.54468 142.742872,461.515339 L155.26398,470.75167 L149.472226,454.694427 L151.811267,423.1636 L144.027708,415.786926 L119.584587,435.784988 Z" id="Path-23" stroke="#545454" fill="#49313E"></path>
                        <polyline id="Path-24" stroke="#2B2B2B" points="382.952383 526.659335 356.700638 510.00103 338.967311 494.656977 318.605478 478.301495 312.982051 465.174109 312.982051 455.044672 353.599729 393.356555"></polyline>
                        <path d="M314.697821,465.822904 L320.234677,469.882622 C326.026354,474.129178 336.213865,475.665848 343.004183,473.309645 L346.238096,472.187495 L328.634983,463.09977 L328.035827,460.281637 C325.968802,450.55936 329.581347,436.607821 336.111954,429.111645 L338.228422,426.68225 L336.657079,434.812066 C335.609957,440.229665 336.86505,448.571024 339.463633,453.449066 L340.284592,454.990164 L342.308918,444.981304 C343.622651,438.485827 348.939273,429.930569 354.177177,425.87782 L364.910176,417.573328 L372.856257,408.312994 L369.443439,421.78257 L388.52433,402.562381 L389.332868,425.885825 L389.722587,425.665474 C395.976374,422.12953 402.179003,413.552902 403.575088,406.516391 L404.513396,401.787153 L361.097631,367.395521 L351.237477,398.329545 L339.155061,420.846847" id="Path-25" stroke="#2B2B2B" fill="#30222A"></path>
                        <path d="M408.808997,402.799836 L440.000734,377.207088" id="Path-26" stroke="#2B2B2B"></path>
                        <path d="M401.820927,401.362121 L448.23222,359.13431 L402.633424,324.70962 C402.633424,324.70962 391.723293,343.100118 385.028879,350.062022 C378.334464,357.023926 361.251006,368.14876 361.251006,368.14876 L401.820927,401.362121 Z" id="Path-27" fill="#302E2E"></path>
                        <polyline id="Path-28" stroke="#2B2B2B" points="361.504534 363.798209 395.206987 328.258243 400.256009 316.545248 417.470507 319.795383 423.566121 330.546398 434.664773 338.990864 440.512074 339.807537"></polyline>
                        <path d="M399.792492,313.765986 L365.370852,298.905859 L356.23295,249.892637 L340.55615,237.668301 L327.044268,251.691524 L312.040671,254.634487 L312.675247,259.133543 L300.491377,266.799964 L270.399573,286.015678 L286.272512,306.601759 C286.272512,306.601759 295.750739,303.815463 300.491377,301.712034 C305.232016,299.608605 311.116081,295.578626 311.116081,295.578626 L353.986356,389.834697 L361.74181,367.017076 L359.963157,363.314459 L380.975918,344.976117 L400.636755,317.755541 L399.792492,313.765986 Z" id="Path-29" stroke="#2B2B2B" fill="#313131"></path>
                        <path d="M105.748658,331.825067 L128.351478,343.87754 C128.351478,343.87754 130.35516,341.658371 131.749956,340.345174 C133.144752,339.031977 157.260268,316.659988 157.260268,316.659988 L196.0553,285.571208 L199.246412,292.126695 L221.028212,277.792548 L213.894131,243.993207 L196.688867,253.561816 L179.991126,281.728426 L154.126047,290.748362 L141.105584,310.554464 L119.892703,325.64372 L105.748658,331.825067 Z" id="Path-30" stroke="#2B2B2B" stroke-width="2"></path>
                        <polygon id="Path-31" stroke="#CA64B6" fill="#F269BA" points="132.801968 336.983289 125.49913 333.130163 154.410506 302.519791 162.980479 310.306209 169.50752 307.834002 155.972444 289.525188 142.033955 309.010628 122.548515 322.804302 110.733124 325.478216 104.149191 331.860441 127.136062 344.50335"></polygon>
                        <path d="M320.975174,480.004237 L309.042782,525.996847" id="Path-32" stroke="#2B2B2B"></path>
                        <path d="M349.7799,504.892145 L335.119354,528.435973" id="Path-33" stroke="#2B2B2B" stroke-width="3"></path>
                        <path d="M121.384844,310.15632 L112.947385,317.285789 L91.5295021,303.686373 L91.9503967,305.55524 C93.1647442,310.947216 97.9649191,317.649083 102.679335,320.528828 L109.666138,324.796634" id="Path-34" stroke="#2B2B2B" fill="#6A485A"></path>
                        <path d="M212.68626,376.462224 L224.133447,397.325519 C226.791275,402.169596 232.959006,408.087896 237.916999,410.513381 C237.916999,410.513381 242.650092,412.949774 245.032754,413.787321 C247.415417,414.624868 260.150124,418.123584 260.150124,418.123584 C268.13275,420.345154 280.700177,419.315082 288.203881,415.83046 L302.456524,409.211718 C311.472208,405.024951 319.243044,393.592437 319.813855,383.664592 L321.097021,361.347132 C321.445748,355.281896 318.470316,346.678086 314.562134,342.255511 L314.562134,342.255511" id="Path-36" stroke-opacity="0.342561141" stroke="#2B2B2B"></path>
                        <path d="M229.679567,90.103687 L232.809748,93.699388 L240.104705,89.5122423 C242.01735,88.4144259 245.345346,87.3180097 247.53812,87.0633133 L255.09274,86.1858246 C257.285457,85.9311349 260.790262,86.1792014 262.93084,86.7425014 L277.248653,90.5102805 L266.441507,85.5038732 C263.348276,84.0709351 258.096334,82.5277496 254.72259,82.0586881 L255.740224,82.2001727 C252.361275,81.7303876 246.92462,81.9689972 243.605318,82.7312383 L244.233132,82.5870677 C241.539188,83.2057023 237.489733,84.9405109 235.181722,86.4663001 L229.679567,90.103687 Z" id="Path-39" stroke-opacity="0.971410779" stroke="#785F4D" fill="#785F4D"></path>
                        <path d="M191.745834,93.3697158 L197.979009,95.0061746 C198.574883,95.1626155 199.557195,95.2894359 200.188754,95.2894359 L201.767822,95.2894359 C202.315717,95.2894359 202.402611,95.0263605 201.954255,94.6962078 L201.501339,94.3626974 C201.001524,93.9946518 200.103789,93.6613786 199.472982,93.6166656 L191.43499,93.0469155 L191.745834,93.3697158 Z" id="Path-40" stroke="#745238" fill="#785F4D"></path>
                        <path d="M213.026611,125.030464 L213.544785,138.721929 L207.741631,143.457857 C206.028368,144.856044 205.600988,147.50139 206.783246,149.360422 L212.880647,158.948222" id="Path-41" stroke="#9B8B80"></path>
                        <path d="M295.25754,158.424731 C302.989526,158.424731 299.471581,146.834203 299.471581,139.777426 C299.471581,132.720648 287.731986,127 280,127 C272.268014,127 256.740805,132.720648 256.740805,139.777426 C256.740805,142.555008 260.623795,147.381916 266.879472,150.581035 C273.13515,153.780153 290.568902,158.424731 295.25754,158.424731 Z" id="Oval" fill-opacity="0.103572237" fill="#FF6A63"></path>
                        <path d="M198.603466,146.317772 C202.802744,146.317772 213.550336,140.285819 213.550336,137.436645 C213.550336,135.697774 208.977571,132.291111 204.135309,130.979705 C199.293048,129.668298 197.59567,130.979705 195.959241,130.979705 C191.759963,130.979705 192.191015,139.113585 192.191015,141.962759 C192.191015,144.811933 194.404187,146.317772 198.603466,146.317772 Z" id="Oval" fill-opacity="0.1" fill="#FF6A63"></path>
                        <polygon id="Path-42" stroke="#F894A9" fill="#FB9CB2" points="269.906206 148.194002 280.311841 162.006177 284.836738 171.561009 292.644964 160.48725"></polygon>
                        <polygon id="Path-43" stroke="#D98498" fill="#FB9CB2" points="275.947348 139.583112 292.71913 145.693897 297.85049 148.484344 298.801154 139.583112 287.753099 138.166572"></polygon>
                        <path d="M449.549061,310.840855 L453.001023,318.848703" id="Path-45" stroke="#2B2B2B"></path>
                        <polyline id="Path-47" stroke="#9D9D9D" points="28.0738405 213.254171 59.7174614 210.138293 89.3769576 231.113535 84.5214582 235.731042 57.8893367 219.793762 37.3558393 221.573191"></polyline>
                        <path d="M33.1691208,197.434583 L67.6127972,193.409262 L89.5605622,213.120376 L100.653959,222.377951 C103.196422,224.499668 103.140298,227.879313 100.533668,229.922631 L100.581913,229.884812 C99.7103759,230.568003 98.1658263,230.790963 97.1381647,230.385215 L89.5605622,227.393376 L60.8016218,209.537604 L37.9428419,211.301697" id="Path-48" stroke="#B9B9B9"></path>
                        <polyline id="Path-50" stroke="#BCBCBC" points="42.2479857 195.318683 60.9405659 178.024594 79.8539931 172.263774 95.9262476 169.321923 115.76723 178.024594"></polyline>
                        <polygon id="Path-51" stroke-opacity="0.288439764" stroke="#444444" fill="#313131" points="300.115943 516.322017 303.450018 500.911936 278.51272 487.171713 274.123701 488.074339 273.533609 491.54832 276.31821 498.946468 287.414868 511.948795"></polygon>
                        <path d="M168.508568,516.81959 L174.353071,517.120841 L177.598508,510.500054 C178.327922,509.012026 178.746932,506.482575 178.532196,504.833505 L177.965454,500.481205 C177.570596,497.448888 175.069343,496.174318 172.383105,497.632009 L172.713662,497.452632 C170.025474,498.911381 167.943991,502.56186 168.064964,505.616891 L168.508568,516.81959 Z" id="Path-52" stroke="#4B4B4B" fill="#313131"></path>
                        <path d="M162.566478,319.18537 L147.287935,361.773162 C146.540106,363.857679 146.033468,367.329548 146.156617,369.532993 L147.413938,392.029548 C147.567848,394.783373 148.732932,399.007548 150.008478,401.449674 L157.677638,416.132831" id="Path-53" stroke-opacity="0.697633605" stroke="#2B2B2B"></path>
                        <polyline id="Path-54" stroke-opacity="0.697633605" stroke="#2B2B2B" points="216.742038 284.339647 197.217593 314.876715 184.340736 360.57501 184.178866 399.984014"></polyline>
                        <path d="M161.020528,419.199269 L169.750601,501.551139" id="Path-55" stroke-opacity="0.697633605" stroke="#2B2B2B"></path>
                        <polyline id="Path-56" stroke-opacity="0.697633605" stroke="#2B2B2B" points="186.02855 402.064147 194.176618 473.117847 199.654739 525.805657"></polyline>
                        <path d="M217.296761,496.210388 L223.744284,526.567399" id="Path-57" stroke-opacity="0.697633605" stroke="#2B2B2B"></path>
                        <polyline id="Path-58" stroke-opacity="0.697633605" stroke="#2B2B2B" points="268.465902 289.546772 247.828373 334.719443 239.905832 375.125131 243.121409 411.56773 254.114026 455.543654 261.874697 512.5383 263.329709 527.477637"></polyline>
                        <polyline id="Path-59" stroke-opacity="0.697633605" stroke="#2B2B2B" points="290.958571 329.041258 279.012921 384.92282 288.552345 418.855522 290.814889 461.623786 294.210524 490.285707 294.210524 495.078154"></polyline>
                        <path d="M279.660402,327.546233 L299.56669,327.950968 C301.220112,327.984585 303.724646,327.341421 305.15986,326.514917 L307.967294,324.898187 C309.402895,324.071461 310.566679,322.058737 310.566679,320.406734 L310.566679,314.592049 C310.566679,314.043119 310.185389,313.363292 309.713931,313.07293 L308.936791,312.594302 C306.118382,310.858491 301.332026,310.419864 298.233914,311.619345 L290.938565,314.443849 L282.570426,319.883775 L279.67859,322.431866 L279.660402,327.546233 Z" id="Path-60" stroke-opacity="0.579483696" stroke="#6C6B6B" fill="#403D3D"></path>
                        <path d="M156.023688,318.180824 L165.178903,318.74041 C168.19698,318.924881 170.412017,316.631212 170.127138,313.625921 L169.576269,307.814607 L156.023688,318.180824 Z" id="Path-61" fill="#3C3C3C"></path>
                        <path d="M308.509656,296.970971 L299.333985,309.238543" id="Path-62" stroke="#2B2B2B"></path>
                        <path d="M338.790278,416.709379 L344.286586,367.151665" id="Path-63" stroke-opacity="0.54223279" stroke="#2B2B2B"></path>
                        <path d="M266.452645,122.039562 C268.911773,122.039562 270.905291,120.246944 270.905291,118.035638 C270.905291,117.464134 267.345738,118.026239 267.105802,117.534385 C266.865865,117.042531 268.276221,114.031713 266.452645,114.031713 C263.993517,114.031713 262,115.824331 262,118.035638 C262,120.246944 263.993517,122.039562 266.452645,122.039562 Z" id="Oval-3" fill-opacity="0.303668478" fill="#000000"></path>
                        <g id="Group-3" transform="translate(222.639030, 337.537654) rotate(1.000000) translate(-222.639030, -337.537654) translate(198.639030, 310.537654)" stroke="#FF3EB0">
                            <path d="M7.24929498,21.9715316 L7.55896947,16.0163064 C7.78848488,11.6025883 9.45222031,4.75965503 11.2738128,0.734869061 L9.980053,3.59341526 C11.8021889,-0.432571387 15.6425892,-1.0196293 17.0772935,1.551305 C17.0772935,1.551305 16.5936047,-0.459380133 17.0772935,1.551305 C17.5609822,3.56199014 17.2080788,4.75479387 17.2080788,4.75479387 C16.9516791,8.04133411 16.3964698,13.362498 15.9668577,16.6485618 L15.1429959,22.9502051 L15.1429959,22.9502051 C18.6624651,23.2853191 24.2329086,25.1286259 27.5830155,27.0662388 L27.6700169,27.1165581 L31.9524477,18.5796437 C34.6750365,13.1522338 41.7939464,8.56247549 44.0311403,8.19746094 C44.0311403,8.19746094 42.102689,8.78548781 44.0311403,8.19746094 C45.9595916,7.60943407 44.0311403,8.19746094 44.0311403,8.19746094 C46.1071819,6.6670224 47.6886758,9.31568175 47.6886758,9.31568175 C47.6886758,9.31568175 47.5729334,8.29740067 47.6886758,9.31568175 C47.8044182,10.3339628 47.6886758,9.31568175 47.6886758,9.31568175 C47.5883239,11.1401113 44.0458514,17.3102513 39.7786896,23.0838598 C39.7786896,23.0838598 39.4362654,23.5630618 39.2728837,23.7610168 C39.1095021,23.9589717 33.1044511,30.0693559 33.1044511,30.0693559 L33.4294654,34.156005 C33.8676866,39.6660888 31.6239709,47.7735391 28.4175278,52.2651443 L30.5812673,49.2341647 C29.298151,51.031562 26.4721271,52.648837 24.2723048,52.846168 L18.7834704,53.338534 C16.0377894,53.5848303 11.8597171,52.6762242 9.45553211,51.3114033 L8.8556655,50.9708677 C6.44966842,49.6050181 2.92378817,46.9171801 0.967012465,44.9539907 L1.21494881,45.2027397 C0.437460645,44.4227031 -0.099408594,42.8981037 0.0154838829,41.8006412 L0.359780969,38.5118868 C0.647601761,35.7625986 2.19517067,31.7182201 3.81136502,29.485433 L4.82777708,28.0812506 L7.98469822,25.1270547 L7.24929498,21.9715316 Z" id="Path-64" fill="#FBFAFA"></path>
                            <path d="M21,38.2425204 L29.8049453,36" id="Path-65"></path>
                            <path d="M15.1136994,37.7215058 L9,31" id="Path-65"></path>
                            <path d="M23,37.6882983 L23.1188215,38.6554553 C23.253613,39.7526014 24.2567835,40.7651593 25.342064,40.9146693 L25.0477758,40.8741277 C25.5998449,40.9501817 26.3568478,40.6896599 26.7457831,40.2847465 L26.0473853,41.0118356 C26.7842833,40.2446646 27.3816572,38.720148 27.3816572,37.6083038 L27.3816572,37" id="Path-68"></path>
                            <path d="M8.28569151,34.3410643 L8.404513,35.3082213 C8.5393045,36.4053673 9.54247498,37.4179252 10.6277555,37.5674353 L10.3334673,37.5268937 C10.8855364,37.6029476 11.6425393,37.3424259 12.0314746,36.9375125 L11.3330768,37.6646016 C12.0699748,36.8974306 12.6673487,35.372914 12.6673487,34.2610697 L12.6673487,33.6527659" id="Path-68" transform="translate(10.476520, 35.658684) scale(-1, 1) rotate(-44.000000) translate(-10.476520, -35.658684) "></path>
                            <polygon id="Path-69" transform="translate(15.350291, 44.963537) rotate(17.000000) translate(-15.350291, -44.963537) " points="13.8956358 44.0146979 16.8049452 44.1382031 15.132075 45.9123753"></polygon>
                            <path d="M14.791279,45.4328395 L14.0731452,46.7053588 L12.2784299,46.7053588 C11.8854971,46.7053588 11.3202711,46.5081603 11.005603,46.2566227 L9.79278994,45.2871312" id="Path-70" transform="translate(12.292034, 45.996245) rotate(14.000000) translate(-12.292034, -45.996245) "></path>
                            <path d="M14.9760483,46.0839606 L14.9760483,47.843562 L15.711002,48.3252648 C16.4294138,48.7961257 17.6008558,48.8182282 18.328524,48.3740014 L19.2099156,47.8359297" id="Path-71" transform="translate(17.092982, 47.388633) rotate(14.000000) translate(-17.092982, -47.388633) "></path>
                        </g>
                        <polyline id="Path-74" stroke-opacity="0.570822011" stroke="#B0408A" stroke-width="2" points="31.3395045 332.105158 34.7651524 391.673369 72.9593143 470.123426"></polyline>
                        <polyline id="Path-75" fill-opacity="0.293931159" fill="#A74486" points="54.5260659 332.05758 77.5336418 404.313376 92.9694483 434.991128 99.9293883 379.194716 64.5719144 323.398303"></polyline>
                        <path d="M87.5726934,371.459328 L116.196791,338.929266" id="Path-76" stroke-opacity="0.570822011" stroke="#B0408A" stroke-width="2"></path>
                        <path d="M92.4143664,406.690032 L121.498389,379.096801" id="Path-77" stroke-opacity="0.570822011" stroke="#B0408A" stroke-width="2"></path>
                        <polyline id="Path-78" stroke-opacity="0.710144928" stroke="#6B6B6B" points="27.9087644 277.495166 33.6713746 262.772163 34.9290357 226.124367"></polyline>
                        <polyline id="Path-79" stroke-opacity="0.710144928" stroke="#6B6B6B" points="44.5223848 279.368103 52.7991385 262.327797 45.0457227 230.827335"></polyline>
                        <polyline id="Path-80" stroke="#BCB7B7" points="36.4412936 220.956994 56.8231825 219.084058 82.1414206 234.159489"></polyline>
                        <polyline id="Path-81" stroke="#929292" points="40.5820278 209.24672 63.7762684 202.357283 80.7246365 213.962654"></polyline>
                        <path d="M85.8837579,218.702162 L97.6285677,228.772697 C98.4690651,229.493378 99.8475267,229.509169 100.693666,228.819207 L101.857361,227.870302" id="Path-82" stroke="#949191"></path>
                        <polyline id="Path-83" stroke="#969191" points="56.8644366 192.755683 71.219689 182.826408 93.264708 177.482232 108.801007 183.861297"></polyline>
                        <polyline id="Path-84" stroke="#ABABAB" points="62.2416154 176.598215 69.1322309 165.92283 80.4099265 158.064511 93.2859244 145.214444"></polyline>
                        <polyline id="Path-85" stroke="#B5B5B5" points="97.5563143 211.002966 101.500207 202.842903 106.344619 198.769354 108.927126 199.071098"></polyline>
                        <polyline id="Path-86" stroke="#959595" points="37.9976123 225.874643 53.2330918 222.773537 73.852868 236.299531 80.6623817 235.495827"></polyline>
                        <polyline id="Path-87" stroke="#959595" points="73.7572505 259.525529 86.6811133 243.242134 88.7213831 234.208868"></polyline>
                        <polyline id="Path-88" stroke="#959595" points="56.2695922 246.472453 56.8303757 236.607057 63.1062407 234.811"></polyline>
                        <path d="M43.4232571,230.133497 L53.0302277,224.046282" id="Path-89" stroke="#959595"></path>
                        <polygon id="Path-90" fill-opacity="0.290591033" fill="#AE7A58" points="62.9010814 297.176278 42.4137652 302.986333 22.5157931 304.589845 60.0715533 306.580994"></polygon>
                        <polygon id="Path-92" stroke="#976371" points="218.826904 173.255381 217.157696 174.702538 215.135606 174.222193 219.061913 177.90313 219.061913 180.567148 225.600332 181.771052 234.809248 180.567148 243.194752 175.245001 233.481068 176.246291 224.002392 172.593941"></polygon>
                        <path d="M214.348039,173.498683 L215.087817,169.739723 C215.194598,169.197149 215.669299,168.521111 216.134841,168.237813 L218.801201,166.615242 C219.272676,166.328334 220.10322,166.167953 220.640966,166.254555 L222.739228,166.592473 C223.825976,166.76749 225.356754,167.53649 226.149249,168.301329 L228.437411,170.509643 L231.816481,173.753448 L231.816481,173.753448 C232.651268,174.609672 235.113798,175.303779 236.027843,175.303779 L236.027843,175.303779" id="Path-93" stroke="#FF98B4"></path>
                        <path d="M219.590548,181.642521 L220.680153,183.885749 C221.517008,185.608629 223.74081,186.900535 225.651428,186.771013 L228.196376,186.598489 L235.689215,179.852539 L219.590548,181.642521 Z" id="Path-94" stroke="#976371"></path>
                        <path d="M241.148405,117.070642 L245.623441,113.157782 L248.502157,108.417896 L253.177816,105.53918 L259.25711,104.512252 L267.004169,106.052282 L273.660072,108.23315 L278.28512,111.747952 L280.942084,111.32942 L284.127081,110.149888 L280.207039,112.788291 L286.380682,114.154416 L288.794802,113.606657 C288.794802,113.606657 284.567555,115.539084 282.430952,116.530681 C280.294349,117.522278 279.916174,117.727226 279.916174,117.727226 L278.489445,116.765379 L265.802599,112.788291 L257.470992,112.595606 L253.701022,113.365621 L248.961857,118.361699 L245.497871,119.508422 L242.169559,121.497327 L239.562188,122.06672 L246.018191,117.199099 L241.148405,117.070642 Z" id="Path-95" stroke="#2B2B2B" fill="#373737"></path>
                        <polygon id="Path-96" stroke="#333333" points="259.351648 113.886663 257.997085 117.599622 258.759162 119.836779 259.649695 122.716217 260.660746 124.881929 268.335638 125.843907 274.694624 125.843907 278.083435 122.238595 279.939413 118.147588 275.985273 115.913816 270.113817 113.796455 263.514204 113.027161"></polygon>
                        <polyline id="Path-97" stroke="#2B2B2B" points="250.200953 128.54559 259.752171 126.179255 276.151977 126.074614 280.290718 126.716173"></polyline>
                        <polyline id="Path-98" stroke="#2B2B2B" points="236.467695 107.289214 241.078403 109.854728 247.086253 110.175868"></polyline>
                        <polyline id="Path-99" stroke="#2B2B2B" points="194.109881 120.971695 194.658823 120.923096 200.541249 120.402307 204.830636 124.652749 207.805255 129.512016 210.681772 132.568962 205.75053 128.537402 201.948697 128.800159 195.692335 129.150665 194.486515 129.019533 194.744341 125.119105"></polyline>
                        <polyline id="Path-100" stroke="#9B8B80" points="193.569076 113.396089 197.648863 112.692061 201.99541 114.518821"></polyline>
                        <path d="M205.435109,99.162899 L209.094817,106.582693" id="Path-101" stroke="#9B8B80"></path>
                        <polyline id="Path-102" stroke="#9B8B80" points="204.839023 119.035875 206.726286 120.984327 209.354015 126.179283 209.354015 127.93729"></polyline>
                        <polyline id="Path-103" fill="#9B8B80" points="218.536629 150.220737 223.09081 156.080531 218.529066 153.032036 218.536629 150.802399"></polyline>
                        <path d="M320.122614,479.765111 L309.287489,527.562221 L335.369752,528.422329 L350.220203,504.364979 C350.220203,504.364979 345.734159,500.262115 340.294212,495.687553 C334.854264,491.112991 332.008914,489.029555 329.020494,486.587009 C321.780909,480.66983 320.122614,479.765111 320.122614,479.765111 Z" id="Path-104" fill="#3D3535"></path>
                        <polygon id="Path-105" fill="#312D2D" points="336.079875 528.269624 337.08705 528.271549 384.093717 528.361414 350.508477 505.568211"></polygon>
                        <polygon id="Path-106" fill="#A74486" points="304.866569 527.896162 309.469654 528.510587 321.260974 477.487964 317.742102 475.103004"></polygon>
                        <polygon id="Path-107" fill-opacity="0.348363904" fill="#A8A8A8" points="280.722482 502.50205 276.911009 497.018292 274.974644 490.634074 276.95661 488.644621 279.551135 488.644621 285.829176 493.364042 288.757204 494.87638 290.390693 499.036331"></polygon>
                        <path d="M280.379676,323.230388 L280.379676,326.96116 L291.332334,327.867114 L297.602111,328.385721 C297.602111,328.385721 300.789583,325.392222 301.157863,323.230388 C301.526142,321.068554 299.761391,315.710537 299.761391,315.710537 L292.358265,314.817251 C292.358265,314.817251 286.555978,317.767038 284.164623,319.446601 C281.773268,321.126164 280.379676,323.230388 280.379676,323.230388 Z" id="Path-108" fill-opacity="0.383010643" fill="#D9D9D9"></path>
                        <polygon id="Path-109" fill-opacity="0.305876359" fill="#262626" points="303.212024 327.636047 304.912397 314.421 309.435756 313.430944 310.737513 323.642734"></polygon>
                        <path d="M167.768954,512.706158 L176.489774,511.881281 C176.489774,511.881281 175.88963,510.035641 176.917395,510.035641 C177.429227,510.035641 178.678832,507.804292 178.711692,506.285209 C178.744551,504.766125 178.524938,503.6914 178.711692,502.919313 C178.777266,502.648215 178.671016,502.20882 178.711692,501.998464 C178.752367,501.788107 177.918376,498.562143 177.918376,498.562143 L177.918376,498.562143 C177.129381,496.899974 174.443328,496.461836 171.922734,497.581834 L171.458415,497.78815 L171.458415,497.78815 C169.77149,499.183585 168.278509,502.762941 168.123593,505.785905 L167.768954,512.706158 Z" id="Path-110" fill-opacity="0.401324728" fill="#FFFFFF"></path>
                        <polygon id="Path-114" fill-opacity="0.617074275" fill="#788CA8" points="299.187322 460.449349 244.142279 491.355819 249.718148 501.495901 273.543029 492.953032 276.562312 485.51854 301.809261 498.447864 305.061198 506.405176 301.223704 515.87605 282.715896 510.326321 282.715896 525.171779 303.809046 526.565093 317.695129 475.582357 314.207924 462.216478"></polygon>
                        <polyline id="Path-119" stroke-opacity="0.634963768" stroke="#546A89" points="55.3389428 333.954182 76.1209435 395.685598 89.9669099 431.393242 95.5598735 424.820264 97.6693961 380.809786"></polyline>
                        <path d="M116.156787,432.885807 L135.621819,408.492228" id="Path-120" stroke-opacity="0.570822011" stroke="#B0408A"></path>
                        <path d="M133.056018,337.91837 L125.161867,332.34228 L154.072435,302.709096 L163.564556,310.891456 C163.564556,310.891456 150.020148,323.461965 143.462645,329.41469 C136.905142,335.367415 133.056018,337.91837 133.056018,337.91837 Z" id="Path-121" fill="#313131"></path>
                        <polygon id="Path-122" fill="#313131" points="168.379051 306.21339 155.5293 289.310382 178.638366 282.590732 198.09962 251.973023 213.465569 242.858074 218.613677 264.216437 220.867907 278.017352 199.826603 294.091289 196.283395 285.021246 170.192312 306.781877"></polygon>
                        <polygon id="Path-126" fill="#3C3434" points="394.238128 340.978877 395.306287 358.990713 434.165922 349.154301 403.216006 327.342489"></polygon>
                        <path d="M360.4884,363.281344 C360.4884,363.281344 371.789795,353.201894 377.73415,348.043925 C383.678505,342.885955 381.76184,344.561577 381.76184,344.561577 C381.76184,344.561577 383.024892,342.248642 384.127124,340.861918 C385.229356,339.475195 396.701917,323.702151 396.701917,323.702151 C396.701917,323.702151 398.934178,321.206645 399.210816,320.20948 C399.487455,319.212316 401.272895,316.426963 401.272895,316.426963 L412.339719,319.150022 C412.339719,319.150022 416.892415,318.928107 418.027914,320.20948 C419.163414,321.490854 428.41399,333.690081 428.41399,333.690081 L444.396278,340.861918 L457.467901,351.625496 L446.960398,381.12495 L422.891917,414.373157 L402.314042,400.202268 L446.960398,358.921952 L403.117646,325.130147 L386.679984,348.887851 C386.679984,348.887851 377.675293,357.04113 373.049528,360.54348 C368.423764,364.045829 362.152429,367.458634 362.152429,367.458634 L360.4884,363.281344 Z" id="Path-127" fill="#F269BA"></path>
                        <polygon id="Path-128" fill="#FDFDFD" points="342.300796 238.60262 354.870086 248.242166 365.806295 299.506059 400.143369 314.120342 400.143369 317.477892 417.997323 319.685795 425.296517 329.708115 430.754688 335.462969 456.394637 350.949673 456.394637 322.016025 420.116486 277.834962 408.503469 246.501803 376.210064 235.185469 348.984109 233.254381"></polygon>
                        <polygon id="Path-130" fill-opacity="0.376783288" fill="#C4A2A2" points="408.177648 246.770672 399.463912 298.782895 410.149795 304.301992 415.537768 314.046171 422.234326 317.814309 439.70683 335.09344 439.824708 320.093734 432.34671 313.028973 418.924457 279.045534"></polygon>
                        <polyline id="Path-129" stroke="#979797" points="420.380057 280.79252 424.062104 298.882231 439.708154 320.884447"></polyline>
                        <path d="M205.786089,329.181475 L199.476266,333.711839 C196.785552,335.643733 193.673111,339.729047 192.526594,342.830798 L193.183748,341.052955 C192.417374,343.126278 191.945964,346.589657 192.131749,348.799655 L192.194091,349.541239 C192.472112,352.848415 193.995721,357.876756 195.599775,360.777066 L196.136879,361.748211 C196.670939,362.713851 197.84412,363.998068 198.757373,364.616671 L199.161442,364.890372 C202.820134,367.368632 209.320938,369.953743 213.675378,370.663398 L211.445888,370.300052 C215.262193,370.922006 221.465512,371.025269 225.290359,370.532119 L227.904787,370.195032 C229.542755,369.983844 231.802352,368.855369 232.966271,367.659583 L233.553215,367.056569 C236.634943,363.890468 239.571907,357.775259 240.113659,353.393419 L240.754415,348.2108 L240.754415,348.2108 C240.651457,344.752656 238.470404,339.621213 236.297756,337.209843 L236.297756,337.209843 L232.464597,340.742773 L231.405805,350.56454 C231.110214,353.306563 230.011619,357.588623 228.942658,360.151247 L230.381462,356.701999 C229.316694,359.254569 226.299724,361.934227 223.64131,362.687627 L218.355919,364.185516 L211.872047,363.496657 L204.155077,359.762288 L204.155077,359.762288 C201.268316,356.772079 199.086605,350.766029 199.282103,346.347119 L199.365374,344.464917 L206.651867,335.790388 L205.786089,329.181475 Z" id="Path-131" stroke="#FF3EB0" fill="#EC68B6"></path>
                        <path d="M214.844709,327.392229 L214.053638,333.804936 L221.263628,334.903177 L225.857604,338.204109 L229.214436,330.869896 L228.055826,329.904977 C225.936803,328.140202 221.986905,326.658592 219.218305,326.666092 C219.218305,326.666092 220.166773,326.572552 218.285239,326.70957 C216.403705,326.846588 214.844709,327.392229 214.844709,327.392229 Z" id="Path-72" stroke="#FF3EB0" fill="#EC68B6"></path>
                        <path d="M213.960818,243.098684 L225.503244,242.73992 C225.503244,242.73992 227.133691,242.190791 227.903762,241.640836 C228.673833,241.090882 238.59494,235.34029 238.59494,235.34029 C238.59494,235.34029 239.803637,234.424938 240.131301,235.34029 C240.458964,236.255643 239.982459,239.297762 239.858181,240.655774 C239.812904,241.150524 240.296552,242.077716 240.131301,242.73992 C239.966049,243.402125 237.353681,248.903787 237.353681,248.903787 C237.353681,248.903787 239.008164,245.026863 238.985594,245.128054 C238.963024,245.229244 236.024614,257.812805 236.024614,257.812805 L236.024614,268.537726 L240.863368,269.95827 L253.966051,259.751299 L259.649223,254.082484 L283.192934,248.613104 L298.924614,235.34029 L299.556195,247.849321 L304.217082,254.626462 C304.217082,254.626462 308.855028,255.75165 311.189695,257.046371 C313.524362,258.341092 312.621689,259.287349 312.621689,259.287349 L298.924614,267.728569 L291.395067,265.002701 L269.6547,280.722129 C269.6547,280.722129 256.489397,280.484854 249.918563,280.041902 C243.347729,279.598951 241.935848,278.853553 241.935848,278.853553 L220.82949,272.245688 L213.960818,243.098684 Z" id="Path-73" fill="#7B7B7B"></path>
                        <polygon id="Path-132" fill-opacity="0.339419158" fill="#F0E4E4" style="mix-blend-mode: lighten;" points="215.527285 250.147008 213.464628 243.774732 223.380424 246.408723 234.023941 239 223.17905 250.619264 226.336956 252.371216 230.060539 264.680643 230.384568 272.107672 220.489923 272.107672"></polygon>
                        <polygon id="Path-133" fill-opacity="0.220250226" fill="#151212" points="274.399124 254.871772 255.416904 267.869531 267.09475 272.914858 279.202803 264.329015 284.859574 268.398595 293.672421 264.817804 301.01524 266.809573 309.619249 258.203116 300.039492 250.412259 300.039492 234.182094 282.014713 249.780678"></polygon>
                        <path d="M221.3773,279.511953 L220.548493,272.419258 C220.548493,272.419258 230.246899,275.369708 235.758293,277.072758 C241.269687,278.775808 243.5018,279.511953 243.5018,279.511953 L269.326913,280.966732 L291.883796,265.47985 L298.969424,267.530679 L270.077742,286.507541 C270.077742,286.507541 258.217398,286.716254 252.359853,286.507541 C246.502309,286.298829 239.941871,285.433758 239.941871,285.433758 L221.3773,279.511953 Z" id="Path-134" fill="#F269BA"></path>
                        <polygon id="Path-135" fill="#979797" points="258.944866 254.352536 279.247501 249.713926 298.772473 235.198321 300.016163 220.427941 274.780822 232.063693 260.338115 236.695314 254.928912 235.001717 252.245664 225.075762 254.928912 213.677098 247.155298 214.045286 246.631756 233.575459 238.546166 234.100609 240.627172 242.222062 246.631756 243.76498 252.011561 244.527993 257.908919 247.465853 260.764465 249.376689"></polygon>
                        <polygon id="Path-136" stroke="#7E7E7E" fill="#D8D8D8" points="263.629586 222.709143 304.116142 204.19223 305.475843 188.346662 279.593584 204.986012 257.083462 213.764738"></polygon>
                        <polygon id="Path-137" stroke="#525151" fill="#6C6969" points="255.112262 214.316998 264.06403 223.669339 262.885875 236.44422 255.120362 234.153445 252.501913 226.70677"></polygon>
                        <polygon id="Path-138" fill="#6D6A6A" points="239.392418 233.891418 246.627459 234.026491 246.751868 214.085445 241.25018 214.085445 235.748493 222.651411 235.748493 224.81258 236.019147 227.420099 236.78693 228.994258"></polygon>
                        <polygon id="Path-139" stroke="#656565" fill="#F5F5F5" points="110.345409 324.90903 127.104406 322.784671 141.568751 308.461018 155.230326 290.135928 181.074144 280.616481 197.032303 252.703668 213.313226 242.956632 196.707471 234.33306 190.130135 235.988256 173.621623 257.876156 159.775908 259.531352 148.544013 252.703668 140.115154 279.621045 136.732172 283.151698 123.242222 300.44881 113.506371 320.439087"></polygon>
                        <polygon id="Path-140" fill-opacity="0.38" fill="#C4A2A2" points="141.983606 294.946143 159.685404 264.257466 150.320831 255.87673 143.552426 272.074975"></polygon>
                        <polyline id="Path-123" stroke="#979797" points="122.039835 312.631023 133.579588 302.177495 143.095138 288.02817 142.787559 280.791752"></polyline>
                        <polygon id="Path-124" stroke="#656262" fill="#F069D4" points="123.142685 304.800922 132.419239 297.472368 139.725625 284.146718 134.698371 288.488846"></polygon>
                        <path d="M166.35041,233.745392 L185.664566,233.745392 C185.664566,233.745392 182.541605,239.091395 179.976166,241.342639 C177.410728,243.593883 173.389708,244.516925 173.389708,244.516925 L167.829968,246.503659 L165.534369,241.342639 C165.534369,241.342639 164.417373,238.950056 164.548311,237.731034 C164.67925,236.512013 166.35041,233.745392 166.35041,233.745392 Z" id="Path-141" fill="#F5F5F5"></path>
                        <polygon id="Path-146" fill-opacity="0.525730299" fill="#FFE8AB" points="368.589849 127.125363 369.172352 131.401217 375.008694 129.567347 374.426191 123.313485 368.574959 124.511844 368.574959 126.121171"></polygon>
                        <path d="M348.240302,76.898604 L356.242082,78.0515454 L353.180051,64.1405586 C352.230409,59.8262771 350.926458,52.7856002 350.182174,48.4360966 C350.182174,48.4360966 349.678054,43.4879408 348.240302,40.8858989 C346.802551,38.283857 341.898989,31.7151767 341.898989,31.7151767 L340.238523,42.2464827 C340.238523,42.2464827 343.435083,53.0690765 344.684892,58.481437 C345.9347,63.8937975 348.240302,76.898604 348.240302,76.898604 Z" id="Path-147" fill="#282828"></path>
                        <path d="M266.291666,3.39327565 C266.291666,3.39327565 277.685507,6.60288543 283.12212,8.24094488 C288.558733,9.87900433 302.885006,14.4189029 302.885006,14.4189029 L303.918474,9.32790791 C303.918474,9.32790791 294.545477,5.58683247 289.769914,4.11608408 C284.994352,2.64533568 275.758373,0.655333212 275.758373,0.655333212 C275.758373,0.655333212 269.154451,0.987173907 267.330672,1.62737549 C265.506892,2.26757707 266.291666,3.39327565 266.291666,3.39327565 Z" id="Path-148" fill="#232323"></path>
                        <polygon id="Path-44" fill="#45313B" points="317.349495 467.970279 312.756051 463.527912 313.510591 454.4921 353.733788 393.728261 353.951068 397.029905 335.559465 429.77475 327.025266 443.841877 327.025266 450.300115"></polygon>
                        <polygon id="Path-149" fill-opacity="0.274937726" fill="#F6F7CB" points="13.3700858 289.933403 29.6427017 294.770196 25.3290469 303.775825 51.0327994 312.229027 48.7189491 316.704586 30.7996268 315.908895 9.85212209 308.748488 10.0685371 296.34368"></polygon>
                        <polygon id="Path-151" fill-opacity="0.219401042" fill="#B68E71" points="230.022518 90.5704815 233.195162 93.5587146 239.587532 89.7473049 236.308951 85.8495756"></polygon>
                        <path d="M239.866906,213.206411 L249.393101,213.60393 L256.264315,213.60393 C256.264315,213.60393 273.313728,207.24063 279.805604,203.627426 C280.711477,203.123241 282.044139,202.814431 283.331379,202.029008 C284.618619,201.243586 305.506904,187.305613 305.506904,187.305613 L300.121675,186.494673 L298.135229,173.392458 L273.736766,196.469765 L239.866906,213.206411 Z" id="Path-152" fill="#FFDCCC"></path>
                        <path d="M241.998933,211.366523 C241.998933,211.366523 254.697834,207.111 261.490409,203.31096 C264.716421,201.506199 267.83488,200.436811 270.086782,199.191748 C272.338684,197.946685 274.035116,196.355181 274.035116,196.355181 C274.035116,196.355181 283.330963,189.643638 287.277915,185.726246 C291.224866,181.808855 298.174631,174.899567 298.174631,174.899567 L297.70795,171.315212 C297.70795,171.315212 291.126702,177.955335 287.277915,181.514017 C283.429127,185.072699 274.035116,195.384228 274.035116,195.384228 L241.998933,211.366523 Z" id="Path-153" fill="#A9958D"></path>
                        <polygon id="Path-154" fill-opacity="0.246801404" fill="#B4B4B4" points="28.206906 326.458428 35.5579488 318.474864 42.805969 320.695521 59.6642825 315.555167 71.6933445 308.055552 77.1756861 313.337523 53.6110898 328.014015"></polygon>
                        <path d="M244.620505,120.608877 L250.271439,128.046926 L263.312984,126.123193 C263.312984,126.123193 260.067163,124.029751 259.256592,122.697695 C258.446021,121.36564 258.100282,117.570165 258.100282,117.570165 L259.256592,114.533582 L261.483758,112.961653 C261.483758,112.961653 258.239231,112.923799 257.335694,112.961653 C256.432158,112.999507 254.196506,113.424245 254.196506,113.424245 L249.006914,118.532087 L244.620505,120.608877 Z" id="Path-155" fill="#FBEFE9"></path>
                        <polygon id="Path-156" fill-opacity="0.57237885" fill="#D8D8D8" points="261.19052 120.495249 262.941204 120.365862 263.395046 121.633708 261.726961 122.039562"></polygon>
                        <path d="M273.003614,116.074736 L272.91409,118.394722 C272.866911,119.617335 272.303016,121.460248 271.667667,122.489802 L270.610607,124.202719 L272.622416,123.325586 C273.634037,122.884527 274.612799,121.646937 274.808936,120.559166 L275.010282,119.442505 C275.206242,118.355712 274.591861,117.016294 273.6489,116.45728 L273.003614,116.074736 Z" id="Path-157" fill-opacity="0.57" fill="#D8D8D8"></path>
                        <polygon id="Path-158" fill="#FBEFE9" points="272.876828 125.214199 276.074968 122.52911 277.628475 117.242568 279.585806 117.957218 277.690265 122.542217 274.512723 125.593682"></polygon>
                        <polygon id="Path-159" fill="#454545" points="251.83298 108.507154 256.12231 110.204595 265.016495 109.472939 259.019665 107.144446"></polygon>
                        <path d="M210.32145,131.60513 C210.32145,131.60513 206.778919,125.626554 204.519482,123.035817 C202.260045,120.445079 200.344693,119.838736 200.344693,119.838736 L196.211502,119.838736 C194.007665,119.838736 192.680486,121.568058 193.249136,123.708702 L193.672984,125.304247 L200.973569,124.972391 L210.32145,131.60513 Z" id="Path-161" fill="#4A3A3A"></path>
                        <path d="M208.358814,130.486664 L205.022045,127.402591 C203.521493,126.015677 200.641176,124.958855 198.615591,125.041021 L193.780385,125.237157 L190.115763,123.090793 L192.459338,126.966134 L186.753712,124.12818 C186.753712,124.12818 188.804068,125.103044 189.625751,125.72885 C190.447435,126.354656 193.179295,129.021997 193.179295,129.021997 L204.725624,128.916637 L208.358814,130.486664 Z" id="Path-160" stroke="#373737" fill="#373737"></path>
                        <polygon id="Path-163" fill-opacity="0.1" fill="#FF6A63" points="261.451414 206.956412 280.713752 191.144342 298.057269 174.918861 301.570171 188.032091 281.789847 196.961577"></polygon>
                        <polygon id="Path-168" fill="#C2647D" points="216.338157 175.426946 219.530487 177.772107 218.188432 181.178333 226.356656 181.488909 235.157202 179.808851 242.051254 175.426946 233.404526 176.445679 233.404526 177.319212 223.867788 177.772107 223.288724 172.565338 219.257525 173.514508"></polygon>
                        <path d="M218.263705,181.109973 L219.695599,183.418185 C220.627596,184.920563 222.815618,186.22639 224.568822,186.333982 L225.813321,186.410355 C227.572731,186.518327 230.043758,185.63367 231.337039,184.430208 L236.079457,180.017151 L225.243172,180.526406 L218.263705,181.109973 Z" id="Path-164" fill="#FF98B4"></path>
                        <path d="M214.472622,173.572579 L215.394722,169.041143 L219.541838,166.208228 L224.334835,166.811455 C224.334835,166.811455 228.932266,172.094648 231.699801,174.069089 C234.467336,176.043531 236.516515,175.502227 236.516515,175.502227 L232.723427,176.451772 L223.938154,172.264267 L218.642656,173.572579 L217.094977,175.031416 L214.472622,173.572579 Z" id="Path-165" fill-opacity="0.899314991" fill="#FC83A4"></path>
                        <path d="M217.538825,174.56864 L214.35958,170.797456 L214.35958,170.797456 C214.549864,168.918901 216.22379,167.155378 217.973144,166.878352 L217.973144,166.878352 L221.203169,172.96157 C221.203169,172.96157 220.075964,173.319606 219.484338,173.512496 C218.892711,173.705386 217.538825,174.56864 217.538825,174.56864 Z" id="Path-91" fill-opacity="0.675611413" fill="#FFA9C0"></path>
                        <path d="M223.197199,172.565142 C223.197199,172.565142 222.460738,172.852561 222.251853,172.705489 C222.042969,172.558417 221.542245,171.39992 221.542245,171.39992 C221.542245,171.39992 220.425583,169.253746 219.578984,167.739828 C218.732385,166.225911 218.590163,166.620619 218.650982,166.365552 C218.8475,165.541386 219.358598,165.83622 219.358598,165.83622 C221.054428,165.532551 223.566162,166.121888 224.508474,166.814337 L224.508474,166.814337 L224.65773,167.989584 C224.796674,169.083627 224.414096,170.720995 223.805646,171.643071 L223.197199,172.565142 Z" id="Path-91" fill-opacity="0.675611413" fill="#FFA9C0"></path>
                        <path d="M218.247137,166.302561 L221.786426,172.910761" id="Path-166" stroke-opacity="0.359516531" stroke="#B7ACAF"></path>
                        <polygon id="Path-167" fill="#FFFFFF" points="223.046301 172.735148 223.90647 177.860741 233.198814 177.542263 233.198814 176.518717"></polygon>
                        <polygon id="Path-169" fill-opacity="0.852468297" fill="#FFA9C0" points="222.048647 181.069781 232.032403 180.945293 228.757947 184.587618 223.623631 184.587618"></polygon>
                        <polyline id="Path-171" stroke="#4F3442" points="129.650259 429.821587 123.023932 447.663542 141.462016 419.894079 145.15862 453.052676"></polyline>
                        <path d="M128.589807,223.174243 L115.358696,262.955867 C113.988503,267.075589 113.488348,273.887008 114.24024,278.162051 L116.337692,290.087566 L125.59418,291.387668" id="Path-172" stroke="#4F3442"></path>
                        <path d="M186.259601,73.0331257 C186.259601,73.0331257 217.361051,54.670169 232.243035,51.1770037 C247.125019,47.6838384 263.579685,54.8842127 263.579685,54.8842127 C263.579685,54.8842127 255.514343,43.1074997 257.478168,38.3123199 C259.441994,33.5171401 278.226469,19.1203623 278.226469,19.1203623 C278.226469,19.1203623 256.798059,30.688901 246.323178,30.589222 C235.848297,30.489543 219.701909,18.5634424 219.701909,18.5634424 C219.701909,18.5634424 222.703636,33.4232094 219.701909,38.3123199 C216.700182,43.2014304 186.259601,73.0331257 186.259601,73.0331257 Z" id="Path-175" fill-opacity="0.995612545" fill="#724B5F"></path>
                        <polygon id="Path-49" fill="#A74486" points="422.903052 414.119771 456.252466 432.7831 456.252466 354.775397 445.736125 381.857709"></polygon>
                    </g>
                    <polygon id="Path-125" fill-opacity="0.317566803" fill="#302C2C" points="314.580102 229.222195 304.615797 272.95976 321.402523 281.51026 334.915131 281.51026 347.605232 273.484318 345.038881 266.408952 344.62949 262.165601 349.271336 252.661905 333.806816 252.090106"></polygon>
                </g>
            </g>
            <text id="Mai-Nguyen" transform="translate(98.730422, 61.735144) rotate(-16.000000) translate(-98.730422, -61.735144) " font-family="GiddyupStd, Giddyup Std" font-size="36" font-weight="normal" fill="#333333">
                <tspan x="28.230422" y="67.7351441">Mai Nguyen</tspan>
            </text>
            <text id="09/06/2018" transform="translate(116.694305, 89.439950) rotate(-16.000000) translate(-116.694305, -89.439950) " font-family="SFProText-Regular, SF Pro Text" font-size="14" font-weight="normal" fill="#333333">
                <tspan x="77.694305" y="94.4399504">09/06/2018</tspan>
            </text>
        </g>
    </g>
</svg>