<?xml version="1.0" encoding="UTF-8" standalone="no"?>
<svg width="40px" height="40px" viewBox="0 0 40 40" version="1.1" xmlns="http://www.w3.org/2000/svg" xmlns:xlink="http://www.w3.org/1999/xlink">
    <!-- Generator: Sketch 43.1 (39012) - http://www.bohemiancoding.com/sketch -->
    <title>Group 12</title>
    <desc>Created with Sketch.</desc>
    <defs></defs>
    <g id="Page-4" stroke="none" stroke-width="1" fill="none" fill-rule="evenodd">
        <g id="Group-12">
            <circle id="Oval-4" fill="#FF4081" cx="20" cy="20" r="20"></circle>
            <g id="Group-11" transform="translate(8.000000, 8.000000)" stroke="#FFFFFF" stroke-width="2">
                <g id="Group-10" style="mix-blend-mode: color;" transform="translate(1.000000, 1.000000)">
                    <path d="M13.4710844,2.89691388 L4.72564067,2.9262364 C2.51829749,2.93363739 0.766878132,4.73795341 0.813251992,6.93337346 L1.01195075,16.3401222 C1.07033973,19.1043589 3.35419261,21.3440973 6.11648154,21.3427163 L14.0643148,21.3387428 C16.8250803,21.3373625 19.0845788,19.0997707 19.1111687,16.328151 L19.1771939,9.445952" id="Path-5"></path>
                    <path d="M8.36395396,11.5120456 L6.94559082,15.6328952 C6.76411658,16.1601425 7.03068765,16.4292918 7.5525311,16.2296431 L11.4690756,14.7312381 L20.672731,4.24554086 C21.4031191,3.41341188 21.3165184,2.14452755 20.4840709,1.41558366 L20.4482343,1.38420278 C19.6136521,0.653389557 18.3229322,0.726103557 17.5764823,1.53453638 L8.36395396,11.5120456 Z" id="Path-6"></path>
                    <path d="M9.01432354,11.1019126 L12.0553322,13.951435" id="Path-7"></path>
                </g>
                <g id="Group-10">
                    <path d="M13.4710844,2.89691388 L4.72564067,2.9262364 C2.51829749,2.93363739 0.766878132,4.73795341 0.813251992,6.93337346 L1.01195075,16.3401222 C1.07033973,19.1043589 3.35419261,21.3440973 6.11648154,21.3427163 L14.0643148,21.3387428 C16.8250803,21.3373625 19.0845788,19.0997707 19.1111687,16.328151 L19.1771939,9.445952" id="Path-5"></path>
                    <path d="M8.36395396,11.5120456 L6.94559082,15.6328952 C6.76411658,16.1601425 7.03068765,16.4292918 7.5525311,16.2296431 L11.4690756,14.7312381 L20.672731,4.24554086 C21.4031191,3.41341188 21.3165184,2.14452755 20.4840709,1.41558366 L20.4482343,1.38420278 C19.6136521,0.653389557 18.3229322,0.726103557 17.5764823,1.53453638 L8.36395396,11.5120456 Z" id="Path-6"></path>
                    <path d="M9.01432354,11.1019126 L12.0553322,13.951435" id="Path-7"></path>
                </g>
            </g>
        </g>
    </g>
</svg>