<?xml version="1.0" encoding="UTF-8" standalone="no"?>
<svg width="279px" height="320px" viewBox="0 0 279 320" version="1.1" xmlns="http://www.w3.org/2000/svg" xmlns:xlink="http://www.w3.org/1999/xlink">
    <!-- Generator: Sketch 43.1 (39012) - http://www.bohemiancoding.com/sketch -->
    <title>Group 3</title>
    <desc>Created with Sketch.</desc>
    <defs></defs>
    <g id="Page-1" stroke="none" stroke-width="1" fill="none" fill-rule="evenodd">
        <g id="Group-3" transform="translate(-1.000000, 0.000000)">
            <g id="Group-2">
                <path d="M122,200 C166.18278,200 202,166.421356 202,125 C202,83.5786438 166.18278,50 122,50 C77.81722,50 44.7155702,70.1188885 44.7155702,111.540245 C44.7155702,122.896421 57.869899,155.442004 62.3922837,166.557498 C66.9146684,177.672992 89.9304747,200 122,200 Z" id="Oval-2" fill="#FFE0B2"></path>
                <path d="M164.277812,115.685262 L164.277812,120.701551 L127.935592,120.701551 C127.935592,120.701551 135.944224,116.547504 140.88766,115.685262 C145.831096,114.823019 164.277812,115.685262 164.277812,115.685262 Z" id="Path-2" fill="#553422" transform="translate(146.106702, 118.001797) scale(-1, 1) rotate(1.000000) translate(-146.106702, -118.001797) "></path>
                <path d="M96.3775236,116.629519 L96.3775236,121.645809 L60.035304,121.645809 C60.035304,121.645809 68.0439361,117.491762 72.9873717,116.629519 C77.9308074,115.767276 96.3775236,116.629519 96.3775236,116.629519 Z" id="Path-2" fill="#553422" transform="translate(78.206414, 118.946054) rotate(-4.000000) translate(-78.206414, -118.946054) "></path>
                <path d="M173.826631,6.83518684 C165.441567,4.02977546 151.500561,1.19279091 142.701027,0.499589518 L145.290772,0.703602033 C142.536257,0.486609437 138.060598,0.44019345 135.314558,0.598748209 L128.267988,1.00561309 C121.094842,1.41978639 109.78255,3.66023769 103.000638,6.01002246 L109.760254,3.6679628 C104.02226,5.65605281 94.5011644,8.01926867 88.5083352,8.94418585 L99.3706962,7.2677182 C89.0060958,8.86736281 72.9194246,20.6242439 67.6823537,27.752923 L67.6823537,27.752923 L67.3733439,28.0764646 C58.6010716,37.2612684 46.8371682,53.8846798 43.9918443,59.4973621 L43.9918443,59.4973621 L38.7264605,67.2811399 C34.7064321,73.2239183 29.0927785,83.3706282 26.1930956,89.9329515 L28.560111,84.5761175 C26.3292158,89.6248956 23.9672474,98.1591934 23.7977415,99.5194329 L23.7977415,99.5194329 L23.7977415,110.003343 L23.7977415,110.003343 C24.1970303,116.141997 27.8906455,125.306132 32.0454881,130.469311 L37.1890522,136.861164 L34.1642758,130.219021 C31.8754057,125.192864 29.6967624,116.650513 29.2988447,111.148893 L29.1033421,108.44587 L30.8306205,89.7099977 L30.1948044,96.0855292 C29.5920064,102.129977 29.1033421,111.954315 29.1033421,117.556723 L29.1033421,109.55139 C29.1033421,113.972613 30.0163885,121.029164 31.1362618,125.288197 L31.4475551,126.472088 C31.4475551,126.472088 32.3781575,129.555373 33.1314204,130.943667 C33.8846832,132.331961 35.8202273,134.531101 35.8202273,134.531101 L35.8202273,134.531101 C39.4114313,138.134187 48.1349321,141.055064 49.8653806,141.055064 L49.8653806,141.055064 L64.3006614,145.845428 L64.3006614,145.845428 C59.8472749,140.883556 56.2370918,126.121118 56.2370918,115.158539 L56.2370918,115.158539 L56.2370918,110.884835 C56.2370918,104.261665 58.0751654,93.8537979 60.3511204,87.6147026 L61.7113386,83.8859244 L67.6823537,70.0925576 L70.1703933,84.7115393 L71.8957886,93.7177388 L71.8957886,93.7177388 C73.1594695,98.0702034 78.4661461,106.165819 80.6039271,108.44587 L80.6039271,108.44587 L85.5646134,112.894395 L85.5646134,112.894395 C81.2367195,105.507607 76.7552838,91.5230872 76.2351647,87.2485561 L76.2351647,87.2485561 L81.2549044,99.0476173 C83.635091,104.642323 89.8956631,111.542691 95.2265812,114.453629 L88.0897996,110.556602 C93.4259571,113.470402 102.146457,118.051574 107.565711,120.787992 L106.841352,120.422231 C112.757615,123.409611 122.828029,124.822075 129.339889,123.575978 L130.475267,123.358714 L129.134605,122.736193 C124.121252,120.408301 116.711042,115.539142 112.595042,111.870966 L112.484918,111.772823 C110.423173,109.935397 108.082031,106.303258 107.260658,103.675656 L102.656242,88.9459644 L107.322219,96.0367515 C109.75249,99.7299828 114.387172,105.121316 117.672507,108.077222 L123.026541,112.894395 L125.236926,114.79471 C129.8395,118.751641 138.491928,122.225977 144.556071,122.5545 L147.36399,122.706618 L140.948409,119.56021 C135.991608,117.129234 129.63014,111.332688 126.75039,106.630762 L116.434216,89.7869721 L127.969619,103.827916 C130.771608,107.23851 136.120882,111.833134 139.920249,114.091897 L143.186349,116.033628 C146.509879,118.009501 152.282429,120.239267 156.053295,121.008562 L158.325206,121.472056 C161.034706,122.024822 165.348222,121.771837 167.321482,121.118359 L167.321482,121.118359 L162.855712,113.907304 C160.529719,110.151431 157.650261,103.671678 156.418185,99.413366 L155.175854,95.1196121 C155.175854,95.1196121 162.238252,109.178504 166.521178,115.158539 C170.804103,121.138573 177.303027,126.014675 177.303027,126.014675 L178.745273,139.714487 C179.496466,146.850025 179.067896,158.361085 177.788095,165.42483 L176.620363,171.870015 C176.325634,173.496747 175.437721,176.000951 174.646809,177.445675 L176.086708,174.815475 C173.387562,179.745887 167.545347,187.033507 167.321482,187.266636 C167.321482,187.266636 168.415648,186.092119 167.321482,187.266636 C166.227316,188.441153 164.759901,190.369487 164.759901,190.369487 L160.399409,194.85136 L169.379343,193.524419 C172.659569,193.039709 176.818258,190.406482 178.65926,187.656052 L187.254111,174.815475 C187.254111,174.815475 180.749362,185.31233 181.706025,182.087728 C182.662689,178.863127 181.706025,182.087728 181.706025,182.087728 C183.561753,175.673668 183.575597,176.567327 181.738719,184.07653 L181.167678,186.410962 L186.700003,173.843105 L186.700003,173.843105 C182.589886,184.469238 172.641149,199.754018 168.594565,203.833484 L168.594565,203.833484 L161.585559,215.272003 L150.875916,218.316114 L150.875916,218.316114 C146.436598,221.73548 136.798815,234.367008 136.798815,234.367008 L138.885554,230.960092 C137.733079,232.84168 137.175872,236.109127 137.644786,238.275654 L137.950354,239.687473 L140.014766,232.903848 C140.174109,232.380251 140.418129,232.392872 140.557802,232.924431 L141.03546,234.742268 C141.597799,236.882383 143.424877,239.756592 145.124424,241.168703 L148.8296,244.247238 L146.910071,238.587201 C145.668007,234.924775 147.250021,230.181649 150.432475,228.000756 L151.832145,227.04158 L157.340425,224.215996 L163.228278,219.714519 L167.321482,222.435622 L167.321482,222.435622 C171.738233,224.297082 180.892665,224.155416 186.700003,222.435622 L186.700003,222.435622 L193.60482,224.052758 C194.676983,224.303863 196.428465,224.656397 197.526916,224.841863 L195.546143,224.507423 C199.794087,225.224659 204.81668,221.625035 206.771216,216.44944 L208.406717,212.118646 L216.5055,206.482941 L218.73582,196.096405 L221.631611,201.274137 C223.790595,205.134445 226.994939,211.541423 228.781953,215.569287 L228.377905,214.658577 C229.274105,216.678579 231.224521,219.619096 232.734019,221.226126 L238.869748,227.758299 L251.08956,233.888134 L241.263658,219.085365 C239.126486,215.865706 235.441065,210.791899 233.044242,207.768094 L227.857292,201.224297 L230.480312,204.453742 C232.568207,207.024344 235.566609,211.46521 237.168829,214.357169 L239.150429,217.933897 C241.559166,222.281591 247.097286,227.650147 251.507029,229.918144 L259.226012,233.888134 L266.539662,237.469631 L266.539662,237.469631 C264.092293,231.028038 258.547756,218.077358 254.156209,208.544819 L253.475697,207.067661 C250.470512,200.544439 247.140829,189.507446 246.037531,182.408709 L243.511832,166.158084 L251.08956,179.228279 L261.862194,202.161195 C264.445488,207.660543 268.120365,216.790417 270.067892,222.546335 L270.755505,224.578576 C272.170824,228.761554 271.198418,235.043502 268.584372,238.608612 L258.35704,252.556942 L254.525413,257.721375 L265.479528,255.95977 L265.376539,256.054613 C259.686503,261.2946 250.016229,269.247924 245.384328,272.641518 L247.8044,270.868436 C246.467831,271.847682 245.049604,273.933337 244.631968,275.545148 L244.317702,276.758014 C243.348602,280.498119 242.562992,286.656273 242.562992,290.528716 L242.562992,294.860927 L242.562992,294.860927 C243.621389,298.463472 247.730553,302.89781 249.986322,303.948206 L249.986322,303.948206 L249.986322,296.582849 C249.986322,292.167209 252.293584,285.849736 255.13929,282.472907 L249.986322,288.587626 C254.15786,283.637511 256.547722,279.62465 256.547722,279.62465 L256.547722,279.62465 L256.547722,279.62465 C262.066118,279.62465 270.126488,269.968277 271.272073,266.884159 L271.272073,266.884159 L276.836742,253.422414 C278.52583,249.336262 279.695589,242.444861 279.449944,238.038509 L277.877572,209.833519 C277.692838,206.519792 277.059592,201.188768 276.464654,197.934432 L277.525358,203.736533 C275.339582,191.780228 269.591582,173.07556 266.539662,166.158084 L266.539662,166.158084 L268.71541,158.162416 C269.584642,154.968072 268.182487,150.696104 265.601513,148.635008 L266.019095,148.968477 C263.859228,147.243665 263.913652,147.169213 266.143488,148.804261 L272.822153,153.701455 L267.788391,147.406919 C267.098737,146.544532 265.932793,145.189393 265.186031,144.382132 L266.539662,145.845428 C264.092293,143.199783 259.432223,136.396564 256.129769,130.647688 L255.68851,129.879549 L255.073817,127.142197 L255.692479,122.112134 C256.164817,118.27177 256.963266,112.049443 257.475064,108.220178 L256.547722,115.158539 C258.026901,104.091345 251.261361,83.7602237 249.986322,81.9417314 L256.302517,90.9500483 C252.814179,85.9748922 247.845285,77.5057867 245.20567,72.0368562 L242.442872,66.3127049 C236.683579,54.3802164 223.291064,38.4421113 212.518923,30.7061019 L208.406717,27.752923 L208.406717,27.752923 C198.060896,12.5970029 175.539312,7.06701106 175.11942,7.2677182 L175.11942,7.2677182 L173.826631,6.83518684 Z" id="Path-9" fill="#3A1503"></path>
                <path d="M58.635553,144.783767 L51.4869045,155.368777 L44.1633814,164.079824 L30.9133981,176.414042 L30.9133981,176.414042 C21.7919366,181.277704 6.05715609,186.939022 0.925543974,187.996395 L0.925543974,187.996395 L3.09980228,188.11872 C8.61568336,188.429048 17.2324362,186.994999 22.3540116,184.912368 L28.631789,182.359581 L25.0552946,186.570549 C18.9771184,193.727001 10.8896342,206.452338 6.99323229,214.989356 L8.95424031,210.692787 C7.80901248,213.201981 6.42222275,217.423861 5.85461983,220.132828 L5.46243281,222.004598 C4.66995591,225.786808 4.38863873,231.972025 4.83181627,235.799998 L5.02678403,237.484044 C5.7248366,243.513515 5.88812211,247.530762 5.88812211,247.530762 L5.88812211,247.530762 L10.3141737,256.192804 C11.5731491,258.656693 14.4250135,261.925596 16.7083223,263.510998 L18.5887196,264.81664 L18.5887196,264.81664 C13.8846389,255.06058 10.6215792,249.980169 10.6215792,249.980169 L10.0712281,247.15173 C10.3751786,248.713834 8.36485938,220.480925 8.36485938,220.480925 L9.27950042,232.43687 C8.77435812,225.833784 8.98115359,225.825349 9.73977735,232.404036 L10.443835,238.509533 C11.1396643,244.543675 14.7880122,253.265328 18.5998023,257.998774 L18.3630342,257.704758 C21.1363273,261.148608 25.963482,266.431921 27.5122308,267.928162 L23.9157006,264.453566 C25.9020094,266.372532 29.4067161,269.103856 31.7554164,270.561429 L48.8601488,281.176411 L48.0348072,288.600774 C47.8517214,290.247722 47.1119302,292.78038 46.3769841,294.268666 L45.9707269,295.091348 C44.7460177,297.571418 42.0286615,301.000034 39.8950805,302.754527 L35.1288683,306.673892 L35.1288683,306.673892 C41.5577146,304.347667 50.4487414,297.390159 53.5161578,293.162013 L53.5161578,293.162013 L56.8895746,287.235553 L62.2316582,293.077052 C62.9801804,293.895551 63.4637038,295.44761 63.3122869,296.538995 L62.276635,304.003776 L71.893908,297.374015 L74.1941324,300.311503 C75.8989449,302.488625 79.3507827,305.112967 81.8968633,306.170162 L88.3542741,308.851436 L82.4182747,299.079801 L78.7951036,290.454608 L77.484761,281.848492 L90.9662873,294.481895 L96.3620198,270.217576 L97.6728237,262.789423 C98.5361024,257.897337 98.2692469,250.023709 97.0767538,245.203055 L96.4608808,242.713389 L96.386939,241.781358 C95.9936984,236.824595 98.4293283,229.870467 101.835821,226.239552 L102.618884,225.404899 L102.618884,225.404899 C107.414536,222.770236 117.563362,220.500365 118.471341,220.480925 L118.471341,220.480925 L129.146601,215.60985 L133.136599,211.138555 L133.136599,198.778465 L128.473812,199.263047 C122.980252,199.833969 114.154369,199.33427 108.758627,198.146494 L118.526842,200.296792 C110.404934,198.508899 94.5736672,192.53151 88.8841347,189.745542 L88.8841347,189.745542 L88.8841347,189.745542 C83.5726615,186.89296 73.4028444,179.056321 68.6280243,174.558229 L68.6280243,174.558229 L70.718849,183.944826 L72.3315479,188.680618 L62.8276576,179.56723 L50.2129844,196.723052 L50.2129844,196.723052 C46.9772483,205.232903 43.0183936,220.079346 42.2728805,224.51515 L42.2728805,224.51515 L42.2728805,224.51515 C41.0301721,232.123207 45.3566517,247.15173 45.3566517,247.15173 L44.8452156,246.302103 C45.1276739,246.771339 45.6622632,247.491641 46.0242591,247.894264 L52.063594,254.611404 L59.3775778,256.847051 L45.8188705,254.947011 L49.6151466,258.039809 C53.8946838,261.526315 59.972636,267.991799 63.1858116,272.474145 L67.3775045,278.321513 C69.6280635,281.461019 71.5823478,287.139486 71.7421308,290.995318 L71.9644413,296.360044" id="Path-10" fill="#321202"></path>
                <path d="M141.784581,29.0677806 L157.021533,64.1558335 L168.452392,102.922239 L174.646849,122.925274 L189.002196,133.558721 L202.942386,136.386436 L195.285685,127.061364 L190.220572,91.9075047 L191.242497,121.99625 L180.720704,84.2284221 C179.089853,78.3745059 174.787468,69.7184892 171.096777,64.8759288 L158.958934,48.9498493 L177.281985,84.1791912 L184.078372,111.945378 L171.077679,81.0705626 C168.291613,74.4540478 163.017109,64.1124245 159.294613,57.9683823 L141.784581,29.0677806 Z" id="Path-12" fill="#250E02"></path>
                <path d="M143,2 L158.715581,10.1270131 L158.715581,10.1270131 C169.602828,19.864319 188.110415,41.2007634 197.73558,54.5650254 L189.554716,43.2061338 C194.072883,49.4794764 200.454005,60.2114837 203.809312,67.1808134 L213.089359,86.4564593 L222.419671,96.5096788 L210.170463,86.1818136 C203.415314,80.4862404 194.464848,69.6046892 190.183719,61.8856323 L190.312806,62.1183813 C185.223205,52.9416129 176.024123,38.682811 169.759475,30.2615756 L164.852436,23.6653017 L143,2 Z" id="Path-13" fill="#250E02"></path>
                <path d="M101.927809,29.5200723 L101.927809,51.2661979 L107.212552,75.5101825 L113.813965,92.3388677 L124.965515,112.110992 L130.060586,117.274305 L141.636642,121.645809 L115.898357,87.2066657 C115.898357,87.2066657 108.487281,68.4146781 106.180893,58.8912412 C103.874506,49.3678042 101.927809,29.5200723 101.927809,29.5200723 Z" id="Path-14" fill="#250E02"></path>
                <path d="M193.127886,13.5994823 L203.291797,21.6654652 C205.459169,23.3854701 208.51504,26.5983464 210.126417,28.8544213 L207.500054,25.1772738 C215.192184,35.9469578 225.030615,54.7751962 228.069657,63.2929841 L228.069657,63.2929841 L231.895232,83.911788 L236.082171,98.4767468 L241.04543,107.410127 L234.246256,97.9391776 C231.991206,94.7979924 229.473694,89.1940061 228.623137,85.4218841 L225.623757,72.1199858 L223.834543,66.9272188 C220.596636,57.5299711 213.477892,43.2187055 207.936644,34.9654788 L204.697998,30.1417868 L193.127886,13.5994823 Z" id="Path-15" fill="#250E02"></path>
                <path d="M204,22 L218.73579,35.6585918 L227.013818,46.6040465 C232.678409,54.0939378 240.037123,67.2669391 243.438411,75.9971109 L246.168623,83.0048124 L238.25956,77.4725092 L238.25956,77.4725092 C234.832878,67.5079476 226.645834,51.7050819 219.956982,42.1525398 L214.267878,34.027766 L204,22 Z" id="Path-16" fill="#250E02"></path>
                <path d="M80.9711493,93.4175781 L84.2548292,97.6704896 C89.9925989,105.101855 101.0667,115.210059 104.213311,117.210834 L101.67403,115.59623 C103.076436,116.487951 105.510089,117.591633 107.096488,118.057479 L121.096713,122.168646 L111.601005,114.156702 C108.224902,111.308137 103.246815,106.207896 100.483088,102.766182 L102.900493,105.776616 C98.7522245,100.61071 94.1651575,91.1934014 92.6547208,84.7413084 L90.4773903,75.440463 C89.2177501,70.0596913 88.4196515,61.223561 88.6946083,55.7079989 L89.0989138,47.5977357 L91.1824151,68.1288562 L99.1883099,93.2425859 L104.007319,100.12785 C107.809025,105.559619 115.143628,113.245529 120.39591,117.299671 L128.366703,123.452183 L118.534044,124.090761 C116.882597,124.198014 114.359649,123.670868 112.885548,122.906434 L106.763272,119.731566 L97.335086,115.54623 C94.8159301,114.427933 91.399296,111.758108 89.7021648,109.580886 L87.0958776,106.237322 L80.9711493,93.4175781 Z" id="Path-17" fill="#250E02"></path>
                <polygon id="Path-18" fill="#250E02" points="198.850043 81.755393 199.970118 91.0615389 212.880496 100.762033 222.659703 102.791234"></polygon>
                <path d="M195.178118,91.3386059 L208.159337,100.435377 L219.240654,103.924987 L234.401205,106.757543 L234.401205,106.757543 C236.826048,108.182975 237.477309,112.173132 235.845614,115.691854 L235.713337,115.977105 L234.19276,117.591188 C230.781903,121.211792 224.040277,123.541879 219.114191,122.792431 L211.055947,121.56646 L217.45683,120.35168 C222.882512,119.321977 230.329557,115.207562 232.931648,112.408293 L232.931648,112.408293 L232.931648,112.408293 C228.356266,114.215406 219.321312,116.408674 212.748884,117.307454 L220.852128,116.199335 C212.209736,117.381182 199.209475,114.599543 196.705784,113.037522 L196.705784,113.037522 L195.144271,103.094276 L195.144271,103.094276 C199.01189,108.238266 207.772944,110.880293 214.690086,109.001532 L216.698039,108.456153 L228.016856,108.456153 L207.532001,104.74802 L199.952349,101.157175 C196.960016,99.7395639 194.772174,95.9106796 195.06449,92.6183816 L195.178118,91.3386059 Z" id="Path-19" fill="#250E02"></path>
                <path d="M241.198792,120.795868 L233.851793,129.603765 L228.410163,131.360588 C224.353103,132.670405 217.712822,132.871408 213.582604,131.81055 L209.894155,130.863161 L204.856572,129.533711 L207.949817,131.748964 C211.415016,134.230595 217.675863,136.242354 221.939832,136.242354 L224.336273,136.242354 L230.065328,135.674691 C234.31142,135.253968 238.671324,131.588342 239.80886,127.467675 L241.112209,122.746356 L241.198792,120.795868 Z" id="Path-20" fill="#250E02"></path>
                <polygon id="Path-21" fill="#250E02" points="246.723603 113.233197 246.374121 124.14035 242.665201 130.840334 233.988753 140.61954 246.365462 136.368293 252.016213 130.087845 255.374863 120.238585 255.164702 114.509122 251.037033 116.949988"></polygon>
                <path d="M237,69 L243.944464,82.0019995 L249.728373,97.9688962 L249.542567,105.62392 L247.80705,108.79163 C245.527092,112.953069 243.621026,120.183561 243.549999,124.923639 L243.549628,124.948372 L254.187694,115.931746 L253.872696,92.461518 L249.679018,114.261678 L250.130466,88.0486478 L237,69 Z" id="Path-22" fill="#250E02"></path>
                <path d="M243,69 L243.553603,83.7763659 C243.628316,85.7705375 244.109212,88.9440724 244.631042,90.8769817 L246.065529,96.1904619 C246.585869,98.1178521 247.007688,101.303004 247.007688,103.299092 L247.007688,108.640888 L247.007688,108.640888 C248.785734,108.187975 250.126214,106.200081 250.002666,104.215786 L248.913601,86.7243299 C248.789636,84.7333266 248.08569,81.6216542 247.340895,79.7732226 L243,69 Z" id="Path-23" fill="#250E02"></path>
                <polygon id="Path-25" fill="#250E02" points="53.5004967 52.1309269 42.2968007 79.5542994 39.8308972 97.7300554 39.8308972 115.555726 45.0171381 133.231223 37.8853395 124.132823 32.2839698 101.791431 32.7937939 119.541536 37.9599479 133.965829 47.1874775 137.877031 44.29688 115.184597 44.6364439 80.5978606"></polygon>
                <path d="M52.3332182,197.271472 L47.8331362,210.024502 L50.9647795,234.05724 L61.5417301,252.352033 L59.4267009,243.242159 C56.4704108,230.508797 54.6336815,213.117574 54.6336815,213.117574 L54.6336815,213.117574 L63.0601779,246.356776 L81.6554966,266.972413 L92.2661899,282.858392 L95.1846369,271.196914 L90.7274656,250.54108 L83.2492658,231.942007 L76.2388381,221.363791 L72.7736311,206.339687 L76.5014471,181.729331 L69.6038592,174.944583 L72.7849151,188.214541 L60.860828,180.930221 L52.3332182,197.271472 Z" id="Path-26" fill="#250E02"></path>
                <polygon id="Path-27" fill="#250E02" points="84.9962307 188.367388 83.3774928 205.021513 83.3774928 218.404311 89.9314323 234.217267 86.4662253 208.067161 86.7288342 202.275403 96.9053536 234.217267 103.256486 226.405583 110.148609 222.551835 117.303285 201.771728"></polygon>
                <path d="M171.05758,184.043322 L152.970839,192.084609 L153.432942,205.424867 L152.970839,213.032525 L157.610878,218.235973 L171.428747,209.220817 L181.695705,196.114897 L189.087117,175.861684 C189.087117,175.861684 187.639043,173.536361 186.668351,173.536361 C185.697659,173.536361 184.380984,175.861684 184.380984,175.861684 L183.884127,175.566347 L170.889291,190.881309 L161.856896,194.369481 L171.05758,184.043322 Z" id="Path-28" fill="#250E02"></path>
                <path d="M170.317726,222.461122 L178.083401,231.724813 L180.882587,245.670547 L173.708442,257.286579 L164.084518,270.848458 L160.672149,284.192819 L159.304975,310.981151 L176.162159,298.079498 L188.712442,305.697964 L215.306472,319.659018 L215.306472,319.659018 C210.33487,314.645016 203.483021,302.552368 202.718009,300.375736 L202.718009,300.375736 L203.565202,300.117107 C209.90459,298.181829 219.898089,294.31196 225.887434,291.472976 L215.04368,296.612977 C221.453057,293.574896 233.235916,283.208921 233.550394,282.831612 L233.550394,282.831612 L233.550394,282.831612 C237.093956,288.342443 233.706204,299.205152 225.974392,307.103599 L224.297529,308.816601 L243.175302,298.153316 L243.427268,284.721357 L246.84948,273.028555 L255.413375,266.904597 L267.554008,255.988363 L257.055092,255.988363 L265.684931,250.836837 L271.886644,236.148 C271.886644,236.148 272.581685,231.280795 272.45282,228.84492 C272.323955,226.409044 271.09925,221.264283 271.09925,221.264283 L265.675088,202.932764 L241.187132,159.819985 L244.49025,184.954588 L252.627968,213.55471 L260.239116,228.84492 L264.319786,236.075166 L246.734323,226.02408 L225.546466,197.194526 L235.271834,213.42479 L248.988239,232.379335 L231.58683,218.81844 L218.899942,194.516505 L210.161836,208.570506 L198.185572,219.059579 L180.259561,222.384351 L170.317726,222.461122 Z" id="Path-29" fill="#2A0F01"></path>
                <path d="M130.89889,213.54572 L126.377161,215.513986 L117.24291,217.849544 L117.24291,217.849544 C112.339523,219.279585 102.353431,225.474376 102.353431,225.474376 L102.353431,225.474376 L98.2392234,230.547107 C98.2392234,230.547107 96.6526766,234.521075 96.2496993,236.377623 C95.8467219,238.234171 96.0988689,240.407886 96.0988689,240.407886 L96.2496993,243.164621 L94.8123242,254.825815 L90.7760595,295.852077 L89.8470822,312.705786 L160.590266,312.705786 L160.590266,312.705786 C162.744363,301.466982 171.893177,272.983262 171.893177,272.983262 L171.893177,272.983262 L175.935166,261.084677 L179.359902,249.033285 L182.499356,239.630383 L182.499356,239.630383 C181.437212,233.634386 174.448377,225.079581 170.041957,222.423209 L170.041957,222.423209 L162.187709,219.261239 L159.657275,217.849544 L156.890566,216.231573 L148.145689,221.391229 L144.086133,216.939241 L137.930909,220.945162 L130.89889,213.54572 Z" id="Path-3" fill="#000000"></path>
                <polygon id="Path-30" fill="#1A0A01" points="181.578262 223.754175 180.67894 234.842132 175.71244 270.871096 164.277812 292.59459 181.444007 265.638846 186.021536 242.944304 187.492819 221.883807"></polygon>
                <path d="M200.532066,218.22491 L200.532066,232.255433 L197.91686,259.445663 L208.605731,247.930115 L211.944781,242.141688 C214.524595,237.669437 215.678636,229.969592 214.519972,224.933033 L210.659091,208.150299 L200.532066,218.22491 Z" id="Path-31" fill-opacity="0.770040761" fill="#1A0A01"></path>
                <polygon id="Path-32" fill-opacity="0.770040761" fill="#1A0A01" points="218.519421 199.148805 223.414195 219.719182 226.274921 239.990704 222.756716 258.762436 213.202571 277.462444 231.320503 251.252456 236.878274 223.060833 231.575219 218.084218"></polygon>
                <path d="M53.2686488,141.801164 L52.9698533,152.248239 L54.5220754,160.317627 C55.5811224,165.823193 58.2263473,174.474364 60.4240362,179.625758 L61.5687145,182.30889 L73.2782964,189.723727 L71.7313195,180.303953 C70.8227233,174.771375 69.2348088,165.820843 68.1834313,160.306182 L68.8352154,163.724905 C67.784367,158.213019 66.1503921,149.265791 65.1865298,143.745865 L63.3886638,133.449696 L54.723939,111.394823 L53.8763342,120.901631 L55.6112324,129.561317 C55.6112324,129.561317 57.0341001,135.268433 58.3150143,137.915847 C59.5959285,140.56326 62.5508251,143.904173 62.5508251,143.904173 L53.2686488,141.801164 Z" id="Path-33" fill="#361505"></path>
                <path d="M57.9828922,177.139124 L46.8686389,203.369395 C46.8686389,203.369395 41.9286221,216.278984 40.8931674,222.903711 C39.8577127,229.528437 40.1201526,232.421957 40.1201526,232.421957 L44.6788886,249.709777 L43.5614346,256.808402 L44.6788886,256.808402 L58.9055849,267.560637 L64.4745874,276.410721 L65.4140112,277.507452 L71.9945465,297.104849 C71.9945465,297.104849 72.8526552,294.047085 72.7864689,292.798962 C72.7202826,291.55084 70.439844,271.329679 70.439844,271.329679 L69.6597823,253.480539 L62.985691,245.761823 L54.4036991,207.018225 L52.5915496,220.93854 L60.6196093,249.709777 L52.5915496,234.237398 L49.3106885,208.898429 L61.9498378,181.079164 L57.9828922,177.139124 Z" id="Path-34" fill="#3D1704"></path>
                <path d="M133.154249,199.113593 L132.404619,215.411988 L143.903784,219.341298 L153.397534,210.624715 L152.850076,193.638283 C152.850076,193.638283 145.801722,196.201567 142.249815,197.188974 C138.697907,198.176381 133.154249,199.113593 133.154249,199.113593 Z" id="Path-4" fill="#E8CA9F"></path>
                <circle id="Oval" fill="#363636" cx="85.1846369" cy="141" r="10"></circle>
                <circle id="Oval" fill="#363636" cx="145" cy="142" r="10"></circle>
                <g id="Group" transform="translate(141.503691, 216.801350) rotate(6.000000) translate(-141.503691, -216.801350) translate(124.503691, 206.301350)" fill="#575151">
                    <polygon id="Path-6" transform="translate(10.089546, 10.691355) rotate(-12.000000) translate(-10.089546, -10.691355) " points="8.49325713 2.84921446 2.0640159 8.82438833 11.8639358 18.5334948 18.1150769 13.2231108"></polygon>
                    <polygon id="Path-6" transform="translate(24.408347, 9.076354) scale(-1, 1) rotate(-9.000000) translate(-24.408347, -9.076354) " points="22.8120582 1.23421351 16.3828169 7.20938738 26.1827369 16.9184939 32.4338779 11.6081099"></polygon>
                </g>
                <path d="M155.079412,223.449388 C147.875003,224.21909 142.723651,230.672576 143.574211,237.86928 L152.535311,313.690354 L169.713819,315.625451 L162.293303,235.860919 C161.622675,228.652214 155.235667,223.432694 148.034286,224.202073 L155.079412,223.449388 Z" id="Path-5" fill="#131313" transform="translate(156.598085, 269.537420) scale(-1, 1) rotate(-17.000000) translate(-156.598085, -269.537420) "></path>
                <path d="M115.252596,224.548639 C110.121931,225.886248 106.080891,231.265856 106.227154,236.581537 L108.258249,310.398368 L125.436757,312.269117 L121.004463,232.785219 C120.708912,227.485149 116.312308,224.272363 111.179432,225.610548 L115.252596,224.548639 Z" id="Path-5" fill="#131313" transform="translate(115.830031, 268.408878) rotate(-17.000000) translate(-115.830031, -268.408878) "></path>
                <path d="M117.142809,177.374707 C118.996935,175.541587 122.003424,175.541942 123.857191,177.374707 L132,185.425265 L109,185.425265 L117.142809,177.374707 Z" id="Triangle" fill-opacity="0.945510643" fill="#FFFFFF" transform="translate(120.500000, 180.712633) scale(-1, -1) translate(-120.500000, -180.712633) "></path>
            </g>
            <path d="M75,133.016277 L77.1201005,132.478688 C77.6620596,132.341264 78.4457059,131.944615 78.8784273,131.586115 L79.5858879,131" id="Path-7" stroke="#2A2A2A" transform="translate(77.292944, 132.008139) scale(-1, 1) translate(-77.292944, -132.008139) "></path>
            <path d="M73,135.664487 L75.1600979,135.292911 C75.6086587,135.21575 76.3126457,134.992852 76.7200116,134.800935 L78.4200935,134" id="Path-8" stroke="#2A2A2A" transform="translate(75.710047, 134.832243) scale(-1, 1) translate(-75.710047, -134.832243) "></path>
            <ellipse id="Oval-3" fill="#FFFFFF" cx="90" cy="139.5" rx="5" ry="5.5"></ellipse>
            <path d="M149.460678,134.212411 L151.580779,133.674822 C152.122738,133.537398 152.906384,133.140749 153.339105,132.782249 L154.046566,132.196134" id="Path-7" stroke="#2A2A2A"></path>
            <path d="M152.523636,136.368283 L154.683734,135.996707 C155.132295,135.919546 155.836282,135.696648 156.243648,135.504731 L157.94373,134.703796" id="Path-8" stroke="#2A2A2A"></path>
            <ellipse id="Oval-3" fill="#FFFFFF" cx="149" cy="139.5" rx="5" ry="5.5"></ellipse>
        </g>
    </g>
</svg>