<?xml version="1.0" encoding="UTF-8" standalone="no"?>
<svg width="545px" height="545px" viewBox="0 0 545 545" version="1.1" xmlns="http://www.w3.org/2000/svg" xmlns:xlink="http://www.w3.org/1999/xlink">
    <!-- Generator: Sketch 43.1 (39012) - http://www.bohemiancoding.com/sketch -->
    <title>Group 2</title>
    <desc>Created with Sketch.</desc>
    <defs></defs>
    <g id="Page-1" stroke="none" stroke-width="1" fill="none" fill-rule="evenodd">
        <g id="Group-2">
            <g id="Group">
                <polygon id="Path-169" fill="#D5D5D5" points="89.233662 484.529079 87.0356398 503.035531 106.234589 510.546216 136.073698 503.035531 117.456334 489.361177 107.40109 487.226543"></polygon>
                <rect id="Rectangle" fill="#8DB7FF" x="0" y="0" width="545" height="545"></rect>
                <ellipse id="Oval" fill="#CBCABC" cx="323.123112" cy="175.725958" rx="47.2653494" ry="28.8045121"></ellipse>
                <polygon id="Path-72" fill="#FFFFFF" points="87.3919353 503.880844 88.1980202 485.479321 114.662475 489.691534 131.607734 502.134435 133.291384 504.726902 105.743038 510.140792"></polygon>
                <path d="M113.751076,145.072055 L126.538564,155.208397 L126.538564,159.875408 L130.318501,185.544778 L147.703612,201.767123 L157.705925,190.834742 L139.466359,173.419589 L161.110193,183.935208 L162.618506,183.935208 L167.189765,168.273123 L154.627922,163.394635 L148.885539,166.694314 L143.61263,168.273123 L145.002293,156.075149 C145.002293,156.075149 135.255156,150.154669 131.511185,149.01411 C127.767214,147.873551 113.751076,145.072055 113.751076,145.072055 Z" id="Path-31" fill="#887878"></path>
                <path d="M255.233761,487.788074 L337.778297,484.993966 L420.80361,491.731497 L422.526273,433.892778 L423.647404,422.680899 L418.110638,419.86679 L414.731587,404.309316 L420.80361,399.321928 C420.80361,399.321928 420.357569,393.737976 420.80361,391.585759 C421.249651,389.433542 423.647404,370.747856 423.647404,370.747856 L400.231288,375.494088 L380.174431,389.600586 L331.52251,392.285108 L289.693886,392.890742 L281.800009,404.309316 L300.713592,416.336926 L318.437815,414.258606 L322.220581,424.774629 L308.780366,449.996968 L293.886992,451.395622 L255.233761,487.788074 Z" id="Path-77" fill-opacity="0.964447464" fill="#6486E7"></path>
                <path d="M139.129174,389.685625 L177.764449,413.470587 L225.69802,473.162938 L241.630958,490.027581 C241.630958,490.027581 253.225226,492.180129 256.275744,490.027581 C259.326261,487.875034 298.548127,452.486276 298.548127,452.486276 L289.247811,442.358643 L310.261292,414.743378 L285.527214,405.461603 L289.247811,393.918277 L339.100365,393.918277 L383.50843,390.250452 L408.078905,376.019447 L424.156645,371.933205 C424.156645,371.933205 428.649756,353.770226 428.237619,348.003702 C427.825482,342.237179 421.094587,335.399688 421.094587,335.399688 L419.66547,333.984374 L408.078905,342.889085 C408.078905,342.889085 412.779537,323.948792 410.360131,315.715479 C407.940725,307.482166 399.564386,313.913915 399.564386,313.913915 L374.14524,309.318296 L373.192531,316.778257 L312.179374,326.529637 L302.593716,320.28957 L258.052294,333.984374 C258.052294,333.984374 235.204792,367.222092 222.774699,386.0826 C210.344606,404.943108 216.280745,392.358053 216.280745,392.358053 L204.886754,388.801014 L151.7955,369.500821 L139.129174,389.685625 Z" id="Path-76" fill="#83A6DF"></path>
                <polygon id="Path-35" fill="#675252" points="87.1839522 484.987393 115.033343 489.92229 133.567474 503.920226 154.682431 496.221408 155.291443 492.673063 129.700186 478.358732 94.6252005 466.05456"></polygon>
                <path d="M154.198819,496.443959 L166.057708,494.171827 L139.632055,468.127824 L139.632055,454.122072 C139.632055,454.122072 131.328851,442.463753 126.901365,439.560272 C122.473879,436.656792 109.417905,433.468588 109.417905,433.468588 C109.417905,433.468588 104.887899,441.364504 102.578101,445.640072 C100.268303,449.915641 93.8815183,466.816799 93.8815183,466.816799 L129.742957,480.473519 L154.198819,496.443959 Z" id="Path" fill="#4E3C3C"></path>
                <path d="M117.895319,435.005555 C117.895319,435.005555 154.822441,457.263381 172.519335,469.569347 C190.216229,481.875314 187.373717,483.319053 187.373717,483.319053 L161.823316,454.335424 L161.823316,444.883692 L135.445385,417.205103 C135.445385,417.205103 156.216405,430.387803 166.059176,437.796788 C175.901948,445.205773 179.319953,450.230966 179.319953,450.230966 L180.668205,459.800585 L198.573403,472.057429 L212.277616,494.273389 L164.229359,496.44197 L139.441819,467.559878 L138.688534,452.189852 L117.895319,435.005555 Z" id="Path" stroke="#3F3131" fill="#3F3131"></path>
                <path d="M108.654412,433.468674 L126.601647,408.092562 L132.75011,414.287856 L146.495882,414.287856 C146.495882,414.287856 158.693101,416.500697 163.667138,421.023638 C168.641176,425.546579 183.727324,442.683376 183.727324,442.683376 L189.14173,450.98617 L201.684322,472.963968 C201.684322,472.963968 190.737625,468.88432 185.599526,465.31108 C180.461428,461.737839 181.132578,458.671459 181.132578,458.671459 L171.071663,444.81227 L137.222133,418.628075 L167.350285,445.903766 L162.700837,453.766754 L189.14173,480.367872 L108.654412,433.468674 Z" id="Path-78" fill="#675252"></path>
                <polygon id="Path-79" fill="#3F3131" points="159.30442 418.092414 134.246553 396.380006 126.964741 408.853508 134.246553 416.366966"></polygon>
                <path d="M290.833008,129.522604 L252.036244,99.9999681 L216.501861,97.730081 L222.831648,103.532836 L232.191361,109.910359 L219.342332,120.046273 L236.754009,130.287009 L261.129545,130.860385 C261.129545,130.860385 263.993115,131.92873 267.132914,132.906667 C270.272714,133.884604 282.43556,137.451464 282.43556,137.451464 L290.833008,129.522604 Z" id="Path-7" stroke-opacity="0.574728261" stroke="#957A6A" fill="#FEF2E1"></path>
                <polygon id="Path-8" stroke-opacity="0.279211957" stroke="#957A6A" fill="#FEF2E1" points="344.827009 78.6223961 331.442496 90.2688355 325.164509 110.088968 328.840106 126.539421 332.156571 128.827589 339.089724 130.321998 349.665715 108.477906 363.14661 96.6932725 347.843668 91.1849762"></polygon>
                <path d="M258.485191,130.733825 C258.485191,130.733825 251.713012,131.224514 248.733269,131.836622 C245.753527,132.44873 231.012267,136.377397 231.012267,136.377397 C231.012267,136.377397 243.380192,143.541819 248.733269,144.939744 C250.495429,145.399922 253.168722,144.641053 254.656214,144.939744 C256.143706,145.238435 260.881171,147.132315 260.881171,147.132315 C260.881171,147.132315 264.518284,146.834905 266.378268,147.132315 C268.238251,147.429724 274.577022,147.132315 274.577022,147.132315 L279.641352,148.070176 L279.019969,142.150556 C279.019969,142.150556 272.454667,136.552036 269.1797,134.529148 C265.904732,132.506261 258.485191,130.733825 258.485191,130.733825 Z" id="Path-9" fill="#404040"></path>
                <polygon id="Path-10" fill="#333333" points="345.804323 118.997993 356.239896 118.878932 362.083968 119.87554 363.756779 127.807369 360.667569 133.007606 353.527932 139.315479 344.626443 138.747065 338.891166 133.465136 339.495093 128.9583 341.157077 123.651027"></polygon>
                <polyline id="Path-12" stroke="#000000" points="162.260525 185.907374 157.220959 192.558903 174.797084 202.645644 167.611876 207.189931 184.07975 221.39776"></polyline>
                <polyline id="Path-13" stroke="#F69EC5" points="164.335307 182.378766 188.563774 185.749769 231.598496 178.745088 188.886895 160.354881 184.218636 160.354881"></polyline>
                <path d="M391.235822,143.927493 L370.570684,168.504274 L409.267684,168.504274 C409.267684,168.504274 405.481346,160.132508 402.912185,156.215884 C400.343023,152.29926 391.235822,143.927493 391.235822,143.927493 Z" id="Path-15" stroke="#F69EC5" fill="#F69EC5"></path>
                <polygon id="Path-16" stroke="#F69EC5" fill="#F69EC5" points="418.076332 180.187217 384.656887 192.989399 418.626836 204.995775"></polygon>
                <path d="M350.314579,195.112693 L334.059285,216.325203" id="Path-22" stroke="#000000"></path>
                <path d="M79.1701498,241.318613 L77.5710659,259.424447 C77.1826429,263.822417 79.8173428,269.426252 83.4456235,271.933905 L103.136457,285.543048 L143.09342,281.243251 L167.750063,251.550567 L159.077054,232.773767 L147.184182,264.174834 L143.09342,272.403308 L127.174283,272.403308 L97.4272835,272.403308 L87.8024945,261.927925 L86.443027,251.550567 L79.1701498,241.318613 Z" id="Path-30" stroke="#DDDDDD" fill="#F6F4EF"></path>
                <polyline id="Path-32" stroke="#5E5CB7" stroke-width="4" points="153.295047 369.138133 192.576553 382.489531 213.792903 394.899485 235.558544 368.557637 256.68455 333.281367 300.179693 319.386685 313.272324 326.255882 372.382498 317.403325 374.23274 307.851196 410.301619 314.794816 431.543265 337.251808"></polyline>
                <polyline id="Path-33" stroke="#664D4D" stroke-width="4" points="225.689381 278.595707 291.788556 304.025879 307.851693 320.737453"></polyline>
                <polyline id="Path-34" stroke="#A73AA9" stroke-width="2" points="228.298512 273.211238 281.573636 292.363766 317.771447 313.898025 357.732339 307.981435 380.180979 267.957009 388.817851 272.839126 370.261224 316.714917 311.552177 324.652077"></polyline>
                <polygon id="Path-36" stroke="#8F506C" fill="#D477A0" points="395.343564 243.307502 426.638592 320.597339 378.692353 261.988987"></polygon>
                <polygon id="Path-66" fill="#675252" points="159.647936 352.562261 204.322021 370.872217 227.107641 347.875792 195.13813 361.853694 206.167618 327.520886 215.369332 295.572537 249.033416 299.575537 244.689468 287.153219 290.954348 304.098731 304.301166 319.372844 256.839438 333.200017 230.659985 374.888598 227.107641 359.310776 204.322021 380.418344 206.167618 388.85363 182.535541 378.039535"></polygon>
                <path d="M373.668994,306.898587 L412.14102,315.3381" id="Path-37" stroke="#000000"></path>
                <path d="M321.316996,281.223251 C321.316996,281.223251 328.56924,279.159796 331.832813,278.461871 C335.096386,277.763947 346.516129,278.461871 346.516129,278.461871 L346.516129,292.536693 L335.648615,296.53481 C335.648615,296.53481 326.239144,294.312902 322.645906,292.536693 C319.052668,290.760484 313.056226,285.366943 313.056226,285.366943 L321.316996,281.223251 Z" id="Path-39" fill="#B65C84"></path>
                <polygon id="Path-40" stroke="#B17999" points="330.964609 351.020251 332.6162 368.895407 353.064356 386.227126 380.559458 386.872456 394.332925 372.260341 390.897804 345.862464 385.452973 327.419612 376.104167 325.694689 370.682897 331.490528 357.849493 329.738918 351.349152 332.921899 337.156308 330.551646 330.137635 333.329476 332.993168 345.275359"></polygon>
                <polygon id="Path-41" stroke="#000000" points="343.659005 332.145562 353.820648 340.937577 368.220825 338.348979 370.315353 328.479797 383.777822 327.453577 391.972163 340.903612 385.134906 346.942057 393.093643 365.331535 382.833046 374.984798 360.497693 378.866483 349.890757 375.659241 339.469949 368.136052 340.073097 355.032942 330.488687 345.544651 327.974781 338.23738 333.838989 329.421105"></polygon>
                <polyline id="Path-44" stroke="#000000" points="98.2105779 466.873803 131.503506 478.708463 154.871749 491.376417"></polyline>
                <polyline id="Path-45" stroke-opacity="0.651296422" stroke="#000000" points="90.256737 493.525194 107.287368 492.925971 123.808807 507.258174"></polyline>
                <polyline id="Path-46" stroke-opacity="0.370697464" stroke="#000000" points="88.7700802 484.670266 111.029014 485.735292 129.166681 497.853177 132.199097 505.659465"></polyline>
                <path d="M437.689774,428.189839 L435.860143,491.568525" id="Path-47" stroke="#000000"></path>
                <path d="M313.195607,360.753433 C314.843942,356.654047 312.887587,351.912315 308.831316,350.164784 L292.229161,343.012204 L282.341901,344.832423 L283.977655,357.145459 L295.989534,365.797156 L311.291528,365.488852 L313.195607,360.753433 Z" id="Path-49" fill="#373737"></path>
                <path d="M325.504147,418.296083 C321.79338,414.276892 311.585032,415.553601 305.756692,419.224481 L305.756692,419.224481 L289.914826,438.138363 C287.784922,440.681294 288.220381,444.337577 290.879985,446.299392 L297.997434,451.549467 L308.051284,451.191093 C309.704423,451.132167 311.71141,449.919668 312.538323,448.475376 L322.381498,431.283209 L325.504147,418.296083 L325.504147,418.296083 Z" id="Path-50" stroke="#575757"></path>
                <polygon id="Path-51" fill="#313131" points="407.096176 317.327467 403.23522 327.560048 408.030223 342.921072 420.955152 334.584314 428.306141 345.042588 432.047021 335.439569 411.317449 315.89899"></polygon>
                <polygon id="Path-52" fill="#2F2F2F" points="419.565882 398.011039 413.678346 402.219348 414.578674 421.208824 423.089636 422.097708 428.94008 416.6151"></polygon>
                <polyline id="Path-53" stroke="#A5B4F5" points="260.289897 338.196326 254.751637 386.14716 211.888782 449.798756"></polyline>
                <polyline id="Path-54" stroke="#A5B4F5" points="289.724499 366.30333 270.437442 416.06555 232.80087 477.448083"></polyline>
                <polyline id="Path-55" stroke="#A5B4F5" points="228.858991 388.271977 217.039294 413.60288 197.550524 428.75424"></polyline>
                <path d="M196.261927,383.859523 L173.670716,410.067177" id="Path-56" stroke="#A5B4F5"></path>
                <polyline id="Path-57" stroke="#A5B4F5" points="324.210065 327.08477 329.053651 395.887937 321.677167 449.268796 309.026959 485.490852"></polyline>
                <polyline id="Path-58" stroke="#A5B4F5" points="361.227735 389.37509 353.58051 429.256819 345.869398 484.365381"></polyline>
                <polyline id="Path-59" stroke="#A5B4F5" points="386.966212 388.418516 384.855269 409.320683 392.895825 448.544303 386.966212 489.625145"></polyline>
                <polyline id="Path-60" stroke="#A5B4F5" points="392.544002 315.629312 405.632636 377.562414 403.608661 415.748049 417.974138 444.563325"></polyline>
                <polyline id="Path-62" stroke="#77879E" points="105.487413 293.34369 154.932732 288.36363 173.018614 260.277773 173.018614 317.886323 157.898971 339.136978"></polyline>
                <polyline id="Path-63" stroke="#000000" points="204.856399 307.266573 209.130282 299.672723 211.695093 264.327166 218.584266 289.111134"></polyline>
                <polyline id="Path-64" stroke="#A99474" points="234.071684 64.5950658 247.378893 73.5378878 240.138771 82.5326885 273.611113 76.8100745 275.53412 87.072167 296.319423 87.072167 292.04554 101.735128"></polyline>
                <path d="M205.505414,322.513676 L219.555385,306.556196 C219.555385,306.556196 216.423763,297.319191 216.84755,293.300457 C217.271337,289.281724 222.39878,276.261247 222.39878,276.261247 L227.089173,279.753751 L228.189686,307.551218 L219.052999,323.174549 L205.505414,322.513676 Z" id="Path-68" fill="#7F447C"></path>
                <polygon id="Path-71" fill="#F69EC5" points="180.811534 168.41643 170.028651 160.330156 187.384646 160.330156 229.740273 178.638829 190.105192 184.66374 164.776499 182.061858 163.774366 180.500212"></polygon>
                <polygon id="Path-14" fill="#F69EC5" points="181.729064 219.344674 196.976548 238.864621 225.957128 214.931131 224.445473 210.413227 193.27907 211.310035"></polygon>
                <path d="M200.105095,312.789058 C200.105095,312.789058 197.960418,289.377149 196.888098,280.332425 C195.815778,271.287701 191.560229,232.720894 191.560229,232.720894 C191.560229,232.720894 195.90262,235.789323 198.394951,239.061684 C200.887281,242.334044 214.757011,263.177625 214.757011,263.177625 L208.839944,298.813296 L200.105095,312.789058 Z" id="Path-73" fill="#C47D9D"></path>
                <path d="M222.246875,277.60402 L292.183361,303.403095 L308.713713,323.967218 L369.438699,316.786578 L388.10598,273.254526 L380.731206,265.506846 L358.263673,305.564506 L314.297998,309.68264 L293.774073,299.895162 C293.774073,299.895162 277.796808,291.310386 269.830879,287.752078 C261.864951,284.193771 258.843774,282.291008 258.843774,282.291008 L214.404708,263.748574 L222.246875,277.60402 Z" id="Path-74" fill="#F69EC5"></path>
                <polygon id="Path-75" fill="#F69EC5" points="422.307056 421.532126 429.40669 416.440463 437.877402 428.59377 438.03346 491.376177 422.307056 491.843653 419.703723 490.421138 418.61841 445.98169"></polygon>
                <polygon id="Path-48" fill="#E07FAA" points="208.016121 493.095955 242.551007 491.253502 190.005355 420.491623 139.790512 389.166414 134.465499 396.854733 183.268236 441.483364"></polygon>
                <polygon id="Path-43" fill-opacity="0.842872509" fill="#474747" style="mix-blend-mode: lighten;" points="293.871773 344.545676 286.007992 344.545676 282.192924 344.700277 283.692635 356.726126 296.18713 366.127237 302.299842 362.961397 292.896708 351.890078"></polygon>
                <polygon id="Path-42" fill="#656464" points="284.349928 346.137783 289.454879 358.815307 299.443208 364.760274 297.605526 365.750242 282.551052 356.96814"></polygon>
                <polygon id="Path-80" fill="#3F3131" points="437.642639 491.978868 437.642639 431.347191 458.10231 471.526422 457.751212 491.978868"></polygon>
                <polygon id="Path-81" fill-opacity="0.649230072" fill="#7187CC" points="257.624731 334.766903 276.630922 362.503499 289.233388 362.503499 284.072281 358.096801 282.602333 344.63352 291.38334 340.906065 309.055296 347.757202 287.428671 324.910549"></polygon>
                <polygon id="Path-82" fill-opacity="0.842079937" fill="#7384C6" points="308.943319 326.49939 326.751683 335.794966 335.172329 327.618884 352.465442 331.753719 357.515402 329.761544 368.466049 328.996239 378.686988 324.128173 387.970385 320.914164 383.796957 310.09809 374.467953 309.512007 374.915906 318.136725"></polygon>
                <polygon id="Path-83" fill-opacity="0.679715806" fill="#8282BC" points="141.259692 388.25711 162.247764 400.656451 173.844932 377.716684 154.676775 372.133527"></polygon>
                <path d="M123.597182,297.361577 L122.258349,328.897223 L159.118397,342.579382 L173.950249,318.845987 L173.157048,258.68576 C173.157048,258.68576 164.758186,273.32522 161.730498,278.397972 C158.70281,283.470725 156.682229,287.948001 156.682229,287.948001 C156.682229,287.948001 146.993791,281.650006 141.992123,280.981803 C136.990456,280.313601 123.597182,283.527972 123.597182,283.527972 L123.597182,297.361577 Z" id="Path-86" fill="#8282BC"></path>
                <polyline id="Path-84" stroke="#A5B4F5" points="132.818232 293.312898 144.12447 314.769059 163.035718 328.079811"></polyline>
                <path d="M151.887534,290.857425 L170.646866,305.02617" id="Path-85" stroke="#A5B4F5"></path>
                <polygon id="Path-87" fill="#7FA0D6" points="101.601309 285.94728 122.734934 329.998864 125.710858 282.811582"></polygon>
                <path d="M157.305213,341.562814 L166.116986,345.786583 L191.531476,331.827639 L201.310977,305.153645 L192.106272,231.366163 C192.106272,231.366163 188.05068,225.670655 185.298893,223.192395 C182.547107,220.714135 171.89548,213.164313 171.89548,213.164313 L166.116986,211.175884 L156.403858,205.665361 L157.305213,234.02544 L167.524108,249.894707 L143.583114,281.586257 L143.583114,288.292738 L156.403858,288.292738 L173.013213,259.688658 L172.806127,315.934509 L158.334005,339.31287 L157.305213,341.562814 Z" id="Path-88" fill-opacity="0.83239923" fill="#3C1675"></path>
                <path d="M163.012024,222.190058 L179.268271,263.309618 L187.174706,284.116811 L194.802372,279.651097 L192.663811,231.303285 C192.663811,231.303285 183.650868,221.196861 178.114335,217.299021 C172.577802,213.40118 166.126278,212.62028 166.126278,212.62028 L163.012024,222.190058 Z" id="Path-89" fill-opacity="0.383208786" fill="#1B0733"></path>
                <polygon id="Path-90" fill-opacity="0.262115036" fill="#1B0733" points="174.510604 313.264923 187.815876 309.75605 196.798892 293.882057 200.22112 309.741014 187.712333 322.606425 170.379505 320.905982"></polygon>
                <path d="M167.081106,345.98226 L189.831826,326.127207 L197.315325,306.123916 L202.182761,309.54503 L206.528788,298.730536 C206.528788,298.730536 209.152702,293.667124 209.286119,291.208762 C209.419535,288.7504 214.215961,264.089066 214.215961,264.089066 L222.824976,275.392771 C222.824976,275.392771 217.138217,296.419909 214.215961,305.56338 C211.293705,314.706852 206.528788,329.591813 206.528788,329.591813 L167.081106,345.98226 Z" id="Path-91" fill-opacity="0.892068614" fill="#675252"></path>
                <path d="M184.851301,378.475641 L178.025547,362.917112 L163.774714,357.356147 L152.114941,366.224272 C152.114941,366.224272 161.302691,372.415982 166.523012,374.369652 C171.743332,376.323323 184.851301,378.475641 184.851301,378.475641 Z" id="Path-92" fill="#4E3C3C"></path>
                <path d="M203.700667,388.252872 L197.206163,384.59161 L226.20374,356.745623 L233.440921,371.228213 L214.550387,393.520695 C214.550387,393.520695 208.208311,392.181525 206.639553,390.617716 C205.070794,389.053906 203.700667,388.252872 203.700667,388.252872 Z" id="Path-93" fill="#4E3C3C"></path>
                <polygon id="Path-94" fill="#4E3C3C" points="227.239279 346.222381 226.089886 336.020233 205.543662 354.038842 164.535015 344.579992 161.506285 352.13195 153.548673 364.362693 212.820661 391.515338 227.85831 349.155879"></polygon>
                <path d="M185.524666,354.97344 L208.482973,358.299199 L228.298512,336.594695 L211.711126,329.681109 C211.711126,329.681109 198.355813,329.670859 194.023582,333.855167 C189.691351,338.039476 185.524666,354.97344 185.524666,354.97344 Z" id="Path-67" fill="#4E3C3C"></path>
                <polygon id="Path-95" fill="#4E3C3C" points="231.262155 307.510353 220.878991 277.41805 246.604912 287.423923 249.087602 299.881567"></polygon>
                <polygon id="Path-96" fill="#303030" points="170.208032 349.702 184.570521 353.159638 202.231768 331.762857 169.605421 344.670248"></polygon>
                <polygon id="Path-97" fill="#453734" points="237.885977 326.072289 245.765823 334.779704 260.76676 320.52422 252.495099 312.502041"></polygon>
                <polygon id="Path-98" fill="#453B3B" points="224.094895 334.779704 254.134085 314.709314 250.837859 304.6976 223.769418 323.865015"></polygon>
                <polygon id="Path-99" fill-opacity="0.708984375" fill="#3C2C2C" points="247.751244 297.846448 265.328815 329.093854 304.728438 320.025144 288.079021 302.524879 246.299917 289.320036"></polygon>
                <polyline id="Path-100" fill="#4F3434" points="226.195844 352.45789 249.416482 329.346224 289.969329 307.442552"></polyline>
                <polygon id="Path-111" fill="#F0F0F0" points="339.919133 352.05334 344.39436 350.90362 340.462928 338.748643 331.232884 335.684277 335.486431 330.558987 347.039142 334.690152 354.268635 340.964229 367.592074 339.07008 370.055892 338.655473 371.091908 332.039461 375.174445 328.849315 383.973796 328.683472 389.031726 334.637045 386.969647 343.955922 384.916616 335.041403 379.216265 330.154629 376.098264 332.784822 376.793164 344.132014 382.757721 348.180257 385.724618 351.576308 389.282361 359.934602 389.916638 365.27791 382.858156 373.043641 374.853235 374.534363 365.731769 376.989397 358.582805 376.989397 347.181199 371.698264 343.249766 368.653464 339.71012 359.88429 339.71012 354.789747"></polygon>
                <polyline id="Path-100" fill="#4F3434" points="217.981824 342.912157 241.202462 319.800491 281.755309 297.896819"></polyline>
                <polygon id="Path-101" fill="#383333" points="292.195441 444.537237 297.173973 450.740089 311.642356 450.740089 324.108789 429.009407 320.25462 412.953371 296.281137 442.71564"></polygon>
                <path d="M318.943094,411.761339 L304.80633,418.924134 L287.880991,440.999685 L292.569767,446.441634 C292.569767,446.441634 306.334623,432.888742 312.097177,425.311121 C317.859731,417.7335 318.943094,411.761339 318.943094,411.761339 Z" id="Path-102" fill="#403F3F"></path>
                <polygon id="Path-103" fill="#5A5959" points="293.21028 445.816353 305.199794 432.141526 299.081648 429.476227 289.483659 440.263051"></polygon>
                <path d="M332.901241,348.759378 L333.280884,364.687256 C333.346694,367.44828 335.058242,371.204726 337.095003,373.069519 L347.330953,382.441228 C349.371623,384.3096 353.256956,385.903481 356.023243,386.001763 L376.707206,386.736635 C379.467155,386.834692 383.144213,385.209913 384.932406,383.093072 L391.811,374.950282 C393.593703,372.839941 393.97664,369.169771 392.664389,366.74918 L392.664389,366.74918 L383.18715,376.0074 L365.818726,378.821672 L356.979357,378.296215 L340.309715,369.29954 L339.558064,355.253033 L332.901241,348.759378 Z" id="Path-104" fill="#EBA6CE"></path>
                <polygon id="Path-105" fill="#EBA6CE" points="346.710242 333.792138 352.941819 340.617162 368.054141 338.499949 370.073484 330.530518 356.215063 331.477287"></polygon>
                <polygon id="Path-106" fill="#EBA6CE" points="396.190482 370.944551 392.909192 340.44911 386.599462 346.222037 388.630299 355.437653"></polygon>
                <path d="M384.877709,361.372217 L390.482149,363.505814" id="Path-114" stroke="#3E3D3D"></path>
                <path d="M338.876521,352.707407 L343.822017,350.455279 L342.278447,344.978283 C341.219076,341.219349 337.249637,337.596182 333.540259,336.909377 L333.540259,336.909377 L329.694657,339.64554 L330.806043,343.895351 L338.876521,352.707407 Z" id="Path-107" stroke="#E98FCD" fill="#E694BE"></path>
                <polygon id="Path-108" stroke="#E387BB" fill="#E694BE" points="377.292322 332.570806 378.338197 347.236263 387.243077 341.055043 381.979222 331.834693"></polygon>
                <polygon id="Path-109" fill="#383838" points="351.276464 354.550057 350.050146 359.048394 354.266977 363.887569 357.487353 360.151381 357.487353 358.307547"></polygon>
                <polyline id="Path-110" fill="#474747" points="374.187328 361.600847 378.634672 361.416876 378.634672 355.586857 376.326965 353.161334 373.648034 355.14574 372.024847 357.653947 373.688419 360.86579"></polyline>
                <path d="M341.409367,367.345355 L346.517967,364.777586" id="Path-112" stroke="#424242"></path>
                <path d="M346.495347,370.574632 L351.533371,366.868324" id="Path-113" stroke="#424242"></path>
                <path d="M438.491977,323.413459 L416.829879,290.546174 L398.482951,251.35716 L420.020571,252.682897 L424.360004,243.8693 C424.360004,243.8693 434.910968,241.442712 439.238786,240.409904 C443.566604,239.377096 459.816729,237.380759 459.816729,237.380759 L431.415621,220.297505 L444.436229,207.047341 L466.987819,229.232901 L485.236766,209.417513 L490.864992,213.930763 L474.600435,263.681229 L438.491977,323.413459 Z" id="Path-121" fill="#7981CD"></path>
                <path d="M384.237098,364.227882 L390.52377,366.536638" id="Path-115" stroke="#3E3D3D"></path>
                <polygon id="Path-116" stroke="#646464" points="364.378556 364.744143 367.572208 364.715495 367.572208 367.366448"></polygon>
                <path d="M365.682933,366.636919 L364.086754,370.87951" id="Path-117" stroke="#575757"></path>
                <path d="M365.851156,366.755509 L369.626471,369.406462" id="Path-118" stroke="#575757"></path>
                <polygon id="Path-70" fill="#7878AE" points="431.287481 310.69766 468.958899 258.618012 477.245826 225.288721 469.429914 231.558487 455.781916 227.383695 461.707224 236.366487 422.39543 286.726707"></polygon>
                <polygon id="Path-119" fill="#402F2F" points="153.60569 367.370811 161.750985 353.323119 209.11314 367.78544 210.051184 392.357254"></polygon>
                <polygon id="Path-120" fill="#7878AE" points="421.117172 279.379725 448.980375 241.587126 427.384455 244.325393 416.036275 270.95669"></polygon>
                <polygon id="Path-122" fill="#885B91" points="398.243173 250.928428 426.057073 320.471894 438.882773 320.471894 413.478682 265.499358"></polygon>
                <polygon id="Path-69" fill="#7FA0D6" points="421.469568 183.98023 441.556981 202.685792 442.042802 206.521112 444.774655 208.184522 466.136754 230.340574 486.177181 209.973415 432.919611 172.396145"></polygon>
                <polygon id="Path-123" fill="#383737" points="418.539475 336.199784 419.772542 321.786237 410.159055 319.238599 406.497563 328.199044 408.689453 340.065824"></polygon>
                <polygon id="Path-124" fill="#7981CD" points="418.37758 217.668428 445.487775 203.757551 423.130428 183.746521 418.37758 185.420032"></polygon>
                <polygon id="Path-125" fill-opacity="0.71" fill="#3C2C2C" points="374.281459 306.465887 426.566638 321.243258 389.404969 274.183654"></polygon>
                <polygon id="Path-126" fill="#3D3131" points="222.342613 268.883214 282.084476 292.002561 314.57099 312.414567 360.673638 306.483482 381.894159 270.013254 369.067001 270.75869 354.449959 298.186446 315.131247 301.451243 231.99708 262.913237 218.836285 261.232223"></polygon>
                <path d="M225.264715,57.1454685 C225.264715,57.1454685 230.6025,66.2336313 234.543443,68.8565741 C238.484387,71.4795168 246.400662,71.2127548 246.400662,71.2127548 L240.388569,83.5502348 L273.948028,77.024879 L275.874345,85.8181341 L295.872351,85.8181341 L293.170362,101.355567 L300.768572,108.778367 L311.891773,98.7948214 L326.736945,106.858447 L334.196337,88.5526278 L344.751032,78.1481992 L299.50648,59.7662693 L266.948723,57.4697656 L256.215114,46.3908167 L256.215114,56.9917276 L242.5514,45.2713912 L243.745838,57.9309881 L225.264715,57.1454685 Z" id="Path-127" fill="#F2E1C8"></path>
                <polyline id="Path-128" fill="#BFA681" points="231.602466 69.9345767 190.56354 86.092477 181.043768 84.3632553 156.750673 61.370601 126.964739 60.7801351 99.867019 73.1643809 87.6029833 114.736734 83.6019198 135.385283 92.7530591 157.414545 92.7530591 140.144527 95.0834199 112.321595 108.138614 77.859251 135.257891 91.1602729 153.946049 107.964134 189.067453 112.106275 161.734757 155.889545 182.440952 145.23777 253.505381 146.572954 236.746074 137.114393 258.363177 130.308608 236.746074 130.308608 221.10183 119.873343 233.61162 109.462497 221.056559 100.385748 217.989619 99.0928771 253.505381 100.385748 232.721298 80.9225704 207.449494 75.7904004"></polyline>
                <polygon id="Path-129" fill-opacity="0.856629303" fill="#DFC49C" points="181.002785 92.6049065 131.617254 70.6548957 112.597666 68.4102315 130.009581 60.8372954 154.754119 60.0909445"></polygon>
                <polygon id="Path-130" fill="#DFC49C" points="208.960345 78.2387784 233.922471 68.0230269 246.402373 71.5134798 241.614777 82.6654388 273.577411 77.1679178 275.354486 85.0346363 295.777707 85.8092749 293.915919 100.55663 289.050089 128.493451 249.540814 97.8809369 241.614777 96.7743704 227.882564 80.8737298"></polygon>
                <polygon id="Path-131" fill-opacity="0.440641984" fill="#E1D1B9" points="273.223261 123.365225 239.99893 104.717676 229.641702 118.31473"></polygon>
                <path d="M301.847792,61.2945531 L330.918554,75.7820187 C330.918554,75.7820187 331.956652,61.1532915 330.918554,54.1556823 C329.880457,47.1580732 326.848895,48.3492505 326.848895,48.3492505 L314.535611,61.8669025 L301.847792,61.2945531 Z" id="Path-132" fill="#BFA681"></path>
                <polygon id="Path-133" fill="#DFC49C" points="329.166074 73.1456346 342.050543 80.1009257 339.878549 56.697677 328.792176 50.6226801"></polygon>
                <polygon id="Path-134" fill="#D195A0" points="97.532218 87.392493 86.7963649 113.321249 92.7038669 157.559866 108.981944 142.825759 131.850528 151.051148 119.571343 113.822334 137.029786 116.403215 119.845657 95.9573789 140.670155 93.4752361 105.175454 75.0568905"></polygon>
                <path d="M159.668583,162.122888 L153.625282,154.575161 L144.58541,149.186063 L137.476547,152.221773 C137.476547,152.221773 129.924759,148.573352 128.827839,146.841293 C127.73092,145.109235 126.345984,135.412032 126.345984,135.412032 L118.070343,112.642447 L132.197017,114.619105 L119.936638,95.8425892 L137.890775,93.6248066 L157.976382,107.312416 L189.877692,111.619446 L159.668583,162.122888 Z" id="Path-135" fill-opacity="0.868206522" fill="#F9DADA"></path>
                <polygon id="Path-5" fill="#F0C3C3" points="339.521294 57.7975689 346.529388 83.9321457 346.529388 94.8783669 359.028702 95.3599357 359.340485 108.910597 368.059878 118.754801 368.508283 128.016433 376.686436 133.127916 361.894296 70.3291796"></polygon>
                <polygon id="Path-136" fill="#E8D4B9" points="292.060692 100.788479 287.614798 132.303472 296.937877 125.022038 294.373052 132.818039 302.279256 132.818039 332.47376 129.194144 327.722804 120.695185 327.722804 103.194267 324.076257 104.741845 311.88711 98.0694667 300.509838 107.225043"></polygon>
                <path d="M280.99675,148.648275 C280.99675,148.648275 258.08924,144.841776 250.622233,144.589193 C243.155227,144.336609 228.55378,146.233872 228.55378,146.233872 L214.069472,146.233872 L188.692339,160.009416 L230.30931,178.517682 L162.190511,182.642793 L157.559433,191.364476 L167.083144,201.286071 L167.083144,210.444492 L181.960401,219.366411 L188.692339,215.996532 L226.651564,209.794954 L197.541272,238.305246 L216.472147,266.538002 L297.241016,271.514645 L285.440976,279.686742 C285.440976,279.686742 296.284102,280.571461 301.686153,279.686742 C307.088204,278.802023 315.134872,274.823634 315.134872,274.823634 L315.134872,282.965443 L363.27025,266.538002 L379.205778,262.154242 L419.342242,214.50073 L418.594213,204.19857 L387.580203,193.502255 L417.357313,180.67325 L411.101352,165.861669 L370.074557,169.290372 L391.735274,143.507891 L384.722496,137.923542 L359.786264,137.923542 L343.95597,137.923542 L355.3407,160.009416 L353.558079,178.517682 L338.439954,193.224882 L294.041294,188.11803 L280.99675,182.642793 L273.011798,165.861669 L280.99675,148.648275 Z" id="Path-137" stroke="#CFB6B6" fill="#D8C9B3"></path>
                <polygon id="Path-138" fill-opacity="0.7674649" fill="#F7EEE0" points="215.653388 184.670515 246.536955 190.123765 272.091592 149.142601 227.785038 148.423491 199.871076 158.340405 237.884523 177.489135"></polygon>
                <path d="M217.452366,228.810086 L277.754241,207.445647 C282.95748,205.602184 291.181588,206.105299 296.129836,208.572645 L321.512179,221.229049 L383.425614,210.912413 C388.87552,210.004296 395.20093,213.318949 397.555993,218.320531 L403.465982,230.871907 C403.465982,230.871907 387.00548,250.895149 379.063835,256.481001 C371.12219,262.066854 363.469187,259.004138 363.469187,259.004138 C363.469187,259.004138 333.25026,269.429898 324.988184,271.251579 C316.726108,273.07326 300.257256,272.941552 300.257256,272.941552 L278.330036,262.650762 C278.330036,262.650762 245.947711,265.071804 231.905934,262.650762 C217.864158,260.22972 214.302471,251.611316 214.302471,251.611316 L217.452366,228.810086 Z" id="Path-139" fill-opacity="0.993546196" fill="#CCBDA7"></path>
                <polygon id="Path-140" fill="#A07F67" points="163.239347 181.775952 180.960432 168.291164 171.768838 161.490959 191.117293 159.912052 226.992214 143.887712 179.169287 143.887712 151.700107 163.260279 165.104364 170.199869"></polygon>
                <polygon id="Path-141" fill="#A07F67" points="402.376849 154.503902 422.632544 145.009988 420.671176 165.667599 438.250675 167.48505 419.345213 186.67734"></polygon>
                <polygon id="Path-3" fill-opacity="0.44" fill="#E1D1B9" points="332.624508 103.132739 340.873614 102.545391 346.267507 103.263444 333.858499 122.971847"></polygon>
                <polygon id="Path-21" fill="#AA747E" points="339.535911 56.9845426 340.280235 77.3061315 346.840767 78.2337438"></polygon>
                <polygon id="Path-142" fill="#7D6C54" points="259.735015 130.876006 281.916442 136.97986 297.04384 124.62946 295.478782 131.949988 310.317717 131.644036 279.45367 148.692369 278.275378 141.605369"></polygon>
                <polyline id="Path-143" fill="#7C6F50" points="339.521294 127.738847 347.692957 110.481093 359.909181 98.6427068"></polyline>
                <polygon id="Path-144" fill="#665241" points="344.863441 118.974236 362.787741 120.139933 352.138973 109.865682"></polygon>
                <polygon id="Path-145" fill="#FEFBF8" points="358.926506 100.444564 362.0661 108.428215 367.79362 112.529604 369.81102 113.709546 368.549304 128.399632 363.381014 127.904386 361.532053 120.100406 351.71423 109.927802"></polygon>
                <polygon id="Path-146" fill="#FEFBF8" points="356 137.284955 364.621259 127 372.206233 128.744768 357.887782 139.617945"></polygon>
                <polygon id="Path-147" fill-opacity="0.83" fill="#3C1675" points="402.468777 251.638052 420.750545 252.886173 429.055256 243.443085 459.72303 237.325211 433.439517 221.141575 450.078126 201.473154 417.23524 215.933517 395.220189 243.443085 398.387483 251.638052"></polygon>
                <polygon id="Path-148" fill-opacity="0.38" fill="#1B0733" points="417.716759 224.510114 427.819082 225.784295 447.330673 233.714307 422.415574 238.211886 421.037221 248.451934 402.038956 248.111087 402.369968 243.522971"></polygon>
                <polygon id="Path-65" fill="#958179" points="328.207463 129.006321 340.137356 127.987563 340.137356 133.968606"></polygon>
                <polygon id="Path-24" fill="#C1B190" points="359.348031 138.610155 371.513082 127.645677 387.000141 137.38751"></polygon>
                <polygon id="Path-149" fill-opacity="0.916326993" fill="#E2DACF" points="282.821189 144.115305 273.890651 156.947526 270.235882 166.050586 281.714163 184.65405 287.459629 184.110146 298.971121 174.990801 306.247446 178.430097 304.628025 182.993026 315.385157 183.71606 332.289448 167.029288 331.113946 152.900267 324.008461 151.934237 312.717841 145.122132 313.2739 141.620513 323.207088 134.544879 328.7865 134.544879 339.565773 137.92555 340.2632 141.620513 336.276324 150.397882 337.963748 165.273814 352.26969 177.798257 356.311917 173.20113 356.311917 160.914441 352.956046 148.227153 350.582266 142.488479 340.2632 134.017259 328.7865 128.969051 316.920761 129.385935 306.253772 133.149293 296.587851 136.477854"></polygon>
                <polygon id="Path-19" fill-opacity="0.772390172" fill="#F1ECE5" points="275.116287 164.671286 310.178971 146.287664 310.863746 138.777232 330.073814 131.393819 321.880238 131.393819 313.653452 131.393819 304.830453 132.696583 291.351617 138.777232 280.543878 146.305577 273.373511 155.823893"></polygon>
                <path d="M311.832488,141.8608 L323.299603,134.398827 C323.299603,134.398827 327.115956,134.147903 328.932413,134.651979 C330.748869,135.156054 341.929625,138.436591 341.929625,138.436591 L334.512866,154.760634 L319.032316,150.473919 L311.668567,145.203346 L311.832488,141.8608 Z" id="Path-18" fill="#DCA1A1"></path>
                <polygon id="Path-18" fill-opacity="0.361045063" fill="#F7B9B9" points="316.489285 141.544779 327.429793 135.069201 338.962131 139.946934 332.219443 151.467691 321.688214 148.399714 316.370919 144.205016"></polygon>
                <polygon id="Path-20" fill-opacity="0.276551178" fill="#F8DDDD" points="331.804502 136.988855 339.845059 139.455756 335.150884 151.157601"></polygon>
                <polygon id="Path-61" fill-opacity="0.345137002" fill="#B57A7A" points="137.220698 152.061398 145.885125 147.755924 150.276313 152.56178 161.641739 155.196074 153.266283 162.754032 153.266283 167.802791 144.089964 168.113709 143.146383 155.196074"></polygon>
                <path d="M100.933579,163.865485 L91.4485632,157.473112 L112.314773,140.796063 L131.208337,156.82957 C131.627155,157.184988 132.037886,157.919474 132.122962,158.452731 L137.004256,189.048719 L158.008557,206.549221 L158.008557,240.363857 C158.008557,240.363857 154.869961,248.443835 153.45255,250.554455 C152.035138,252.665074 147.493009,256.0222 147.493009,256.0222 L137.414407,236.44821 L140.485392,223.527636 L137.004256,244.483342 C137.004256,244.483342 101.785376,255.007177 93.0911537,259.349846 C84.396931,263.692515 82.9033928,230.862311 82.9033928,230.862311 L76.9242469,234.047886 L75.5021129,224.660945 L55.0563603,206.549221 L55.5839926,189.568683 L64.0116823,172.868289 L72.7691423,172.868289 L88.371395,182.068468 L98.7921334,193.153251 L106.832343,179.284008 L111.873705,174.235052 L100.933579,163.865485 Z" id="Path-11" fill="#B49E8C"></path>
                <polygon id="Path-29" fill="#DAB0B0" points="67.3599634 178.518003 92.8348023 195.773703 99.4511384 214.027768 88.5765273 222.966837 77.830592 222.966837 68.0841395 209.710762"></polygon>
                <polygon id="Path-28" fill="#DAB0B0" points="103.568768 161.422535 113.31522 153.370902 128.415189 164.534724 129.18126 185.768478 127.086536 196.562535 117.370008 198.959845 107.560714 193.305522 110.720755 174.265706 112.335222 167.39991"></polygon>
                <polygon id="Path-25" fill="#846D6D" points="132.995696 233.218174 135.882506 221.407655 132.617678 215.463891 143.559815 223.026263 153.669768 215.074641 156.058899 236.204758 146.176029 236.578606 145.933988 246.038223 142.350972 240.063654"></polygon>
                <polygon id="Path-26" fill="#F1E2D2" points="66.6765817 174.608037 57.6109388 183.913634 54.7390867 202.334403 55.4638486 213.272609 77.5561691 230.265194 85.1274155 225.674004 83.4644064 221.59668 69.2152881 211.809421 68.5340391 176.848325 72.0245904 173.532699"></polygon>
                <polygon id="Path-2" fill="#F1E2D2" points="109.603545 170.124932 95.9375044 160.05582 97.6368085 148.883515 110.064863 140.578376 118.619221 143.478156 129.005567 151.499698 127.187349 151.499698 109.467215 144.314767 103.742736 148.852319 105.212069 161.458207"></polygon>
                <polygon id="Path-4" fill="#D2BB9D" points="82.1557901 227.724907 90.9098226 228.058133 124.073794 209.573279 133.716037 216.320052 136.653326 223.236984 133.593477 234.566685 117.831537 243.753811 96.6535807 251.189725 87.365245 253.065719 81.8555889 246.652172 77.5866726 237.496242 78.9031513 229.681726"></polygon>
                <polygon id="Path-6" stroke="#CEBFAB" fill="#EBDBC6" points="136.183746 234.342643 143.988977 243.277368 145.428184 253.144292 136.183746 265.935918 126.606011 270.622657 108.855796 273.342906 96.0022266 271.956117 88.0592882 261.900613 87.2146822 253.842775 102.215565 252.226272 116.004165 247.562519 133.097732 236.485219"></polygon>
                <polygon id="Path-27" fill="#EBDBC6" points="81.4452221 233.218181 94.6210257 233.975385 104.277039 226.42745 114.668407 221.258894 124.186714 214.95595 127.432467 217.587731 131.702761 224.37988 131.702761 231.172028 123.868611 238.844746 110.049715 245.400091 97.2402124 250.190045 88.9461211 250.190045 82.7176345 247.542667 80.3917637 242.263508"></polygon>
                <path d="" id="Path-150" stroke="#979797"></path>
                <path d="M89.2446847,265.108709 L97.4473938,265.108709 L102.133209,263.263084 L102.133209,252.41591 C101.918698,252.447483 88.343905,254.445508 88.343905,254.445508 L89.2446847,265.108709 Z" id="Path-151" fill-opacity="0.181300951" fill="#BD9B9B"></path>
                <polygon id="Path-152" fill-opacity="0.529070426" fill="#F1E2D2" points="98.3444059 192.393453 101.124575 204.655123 112.082021 199.112566 107.635331 188.041008"></polygon>
                <polygon id="Path-153" fill="#968272" points="116.101902 272.829841 136.151699 265.571881 145.220254 251.842402 152.384472 251.842402 146.920375 267.037429 143.323232 272.829841"></polygon>
                <path d="M291.795844,285.850939 C291.795844,285.850939 295.164336,292.77697 298.451893,295.26454 C301.739451,297.75211 314.658763,303.150441 314.658763,303.150441 L355.269425,300.64563 L371.209965,266.833035 C371.209965,266.833035 361.333429,272.730978 356.807204,276.203299 C352.280978,279.67562 352.342125,281.307613 352.342125,281.307613 L345.419278,281.307613 L344.957755,292.087963 L336.955708,295.26454 L315.862713,286.688855 C315.862713,286.688855 296.692812,284.962222 289.137663,284.699181 C281.582515,284.43614 291.795844,285.850939 291.795844,285.850939 Z" id="Path-154" fill="#653270"></path>
                <path d="M240.768479,267.897351 L295.423832,271.683194 L287.033134,278.931434 L299.006709,278.931434 L317.151855,273.589497 L313.81362,281.789996 L353.57054,267.096989 L380.160171,262.491132 L381.54821,268.645972 C381.54821,268.645972 377.277077,271.424791 375.08094,271.683194 C372.884802,271.941597 367.605158,273.589497 367.605158,273.589497 L362.108717,274.663244 L351.948269,281.809648 L345.254448,281.809648 L341.570939,278.652724 L319.416094,283.258582 L315.307497,285.005877 C315.307497,285.005877 314.864215,287.270205 313.81362,287.387416 C312.763025,287.504628 293.961185,287.387416 293.961185,287.387416 L303.066724,295.945235 L240.768479,267.897351 Z" id="Path-155" stroke-opacity="0.804942255" stroke="#553A53" fill="#59477E"></path>
                <polygon id="Path-38" fill="#5C3360" points="248.848991 270.085566 295.128787 287.842509 302.651218 295.298223 297.226345 294.447258"></polygon>
                <polygon id="Path-156" fill="#7981CD" points="416.892275 318.13124 440.368389 320.884549 431.99599 335.391619 415.787228 319.672255"></polygon>
                <polygon id="Path-157" fill="#9A7B6A" points="159.732394 191.357395 162.887162 171.658341 137.292722 171.343471 154.873969 191.946371 147.46511 201.669995 169.226732 212.714337 169.226732 199.258664"></polygon>
                <polyline id="Path-17" stroke="#464646" points="334.499142 154.76333 334.778839 167.241502 317.21291 184.576969 294.929838 183.712947 323.375677 189.576652 341.048458 190.007045 352.346341 177.799083"></polyline>
                <polygon id="Path-23" fill="#EFEFEF" points="334.975256 170.924115 318.436978 184.732299 322.313456 188.149558 341.031173 189.426176 349.65779 180.383061"></polygon>
                <path d="M333.847039,170.221895 L333.847039,183.33433" id="Path-158" stroke="#050505"></path>
                <polyline id="Path-159" stroke="#555555" points="337.589855 167.833314 350.144007 178.768089 342.948445 188.063395"></polyline>
                <polyline id="Path-160" stroke-opacity="0.787788723" stroke="#0E0E0E" points="87.4338636 485.57031 87.4338636 504.309181 105.341601 510.562855 133.98586 504.74828 130.184948 500.870344"></polyline>
                <path d="M456.310949,470.542938 L467.277357,486.04466 C469.73403,489.517325 468.285404,492.047647 464.040833,491.696215 L456.310949,491.056214 L456.310949,470.542938 Z" id="Path-161" stroke="#5E5E5E" fill="#E7E7E7"></path>
                <polyline id="Path-162" stroke="#9A8C6D" points="190.599502 85.9502857 209.451968 78.5835405 229.871027 70.1447205"></polyline>
                <path d="M104.60116,75.4483304 L140.663092,94.2317576" id="Path-163" stroke-opacity="0.479110054" stroke="#797878"></path>
                <path d="M105.058938,75.2471093 L102.339109,79.0033177 C100.599765,81.4054305 98.4128416,85.6282278 97.452514,88.4409527 L94.3206509,97.613936" id="Path-164" stroke-opacity="0.479110054" stroke="#797878"></path>
                <path d="M287.779328,58.4479969 C287.779328,58.4479969 298.142207,60.5066255 303.487377,61.2061471 C308.832547,61.9056686 314.517144,61.9471704 314.517144,61.9471704 L325.101178,49.9563226 C326.92947,47.8850178 329.158635,48.3108446 330.171872,50.8748306 C330.171872,50.8748306 330.120933,51.2061485 330.54524,51.5255139 C330.969547,51.8448793 353.606034,66.2614254 353.606034,66.2614254" id="Path-165" stroke="#8A7E70"></path>
                <polyline id="Path-166" stroke-opacity="0.343297101" stroke="#585858" points="176.973676 135.090636 190.595086 111.735976 163.839696 107.065828"></polyline>
                <polygon id="Path-167" fill-opacity="0.284731658" fill="#EDEBEB" points="262.220971 136.110831 252.880057 136.896528 251.023478 140.681993 259.095026 141.004238 266.247076 141.326482"></polygon>
                <polygon id="Path-168" fill-opacity="0.385388361" fill="#ECE9E9" points="349.341483 121.42295 354.498849 130.094634 359.826759 131.083841 360.211025 124.459484 358.315601 121.496307"></polygon>
            </g>
            <text id="Mai-Nguyen" transform="translate(459.730422, 47.735144) rotate(-16.000000) translate(-459.730422, -47.735144) " font-family="GiddyupStd, Giddyup Std" font-size="36" font-weight="normal" fill="#333333">
                <tspan x="389.230422" y="53.7351441">Mai Nguyen</tspan>
            </text>
            <text id="09/24/2018" transform="translate(477.694305, 75.439950) rotate(-16.000000) translate(-477.694305, -75.439950) " font-family="SFProText-Regular, SF Pro Text" font-size="14" font-weight="normal" fill="#333333">
                <tspan x="438.694305" y="80.4399504">09/24/2018</tspan>
            </text>
        </g>
    </g>
</svg>