<?xml version="1.0" encoding="UTF-8" standalone="no"?>
<svg width="35px" height="35px" viewBox="0 0 35 35" version="1.1" xmlns="http://www.w3.org/2000/svg" xmlns:xlink="http://www.w3.org/1999/xlink">
    <!-- Generator: Sketch 43.1 (39012) - http://www.bohemiancoding.com/sketch -->
    <title>Group 7</title>
    <desc>Created with Sketch.</desc>
    <defs></defs>
    <g id="Page-1" stroke="none" stroke-width="1" fill="none" fill-rule="evenodd">
        <g id="Group-7">
            <circle id="Oval" fill="#5C8FE8" cx="17.5" cy="17.5" r="17.5"></circle>
            <g id="Group-5" transform="translate(6.000000, 5.000000)" fill="#FFFFFF">
                <g id="Group-4" style="mix-blend-mode: color;" transform="translate(1.000000, 1.000000)">
                    <polygon id="Path-5" points="9.45541315 0.360679017 12.0733177 0.374893069 12.2833218 11.7594268 14.8947171 9.04150658 17.0059537 10.5852606 10.8199622 16.7552388 4.62191569 10.5129309 6.6475081 9.05949906 9.20155948 11.5984749"></polygon>
                    <polygon id="Path-6" points="0.861362835 19.2567832 0.861362835 21.6628419 20.5774422 21.6766888 20.5460722 19.2279865"></polygon>
                </g>
                <g id="Group-4">
                    <polygon id="Path-5" points="9.45541315 0.360679017 12.0733177 0.374893069 12.2833218 11.7594268 14.8947171 9.04150658 17.0059537 10.5852606 10.8199622 16.7552388 4.62191569 10.5129309 6.6475081 9.05949906 9.20155948 11.5984749"></polygon>
                    <polygon id="Path-6" points="0.861362835 19.2567832 0.861362835 21.6628419 20.5774422 21.6766888 20.5460722 19.2279865"></polygon>
                </g>
            </g>
        </g>
    </g>
</svg>