<?xml version="1.0" encoding="UTF-8" standalone="no"?>
<svg width="35px" height="35px" viewBox="0 0 35 35" version="1.1" xmlns="http://www.w3.org/2000/svg" xmlns:xlink="http://www.w3.org/1999/xlink">
    <!-- Generator: Sketch 43.1 (39012) - http://www.bohemiancoding.com/sketch -->
    <title>Group 3</title>
    <desc>Created with Sketch.</desc>
    <defs></defs>
    <g id="Page-1" stroke="none" stroke-width="1" fill="none" fill-rule="evenodd">
        <g id="Group-3">
            <circle id="Oval" fill="#5C8FE8" cx="17.5" cy="17.5" r="17.5"></circle>
            <g id="Group-2" transform="translate(7.000000, 6.000000)">
                <g id="Group" style="mix-blend-mode: color;" transform="translate(1.000000, 0.000000)">
                    <path d="M1.62866198,1.68202086 L4.06885575,4.61298247 L1.82372862,7.00479723 L9.46662927,7.14013736 L9.4891369,7.88954845 L3.78976038,8.04500373 L0.189983617,10.5535845 L4.33997978,13.636813 L9.40645967,13.6503203 L9.40645967,24.0076122 L9.40645967,24.0076122 C8.76360433,23.9870784 7.37101424,24.1330587 6.27473052,24.3376419 L6.89339338,24.22219 C5.80664248,24.4249943 5.76026037,24.911682 5.79773237,24.9261518 L5.79773237,24.9261518 L5.79773237,24.9261518 C6.11123229,25.1084705 7.25241611,25.3106636 8.18203251,25.3676691 L8.18203251,25.3676691 L10.95473,25.4679848 L13.0227766,25.3676691 L14.2747302,25.2562689 L15.0437512,24.954053 C15.5562163,24.7526605 15.534411,24.5109372 14.9813063,24.411683 L13.7199238,24.1853288 C13.1729713,24.0871787 12.2772102,23.9737341 11.7294443,23.9327116 L11.1360866,23.8882748 L11.3093139,13.601722 L20.0599368,13.3300448 L17.1029584,10.4627436 L19.6841004,7.97072171 L11.25431,7.92616164 L11.25431,7.14013736 L17.1029584,7.26209068 L20.7786071,4.49907456 L16.6437112,1.63483684 L11.1632404,1.6069868 L11.0805145,0.851491701 C11.0506567,0.57881504 10.8138813,0.2757823 10.5654314,0.17995983 L10.7659748,0.257305664 C10.51136,0.159105514 10.0805167,0.126725638 9.81819752,0.181923971 L10.0299359,0.137369066 C9.76110771,0.193937056 9.53121847,0.465142347 9.5164059,0.744215277 L9.46662927,1.68202086 L1.62866198,1.68202086 Z" id="Path-2" fill="#FFFFFF"></path>
                    <polygon id="Path-3" fill="#5C8FE8" points="16.9314285 2.60162224 18.3708231 4.32018018 16.8942739 6.3733185 19.628349 4.4664056"></polygon>
                    <polygon id="Path-4" fill="#5C8FE8" points="4.07235012 8.67781124 1.3408242 10.6221349 4.16007355 12.5248257 2.68111393 10.6512699"></polygon>
                </g>
                <g id="Group">
                    <path d="M1.62866198,1.68202086 L4.06885575,4.61298247 L1.82372862,7.00479723 L9.46662927,7.14013736 L9.4891369,7.88954845 L3.78976038,8.04500373 L0.189983617,10.5535845 L4.33997978,13.636813 L9.40645967,13.6503203 L9.40645967,24.0076122 L9.40645967,24.0076122 C8.76360433,23.9870784 7.37101424,24.1330587 6.27473052,24.3376419 L6.89339338,24.22219 C5.80664248,24.4249943 5.76026037,24.911682 5.79773237,24.9261518 L5.79773237,24.9261518 L5.79773237,24.9261518 C6.11123229,25.1084705 7.25241611,25.3106636 8.18203251,25.3676691 L8.18203251,25.3676691 L10.95473,25.4679848 L13.0227766,25.3676691 L14.2747302,25.2562689 L15.0437512,24.954053 C15.5562163,24.7526605 15.534411,24.5109372 14.9813063,24.411683 L13.7199238,24.1853288 C13.1729713,24.0871787 12.2772102,23.9737341 11.7294443,23.9327116 L11.1360866,23.8882748 L11.3093139,13.601722 L20.0599368,13.3300448 L17.1029584,10.4627436 L19.6841004,7.97072171 L11.25431,7.92616164 L11.25431,7.14013736 L17.1029584,7.26209068 L20.7786071,4.49907456 L16.6437112,1.63483684 L11.1632404,1.6069868 L11.0805145,0.851491701 C11.0506567,0.57881504 10.8138813,0.2757823 10.5654314,0.17995983 L10.7659748,0.257305664 C10.51136,0.159105514 10.0805167,0.126725638 9.81819752,0.181923971 L10.0299359,0.137369066 C9.76110771,0.193937056 9.53121847,0.465142347 9.5164059,0.744215277 L9.46662927,1.68202086 L1.62866198,1.68202086 Z" id="Path-2" fill="#FFFFFF"></path>
                    <polygon id="Path-3" fill="#5C8FE8" points="16.9314285 2.60162224 18.3708231 4.32018018 16.8942739 6.3733185 19.628349 4.4664056"></polygon>
                    <polygon id="Path-4" fill="#5C8FE8" points="4.07235012 8.67781124 1.3408242 10.6221349 4.16007355 12.5248257 2.68111393 10.6512699"></polygon>
                </g>
            </g>
        </g>
    </g>
</svg>