<?xml version="1.0" encoding="UTF-8" standalone="no"?>
<svg width="35px" height="35px" viewBox="0 0 35 35" version="1.1" xmlns="http://www.w3.org/2000/svg" xmlns:xlink="http://www.w3.org/1999/xlink">
    <!-- Generator: Sketch 43.1 (39012) - http://www.bohemiancoding.com/sketch -->
    <title>Group 11</title>
    <desc>Created with Sketch.</desc>
    <defs></defs>
    <g id="Page-1" stroke="none" stroke-width="1" fill="none" fill-rule="evenodd">
        <g id="Group-11">
            <circle id="Oval" fill="#5C8FE8" cx="17.5" cy="17.5" r="17.5"></circle>
            <g id="Group-10" transform="translate(6.000000, 7.000000)">
                <g id="Group-8" style="mix-blend-mode: color;" transform="translate(1.000000, 1.000000)">
                    <path d="M17.3336354,1.95696958 L5.55433629,2.03931112 C2.79270748,2.0586159 0.619530366,4.31248531 0.700100396,7.06292225 L0.930698474,14.9348999 C0.99532154,17.1409518 2.83725568,18.9043239 5.03876108,18.8735856 L15.0662252,18.7335785 C16.7253555,18.7104131 18.0703464,17.3439672 18.0703464,15.6990228 L18.0703464,10.5303708" id="Path-7" stroke="#FFFFFF" stroke-width="1.5"></path>
                    <path d="M12.069814,10.7171576 L12.7055296,7.69777233 L21.4176855,0.644225409 C21.8465326,0.297021726 22.4795664,0.357489854 22.8354472,0.783886967 L23.329162,1.37542919 C23.6833231,1.79976582 23.631546,2.44254619 23.2250376,2.80095961 L15.0478176,10.0107131 L12.069814,10.7171576 Z" id="Path-8" fill="#FFFFFF"></path>
                </g>
                <g id="Group-8">
                    <path d="M17.3336354,1.95696958 L5.55433629,2.03931112 C2.79270748,2.0586159 0.619530366,4.31248531 0.700100396,7.06292225 L0.930698474,14.9348999 C0.99532154,17.1409518 2.83725568,18.9043239 5.03876108,18.8735856 L15.0662252,18.7335785 C16.7253555,18.7104131 18.0703464,17.3439672 18.0703464,15.6990228 L18.0703464,10.5303708" id="Path-7" stroke="#FFFFFF" stroke-width="1.5"></path>
                    <path d="M12.069814,10.7171576 L12.7055296,7.69777233 L21.4176855,0.644225409 C21.8465326,0.297021726 22.4795664,0.357489854 22.8354472,0.783886967 L23.329162,1.37542919 C23.6833231,1.79976582 23.631546,2.44254619 23.2250376,2.80095961 L15.0478176,10.0107131 L12.069814,10.7171576 Z" id="Path-8" fill="#FFFFFF"></path>
                </g>
            </g>
        </g>
    </g>
</svg>