<?xml version="1.0" encoding="UTF-8"?>
<svg width="724px" height="843px" viewBox="0 0 724 843" version="1.1" xmlns="http://www.w3.org/2000/svg" xmlns:xlink="http://www.w3.org/1999/xlink">
    <!-- Generator: Sketch 43.1 (39012) - http://www.bohemiancoding.com/sketch -->
    <title>Group 25</title>
    <desc>Created with Sketch.</desc>
    <defs>
        <radialGradient cx="50%" cy="0%" fx="50%" fy="0%" r="100%" id="radialGradient-1">
            <stop stop-color="#FB2B2B" offset="0%"></stop>
            <stop stop-color="#EC9C41" offset="100%"></stop>
        </radialGradient>
        <radialGradient cx="50%" cy="0%" fx="50%" fy="0%" r="100%" gradientTransform="translate(0.500000,0.000000),scale(1.000000,0.969559),rotate(90.000000),translate(-0.500000,-0.000000)" id="radialGradient-2">
            <stop stop-color="#FB2B2B" offset="0%"></stop>
            <stop stop-color="#EC9C41" offset="100%"></stop>
        </radialGradient>
    </defs>
    <g id="Page-1" stroke="none" stroke-width="1" fill="none" fill-rule="evenodd">
        <g id="Desktop-HD-Copy-2">
            <g id="Group-3">
                <g id="Group-2">
                    <g id="noun_22642_cc">
                        <g id="Group">
                            <g id="Group-25">
                                <rect id="Rectangle" fill="#3465B2" x="0" y="0" width="724" height="843"></rect>
                                <g id="Group-24" transform="translate(62.000000, 89.000000)">
                                    <g id="Group-23" transform="translate(126.000000, 287.000000)">
                                        <circle id="Oval-6" fill="url(#radialGradient-1)" cx="18.5" cy="35.5" r="17.5"></circle>
                                        <path d="M19.2915332,17.0584639 L21.8437492,22.6209796 L25.6404239,32.8624693 C26.3101285,34.6689905 26.4472875,37.6456426 25.9512203,39.494448 L22.3700223,52.8413069" id="Path-126" stroke="#C22B2B"></path>
                                        <path d="M17.2042939,17.3035005 L15.6860436,19.3018402 L9.6327437,31.3872189 C8.56498751,33.518988 8.25452682,37.0910861 8.94403868,39.3814292 L12.8410028,52.3259275" id="Path-127" stroke="#C22B2B"></path>
                                        <path d="M7.3492665,22.4055132 C7.3492665,22.4055132 10.2787541,23.2080291 12.5515271,23.5719 C14.8243002,23.935771 17.4656276,23.9247218 17.4656276,23.9247218 C17.886693,23.9295009 18.5690795,23.9288761 18.9819823,23.9219341 C18.9819823,23.9219341 23.3227515,23.8828874 25.0966701,23.5719 C26.8705887,23.2609127 30.232913,22.4055132 30.232913,22.4055132" id="Path-129" stroke-opacity="0.336871603" stroke="#C22B2B" stroke-width="0.5"></path>
                                        <path d="M3.13909099,26.653216 C3.13909099,26.653216 3.74908864,26.7415788 5.2800895,27.2429631 C6.83059995,27.7507365 8.72084131,28.3288549 10.0486552,28.5990038 C12.6875755,29.1359024 17.0483764,29.4340507 17.0483764,29.4340507 C17.8220602,29.4945992 19.0814168,29.4842561 19.855584,29.410139 C19.855584,29.410139 24.8705571,28.9495372 27.2178918,28.5990038 C29.5652264,28.2484703 34.1128445,27.4333173 34.1128445,27.4333173" id="Path-130" stroke-opacity="0.336871603" stroke="#C22B2B" stroke-width="0.5"></path>
                                        <path d="M0.997058328,33.1417618 C0.997058328,33.1417618 1.4058641,33.4614936 2.89208164,33.8791706 C4.96714333,34.4623325 7.85600819,35.2364271 9.78605468,35.5978102 C13.0984547,36.218026 17.1335027,36.4725921 17.1335027,36.4725921 C18.0604626,36.5435067 19.546439,36.4851108 20.4681321,36.3370941 C20.4681321,36.3370941 24.8482827,35.6623084 26.7008577,35.2067364 C28.5534327,34.7511645 35.8602086,33.1417618 35.8602086,33.1417618" id="Path-131" stroke-opacity="0.336871603" stroke="#C22B2B" stroke-width="0.5"></path>
                                        <path d="M1.1214095,39.6655159 C1.1214095,39.6655159 1.13824166,39.4684634 1.77885147,39.6655159 C3.71768448,40.2619035 7.94469875,41.5206352 10.5508156,41.9880482 C14.0180194,42.609899 18.1993354,42.6950649 18.1993354,42.6950649 C19.0566896,42.7266087 20.4498311,42.6569688 21.2937667,42.5402447 C21.2937667,42.5402447 25.4881028,41.9788485 27.2581225,41.6296235 C29.0281421,41.2803985 35.7910455,39.8812646 35.7910455,39.8812646" id="Path-132" stroke-opacity="0.336871603" stroke="#C22B2B" stroke-width="0.5"></path>
                                        <path d="M3.71682192,45.4560492 C3.71682192,45.4560492 3.75935026,45.6933592 4.94983052,46.0003829 C6.70731182,46.4536357 9.21256788,47.0588229 10.8431919,47.2767199 C13.5783656,47.6422158 18.5596767,47.6795479 18.5596767,47.6795479 C19.1742423,47.6884779 20.1649683,47.6848107 20.7777434,47.668991 C20.7777434,47.668991 25.2998029,47.5890513 27.4951889,47.2767199 C29.690575,46.9643885 33.1816046,45.4560492 33.1816046,45.4560492" id="Path-128" stroke-opacity="0.336871603" stroke="#C22B2B" stroke-width="0.5"></path>
                                        <path d="M7.76288411,49.8452023 C7.76288411,49.8452023 8.61632182,50.5240644 10.180544,50.7951206 C11.1739159,50.967257 12.1453828,51.6013973 12.9190901,51.664224 C14.9111227,51.8259813 18.0772101,51.6949213 18.0772101,51.6949213 C18.6000015,51.6779676 19.4478606,51.6769909 19.9820232,51.6907979 C19.9820232,51.6907979 22.871837,51.7936574 24.3330644,51.664224 C25.7942917,51.5347906 28.2433609,50.2496305 28.2433609,50.2496305" id="Path-133" stroke-opacity="0.336871603" stroke="#C22B2B" stroke-width="0.5"></path>
                                        <path d="M9.70512333,51.697416 C9.70512333,51.697416 15.5814319,52.9094523 18.4595025,52.9461897 C21.3375732,52.9829272 27.2138817,51.697416 27.2138817,51.697416 L27.2138817,55.2159018 C27.2138817,55.2159018 24.5243441,55.7635438 23.275849,55.9129531 C22.0273538,56.0623625 20.6852109,56.1252612 20.6852109,56.1252612 C19.4559861,56.201637 17.4635009,56.1567559 16.2486892,56.0215521 C16.2486892,56.0215521 13.9016551,55.7873014 12.7780399,55.5658022 C11.6544246,55.344303 9.77936625,54.5524294 9.77936625,54.5524294 L9.70512333,51.697416 Z" id="Path-134" fill="#1C1C1C"></path>
                                        <polygon id="Path-135" fill="#323131" points="18.2862059 0.507803906 17.740018 15.3155849 15.6983001 18.3242837 20.8741118 18.3242837 19.1123708 15.2374411 19.5339894 1.08140824"></polygon>
                                        <polygon id="Path-136" fill="#702626" points="18.1127313 56.1164404 17.8670634 76.6300473 19.3799578 76.6300473 19.133638 56.1164404"></polygon>
                                        <circle id="Oval-7" fill="#D0A77E" cx="19" cy="63" r="2"></circle>
                                        <circle id="Oval-7" fill="#D0A77E" cx="19" cy="72" r="2"></circle>
                                        <polygon id="Path-137" fill="#A64242" points="17.4204882 76.3333365 17.0625267 84.7641734 15.8193334 89.7560684 18.3562355 85.068693 18.3562355 88.2876961 19.1173917 81.2469295 18.990675 90.7395496 19.9507536 85.9668402 22.1791406 90.1356476 21.3743185 86.3118863 19.9507536 76.3333365"></polygon>
                                    </g>
                                    <polygon id="Path-11" fill="#D8D8D8" points="291.353816 82.3055711 302.177924 75.4369474 315.893847 82.6991883 303.845558 89.3173905"></polygon>
                                    <polygon id="Path-12" fill="#878787" points="303.862913 89.2577332 303.623335 97.8663496 315.834497 90.6119455 315.834497 82.6320591"></polygon>
                                    <polygon id="Path-13" fill="#A2A2A2" points="291.346773 82.2994496 303.844021 89.2746782 303.639326 97.8548056 290.94486 89.7517538"></polygon>
                                    <path d="M301.535841,83.5051281 C300.448008,83.3140576 299.607996,82.25601 299.658952,81.1563377 L302.690255,15.7389673 C302.74151,14.6328367 302.843541,14.639295 302.917181,15.7389673 L307.297881,81.1563377 C307.371953,82.2624683 306.546346,83.3033883 305.462916,83.479819 L305.319447,83.5031821 C304.231952,83.6802748 302.472676,83.6696769 301.380668,83.4778729 L301.535841,83.5051281 Z" id="Path-10" fill="#8A8A8A"></path>
                                    <polygon id="Path-14" fill="#D8D8D8" points="291.092133 86.749131 284.523036 90.5898922 303.5948 101.951352 322.141056 90.2950506 315.781411 86.749131 315.781411 90.5898922 303.820336 97.6537773 290.972855 89.7649384"></polygon>
                                    <polygon id="Path-15" fill="#969696" points="303.509601 101.857905 303.489663 106.876335 321.972188 95.6647307 322.029536 90.3349176"></polygon>
                                    <polygon id="Path-16" fill="#A7A5A5" points="284.536285 90.5871277 303.515971 101.906692 303.515971 106.93041 284.714572 96.6271079"></polygon>
                                    <path d="M303.449702,106.870136 L302.111252,250.666792 L441.096366,171.851886 L429.164553,168.412446 C392.288196,157.782544 343.669155,124.317236 322.019007,95.587262 L322.019007,95.587262 L303.449702,106.870136 Z" id="Path-17" fill="#1D1D1D"></path>
                                    <path d="M303.535641,106.909825 L284.017517,96.2835539 L284.017517,96.2835539 C268.022059,120.683765 225.915398,150.528242 189.972721,162.942001 L165.826028,171.281703 L302.336038,250.689261 L303.535641,106.909825 Z" id="Path-18" fill="#363636"></path>
                                    <path d="M304.164872,111.045347 L324.74042,99.4472497" id="Path-19" stroke="#131313"></path>
                                    <path d="M304,116.598097 L328.5,103.5" id="Path-19" stroke="#131313"></path>
                                    <path d="M304,122.598097 L331.5,107.5" id="Path-19" stroke="#727272"></path>
                                    <path d="M304,140.598097 L342.5,117.5" id="Path-19" stroke="#131313"></path>
                                    <path d="M303,158.598097 L355.5,127.5" id="Path-19" stroke="#131313"></path>
                                    <path d="M303,179.598097 L368.5,138.5" id="Path-19" stroke="#131313"></path>
                                    <path d="M304,170.598097 L363.5,133.5" id="Path-19" stroke="#131313"></path>
                                    <path d="M304,153.598097 L350.5,124.5" id="Path-19" stroke="#131313"></path>
                                    <path d="M304,135.598097 L339.5,114.5" id="Path-19" stroke="#131313"></path>
                                    <path d="M304,122.598097 L331.5,107.5" id="Path-19" stroke="#131313"></path>
                                    <path d="M303,207.598097 L393.5,153.5" id="Path-19" stroke="#131313"></path>
                                    <path d="M303,192.598097 L381.5,146.5" id="Path-19" stroke="#131313"></path>
                                    <path d="M304,164.598097 L358.5,130.5" id="Path-19" stroke="#131313"></path>
                                    <path d="M303,186.598097 L374.5,142.5" id="Path-19" stroke="#131313"></path>
                                    <path d="M303,219.598097 L404.5,159.5" id="Path-19" stroke="#131313"></path>
                                    <path d="M302.717823,224.740531 L411.5,162.5" id="Path-19" stroke="#131313"></path>
                                    <path d="M302.690453,231.41237 L418.5,164.5" id="Path-19" stroke="#131313"></path>
                                    <path d="M303,239.598097 L425.5,167.5" id="Path-19" stroke="#131313"></path>
                                    <path d="M303,244.598097 L435.5,170.5" id="Path-19" stroke="#131313"></path>
                                    <path d="M304,213.598097 L398.5,156.5" id="Path-19" stroke="#131313"></path>
                                    <path d="M303,200.598097 L385.5,150.5" id="Path-19" stroke="#131313"></path>
                                    <path d="M304,146.598097 L346.5,121.5" id="Path-19" stroke="#131313"></path>
                                    <path d="M304,128.598097 L335.5,110.5" id="Path-19" stroke="#131313"></path>
                                    <path d="M213,207.463745 L302.667276,153.401903" id="Path-19" stroke="#282828" transform="translate(257.833638, 180.432824) scale(1, -1) translate(-257.833638, -180.432824) "></path>
                                    <path d="M225.5,192.535741 L302.877646,147.5" id="Path-19" stroke="#282828" transform="translate(264.188823, 170.017870) scale(1, -1) translate(-264.188823, -170.017870) "></path>
                                    <path d="M249.5,164.5 L302.5,131.5" id="Path-19" stroke="#282828" transform="translate(276.000000, 148.000000) scale(1, -1) translate(-276.000000, -148.000000) "></path>
                                    <path d="M232,186.598097 L303.5,142.5" id="Path-19" stroke="#282828" transform="translate(268.000000, 164.500000) scale(1, -1) translate(-268.000000, -164.500000) "></path>
                                    <path d="M202,219.447899 L302.535202,159.401903" id="Path-19" stroke="#282828" transform="translate(252.267601, 189.424901) scale(1, -1) translate(-252.267601, -189.424901) "></path>
                                    <path d="M195,224.548476 L302.4093,162.401903" id="Path-19" stroke="#282828" transform="translate(248.704650, 193.475189) scale(1, -1) translate(-248.704650, -193.475189) "></path>
                                    <path d="M188,231.328281 L302.369585,164.401903" id="Path-19" stroke="#282828" transform="translate(245.184792, 197.865092) scale(1, -1) translate(-245.184792, -197.865092) "></path>
                                    <path d="M181,239.366084 L302.270473,167.401903" id="Path-19" stroke="#282828" transform="translate(241.635237, 203.383993) scale(1, -1) translate(-241.635237, -203.383993) "></path>
                                    <path d="M171,244.429515 L302.311325,170.401903" id="Path-19" stroke="#282828" transform="translate(236.655663, 207.415709) scale(1, -1) translate(-236.655663, -207.415709) "></path>
                                    <path d="M208,213.598097 L302.5,156.5" id="Path-19" stroke="#282828" transform="translate(255.500000, 185.000000) scale(1, -1) translate(-255.500000, -185.000000) "></path>
                                    <path d="M221,200.406848 L302.750409,150.401903" id="Path-19" stroke="#282828" transform="translate(261.875204, 175.404375) scale(1, -1) translate(-261.875204, -175.404375) "></path>
                                    <path d="M261.5,146.5 L302.5,121.5" id="Path-19" stroke="#282828" transform="translate(282.000000, 134.000000) scale(1, -1) translate(-282.000000, -134.000000) "></path>
                                    <path d="M272.5,128.5 L302.5,111.5" id="Path-19" stroke="#282828" transform="translate(287.500000, 120.000000) scale(1, -1) translate(-287.500000, -120.000000) "></path>
                                    <path d="M282.424452,110.598097 L303,99" id="Path-19" stroke="#282828" transform="translate(292.712226, 104.799048) scale(1, -1) translate(-292.712226, -104.799048) "></path>
                                    <path d="M278.5,116.5 L302.5,104.5" id="Path-19" stroke="#282828" transform="translate(290.500000, 110.500000) scale(1, -1) translate(-290.500000, -110.500000) "></path>
                                    <path d="M275.5,122.5 L302.5,107.5" id="Path-19" stroke="#282828" transform="translate(289.000000, 115.000000) scale(1, -1) translate(-289.000000, -115.000000) "></path>
                                    <path d="M264.5,140.5 L302.5,118.5" id="Path-19" stroke="#282828" transform="translate(283.500000, 129.500000) scale(1, -1) translate(-283.500000, -129.500000) "></path>
                                    <path d="M252.5,158.5 L303.5,129.5" id="Path-19" stroke="#282828" transform="translate(278.000000, 144.000000) scale(1, -1) translate(-278.000000, -144.000000) "></path>
                                    <path d="M238,179.598097 L303.5,138.5" id="Path-19" stroke="#282828" transform="translate(271.000000, 159.000000) scale(1, -1) translate(-271.000000, -159.000000) "></path>
                                    <path d="M244.5,170.5 L302.5,134.5" id="Path-19" stroke="#282828" transform="translate(273.500000, 152.500000) scale(1, -1) translate(-273.500000, -152.500000) "></path>
                                    <path d="M256.5,153.5 L302.5,125.5" id="Path-19" stroke="#282828" transform="translate(279.500000, 139.500000) scale(1, -1) translate(-279.500000, -139.500000) "></path>
                                    <path d="M268.5,135.5 L302.5,115.5" id="Path-19" stroke="#282828" transform="translate(285.500000, 125.500000) scale(1, -1) translate(-285.500000, -125.500000) "></path>
                                    <polygon id="Path-20" fill="#BF1A1A" points="301.871617 250.068561 302.138446 319.751585 404.900952 261.748614 404.24172 192.736055"></polygon>
                                    <polygon id="Path-21" stroke="#792525" fill="#962121" points="309.41373 282.932781 310.205284 313.907178 352.801814 290.830096 351.603787 260.083895"></polygon>
                                    <polygon id="Path-22" stroke="#792525" fill="#962121" points="358.807006 255.203835 359.739597 285.679845 401.744245 262.726369 400.0201 232.180632"></polygon>
                                    <polygon id="Path-23" fill="#6A5555" points="310.634537 249.98604 310.634537 273.601709 353.024578 249.98604 352.279682 228.788894"></polygon>
                                    <polygon id="Path-24" fill="#6A5555" points="359.641055 223.668928 359.641055 244.953039 400.969438 222.024539 401.027699 200.521132"></polygon>
                                    <path d="M354.679501,221.007721 L356.076201,289.140042" id="Path-26" stroke="#A91717" stroke-width="2"></path>
                                    <polygon id="Path-29" fill="#CE2424" points="199.930177 191.143119 200.114872 262.542444 302.257424 319.769793 302.257424 250.032031"></polygon>
                                    <path d="M250.522653,221.244887 L247.930672,288.597217" id="Path-30" stroke="#A91717" stroke-width="2"></path>
                                    <polygon id="Path-31" fill="#CAC8C8" points="204.345949 200.024615 203.809945 221.927296 245.536131 245.696112 245.694215 223.881735"></polygon>
                                    <polygon id="Path-32" fill="#CAC8C8" points="253.838019 228.92993 253.289047 251.161747 294.32979 274.224124 295.90505 250.018944"></polygon>
                                    <polygon id="Path-33" stroke="#8C2B2B" fill="#A22727" points="253.453924 261.6799 253.453924 287.583469 293.74562 310.742179 294.843563 282.524159"></polygon>
                                    <polygon id="Path-34" stroke="#8C2B2B" fill="#A22727" points="204.890599 232.328121 204.348419 260.956789 244.620972 282.25554 245.589238 255.706666"></polygon>
                                    <polyline id="Path-25" stroke="#A91717" stroke-width="2" points="200.742125 225.771334 302.53659 282.305871 404.423432 225.356074"></polyline>
                                    <path d="M302.235113,319.516292 L300.738978,379.944448 L463.11513,284.550802 C463.11513,284.550802 438.643733,275.2429 426.392711,269.708971 C414.141689,264.175043 404.94076,258.272765 404.94076,258.272765 L404.877321,261.759641 L302.235113,319.516292 Z" id="Path-35" fill="#1D1D1D"></path>
                                    <path d="M302.253595,319.384579 L301.025494,379.947488 L141.027815,285.558277 C141.027815,285.558277 164.02029,276.348736 174.790261,271.109313 C185.560232,265.86989 200.506577,256.622785 200.506577,256.622785 L200.560635,262.4211 L302.253595,319.384579 Z" id="Path-36" fill="#363636"></path>
                                    <path d="M302.281199,324.686378 L411.033765,262.509373" id="Path-37" stroke="#131313"></path>
                                    <path d="M303,333.177005 L418.5,266.5" id="Path-37" stroke="#131313"></path>
                                    <path d="M302,341.177005 L425.5,270.5" id="Path-37" stroke="#131313"></path>
                                    <path d="M302,366.177005 L449.5,282.5" id="Path-37" stroke="#131313"></path>
                                    <path d="M302,373.177005 L455.5,285.5" id="Path-37" stroke="#131313"></path>
                                    <path d="M302,357.177005 L442.5,279.5" id="Path-37" stroke="#131313"></path>
                                    <path d="M302,349.177005 L433.5,274.5" id="Path-37" stroke="#131313"></path>
                                    <g id="Group-20" transform="translate(225.281199, 319.000000) scale(-1, 1) translate(-225.281199, -319.000000) translate(148.281199, 264.000000)" stroke="#282828">
                                        <path d="M0.721929745,85.3358466 L131.524578,11.5" id="Path-37"></path>
                                        <path d="M0.733770552,60.6131524 L108.777144,0" id="Path-37"></path>
                                        <path d="M0.664091957,69.1028592 L116.524578,3.5" id="Path-37"></path>
                                        <path d="M0.516233674,77.2547994 L123.524578,7.5" id="Path-37"></path>
                                        <path d="M1.37287052,102.258637 L147.524578,19.5" id="Path-37"></path>
                                        <path d="M1.36740553,109.226193 L153.524578,22.5" id="Path-37"></path>
                                        <path d="M1.008538,93.3494923 L140.524578,16.5" id="Path-37"></path>
                                    </g>
                                    <polygon id="Path-58" fill="#EBD5AE" points="205.219544 351.596697 167.226372 368.723008 299.592231 442.834427 299.866665 426.218627 205.219544 371.915754"></polygon>
                                    <polygon id="Path-38" fill="#B71818" points="161.338678 297.538246 160.912042 375.959023 165.015941 377.442706 166.74417 300.575528"></polygon>
                                    <polygon id="Path-39" fill="#A82121" points="161.44586 352.935017 301.020888 432.327811 299.997502 437.817463 161.206129 358.10619"></polygon>
                                    <polygon id="Path-40" fill="#A82121" points="160.949421 375.810036 300.778406 456.233994 302.035005 444.236844 160.949421 363.811809"></polygon>
                                    <polygon id="Path-41" fill="#E63939" points="300.4268 380.199361 299.421133 454.633552 302.86632 457.818494 302.86632 455.959867 304.533492 377.657273 301.654626 379.357691"></polygon>
                                    <polygon id="Path-42" fill="#961E1E" points="189.144585 368.624846 188.384919 391.494001 193.344778 394.313203 195.284719 372.254304"></polygon>
                                    <polygon id="Path-43" fill="#961E1E" points="230.017858 391.997689 229.080324 414.942873 235.493684 418.661493 236.577706 395.688334"></polygon>
                                    <polygon id="Path-44" fill="#961E1E" points="273.385427 416.659202 272.700174 439.982738 278.212881 443.172571 279.130653 419.958817"></polygon>
                                    <polygon id="Path-46" fill="#CE2424" points="205.188213 323.442191 205.188213 372.15841 300.069849 427.222125 300.972763 379.81704"></polygon>
                                    <polygon id="Path-47" fill="#BF1A1A" points="304.535253 377.651133 303.490256 426.841734 347.700251 400.932875 400.057247 371.307595 399.259048 322.040426"></polygon>
                                    <polygon id="Path-48" fill="#B58484" points="207.704908 330.051998 207.542741 346.897316 231.44141 360.058347 232.460571 344.486677"></polygon>
                                    <polygon id="Path-49" fill="#B52020" points="235.741641 341.450858 234.628911 389.078314 272.477602 411.278475 274.50232 364.445204"></polygon>
                                    <polygon id="Path-50" fill="#B58484" points="274.970174 366.188501 274.970174 383.615069 297.592765 396.106782 299.64445 380.420927"></polygon>
                                    <polygon id="Path-51" fill="#B3B3B3" points="238.442277 344.835392 237.194579 365.317254 250.023417 371.713091 251.313812 351.644757"></polygon>
                                    <polygon id="Path-52" fill="#B3B3B3" points="256.039726 354.984603 256.250839 375.921899 269.448135 382.42527 269.712223 362.621023"></polygon>
                                    <polygon id="Path-53" fill="#6E5A5A" points="304.737178 395.973126 330.525669 383.138305 329.766326 365.306194 305.321452 378.520331"></polygon>
                                    <polygon id="Path-54" fill="#A51818" points="332.898349 361.996966 332.898349 407.910542 371.26831 387.279465 370.691864 339.546169"></polygon>
                                    <polygon id="Path-55" fill="#6E5A5A" points="372.572075 342.919447 372.389889 361.298826 398.661598 346.588775 397.405463 328.855154"></polygon>
                                    <polygon id="Path-56" fill="#898888" points="335.525093 360.519556 335.778445 382.694939 349.87789 374.786953 348.739231 353.221464"></polygon>
                                    <polygon id="Path-57" fill="#898888" points="353.246185 350.359871 353.444027 371.854194 367.394735 365.084867 367.014707 342.593505"></polygon>
                                    <polygon id="Path-59" fill="#C8A485" points="303.455459 426.54301 399.893764 371.124399 399.637105 353.121629 403.070734 352.885411 438.352741 375.878527 302.946439 456.856315"></polygon>
                                    <polygon id="Path-60" fill="#BD3636" points="164.666688 349.901817 205.085969 328.691441 205.190232 331.361896 165.071273 352.702997"></polygon>
                                    <polygon id="Path-61" fill="#B71818" points="164.879091 352.70751 164.879091 355.173858 205.179418 333.760147 205.179418 331.274329"></polygon>
                                    <polygon id="Path-62" fill="#A71515" points="188.152095 342.326396 188.645494 359.482455 192.214681 357.691489 192.054117 340.541833"></polygon>
                                    <polygon id="Path-63" fill="#B22A2A" points="186.91645 343.29308 187.43147 349.109053 170.375108 358.24347 173.472371 359.787109 188.617208 351.492223 188.530083 342.142815"></polygon>
                                    <polygon id="Path-64" fill="#B22A2A" points="192.042896 340.579532 193.458593 339.944113 193.806261 346.184678 206.474739 339.944113 206.474739 342.166485 191.935621 350.040292"></polygon>
                                    <polygon id="Path-65" fill="#A71515" points="198.987719 346.139039 199.277507 354.649269 202.21115 353.209271 201.6993 344.751545"></polygon>
                                    <polygon id="Path-68" fill="#BB2A2A" points="188.657773 351.402335 187.672145 352.001621 188.164959 359.233339 188.657773 359.398635"></polygon>
                                    <polygon id="Path-66" fill="#A71515" points="178.941922 356.694749 179.336637 363.407017 183.029887 361.738258 183.029887 354.412402"></polygon>
                                    <polygon id="Path-67" fill="#A71515" points="165.008689 354.838574 164.859149 366.364793 168.695275 368.256729 168.280321 353.314858"></polygon>
                                    <polygon id="Path-68" fill="#BB2A2A" points="198.940126 345.413775 198.459267 345.616143 198.643231 354.561916 199.30264 354.625021"></polygon>
                                    <polygon id="Path-69" fill="#BA2727" points="179.027525 356.673758 178.391594 357.046101 179.32704 363.360084"></polygon>
                                    <polygon id="Path-70" fill="#B71818" points="438.561772 299.243882 438.312499 377.53313 443.270564 376.894126 443.722919 295.966252"></polygon>
                                    <polygon id="Path-71" fill="#9C2020" points="303.269516 432.104846 438.372407 357.075851 438.462213 360.921193 303.133815 438.281889"></polygon>
                                    <polygon id="Path-72" fill="#8E1313" points="303.063137 443.156248 438.597321 367.273164 438.869892 377.536384 302.6753 457.896478"></polygon>
                                    <polygon id="Path-73" fill="#821818" points="327.422923 423.51596 327.325522 442.960983 332.378295 439.476463 332.178023 420.723638"></polygon>
                                    <polygon id="Path-74" fill="#AB3131" points="327.452814 423.549716 325.586689 424.662094 325.586689 443.235342 327.452814 442.931286"></polygon>
                                    <polygon id="Path-75" fill="#821818" points="371.050289 398.760437 371.702278 417.203087 375.11034 415.411704 374.203784 397.047705"></polygon>
                                    <polygon id="Path-76" fill="#AB3131" points="371.131292 398.846555 369.327576 399.929303 369.727643 418.405 371.660962 417.165716"></polygon>
                                    <polygon id="Path-77" fill="#821818" points="411.859787 375.809702 411.490518 393.611434 417.249014 390.494256 416.500952 373.135166"></polygon>
                                    <polygon id="Path-78" fill="#AB3131" points="411.86721 375.808732 409.604948 377.091309 410.402341 394.380209 411.86721 393.487398"></polygon>
                                    <polygon id="Path-81" fill="#BE2020" points="399.3514 328.009138 438.634756 350.432344 438.634756 352.792272 399.379639 330.331858"></polygon>
                                    <polygon id="Path-82" fill="#9D1818" points="399.395396 330.323417 399.421219 333.549662 438.447846 354.582022 438.447846 352.570512"></polygon>
                                    <polygon id="Path-83" fill="#8F2424" points="411.867446 340.248182 411.055642 358.439607 417.507373 362.426602 418.125217 343.534483"></polygon>
                                    <path d="M303.136319,456.87928 L301.530025,541.769742 L530.304645,408.63871 L510.331614,401.429639 C493.703728,395.427965 467.99936,383.092945 452.920854,373.879549 L443.434699,368.083238 L438.970677,377.389171 L303.136319,456.87928 Z" id="Path-80" fill="#1D1D1D"></path>
                                    <polygon id="Path-84" fill="#363636" points="303.176334 456.893512 301.998904 542.556051 77.2843826 410.891831 161.087834 371.054588 161.087834 375.794071"></polygon>
                                    <polygon id="Path-85" fill="#B71818" points="84.745221 415.258932 84.239836 520.898074 92.0175917 520.286727 92.2317752 419.643723"></polygon>
                                    <polygon id="Path-86" fill="#B71818" points="512.321358 418.888737 512.77408 519.939841 520.142007 520.553165 520.575009 414.226456"></polygon>
                                    <polygon id="Path-87" fill="#CE2424" points="120.330491 436.074395 118.657326 525.997301 298.536124 629.086869 302.820618 542.636659"></polygon>
                                    <polygon id="Path-88" fill="#BF1A1A" points="302.061217 541.387573 305.701765 629.062051 485.582819 524.264552 485.085303 435.01749"></polygon>
                                    <polygon id="Path-89" fill="#B61616" points="299.411523 541.111479 298.513562 647.610142 307.008096 645.805194 309.038661 539.146343 303.269598 541.528873"></polygon>
                                    <polygon id="Path-90" fill="#B58484" points="127.342186 455.512018 126.284942 488.655527 175.48136 516.267731 176.088852 484.251862"></polygon>
                                    <polygon id="Path-91" fill="#B58484" points="246.546572 524.441835 244.961541 556.572051 292.204095 584.168027 293.373006 551.170555"></polygon>
                                    <polygon id="Path-45" fill="#BE2020" points="399.460504 340.085495 411.856347 345.987961 411.856347 350.86127 406.757008 348.279598 406.677785 352.229985 411.428008 355.089608 411.084262 358.473352 403.076066 352.912553 399.757669 353.230786 399.605042 350.186311 402.841979 350.186311 402.841979 345.987961 399.605042 345.245148"></polygon>
                                    <polygon id="Path-79" fill="#BE2020" points="417.952438 349.958768 436.544527 358.197862 422.551563 365.941705 417.421988 362.392042 417.613787 358.893725 422.419329 360.913768 422.635372 356.808961 417.746391 355.025853"></polygon>
                                    <polygon id="Path-92" fill="#7B1616" points="438.441418 360.587387 425.403416 368.098767 431.468489 371.532809 438.441418 367.461266"></polygon>
                                    <path d="M303.49024,464.0018 L454.853428,376.199444" id="Path-93" stroke="#131313"></path>
                                    <path d="M303.931486,472.879627 L462.334351,379.970297" id="Path-94" stroke="#131313"></path>
                                    <path d="M303.457011,481.550234 L470.438873,384.397392" id="Path-95" stroke="#131313"></path>
                                    <path d="M303.198135,491.700878 L479.10058,388.179502" id="Path-96" stroke="#131313"></path>
                                    <path d="M303.011848,499.715723 L487.426849,392.409612" id="Path-97" stroke="#131313"></path>
                                    <path d="M302.674218,509.717562 L496.406763,396.156245" id="Path-98" stroke="#131313"></path>
                                    <path d="M302.599703,519.007085 L506.056272,400.183458" id="Path-99" stroke="#131313"></path>
                                    <path d="M302.696691,527.223829 L515.147396,403.838766" id="Path-100" stroke="#131313"></path>
                                    <path d="M150.685787,377.35199 L302.97385,464.73051" id="Path-101" stroke="#282828"></path>
                                    <path d="M144.017784,379.320722 L302.561152,473.743785" id="Path-102" stroke="#282828"></path>
                                    <path d="M137.092935,383.190857 L302.310525,481.609911" id="Path-103" stroke="#282828"></path>
                                    <path d="M128.810298,388.377636 L302.928964,491.942396" id="Path-104" stroke="#282828"></path>
                                    <path d="M120.129925,390.898709 L302.089459,499.767897" id="Path-105" stroke="#282828"></path>
                                    <path d="M112.711118,394.560086 L302.243637,509.608131" id="Path-106" stroke="#282828"></path>
                                    <path d="M103.850778,398.62528 L302.120962,519.095056" id="Path-107" stroke="#282828"></path>
                                    <path d="M95.3490789,402.581638 L301.842499,527.195302" id="Path-108" stroke="#282828"></path>
                                    <path d="M82.7903313,408.849132 L300.281961,535.847979" id="Path-109" stroke="#282828"></path>
                                    <polygon id="Path-110" fill="#A22727" points="127.999266 494.799849 127.130221 526.499745 174.74772 552.679884 175.863668 521.426367"></polygon>
                                    <polygon id="Path-111" fill="#A22727" points="246.228669 560.877497 244.979115 594.176097 294.418536 621.042145 294.404322 590.495923"></polygon>
                                    <polygon id="Path-112" fill="#B21F1F" points="182.56874 562.941166 182.956052 485.771725 238.95242 517.281831 238.565107 593.528686"></polygon>
                                    <polygon id="Path-113" fill="#C3C3C3" points="187.789478 494.169294 207.163797 506.16147 206.730065 538.466509 187.016303 526.77751"></polygon>
                                    <polygon id="Path-113" fill="#764444" points="187.789478 530 207.163797 541.992176 206.730065 574.297215 187.016303 562.608216"></polygon>
                                    <polygon id="Path-113" fill="#764444" points="214.084329 544.975814 233.501196 556.144514 232.713762 587.297215 214.084329 576.451584"></polygon>
                                    <polygon id="Path-113" fill="#C3C3C3" points="213.773174 508 233.147494 519.992176 232.713762 552.297215 213 540.608216"></polygon>
                                    <polygon id="Path-114" fill="#5F5555" points="312.534494 549.977018 311.69046 583.994715 357.798284 558.57891 357.522984 524.709577"></polygon>
                                    <polygon id="Path-115" fill="#5F5555" points="428.711966 484.064895 429.013643 515.976629 477.886007 488.727688 477.721981 455.563915"></polygon>
                                    <polygon id="Path-116" fill="#962121" points="312.692752 588.691986 313.359589 619.767708 357.278913 593.780865 357.82463 562.826817"></polygon>
                                    <polygon id="Path-117" fill="#962121" points="430.316813 520.315272 429.418718 551.267468 479.052941 523.685197 479.696506 493.125142"></polygon>
                                    <polygon id="Path-118" fill="#A11717" points="366.519695 593.481432 365.50245 518.19811 421.856768 485.259873 423.154112 561.179391"></polygon>
                                    <polygon id="Path-119" fill="#6B6B6B" points="371.33571 556.863289 370.725899 587.873708 390.818413 577.563327 390.954096 545.52004"></polygon>
                                    <polygon id="Path-120" fill="#6B6B6B" points="397.180267 540.004298 397.627716 571.828053 417.939762 561.341589 416.922902 530.008732"></polygon>
                                    <polygon id="Path-121" fill="#B9B8B8" points="370.12676 520.015452 369.856156 552.244732 390.506647 541.614962 391.124843 510.214263"></polygon>
                                    <polygon id="Path-122" fill="#B9B8B8" points="398.670493 504.801427 398.288599 535.811847 417.779687 525.636386 417.576162 494.423204"></polygon>
                                    <g id="Group-22">
                                        <path d="M0.908015763,345.622064 L0.908015763,351.253112 C0.908015763,353.46297 2.57214302,355.925066 4.62689609,356.745028 C4.62689609,356.745028 6.71270434,357.606718 7.83594363,357.973314 C8.95918292,358.33991 11.7264227,358.904097 11.7264227,358.904097 C15.4568093,359.722236 21.4969279,359.63883 25.202702,358.721443 L26.9331005,358.293073 C30.6454575,357.374057 33.6549175,353.523603 33.6549175,349.716087 L33.6549175,346.088696 L0.908015763,345.622064 Z" id="Path-125" fill="#171717"></path>
                                        <polygon id="Path-123" fill="#F1EBEB" points="20.6440971 82.4862715 19.176237 192.624898 163.635671 108.801641 163.873437 0.692866916"></polygon>
                                        <ellipse id="Oval-4" fill="#DC3232" transform="translate(90.677210, 96.088705) rotate(22.000000) translate(-90.677210, -96.088705) " cx="90.6772103" cy="96.0887049" rx="26.5" ry="39.5"></ellipse>
                                        <ellipse id="Oval-5" fill="#363535" cx="17" cy="345" rx="16" ry="11"></ellipse>
                                        <path d="M20.404956,82.9338065 L19.5144467,342.182181 C19.5087739,343.833646 18.1648254,345.121639 16.5103372,345.058904 L17.2298226,345.086185 C15.4621219,345.019158 14.0289754,343.537512 14.0287981,341.754803 L14.003633,88.7300509 C14.0034567,86.9572067 15.3297382,84.9841647 16.979242,84.3177749 L20.404956,82.9338065 Z" id="Path-124" fill="#171717"></path>
                                    </g>
                                    <g id="Group-23" transform="translate(424.000000, 172.000000)">
                                        <ellipse id="Oval-6" fill="url(#radialGradient-2)" cx="14.3888889" cy="29.478022" rx="13.6111111" ry="14.0384615"></ellipse>
                                        <path d="M15.0045258,14.6842623 L17.869498,18.4727675 C17.869498,18.4727675 19.3339849,21.2382622 20.118412,22.6391865 C20.9028391,24.0401108 21.8174104,26.6351908 21.8174104,26.6351908 C22.5510978,28.5714716 22.721826,31.7690648 22.18938,33.757669 C22.18938,33.757669 21.6109461,36.1305737 21.1769656,37.1309965 C20.7429851,38.1314192 17.3989063,43.3891802 17.3989063,43.3891802" id="Path-126" stroke="#C22B2B"></path>
                                        <path d="M13.3811175,14.8808301 L12.2002561,16.4838938 C12.2002561,16.4838938 9.456197,20.2531541 8.38949946,22.4496748 C7.32280193,24.6461955 7.03457602,25.9455636 7.03457602,25.9455636 C6.45680127,27.7844538 6.20843765,30.8340059 6.49152469,32.7452214 C6.49152469,32.7452214 6.78755814,35.1078903 7.11337006,36.2241153 C7.43918199,37.3403403 9.98744659,42.975744 9.98744659,42.975744" id="Path-127" stroke="#C22B2B"></path>
                                        <path d="M5.71609616,18.9736535 C5.71609616,18.9736535 7.9945865,19.6174299 9.76229888,19.9093264 C11.5300113,20.2012229 13.569673,20.192071 13.569673,20.192071 C13.9052891,20.196064 14.4426174,20.1956919 14.7816483,20.1897809 C14.7816483,20.1897809 18.1399179,20.1587998 19.5196323,19.9093264 C20.8993468,19.659853 23.5144879,18.9736535 23.5144879,18.9736535" id="Path-129" stroke-opacity="0.336871603" stroke="#C22B2B" stroke-width="0.5"></path>
                                        <path d="M2.44151522,22.3811513 C2.44151522,22.3811513 2.91595783,22.4520358 4.10673628,22.8542451 C5.31268885,23.2615798 6.78287657,23.7253451 7.81562071,23.942058 C9.86811429,24.3727568 13.2223979,24.6087118 13.2223979,24.6087118 C13.8448353,24.6590615 14.860159,24.6503399 15.4827993,24.5888061 C15.4827993,24.5888061 19.3437667,24.2232551 21.1694714,23.942058 C22.9951761,23.6608608 26.5322124,23.0069468 26.5322124,23.0069468" id="Path-130" stroke-opacity="0.336871603" stroke="#C22B2B" stroke-width="0.5"></path>
                                        <path d="M0.775489811,27.5862485 C0.775489811,27.5862485 1.09344986,27.8427366 2.24939683,28.1777962 C3.8633337,28.6456074 6.11022859,29.2665844 7.61137586,29.5564851 C10.187687,30.0540208 13.285386,30.2547542 13.285386,30.2547542 C14.0288172,30.3135631 15.2222634,30.2650777 15.9595451,30.1428684 C15.9595451,30.1428684 19.3264421,29.6082254 20.7673338,29.2427666 C22.2082255,28.8773078 27.8912733,27.5862485 27.8912733,27.5862485" id="Path-131" stroke-opacity="0.336871603" stroke="#C22B2B" stroke-width="0.5"></path>
                                        <path d="M1.38355114,32.8195897 C2.89153237,33.2980105 6.17921014,34.3077623 8.20618989,34.6827199 C10.902904,35.1815674 14.1152886,35.2480515 14.1152886,35.2480515 C14.804073,35.2743697 15.9239379,35.2167035 16.6121145,35.1184627 C16.6121145,35.1184627 19.82408,34.67534 21.2007619,34.3951925 C22.5774439,34.1150449 27.8374798,32.9926628 27.8374798,32.9926628" id="Path-132" stroke-opacity="0.336871603" stroke="#C22B2B" stroke-width="0.5"></path>
                                        <path d="M4.11062557,37.9014061 C4.11062557,37.9014061 2.92393909,37.6551123 3.84986818,37.9014061 C5.21679808,38.2650045 7.16533058,38.7504843 8.43359366,38.9252808 C10.560951,39.2184808 14.4117479,39.2479854 14.4117479,39.2479854 C14.9027531,39.2553937 15.6997729,39.2522554 16.1938638,39.239007 C16.1938638,39.239007 19.6776244,39.1758324 21.3851469,38.9252808 C23.0926694,38.6747293 25.8079147,37.4647428 25.8079147,37.4647428" id="Path-128" stroke-opacity="0.336871603" stroke="#C22B2B" stroke-width="0.5"></path>
                                        <path d="M7.21393099,40.6156495 C7.21393099,40.6156495 6.70158364,41.5302934 7.91820086,41.7477341 C8.69082346,41.8858216 9.44640886,42.3945275 10.0481812,42.4449269 C11.5975398,42.5746883 13.8592877,42.475114 13.8592877,42.475114 C14.3767825,42.4584422 15.2270785,42.4580274 15.7487552,42.4711017 C15.7487552,42.4711017 17.7892066,42.5487581 18.9257167,42.4449269 C20.0622269,42.3410957 21.9670585,41.3101431 21.9670585,41.3101431" id="Path-133" stroke-opacity="0.336871603" stroke="#C22B2B" stroke-width="0.5"></path>
                                        <path d="M7.60617375,41.6794804 C7.60617375,41.6794804 12.1188915,43.4438463 14.3573908,43.473317 C16.5958902,43.5027877 21.1663524,41.6794804 21.1663524,41.6794804 L21.1663524,45.2940751 C21.1663524,45.2940751 19.0744899,45.7333923 18.1034381,45.8532481 C17.1323863,45.973104 16.5307928,45.9920316 16.5307928,45.9920316 C15.330456,46.0707134 13.3928537,46.0273829 12.193433,45.8876287 C12.193433,45.8876287 10.8123984,45.7524506 9.93847544,45.5747644 C9.06455247,45.3970782 7.60617375,44.7618389 7.60617375,44.7618389 L7.60617375,41.6794804 Z" id="Path-134" fill="#1C1C1C"></path>
                                        <polygon id="Path-135" fill="#323131" points="14.2226046 1.48119454 13.7977918 13.2861285 12.209789 15.6997001 16.2354203 15.6997001 14.8651773 13.2234418 15.0984767 0.981547589"></polygon>
                                        <polygon id="Path-136" fill="#702626" points="13.8966049 45.8606577 13.8966049 62.4724556 15.0733005 62.4724556 15.0733005 45.8606577"></polygon>
                                        <ellipse id="Oval-7" fill="#D0A77E" cx="14.7777778" cy="51.5384615" rx="1.55555556" ry="1.6043956"></ellipse>
                                        <ellipse id="Oval-7" fill="#D0A77E" cx="14.7777778" cy="58.7582418" rx="1.55555556" ry="1.6043956"></ellipse>
                                        <polygon id="Path-137" fill="#A64242" points="13.2708541 62.2000089 13.2708541 68.9976336 12.303926 73.0021208 14.277072 69.2419185 14.277072 71.8241958 14.8690824 66.1761082 14.770525 73.7910673 15.5172528 69.9624103 17.2504427 73.3066184 16.6244699 70.2392055 15.323065 62.2000089"></polygon>
                                    </g>
                                    <g id="Group-23" transform="translate(282.000000, 379.000000)">
                                        <circle id="Oval-6" fill="url(#radialGradient-1)" cx="18.5" cy="35.5" r="17.5"></circle>
                                        <path d="M19.2915332,17.0584639 L21.8437492,22.6209796 L25.6404239,32.8624693 C26.3101285,34.6689905 26.4472875,37.6456426 25.9512203,39.494448 L22.3700223,52.8413069" id="Path-126" stroke="#C22B2B"></path>
                                        <path d="M17.2042939,17.3035005 L15.6860436,19.3018402 L9.6327437,31.3872189 C8.56498751,33.518988 8.25452682,37.0910861 8.94403868,39.3814292 L12.8410028,52.3259275" id="Path-127" stroke="#C22B2B"></path>
                                        <path d="M7.3492665,22.4055132 C7.3492665,22.4055132 10.2787541,23.2080291 12.5515271,23.5719 C14.8243002,23.935771 17.4656276,23.9247218 17.4656276,23.9247218 C17.886693,23.9295009 18.5690795,23.9288761 18.9819823,23.9219341 C18.9819823,23.9219341 23.3227515,23.8828874 25.0966701,23.5719 C26.8705887,23.2609127 30.232913,22.4055132 30.232913,22.4055132" id="Path-129" stroke-opacity="0.336871603" stroke="#C22B2B" stroke-width="0.5"></path>
                                        <path d="M3.13909099,26.653216 C3.13909099,26.653216 3.74908864,26.7415788 5.2800895,27.2429631 C6.83059995,27.7507365 8.72084131,28.3288549 10.0486552,28.5990038 C12.6875755,29.1359024 17.0483764,29.4340507 17.0483764,29.4340507 C17.8220602,29.4945992 19.0814168,29.4842561 19.855584,29.410139 C19.855584,29.410139 24.8705571,28.9495372 27.2178918,28.5990038 C29.5652264,28.2484703 34.1128445,27.4333173 34.1128445,27.4333173" id="Path-130" stroke-opacity="0.336871603" stroke="#C22B2B" stroke-width="0.5"></path>
                                        <path d="M0.997058328,33.1417618 C0.997058328,33.1417618 1.4058641,33.4614936 2.89208164,33.8791706 C4.96714333,34.4623325 7.85600819,35.2364271 9.78605468,35.5978102 C13.0984547,36.218026 17.1335027,36.4725921 17.1335027,36.4725921 C18.0604626,36.5435067 19.546439,36.4851108 20.4681321,36.3370941 C20.4681321,36.3370941 24.8482827,35.6623084 26.7008577,35.2067364 C28.5534327,34.7511645 35.8602086,33.1417618 35.8602086,33.1417618" id="Path-131" stroke-opacity="0.336871603" stroke="#C22B2B" stroke-width="0.5"></path>
                                        <path d="M2.68199918,39.9804677 C2.68199918,39.9804677 1.13824166,39.4684634 1.77885147,39.6655159 C3.71768448,40.2619035 7.94469875,41.5206352 10.5508156,41.9880482 C14.0180194,42.609899 18.2162285,42.6958161 18.2162285,42.6958161 C19.064253,42.7269451 20.4263622,42.6601914 21.2777429,42.5424759 C21.2777429,42.5424759 25.4881028,41.9788485 27.2581225,41.6296235 C29.0281421,41.2803985 35.413123,39.8887496 35.413123,39.8887496" id="Path-132" stroke-opacity="0.336871603" stroke="#C22B2B" stroke-width="0.5"></path>
                                        <path d="M3.71682192,45.4560492 C3.71682192,45.4560492 3.75935026,45.6933592 4.94983052,46.0003829 C6.70731182,46.4536357 9.21256788,47.0588229 10.8431919,47.2767199 C13.5783656,47.6422158 18.5596767,47.6795479 18.5596767,47.6795479 C19.1742423,47.6884779 20.1649683,47.6848107 20.7777434,47.668991 C20.7777434,47.668991 25.2998029,47.5890513 27.4951889,47.2767199 C29.690575,46.9643885 32.6423734,45.4560492 32.6423734,45.4560492" id="Path-128" stroke-opacity="0.336871603" stroke="#C22B2B" stroke-width="0.5"></path>
                                        <path d="M7.76288411,49.8452023 C7.76288411,49.8452023 8.61632182,50.5240644 10.180544,50.7951206 C11.1739159,50.967257 12.1453828,51.6013973 12.9190901,51.664224 C14.9111227,51.8259813 18.0772101,51.6949213 18.0772101,51.6949213 C18.6000015,51.6779676 19.4478606,51.6769909 19.9820232,51.6907979 C19.9820232,51.6907979 22.871837,51.7936574 24.3330644,51.664224 C25.7942917,51.5347906 28.2433609,50.2496305 28.2433609,50.2496305" id="Path-133" stroke-opacity="0.336871603" stroke="#C22B2B" stroke-width="0.5"></path>
                                        <path d="M9.98443294,50.9203399 C9.98443294,50.9203399 15.5814319,52.9094523 18.4595025,52.9461897 C21.3375732,52.9829272 26.8017725,50.9203399 26.8017725,50.9203399 L27.2138817,55.2159018 C27.2138817,55.2159018 24.5243441,55.7635438 23.275849,55.9129531 C22.0273538,56.0623625 21.0639488,56.0993211 21.0639488,56.0993211 C19.6255528,56.1900232 17.2945492,56.1382781 15.8593161,55.9769294 C15.8593161,55.9769294 13.9016551,55.7873014 12.7780399,55.5658022 C11.6544246,55.344303 9.77936625,54.5524294 9.77936625,54.5524294 L9.98443294,50.9203399 Z" id="Path-134" fill="#1C1C1C"></path>
                                        <polygon id="Path-135" fill="#323131" points="18.2862059 0.507803906 17.740018 15.3155849 15.6983001 18.3242837 20.8741118 18.3242837 19.1123708 15.2374411 19.6020414 0.507803906"></polygon>
                                        <polygon id="Path-136" fill="#702626" points="18.0853128 55.9975105 17.8670634 76.6300473 19.3799578 76.6300473 19.0787312 55.9975105"></polygon>
                                        <circle id="Oval-7" fill="#D0A77E" cx="19" cy="63" r="2"></circle>
                                        <circle id="Oval-7" fill="#D0A77E" cx="19" cy="72" r="2"></circle>
                                        <polygon id="Path-137" fill="#A64242" points="17.6081792 76.5754746 17.0625267 84.7641734 15.8193334 89.7560684 18.3562355 85.068693 18.3562355 88.2876961 19.1173917 81.2469295 18.990675 90.7395496 19.9507536 85.9668402 22.1791406 90.1356476 21.3743185 86.3118863 19.7043734 76.5754746"></polygon>
                                    </g>
                                    <g id="Group-23" transform="translate(443.000000, 285.000000)">
                                        <circle id="Oval-6" fill="url(#radialGradient-1)" cx="18.5" cy="35.5" r="17.5"></circle>
                                        <path d="M19.2915332,17.0584639 L21.8437492,22.6209796 L25.6404239,32.8624693 C26.3101285,34.6689905 26.4472875,37.6456426 25.9512203,39.494448 L22.3700223,52.8413069" id="Path-126" stroke="#C22B2B"></path>
                                        <path d="M17.2042939,17.3035005 L15.6860436,19.3018402 L9.6327437,31.3872189 C8.56498751,33.518988 8.25452682,37.0910861 8.94403868,39.3814292 L12.8410028,52.3259275" id="Path-127" stroke="#C22B2B"></path>
                                        <path d="M7.3492665,22.4055132 C7.3492665,22.4055132 10.2787541,23.2080291 12.5515271,23.5719 C14.8243002,23.935771 17.4656276,23.9247218 17.4656276,23.9247218 C17.886693,23.9295009 18.5690795,23.9288761 18.9819823,23.9219341 C18.9819823,23.9219341 23.3227515,23.8828874 25.0966701,23.5719 C26.8705887,23.2609127 30.232913,22.4055132 30.232913,22.4055132" id="Path-129" stroke-opacity="0.336871603" stroke="#C22B2B" stroke-width="0.5"></path>
                                        <path d="M3.13909099,26.653216 C3.13909099,26.653216 3.74908864,26.7415788 5.2800895,27.2429631 C6.83059995,27.7507365 8.72084131,28.3288549 10.0486552,28.5990038 C12.6875755,29.1359024 17.0483764,29.4340507 17.0483764,29.4340507 C17.8220602,29.4945992 19.0814168,29.4842561 19.855584,29.410139 C19.855584,29.410139 24.8705571,28.9495372 27.2178918,28.5990038 C29.5652264,28.2484703 34.1128445,27.4333173 34.1128445,27.4333173" id="Path-130" stroke-opacity="0.336871603" stroke="#C22B2B" stroke-width="0.5"></path>
                                        <path d="M0.997058328,33.1417618 C0.997058328,33.1417618 1.4058641,33.4614936 2.89208164,33.8791706 C4.96714333,34.4623325 7.85600819,35.2364271 9.78605468,35.5978102 C13.0984547,36.218026 17.1335027,36.4725921 17.1335027,36.4725921 C18.0604626,36.5435067 19.546439,36.4851108 20.4681321,36.3370941 C20.4681321,36.3370941 24.8482827,35.6623084 26.7008577,35.2067364 C28.5534327,34.7511645 35.8602086,33.1417618 35.8602086,33.1417618" id="Path-131" stroke-opacity="0.336871603" stroke="#C22B2B" stroke-width="0.5"></path>
                                        <path d="M1.77885147,39.4770871 C1.77885147,39.4770871 1.13824166,39.4684634 1.77885147,39.6655159 C3.71768448,40.2619035 7.94469875,41.5206352 10.5508156,41.9880482 C14.0180194,42.609899 18.1482282,42.6927765 18.1482282,42.6927765 C19.0338082,42.7255842 20.4736344,42.6536989 21.3584329,42.5312344 C21.3584329,42.5312344 25.4881028,41.9788485 27.2581225,41.6296235 C29.0281421,41.2803985 35.1660366,39.960712 35.1660366,39.960712" id="Path-132" stroke-opacity="0.336871603" stroke="#C22B2B" stroke-width="0.5"></path>
                                        <path d="M4.26042513,45.2558315 C4.26042513,45.2558315 3.75935026,45.6933592 4.94983052,46.0003829 C6.70731182,46.4536357 9.21256788,47.0588229 10.8431919,47.2767199 C13.5783656,47.6422158 18.4678463,47.6778567 18.4678463,47.6778567 C19.1331284,47.6877207 20.2062391,47.6838146 20.8936426,47.6657621 C20.8936426,47.6657621 25.2998029,47.5890513 27.4951889,47.2767199 C29.690575,46.9643885 32.7651828,45.5100746 32.7651828,45.5100746" id="Path-128" stroke-opacity="0.336871603" stroke="#C22B2B" stroke-width="0.5"></path>
                                        <path d="M8.32640512,49.161596 C8.32640512,49.161596 8.61632182,50.5240644 10.180544,50.7951206 C11.1739159,50.967257 12.1453828,51.6013973 12.9190901,51.664224 C14.9111227,51.8259813 17.7322353,51.7040598 17.7322353,51.7040598 C18.445551,51.6820591 19.612355,51.6814837 20.3184051,51.6983519 C20.3184051,51.6983519 22.871837,51.7936574 24.3330644,51.664224 C24.9802649,51.6068959 25.8212546,51.3228439 26.5574049,51.0241535 C27.4833096,50.6484708 28.0872091,50.0057549 28.0872091,50.0057549" id="Path-133" stroke-opacity="0.336871603" stroke="#C22B2B" stroke-width="0.5"></path>
                                        <path d="M10.0858709,50.9775289 C10.0858709,50.9775289 15.5814319,52.9094523 18.4595025,52.9461897 C21.3375732,52.9829272 27.0334894,50.9775289 27.0334894,50.9775289 L27.2138817,55.2159018 C27.2138817,55.2159018 24.5243441,55.7635438 23.275849,55.9129531 C22.0273538,56.0623625 21.0386115,56.1010849 21.0386115,56.1010849 C19.6142089,56.1908129 17.3069214,56.1396345 15.8895536,55.9804207 C15.8895536,55.9804207 13.9016551,55.7873014 12.7780399,55.5658022 C11.6544246,55.344303 9.77936625,54.5524294 9.77936625,54.5524294 L10.0858709,50.9775289 Z" id="Path-134" fill="#1C1C1C"></path>
                                        <polygon id="Path-135" fill="#323131" points="18.2862059 0.637103227 17.740018 15.3155849 15.6983001 18.3242837 20.8741118 18.3242837 19.1123708 15.2374411 19.2433376 0.048470956"></polygon>
                                        <polygon id="Path-136" fill="#702626" points="17.8670634 56.0187237 17.8670634 76.6300473 19.3799578 76.6300473 19.3799578 56.0187237"></polygon>
                                        <circle id="Oval-7" fill="#D0A77E" cx="19" cy="63" r="2"></circle>
                                        <circle id="Oval-7" fill="#D0A77E" cx="19" cy="72" r="2"></circle>
                                        <polygon id="Path-137" fill="#A64242" points="17.5158756 76.3278007 17.0625267 84.7641734 15.8193334 89.7560684 18.3562355 85.068693 18.3562355 88.2876961 19.1173917 81.2469295 18.990675 90.7395496 19.9507536 85.9668402 22.1791406 90.1356476 21.3743185 86.3118863 19.4975628 76.3278007"></polygon>
                                    </g>
                                    <g id="Group-23" transform="translate(288.000000, 248.000000)">
                                        <ellipse id="Oval-6" fill="url(#radialGradient-2)" cx="14.3888889" cy="29.478022" rx="13.6111111" ry="14.0384615"></ellipse>
                                        <path d="M15.0045258,14.6842623 L17.869498,18.4727675 C17.869498,18.4727675 19.3339849,21.2382622 20.118412,22.6391865 C20.9028391,24.0401108 21.8174104,26.6351908 21.8174104,26.6351908 C22.5510978,28.5714716 22.721826,31.7690648 22.18938,33.757669 C22.18938,33.757669 21.6109461,36.1305737 21.1769656,37.1309965 C20.7429851,38.1314192 17.3989063,43.3891802 17.3989063,43.3891802" id="Path-126" stroke="#C22B2B"></path>
                                        <path d="M13.3811175,14.8808301 L12.2002561,16.4838938 C12.2002561,16.4838938 9.456197,20.2531541 8.38949946,22.4496748 C7.32280193,24.6461955 7.03457602,25.9455636 7.03457602,25.9455636 C6.45680127,27.7844538 6.20843765,30.8340059 6.49152469,32.7452214 C6.49152469,32.7452214 6.78755814,35.1078903 7.11337006,36.2241153 C7.43918199,37.3403403 9.98744659,42.975744 9.98744659,42.975744" id="Path-127" stroke="#C22B2B"></path>
                                        <path d="M5.71609616,18.9736535 C5.71609616,18.9736535 7.9945865,19.6174299 9.76229888,19.9093264 C11.5300113,20.2012229 13.569673,20.192071 13.569673,20.192071 C13.9052891,20.196064 14.4426174,20.1956919 14.7816483,20.1897809 C14.7816483,20.1897809 18.1399179,20.1587998 19.5196323,19.9093264 C20.8993468,19.659853 23.5144879,18.9736535 23.5144879,18.9736535" id="Path-129" stroke-opacity="0.336871603" stroke="#C22B2B" stroke-width="0.5"></path>
                                        <path d="M3.29514379,22.8542451 C3.29514379,22.8542451 2.91595783,22.4520358 4.10673628,22.8542451 C5.31268885,23.2615798 6.78287657,23.7253451 7.81562071,23.942058 C9.86811429,24.3727568 13.3692795,24.621268 13.3692795,24.621268 C13.9105964,24.664683 14.7858278,24.6576099 15.3277668,24.60423 C15.3277668,24.60423 19.3437667,24.2232551 21.1694714,23.942058 C22.9951761,23.6608608 26.5322124,23.0069468 26.5322124,23.0069468" id="Path-130" stroke-opacity="0.336871603" stroke="#C22B2B" stroke-width="0.5"></path>
                                        <path d="M0.775489811,27.5862485 C0.775489811,27.5862485 1.09344986,27.8427366 2.24939683,28.1777962 C3.8633337,28.6456074 6.11022859,29.2665844 7.61137586,29.5564851 C10.187687,30.0540208 13.285386,30.2547542 13.285386,30.2547542 C14.0288172,30.3135631 15.2222634,30.2650777 15.9595451,30.1428684 C15.9595451,30.1428684 19.3264421,29.6082254 20.7673338,29.2427666 C22.2082255,28.8773078 27.8912733,27.5862485 27.8912733,27.5862485" id="Path-131" stroke-opacity="0.336871603" stroke="#C22B2B" stroke-width="0.5"></path>
                                        <path d="M0.872207391,32.8195897 C0.872207391,32.8195897 0.885299072,32.6615146 1.38355114,32.8195897 C2.89153237,33.2980105 6.17921014,34.3077623 8.20618989,34.6827199 C10.902904,35.1815674 14.1152886,35.2480515 14.1152886,35.2480515 C14.804073,35.2743697 15.9239379,35.2167035 16.6121145,35.1184627 C16.6121145,35.1184627 19.82408,34.67534 21.2007619,34.3951925 C22.5774439,34.1150449 27.8374798,32.9926628 27.8374798,32.9926628" id="Path-132" stroke-opacity="0.336871603" stroke="#C22B2B" stroke-width="0.5"></path>
                                        <path d="M2.89086149,37.4647428 C2.89086149,37.4647428 2.92393909,37.6551123 3.84986818,37.9014061 C5.21679808,38.2650045 7.16533058,38.7504843 8.43359366,38.9252808 C10.560951,39.2184808 14.4117479,39.2479854 14.4117479,39.2479854 C14.9027531,39.2553937 15.6997729,39.2522554 16.1938638,39.239007 C16.1938638,39.239007 19.6776244,39.1758324 21.3851469,38.9252808 C23.0926694,38.6747293 25.8079147,37.4647428 25.8079147,37.4647428" id="Path-128" stroke-opacity="0.336871603" stroke="#C22B2B" stroke-width="0.5"></path>
                                        <path d="M6.03779875,40.9857118 C6.03779875,40.9857118 6.70158364,41.5302934 7.91820086,41.7477341 C8.69082346,41.8858216 9.44640886,42.3945275 10.0481812,42.4449269 C11.5975398,42.5746883 14.042563,42.4700548 14.042563,42.4700548 C14.4588376,42.4561771 15.1381092,42.455514 15.5581457,42.4666493 C15.5581457,42.4666493 17.7892066,42.5487581 18.9257167,42.4449269 C20.0622269,42.3410957 21.9670585,41.3101431 21.9670585,41.3101431" id="Path-133" stroke-opacity="0.336871603" stroke="#C22B2B" stroke-width="0.5"></path>
                                        <path d="M7.54842926,42.4715535 C7.54842926,42.4715535 12.1188915,43.4438463 14.3573908,43.473317 C16.5958902,43.5027877 21.1663524,42.4715535 21.1663524,42.4715535 L21.1663524,45.2940751 C21.1663524,45.2940751 19.0744899,45.7333923 18.1034381,45.8532481 C17.1323863,45.973104 16.137342,46.020159 16.137342,46.020159 C15.1543021,46.0833065 13.5643995,46.046764 12.5686376,45.9322325 C12.5686376,45.9322325 10.8123984,45.7524506 9.93847544,45.5747644 C9.06455247,45.3970782 7.60617375,44.7618389 7.60617375,44.7618389 L7.54842926,42.4715535 Z" id="Path-134" fill="#1C1C1C"></path>
                                        <polygon id="Path-135" fill="#323131" points="14.2226046 1.48119454 13.7977918 13.2861285 12.209789 15.6997001 16.2354203 15.6997001 14.8651773 13.2234418 15.0984767 0.981547589"></polygon>
                                        <polygon id="Path-136" fill="#702626" points="14.0895693 45.8900927 13.8966049 62.4724556 15.0733005 62.4724556 14.8522948 46.0182094"></polygon>
                                        <ellipse id="Oval-7" fill="#D0A77E" cx="14.7777778" cy="51.5384615" rx="1.55555556" ry="1.6043956"></ellipse>
                                        <ellipse id="Oval-7" fill="#D0A77E" cx="14.7777778" cy="58.7582418" rx="1.55555556" ry="1.6043956"></ellipse>
                                        <polygon id="Path-137" fill="#A64242" points="13.794645 62.1305258 13.2708541 68.9976336 12.303926 73.0021208 14.277072 69.2419185 14.277072 71.8241958 14.8690824 66.1761082 14.770525 73.7910673 15.5172528 69.9624103 17.2504427 73.3066184 16.6244699 70.2392055 15.3132377 62.303325"></polygon>
                                    </g>
                                    <g id="Group-23" transform="translate(153.391594, 171.500000)">
                                        <ellipse id="Oval-6" fill="url(#radialGradient-2)" cx="14.3888889" cy="29.478022" rx="13.6111111" ry="14.0384615"></ellipse>
                                        <path d="M15.0045258,14.6842623 L17.869498,18.4727675 C17.869498,18.4727675 19.3339849,21.2382622 20.118412,22.6391865 C20.9028391,24.0401108 21.8174104,26.6351908 21.8174104,26.6351908 C22.5510978,28.5714716 22.721826,31.7690648 22.18938,33.757669 C22.18938,33.757669 21.6109461,36.1305737 21.1769656,37.1309965 C20.7429851,38.1314192 17.3989063,43.3891802 17.3989063,43.3891802" id="Path-126" stroke="#C22B2B"></path>
                                        <path d="M13.3811175,14.8808301 L12.2002561,16.4838938 C12.2002561,16.4838938 9.456197,20.2531541 8.38949946,22.4496748 C7.32280193,24.6461955 7.03457602,25.9455636 7.03457602,25.9455636 C6.45680127,27.7844538 6.20843765,30.8340059 6.49152469,32.7452214 C6.49152469,32.7452214 6.78755814,35.1078903 7.11337006,36.2241153 C7.43918199,37.3403403 9.98744659,42.975744 9.98744659,42.975744" id="Path-127" stroke="#C22B2B"></path>
                                        <path d="M5.71609616,18.9736535 C5.71609616,18.9736535 7.9945865,19.6174299 9.76229888,19.9093264 C11.5300113,20.2012229 13.569673,20.192071 13.569673,20.192071 C13.9052891,20.196064 14.4426174,20.1956919 14.7816483,20.1897809 C14.7816483,20.1897809 18.1399179,20.1587998 19.5196323,19.9093264 C20.8993468,19.659853 23.5144879,18.9736535 23.5144879,18.9736535" id="Path-129" stroke-opacity="0.336871603" stroke="#C22B2B" stroke-width="0.5"></path>
                                        <path d="M2.73537207,22.410579 C2.73537207,22.410579 2.91595783,22.4520358 4.10673628,22.8542451 C5.31268885,23.2615798 6.78287657,23.7253451 7.81562071,23.942058 C9.86811429,24.3727568 13.2474179,24.6108637 13.2474179,24.6108637 C13.8560371,24.6600249 14.841102,24.6522054 15.4563624,24.5914409 C15.4563624,24.5914409 19.3437667,24.2232551 21.1694714,23.942058 C22.9951761,23.6608608 26.5322124,23.0069468 26.5322124,23.0069468" id="Path-130" stroke-opacity="0.336871603" stroke="#C22B2B" stroke-width="0.5"></path>
                                        <path d="M1.08968001,27.7933397 C1.08968001,27.7933397 1.09344986,27.8427366 2.24939683,28.1777962 C3.8633337,28.6456074 6.11022859,29.2665844 7.61137586,29.5564851 C10.187687,30.0540208 13.285386,30.2547542 13.285386,30.2547542 C14.0288172,30.3135631 15.2222634,30.2650777 15.9595451,30.1428684 C15.9595451,30.1428684 19.3264421,29.6082254 20.7673338,29.2427666 C22.2082255,28.8773078 27.8912733,27.5862485 27.8912733,27.5862485" id="Path-131" stroke-opacity="0.336871603" stroke="#C22B2B" stroke-width="0.5"></path>
                                        <path d="M1.38355114,32.8195897 C2.89153237,33.2980105 6.17921014,34.3077623 8.20618989,34.6827199 C10.902904,35.1815674 14.1152886,35.2480515 14.1152886,35.2480515 C14.804073,35.2743697 15.9239379,35.2167035 16.6121145,35.1184627 C16.6121145,35.1184627 19.82408,34.67534 21.2007619,34.3951925 C22.5774439,34.1150449 27.4504462,33.0714601 27.4504462,33.0714601" id="Path-132" stroke-opacity="0.336871603" stroke="#C22B2B" stroke-width="0.5"></path>
                                        <path d="M4.4754259,37.9014061 C4.4754259,37.9014061 2.92393909,37.6551123 3.84986818,37.9014061 C5.21679808,38.2650045 7.16533058,38.7504843 8.43359366,38.9252808 C10.560951,39.2184808 14.4117479,39.2479854 14.4117479,39.2479854 C14.9027531,39.2553937 15.6997729,39.2522554 16.1938638,39.239007 C16.1938638,39.239007 19.6776244,39.1758324 21.3851469,38.9252808 C23.0926694,38.6747293 25.3991842,37.4647428 25.3991842,37.4647428" id="Path-128" stroke-opacity="0.336871603" stroke="#C22B2B" stroke-width="0.5"></path>
                                        <path d="M6.62347437,40.3850351 C6.62347437,40.3850351 6.70158364,41.5302934 7.91820086,41.7477341 C8.69082346,41.8858216 9.44640886,42.3945275 10.0481812,42.4449269 C11.5975398,42.5746883 13.7424783,42.4781407 13.7424783,42.4781407 C14.3244851,42.4597972 15.2816953,42.4595282 15.8586204,42.4734962 C15.8586204,42.4734962 17.7892066,42.5487581 18.9257167,42.4449269 C20.0622269,42.3410957 21.9670585,41.3101431 21.9670585,41.3101431" id="Path-133" stroke-opacity="0.336871603" stroke="#C22B2B" stroke-width="0.5"></path>
                                        <path d="M7.92908619,41.8962631 C7.92908619,41.8962631 12.1188915,43.4438463 14.3573908,43.473317 C16.5958902,43.5027877 21.0349202,41.8045968 21.0349202,41.8045968 L21.1663524,45.2940751 C21.1663524,45.2940751 19.0744899,45.7333923 18.1034381,45.8532481 C17.1323863,45.973104 16.4717413,45.9963419 16.4717413,45.9963419 C15.3040178,46.0726432 13.4124775,46.0296069 12.2643183,45.8961273 C12.2643183,45.8961273 10.8123984,45.7524506 9.93847544,45.5747644 C9.06455247,45.3970782 7.60617375,44.7618389 7.60617375,44.7618389 L7.92908619,41.8962631 Z" id="Path-134" fill="#1C1C1C"></path>
                                        <polygon id="Path-135" fill="#323131" points="14.2226046 0.77780933 13.7977918 13.2861285 12.209789 15.6997001 16.2354203 15.6997001 14.8651773 13.2234418 15.3004506 1.42205367"></polygon>
                                        <polygon id="Path-136" fill="#702626" points="14.0772281 45.8527699 13.8966049 62.4724556 15.0733005 62.4724556 14.8717538 45.8527699"></polygon>
                                        <ellipse id="Oval-7" fill="#D0A77E" cx="14.7777778" cy="51.5384615" rx="1.55555556" ry="1.6043956"></ellipse>
                                        <ellipse id="Oval-7" fill="#D0A77E" cx="14.7777778" cy="58.7582418" rx="1.55555556" ry="1.6043956"></ellipse>
                                        <polygon id="Path-137" fill="#A64242" points="13.5896252 62.2423472 13.2708541 68.9976336 12.303926 73.0021208 14.277072 69.2419185 14.277072 71.8241958 14.8690824 66.1761082 14.770525 73.7910673 15.5172528 69.9624103 17.2504427 73.3066184 16.6244699 70.2392055 15.3493734 62.2423472"></polygon>
                                    </g>
                                </g>
                            </g>
                        </g>
                    </g>
                </g>
            </g>
        </g>
    </g>
</svg>