<?xml version="1.0" encoding="UTF-8" standalone="no"?>
<svg width="300px" height="300px" viewBox="0 0 300 300" version="1.1" xmlns="http://www.w3.org/2000/svg" xmlns:xlink="http://www.w3.org/1999/xlink">
    <!-- Generator: Sketch 43.1 (39012) - http://www.bohemiancoding.com/sketch -->
    <title>Group 13</title>
    <desc>Created with Sketch.</desc>
    <defs></defs>
    <g id="Page-1" stroke="none" stroke-width="1" fill="none" fill-rule="evenodd">
        <g id="Group-13">
            <g id="Group-11" fill="#FF43B6">
                <g id="Group">
                    <g id="Group-3">
                        <g id="Group-2">
                            <circle id="Oval" cx="150" cy="150" r="150"></circle>
                        </g>
                    </g>
                </g>
            </g>
            <g id="Group-12" transform="translate(19.000000, 48.000000)" stroke="#F4A7FF" stroke-width="10">
                <path d="M107.008592,24.5318529 L95.3361385,22.5693461 C77.9027308,19.6382415 51.8347075,25.1768251 37.1052797,34.9442959 L37.0464299,34.9833207 L37.0464299,34.9833207 C28.1570072,38.5611177 17.014305,48.9999723 12.1519175,58.3117761 L7.55888443,67.1077478 C1.67696822,78.3720187 -1.23738954,97.6363879 1.04691588,110.121883 L2.53322799,118.245728 C4.72087861,130.20293 14.2520589,145.958228 23.8297581,153.442455 L28.725093,157.267779 C38.7370569,165.091351 57.1097085,170.591151 69.778952,169.550497 L80.2523544,168.690209 C89.0646053,167.966369 102.545809,164.024277 110.34471,159.89523 L115.144804,157.35387 C118.074609,155.802716 122.480486,152.792783 124.998854,150.619567 L122.282508,152.963628 C130.645674,145.746663 141.401715,131.862041 146.297918,121.969395 L155.802993,102.764648" id="Path-2"></path>
                <path d="M189.242846,23.5197717 L189.242846,23.5197717 C178.358321,22.1053374 160.384227,25.6722119 149.088804,31.4906162 L149.599135,31.2277385 C140.270632,36.0329593 128.771985,47.4668376 123.909597,56.7786414 L119.316564,65.5746131 C113.434648,76.838884 110.52029,96.1032532 112.804596,108.588748 L114.290908,116.712593 C116.478558,128.669795 126.009739,144.425093 135.587438,151.909321 L140.482773,155.734645 C150.494737,163.558217 168.867388,169.058016 181.536632,168.017362 L192.010034,167.157075 C200.822285,166.433235 213.494195,161.275882 220.29958,155.649345 L231.276289,146.574051 C239.791154,139.534154 247.671086,124.93372 248.878532,113.945576 L250.35856,100.476845" id="Path-2" transform="translate(181.192424, 95.677000) scale(1, -1) rotate(-118.000000) translate(-181.192424, -95.677000) "></path>
            </g>
            <text id="in" font-family="Helvetica-Bold, Helvetica" font-size="144" font-weight="bold" fill="#FFFFFF">
                <tspan x="92.015625" y="196">in</tspan>
            </text>
        </g>
    </g>
</svg>