<?xml version="1.0" encoding="UTF-8" standalone="no"?>
<svg width="300px" height="300px" viewBox="0 0 300 300" version="1.1" xmlns="http://www.w3.org/2000/svg" xmlns:xlink="http://www.w3.org/1999/xlink">
    <!-- Generator: Sketch 43.1 (39012) - http://www.bohemiancoding.com/sketch -->
    <title>Group 3</title>
    <desc>Created with Sketch.</desc>
    <defs></defs>
    <g id="Page-1" stroke="none" stroke-width="1" fill="none" fill-rule="evenodd">
        <g id="Group-3">
            <g id="Group-2" fill="#FF43B6">
                <circle id="Oval" cx="150" cy="150" r="150"></circle>
            </g>
            <path d="M149.5,41 L237,109 C237,109 177.710413,178.367556 149.5,178.367556 C121.289587,178.367556 62,109 62,109 L149.5,41 Z" id="Triangle" fill="#F4A7FF"></path>
            <rect id="Rectangle-4" fill="#FFFFFF" x="105" y="84" width="90" height="90"></rect>
            <polygon id="Triangle-2" fill="#EDEDED" points="149 158 62 207 62 109"></polygon>
            <polygon id="Triangle-2" fill="#EDEDED" transform="translate(193.500000, 158.000000) scale(-1, 1) translate(-193.500000, -158.000000) " points="237 158 150 207 150 109"></polygon>
            <path d="M136.079602,149.429567 C143.491483,143.669476 155.514229,143.673915 162.920398,149.429567 L237,207 L62,207 L136.079602,149.429567 Z" id="Triangle" fill="#FCFCFC"></path>
            <text id="@" font-family="Helvetica-Bold, Helvetica" font-size="55" font-weight="bold" fill="#FF43B6">
                <tspan x="122.184814" y="137">@</tspan>
            </text>
        </g>
    </g>
</svg>