<?xml version="1.0" encoding="UTF-8" standalone="no"?>
<svg width="300px" height="300px" viewBox="0 0 300 300" version="1.1" xmlns="http://www.w3.org/2000/svg" xmlns:xlink="http://www.w3.org/1999/xlink">
    <!-- Generator: Sketch 43.1 (39012) - http://www.bohemiancoding.com/sketch -->
    <title>Group 10</title>
    <desc>Created with Sketch.</desc>
    <defs></defs>
    <g id="Page-1" stroke="none" stroke-width="1" fill="none" fill-rule="evenodd">
        <g id="Group-10">
            <g id="Group-7" transform="translate(119.000000, 119.000000)">
                <g id="Group-5"></g>
            </g>
            <g id="Group-8">
                <g id="Group-4">
                    <circle id="Oval" fill="#FF43B6" cx="150" cy="150" r="150"></circle>
                    <rect id="Rectangle-2" stroke="#FFFFFF" stroke-width="10" x="89" y="54" width="115" height="194" rx="8"></rect>
                    <polygon id="Path-5" fill="#FFFFFF" points="90.1852201 224 206 224.076435 206 243.807275 89.644773 243.4774"></polygon>
                    <polygon id="Path-5" fill="#FFFFFF" points="89.5404471 57 205.355227 57.0347302 205.355227 66 89 65.8501117"></polygon>
                    <rect id="Rectangle-3" fill="#F4A7FF" x="120" y="56" width="49" height="3"></rect>
                    <circle id="Oval-2" fill="#F4A7FF" cx="148.5" cy="236.5" r="7.5"></circle>
                </g>
                <rect id="Rectangle" fill="#E0E0E0" x="93" y="65" width="107" height="160"></rect>
            </g>
            <g id="Group-9" transform="translate(119.000000, 118.000000)">
                <path d="M5.97778553,2.3668131 L12.4318785,16.1333759 L12.4318785,16.1333759 C11.5687794,16.6487679 11.2692558,18.3564917 11.7564656,19.927027 L11.8126641,20.1081847 L12.3282984,20.864808 C15.7511741,25.8874144 22.2489499,33.1765221 26.8414652,37.1454671 L25.4572295,35.9491824 C27.1300809,37.3948946 30.1211683,37.8324155 30.6729887,37.5845276 L30.6729887,37.5845276 L46.2246648,47.822351 L41.5068407,50.2007661 L41.5068407,50.2007661 C39.3587502,50.6281979 35.09523,50.0410663 31.9931258,48.8927485 L28.2057313,47.490754 C28.2057313,47.490754 22.2626256,44.4095264 19.4962715,42.5578601 C16.7299174,40.7061939 19.4962715,42.5578601 19.4962715,42.5578601 C15.5613878,39.4287436 9.57220471,32.8329089 6.12636253,27.836245 L8.73620882,31.6206681 C6.54395709,28.4417805 3.66410046,22.9381319 2.29618539,19.3075318 L0.18747938,13.7107893 L0.18747938,13.7107893 C-0.384764054,11.1221471 0.793034443,6.35530575 2.13769618,4.16975502 L2.13769618,4.16975502 L5.97778553,2.3668131 Z" id="Path-6" fill="#FF43B6"></path>
                <path d="M7.29027321,1.05286784 L13.9953435,15.5579027 L13.9953435,15.5579027 C16.6213766,14.4693948 17.6416885,11.28438 16.2640346,8.42270364 L14.2405394,4.21947941 C12.8674699,1.36732567 9.41773176,0.100838179 7.29027321,1.05286784 L7.29027321,1.05286784 Z" id="Path-7" fill="#FF43B6"></path>
                <path d="M32.9530417,36.5424545 L47.8148732,46.3734029 L47.8148732,46.3734029 C49.5694753,43.853136 48.2861008,40.1689419 44.9339208,38.1357575 L41.2053191,35.8742636 C37.8596109,33.8450045 33.7205142,35.0236624 32.9530417,36.5424545 L32.9530417,36.5424545 Z" id="Path-8" fill="#FF43B6"></path>
                <g id="Group-6" transform="translate(25.000000, 1.000000)" stroke="#FF43B6" stroke-width="2">
                    <path d="M0.829415461,9.73150949 L5.36625227,10.1486212 C7.06367979,10.3046808 9.11373081,11.6433094 9.94043414,13.1300162 L11.476741,15.8928427" id="Path-9"></path>
                    <path d="M2,5 L7.03264862,5.57112823 C9.77972186,5.8828788 12.9228165,8.1692744 14.061821,10.6976343 L16,15" id="Path-9"></path>
                    <path d="M3,0 L7.937425,0.697289368 C12.3160969,1.31566866 17.0824664,5.17814564 18.5907069,9.34453196 L21,16" id="Path-9"></path>
                </g>
            </g>
        </g>
    </g>
</svg>