<?xml version="1.0" encoding="UTF-8" standalone="no"?>
<svg width="1214px" height="506px" viewBox="0 0 1214 506" version="1.1" xmlns="http://www.w3.org/2000/svg" xmlns:xlink="http://www.w3.org/1999/xlink">
    <!-- Generator: Sketch 43.1 (39012) - http://www.bohemiancoding.com/sketch -->
    <title>Group 3</title>
    <desc>Created with Sketch.</desc>
    <defs>
        <ellipse id="path-1" cx="50.6382979" cy="51.5" rx="50.6382979" ry="51.5"></ellipse>
        <filter x="-31.1%" y="-10.2%" width="141.5%" height="133.0%" filterUnits="objectBoundingBox" id="filter-2">
            <feOffset dx="-15" dy="7" in="SourceAlpha" result="shadowOffsetOuter1"></feOffset>
            <feGaussianBlur stdDeviation="3" in="shadowOffsetOuter1" result="shadowBlurOuter1"></feGaussianBlur>
            <feColorMatrix values="0 0 0 0 0.371811224   0 0 0 0 0.371811224   0 0 0 0 0.371811224  0 0 0 0.5 0" type="matrix" in="shadowBlurOuter1"></feColorMatrix>
        </filter>
        <linearGradient x1="21.2998736%" y1="43.7886536%" x2="100%" y2="43.7886536%" id="linearGradient-3">
            <stop stop-color="#F87FDF" offset="0%"></stop>
            <stop stop-color="#BA4AFF" offset="100%"></stop>
        </linearGradient>
        <linearGradient x1="50%" y1="0%" x2="50%" y2="100%" id="linearGradient-4">
            <stop stop-color="#F87FDF" offset="0%"></stop>
            <stop stop-color="#BA4AFF" offset="100%"></stop>
        </linearGradient>
        <rect id="path-5" x="7.64547451" y="45.6877307" width="136" height="153.412484"></rect>
        <filter x="-7.4%" y="-6.5%" width="129.4%" height="126.1%" filterUnits="objectBoundingBox" id="filter-6">
            <feOffset dx="10" dy="10" in="SourceAlpha" result="shadowOffsetOuter1"></feOffset>
            <feGaussianBlur stdDeviation="5" in="shadowOffsetOuter1" result="shadowBlurOuter1"></feGaussianBlur>
            <feColorMatrix values="0 0 0 0 0.258370536   0 0 0 0 0.258370536   0 0 0 0 0.258370536  0 0 0 0.5 0" type="matrix" in="shadowBlurOuter1"></feColorMatrix>
        </filter>
        <rect id="path-7" x="52.936951" y="12.2940354" width="136" height="190"></rect>
        <filter x="-12.5%" y="-6.8%" width="125.0%" height="117.9%" filterUnits="objectBoundingBox" id="filter-8">
            <feOffset dx="0" dy="4" in="SourceAlpha" result="shadowOffsetOuter1"></feOffset>
            <feGaussianBlur stdDeviation="5" in="shadowOffsetOuter1" result="shadowBlurOuter1"></feGaussianBlur>
            <feColorMatrix values="0 0 0 0 0.258370536   0 0 0 0 0.258370536   0 0 0 0 0.258370536  0 0 0 0.5 0" type="matrix" in="shadowBlurOuter1"></feColorMatrix>
        </filter>
        <rect id="path-9" x="0" y="0" width="138" height="180"></rect>
        <filter x="-16.3%" y="-6.9%" width="125.4%" height="119.4%" filterUnits="objectBoundingBox" id="filter-10">
            <feOffset dx="-5" dy="5" in="SourceAlpha" result="shadowOffsetOuter1"></feOffset>
            <feGaussianBlur stdDeviation="5" in="shadowOffsetOuter1" result="shadowBlurOuter1"></feGaussianBlur>
            <feColorMatrix values="0 0 0 0 0.27641369   0 0 0 0 0.27641369   0 0 0 0 0.27641369  0 0 0 0.5 0" type="matrix" in="shadowBlurOuter1"></feColorMatrix>
        </filter>
        <rect id="path-11" x="0" y="0" width="270" height="93"></rect>
        <filter x="-11.1%" y="-10.8%" width="114.8%" height="143.0%" filterUnits="objectBoundingBox" id="filter-12">
            <feOffset dx="-10" dy="10" in="SourceAlpha" result="shadowOffsetOuter1"></feOffset>
            <feGaussianBlur stdDeviation="5" in="shadowOffsetOuter1" result="shadowBlurOuter1"></feGaussianBlur>
            <feColorMatrix values="0 0 0 0 0.0893122874   0 0 0 0 0.08518392   0 0 0 0 0.08518392  0 0 0 0.5 0" type="matrix" in="shadowBlurOuter1"></feColorMatrix>
        </filter>
        <rect id="path-13" x="-1.13686838e-13" y="-8.52651283e-14" width="95" height="56" rx="28"></rect>
        <filter x="-17.4%" y="-11.6%" width="124.2%" height="146.4%" filterUnits="objectBoundingBox" id="filter-14">
            <feOffset dx="-5" dy="8" in="SourceAlpha" result="shadowOffsetOuter1"></feOffset>
            <feGaussianBlur stdDeviation="2.5" in="shadowOffsetOuter1" result="shadowBlurOuter1"></feGaussianBlur>
            <feColorMatrix values="0 0 0 0 0.227465986   0 0 0 0 0.221035298   0 0 0 0 0.221035298  0 0 0 0.193925498 0" type="matrix" in="shadowBlurOuter1"></feColorMatrix>
        </filter>
    </defs>
    <g id="Page-2" stroke="none" stroke-width="1" fill="none" fill-rule="evenodd">
        <g id="Group-3" transform="translate(-28.000000, -18.000000)">
            <g id="Group-2">
                <rect id="Rectangle" fill="#8C99E9" x="28" y="18" width="1214" height="506"></rect>
                <g id="Coffee" transform="translate(234.000000, 377.000000)">
                    <rect id="Rectangle-22" fill="#FFFFFF" transform="translate(102.460344, 77.540485) rotate(28.000000) translate(-102.460344, -77.540485) " x="89.0893792" y="68.5938446" width="26.7419294" height="17.8932811" rx="8.94664056"></rect>
                    <g id="Oval-8">
                        <use fill="black" fill-opacity="1" filter="url(#filter-2)" xlink:href="#path-1"></use>
                        <use fill="#FFFFFF" fill-rule="evenodd" xlink:href="#path-1"></use>
                    </g>
                    <ellipse id="Oval-8" fill="#DBDBDB" cx="51.2712766" cy="52.14375" rx="41.143617" ry="41.84375"></ellipse>
                    <ellipse id="Oval-8" fill="#C29E7F" cx="51.2712766" cy="52.14375" rx="34.8138298" ry="35.40625"></ellipse>
                </g>
                <g id="Ipad" transform="translate(216.724236, 169.482890) rotate(76.000000) translate(-216.724236, -169.482890) translate(71.224236, 52.482890)">
                    <rect id="Rectangle-5" fill="#4A4A4A" x="41.5425313" y="37.0784555" width="248.931142" height="159.849341"></rect>
                    <rect id="Rectangle-6" fill="url(#linearGradient-3)" x="56.1378426" y="56.029666" width="215.686267" height="124.418817"></rect>
                    <path d="M69.1799992,21.8772743 L195.898837,59.655149 C195.898837,59.655149 198.69887,61.7587634 199.383288,65.888304 C200.067706,70.0178446 199.053557,70.3604001 198.119753,73.9421844 C195.379582,84.4526346 184.589303,119.821285 180.162802,133.62672 C176.056036,146.434964 170.342208,170.463702 163.721618,188.27322 C161.049521,195.461212 159.816816,204.175294 157.813619,207.90997 C155.810422,211.644646 151.682825,212.145446 151.682825,212.145446 L24.8144128,169.337694 L69.1799992,21.8772743 Z" id="Rectangle-8" fill="#F0F0F0" style="mix-blend-mode: color-burn;" transform="translate(112.211017, 117.011360) rotate(-17.000000) translate(-112.211017, -117.011360) "></path>
                    <rect id="Rectangle-7" fill="#A4A4A4" x="277" y="99" width="7.29765564" height="35.4305241"></rect>
                </g>
                <g id="Iphone" transform="translate(108.430159, 425.710034) rotate(-35.000000) translate(-108.430159, -425.710034) translate(39.430159, 335.210034)">
                    <rect id="Rectangle-2" fill="#6C6C6C" x="49" y="8" width="89" height="145"></rect>
                    <circle id="Oval" fill="#B0B0B0" cx="94" cy="145" r="4"></circle>
                    <rect id="Rectangle-3" fill="url(#linearGradient-4)" x="58" y="22" width="70" height="117"></rect>
                    <circle id="Path" fill="#4D4D4D" cx="93.5" cy="16.5" r="3.5"></circle>
                    <circle id="Oval-2" fill="#FFFFFF" cx="92" cy="16" r="1"></circle>
                    <path d="M78.6277997,15.9633087 C80.7818568,10.8796146 86.6759641,8.45047852 89.6233724,9.6527862 L89.6233724,9.6527862 L109.491636,17.757454 L109.332413,170.298812 C109.332413,170.298812 105.642495,171.433253 103.940759,171.532364 C102.239023,171.631476 34.880035,144.749181 34.880035,144.749181 C29.7662674,142.713308 27.3705682,136.933215 29.5210051,131.858065 L78.6277997,15.9633087 Z" id="Rectangle-4" fill="#4C4B4B" style="mix-blend-mode: soft-light;" transform="translate(69.111819, 90.441145) rotate(-23.000000) translate(-69.111819, -90.441145) "></path>
                </g>
                <g id="Papers" transform="translate(969.000000, 131.000000)">
                    <g id="Rectangle-9" transform="translate(75.645475, 122.393973) rotate(-6.000000) translate(-75.645475, -122.393973) ">
                        <use fill="black" fill-opacity="1" filter="url(#filter-6)" xlink:href="#path-5"></use>
                        <use fill="#FDFDFD" fill-rule="evenodd" xlink:href="#path-5"></use>
                    </g>
                    <g id="Rectangle-9" transform="translate(120.936951, 107.294035) rotate(12.000000) translate(-120.936951, -107.294035) ">
                        <use fill="black" fill-opacity="1" filter="url(#filter-8)" xlink:href="#path-7"></use>
                        <use fill="#FDFDFD" fill-rule="evenodd" xlink:href="#path-7"></use>
                    </g>
                </g>
                <g id="Paper" transform="translate(1073.000000, 91.000000)">
                    <g id="Rectangle-10">
                        <use fill="black" fill-opacity="1" filter="url(#filter-10)" xlink:href="#path-9"></use>
                        <use fill="#FCFCFC" fill-rule="evenodd" xlink:href="#path-9"></use>
                    </g>
                    <rect id="Rectangle-18" fill="#827E7E" x="103" y="140" width="17" height="1"></rect>
                    <rect id="Rectangle-18" fill="#827E7E" x="103" y="136" width="17" height="1"></rect>
                    <polygon id="Triangle" fill="#A49E9E" points="103 145 107 151 99 151"></polygon>
                    <polygon id="Triangle" fill="#A49E9E" points="120 145 124 151 116 151"></polygon>
                    <path d="M79.5,105.5 L95.5,116.5" id="Line" stroke="#979797" fill="#BBBBBB" stroke-linecap="square"></path>
                    <path id="Line-decoration-1" d="M95.5,116.5 L88.2999337,107.909363 L84.9007607,112.853614 L95.5,116.5 Z" stroke="#979797" fill="#BBBBBB" stroke-linecap="square"></path>
                    <path d="M73.5,54.5 L94.5,47.5" id="Line" stroke="#979797" fill="#D8D8D8" stroke-linecap="square"></path>
                    <path id="Line-decoration-1" d="M94.5,47.5 L83.3055371,48.06921 L85.2029037,53.7613098 L94.5,47.5 Z" stroke="#979797" fill="#D8D8D8" stroke-linecap="square"></path>
                    <rect id="Rectangle-17" fill="#A9A5A5" x="109" y="145" width="6" height="6"></rect>
                    <circle id="Oval-5" stroke="#979797" cx="111" cy="120" r="13"></circle>
                    <path d="M97.5,101.5 L103.5,101.5" id="Line" stroke="#979797" stroke-linecap="square"></path>
                    <path d="M119.5,101.5 L125.5,101.5" id="Line" stroke="#979797" stroke-linecap="square"></path>
                    <rect id="Rectangle-15" fill="#838181" x="90" y="70" width="34" height="3"></rect>
                    <rect id="Rectangle-15" fill="#838181" x="93" y="29" width="34" height="3"></rect>
                    <rect id="Rectangle-15" fill="#838181" x="90" y="70" width="34" height="3"></rect>
                    <rect id="Rectangle-15" fill="#838181" x="90" y="79" width="34" height="3"></rect>
                    <rect id="Rectangle-15" fill="#838181" x="17" y="122" width="64" height="3"></rect>
                    <rect id="Rectangle-15" fill="#838181" x="17" y="122" width="64" height="3"></rect>
                    <rect id="Rectangle-15" fill="#838181" x="17" y="140" width="43" height="3"></rect>
                    <rect id="Rectangle-15" fill="#B3ABAB" x="17" y="131" width="64" height="3"></rect>
                    <rect id="Rectangle-15" fill="#B3ABAB" x="17" y="149" width="52" height="3"></rect>
                    <rect id="Rectangle-15" fill="#838181" x="95" y="38" width="22" height="3"></rect>
                    <rect id="Rectangle-15" fill="#838181" x="99" y="46" width="11" height="3"></rect>
                    <rect id="Rectangle-16" stroke="#979797" x="94.5" y="96.5" width="33" height="59"></rect>
                    <path d="M94.5,104.5 L127.5,104.5" id="Line" stroke="#979797" stroke-linecap="square"></path>
                    <rect id="Rectangle-13" fill="#F9B5B5" x="22" y="34" width="14" height="75"></rect>
                    <rect id="Rectangle-13" fill="#F9B5B5" x="62" y="34" width="14" height="75"></rect>
                    <rect id="Rectangle-13" fill="#F9B5B5" x="42" y="34" width="14" height="75"></rect>
                    <rect id="Rectangle-13" fill="#F9B5B5" x="22" y="34" width="14" height="75"></rect>
                    <rect id="Rectangle-12" stroke="#979797" x="22.5" y="76.5" width="13" height="24"></rect>
                    <rect id="Rectangle-12" stroke="#979797" x="42.5" y="76.5" width="13" height="24"></rect>
                    <rect id="Rectangle-12" stroke="#979797" x="62.5" y="76.5" width="13" height="24"></rect>
                    <path d="M17.5,68.5 L80.5,68.5" id="Line" stroke="#979797" stroke-linecap="square"></path>
                    <rect id="Rectangle-11" stroke="#979797" x="17.5" y="25.5" width="64" height="83"></rect>
                    <rect id="Rectangle-14" fill="#636363" x="22" y="42" width="24" height="4"></rect>
                    <circle id="Oval-3" stroke="#979797" cx="29" cy="86" r="4"></circle>
                    <circle id="Oval-3" stroke="#979797" cx="49" cy="86" r="4"></circle>
                    <circle id="Oval-3" stroke="#979797" cx="69" cy="86" r="4"></circle>
                    <ellipse id="Oval-4" stroke="#979797" cx="63.5" cy="50" rx="10.5" ry="11"></ellipse>
                    <path d="M17.5,33.5 L81.5,33.5" id="Line" stroke="#979797" stroke-linecap="square"></path>
                    <rect id="Rectangle-14" fill="#636363" x="22" y="49" width="14" height="4"></rect>
                </g>
                <g id="Keyboard" transform="translate(500.000000, 382.000000)">
                    <g id="Rectangle-19">
                        <use fill="black" fill-opacity="1" filter="url(#filter-12)" xlink:href="#path-11"></use>
                        <use fill="#FFFFFF" fill-rule="evenodd" xlink:href="#path-11"></use>
                    </g>
                    <rect id="Rectangle-20" fill="#E5E5E5" x="16" y="8" width="16" height="16"></rect>
                    <rect id="Rectangle-20" fill="#E5E5E5" x="36" y="8" width="16" height="16"></rect>
                    <rect id="Rectangle-20" fill="#E5E5E5" x="36" y="28" width="16" height="16"></rect>
                    <rect id="Rectangle-20" fill="#E5E5E5" x="36" y="48" width="16" height="16"></rect>
                    <rect id="Rectangle-20" fill="#E5E5E5" x="36" y="68" width="16" height="16"></rect>
                    <rect id="Rectangle-20" fill="#E5E5E5" x="56" y="68" width="96" height="16"></rect>
                    <rect id="Rectangle-20" fill="#E5E5E5" x="56" y="28" width="16" height="16"></rect>
                    <rect id="Rectangle-20" fill="#E5E5E5" x="56" y="48" width="16" height="16"></rect>
                    <rect id="Rectangle-20" fill="#E5E5E5" x="76" y="28" width="16" height="16"></rect>
                    <rect id="Rectangle-20" fill="#E5E5E5" x="76" y="48" width="16" height="16"></rect>
                    <rect id="Rectangle-20" fill="#E5E5E5" x="96" y="28" width="16" height="16"></rect>
                    <rect id="Rectangle-20" fill="#E5E5E5" x="96" y="48" width="16" height="16"></rect>
                    <rect id="Rectangle-20" fill="#E5E5E5" x="116" y="8" width="16" height="16"></rect>
                    <rect id="Rectangle-20" fill="#E5E5E5" x="116" y="28" width="16" height="16"></rect>
                    <rect id="Rectangle-20" fill="#E5E5E5" x="116" y="48" width="16" height="16"></rect>
                    <rect id="Rectangle-20" fill="#E5E5E5" x="136" y="48" width="16" height="16"></rect>
                    <rect id="Rectangle-20" fill="#E5E5E5" x="136" y="28" width="16" height="16"></rect>
                    <rect id="Rectangle-20" fill="#E5E5E5" x="136" y="8" width="16" height="16"></rect>
                    <rect id="Rectangle-20" fill="#E5E5E5" x="156" y="48" width="16" height="16"></rect>
                    <rect id="Rectangle-20" fill="#E5E5E5" x="156" y="68" width="16" height="16"></rect>
                    <rect id="Rectangle-20" fill="#E5E5E5" x="156" y="28" width="16" height="16"></rect>
                    <rect id="Rectangle-20" fill="#E5E5E5" x="156" y="8" width="16" height="16"></rect>
                    <rect id="Rectangle-20" fill="#E5E5E5" x="177" y="8" width="16" height="16"></rect>
                    <rect id="Rectangle-20" fill="#E5E5E5" x="176" y="28" width="16" height="16"></rect>
                    <rect id="Rectangle-20" fill="#E5E5E5" x="176" y="48" width="16" height="16"></rect>
                    <rect id="Rectangle-20" fill="#E5E5E5" x="197" y="8" width="16" height="16"></rect>
                    <rect id="Rectangle-20" fill="#E5E5E5" x="196" y="48" width="16" height="16"></rect>
                    <rect id="Rectangle-20" fill="#E5E5E5" x="156" y="28" width="16" height="16"></rect>
                    <rect id="Rectangle-20" fill="#E5E5E5" x="196" y="28" width="16" height="16"></rect>
                    <rect id="Rectangle-20" fill="#E5E5E5" x="217" y="8" width="16" height="16"></rect>
                    <rect id="Rectangle-20" fill="#E5E5E5" x="216" y="28" width="16" height="16"></rect>
                    <rect id="Rectangle-20" fill="#E5E5E5" x="216" y="48" width="16" height="16"></rect>
                    <rect id="Rectangle-20" fill="#E5E5E5" x="216" y="68" width="16" height="16"></rect>
                    <rect id="Rectangle-20" fill="#E5E5E5" x="196" y="68" width="16" height="16"></rect>
                    <rect id="Rectangle-20" fill="#E5E5E5" x="176" y="68" width="16" height="16"></rect>
                    <rect id="Rectangle-20" fill="#E5E5E5" x="237" y="8" width="16" height="16"></rect>
                    <rect id="Rectangle-20" fill="#E5E5E5" x="236" y="28" width="16" height="16"></rect>
                    <rect id="Rectangle-20" fill="#E5E5E5" x="236" y="48" width="16" height="36"></rect>
                    <rect id="Rectangle-20" fill="#E5E5E5" x="56" y="8" width="16" height="16"></rect>
                    <rect id="Rectangle-20" fill="#E5E5E5" x="76" y="8" width="16" height="16"></rect>
                    <rect id="Rectangle-20" fill="#E5E5E5" x="96" y="8" width="16" height="16"></rect>
                    <rect id="Rectangle-20" fill="#E5E5E5" x="16" y="28" width="16" height="16"></rect>
                    <rect id="Rectangle-20" fill="#E5E5E5" x="16" y="48" width="16" height="16"></rect>
                    <rect id="Rectangle-20" fill="#E5E5E5" x="16" y="68" width="16" height="16"></rect>
                </g>
                <g id="Pen" transform="translate(1004.000000, 415.000000)">
                    <path d="M11,2 C11,0.8954305 11.900351,0 12.9926302,0 L71.0073698,0 C72.1078691,0 73,0.887729645 73,2 L73,2 C73,3.1045695 72.099649,4 71.0073698,4 L12.9926302,4 C11.8921309,4 11,3.11227036 11,2 L11,2 Z" id="Rectangle-26" fill="#D8D8D8"></path>
                    <path d="M11,1.4912653 C11,0.667662216 11.6657972,0 12.5,0 L12.5,0 C13.3284271,0 14,0.66254437 14,1.4912653 L14,13 L11,13 L11,1.4912653 Z" id="Rectangle-27" fill="#D8D8D8"></path>
                    <path d="M0.363661078,16.1365442 C0.363661078,13.6512628 2.38662782,11.6365442 4.86415568,11.6365442 L15.3636611,11.6365442 L15.3636611,20.6365442 L4.86415568,20.6365442 C2.37860114,20.6365442 0.363661078,18.6167685 0.363661078,16.1365442 L0.363661078,16.1365442 Z" id="Rectangle-25" fill="#D8D8D8" transform="translate(7.863661, 16.136544) rotate(5.000000) translate(-7.863661, -16.136544) "></path>
                    <rect id="Rectangle-29" fill="#F1EDED" x="1" y="15" width="10" height="4"></rect>
                    <path d="M10.5135225,15.8030266 C9.12534235,10.9763149 12.8315212,6.897758 18.7670911,6.70712315 C18.7670911,6.70712315 128.07427,2.6952972 168.099026,7.06349202 C208.123783,11.4316868 208.244887,20.1548596 168.099026,24.5362713 C127.953166,28.917683 18.7708044,24.8941437 18.7708044,24.8941437 C12.8222534,24.6964962 9.26044316,19.8793308 10.5135225,15.8030266 C10.5135225,15.8030266 10.5135225,15.0643989 10.5135225,15.8030266 C10.5135225,16.5416543 10.5135225,15.8030266 10.5135225,15.8030266 Z" id="Rectangle-24" fill="#D6DBDB"></path>
                    <path d="M102.995426,6.16259988 C102.467643,7.23394981 102.995426,6.16259988 102.995426,6.16259988 L102.995426,6.16259988 C102.995426,6.16259988 102.934449,5.02334543 102.995426,5.01921424 C103.178354,5.00682065 163.615923,4.1402094 182.966334,8.10245053 C203.197969,12.2451337 203.259185,20.5179653 182.966334,24.673183 C162.673483,28.8284007 104.030558,26.5819386 104.030558,26.5819386 L104.030558,26.5819386 C102.931088,25.527762 104.030558,26.5819386 104.030558,26.5819386 C104.030558,26.5819386 104.030558,25.8814431 104.030558,26.5819386 C104.030558,27.2223588 103.169563,7.35519383 102.995426,6.16259988 C102.821288,4.97000593 102.995426,6.16259988 102.995426,6.16259988 Z" id="Rectangle-24" fill="#8CE7EA"></path>
                    <path d="M0.397409923,16.4075328 L185.643048,22.1143642 L192.785751,21.6805353 C192.785751,21.6805353 191.775334,22.2462146 189.160268,23.0791441 C186.545203,23.9120737 183.262169,24.7858296 177.894892,25.4885299 C174.141406,25.9799478 171.989624,26.1232616 170.59045,26.2476375 C169.191276,26.3720134 168.087325,26.3443217 164.866881,26.5814106 C157.976435,27.0886849 155.635921,27.0122306 153.965076,27.086808 C152.294231,27.1613855 153.114688,27.086808 149.470246,27.086808 C148.300544,27.086808 147.597729,27.1389912 145.643686,27.1389912 C145.074817,27.1389912 143.268824,27.2093683 140.900074,27.2065772 C138.531324,27.2037862 125.978134,27.1126375 122.862466,27.086808 C118.467243,27.0503708 114.252781,27.0436863 103.84666,26.5814106 C102.720661,26.5313898 102.617443,26.568343 101.55249,26.5814106 C100.487536,26.5944782 91.9076684,26.4606774 88.2640874,26.4606774 C84.6205065,26.4606774 82.0217941,26.4971608 79.2453994,26.4606774 C76.4690047,26.424194 78.6839244,26.244929 78.3734371,26.2476375 C72.0824921,26.3025152 72.1024479,26.1462496 71.3664375,26 C70.6304271,25.8537504 73.6097425,26.2409591 73.0926886,26.2476375 C72.9557799,26.2494058 70.1600436,26.2459312 70.0272993,26.2476375 C69.9334695,26.2488436 65.7025597,26.1056886 61.804024,26 C57.9054883,25.8943114 58.6525241,25.8675499 57.4541139,25.8796886 C43.7325022,26.0186743 53.893314,25.7368568 52.20818,25.7483086 C37.2963428,25.8496468 48.6923647,25.5943228 46.9807713,25.5998941 C31.009986,25.651879 31.3799946,25.4177232 25.5940592,25.1608254 C8.58925286,24.4058053 20.0255807,25.1893418 17.7454083,24.8313614 C16.6313302,24.6564543 14.9092575,24.0924833 13.9061246,23.5100795 C12.9029918,22.9276758 12.0509603,21.8661439 11.5726072,21.3211037 C10.7361665,20.3680549 12.41901,21.1477265 11.2885464,20.9859488 C10.5940198,20.8881664 10.111719,21.0229918 9.77161191,20.9859488 C9.43150484,20.9489058 9.04436197,20.7971102 8.48183797,20.7281391 C5.29640931,20.337573 5.23828085,20.4872565 4.26054362,20.3392032 C1.61079067,19.9379656 3.17964965,19.9793977 2.89744083,19.9374413 C0.799819067,19.6255843 2.67121723,19.7770964 2.67121723,19.7770964 C2.67121723,19.7770964 2.41995778,19.6531383 2.12737929,19.4310651 C1.8348008,19.2089919 1.36648883,18.7777616 1.17911515,18.5017273 C1.01076012,18.2537108 0.748025096,17.7475853 0.597287718,17.2954287 C0.446550341,16.8432721 0.397409923,16.4075328 0.397409923,16.4075328 Z" id="Rectangle-28" fill="#9F9F9F" style="mix-blend-mode: multiply;"></path>
                    <path d="M181.391219,24.8839028 C190.503917,24.8839028 206.568865,19.2310341 206.568865,16.4696103 C206.568865,13.7081866 190.503917,8.05531787 181.391219,8.05531787 C172.27852,8.05531787 173.227622,13.7081866 173.227622,16.4696103 C173.227622,19.2310341 172.27852,24.8839028 181.391219,24.8839028 Z" id="Oval-9" fill="#575757"></path>
                </g>
                <rect id="Rectangle-23" fill="#FFFFFF" x="428" y="68" width="413" height="267"></rect>
                <path d="M841.661619,175.558571 C841.661619,175.558571 857.411399,174.856649 865.139,174.738048 C872.8666,174.619447 884.1289,174.696226 884.1289,174.696226 C890.201368,174.719324 895.414401,179.65248 895.68869,185.717944 C895.68869,185.717944 896.964028,201.136768 895.124077,213.620314 C892.615964,230.637145 884.391926,247.643296 884.620078,264.412499 C884.828892,279.76029 901.734968,294.811128 905.05663,312.195829 C908.378293,329.58053 895.124077,351.771614 895.124077,351.771614" id="Path-2" stroke="#FFFFFF" stroke-width="5"></path>
                <path d="M841,169 L865.002995,169 C866.105911,169 867,169.90195 867,171.00853 L867,178.99147 C867,180.10075 866.105021,181 865.002995,181 L841,181 L841,169 Z" id="Rectangle-30" fill="#BEBEBE"></path>
                <g id="Group" transform="translate(903.640669, 377.448250) rotate(88.000000) translate(-903.640669, -377.448250) translate(856.140669, 349.448250)">
                    <g id="Mouse" transform="translate(-0.000000, 0.000000)">
                        <g id="Rectangle-21">
                            <use fill="black" fill-opacity="1" filter="url(#filter-14)" xlink:href="#path-13"></use>
                            <use fill="#F0F0F0" fill-rule="evenodd" xlink:href="#path-13"></use>
                        </g>
                        <path d="M1.4651005,27.4993908 L18.4651005,27.4993908" id="Line" stroke="#B2B0B0" stroke-width="3" stroke-linecap="square"></path>
                        <ellipse id="Oval-6" stroke-opacity="0.233044611" stroke="#949494" stroke-width="3" fill="#B5B5B5" cx="26.5" cy="27" rx="7.5" ry="3"></ellipse>
                        <path d="M72.5,51.6136122 C83.8218374,51.6136122 93,38.1502645 93,26 C93,13.8497355 75.8673886,3.48335962 64.5455513,3.48335962 C53.2237139,3.48335962 72.5,13.8497355 72.5,26 C72.5,32.1667997 73.8922497,39.7312359 72.5,44.6426076 C71.1077503,49.5539793 66.9244987,51.6136122 72.5,51.6136122 Z" id="Oval-7" fill="#E3E1E1"></path>
                    </g>
                </g>
                <text id="PROJECTS" font-family="ArialMT, Arial" font-size="36" font-weight="normal" fill="#3A3A3A">
                    <tspan x="539" y="214">PROJECTS</tspan>
                </text>
            </g>
        </g>
    </g>
</svg>