<?xml version="1.0" encoding="UTF-8"?>
<svg width="642px" height="276px" viewBox="0 0 642 276" version="1.1" xmlns="http://www.w3.org/2000/svg" xmlns:xlink="http://www.w3.org/1999/xlink">
    <!-- Generator: Sketch 43.1 (39012) - http://www.bohemiancoding.com/sketch -->
    <title>Group 43</title>
    <desc>Created with Sketch.</desc>
    <defs></defs>
    <g id="Page-1" stroke="none" stroke-width="1" fill="none" fill-rule="evenodd">
        <g id="Desktop-HD-Copy-8" transform="translate(-44.000000, -123.000000)">
            <g id="Group-43" transform="translate(44.000000, 123.000000)">
                <rect id="Rectangle" fill="#B08181" x="0" y="0" width="642" height="276"></rect>
                <ellipse id="Oval-29" fill="#FF5FAF" cx="121.5" cy="110" rx="79.5" ry="80"></ellipse>
                <path d="M93.7659172,194.403773 L222.886213,194.403773 C230.068823,194.403773 230.638014,196.917269 224.165027,200.014239 L155.046042,233.08389 C150.059462,235.469696 141.54855,237.403773 136.023047,237.403773 L14.8960871,237.403773 C8.81840982,237.403773 8.33302692,235.278735 13.8098196,232.65839 L93.7659172,194.403773 Z" id="Rectangle-2" fill="#9D2828"></path>
                <g id="Group-2" transform="translate(351.000000, 10.000000)">
                    <circle id="Oval-27" fill="#E23939" cx="108" cy="106" r="100"></circle>
                    <circle id="Oval-27" fill="#BD2E2E" cx="108" cy="106" r="75"></circle>
                    <ellipse id="Oval" fill="#722020" cx="108" cy="53" rx="2" ry="53"></ellipse>
                    <ellipse id="Oval" fill="#722020" cx="108" cy="159" rx="2" ry="54"></ellipse>
                    <g id="Group" transform="translate(108.000000, 105.797546) rotate(-90.000000) translate(-108.000000, -105.797546) translate(106.000000, -2.202454)" fill="#722020">
                        <ellipse id="Oval" cx="2" cy="54.2774272" rx="2" ry="54.2774272"></ellipse>
                        <ellipse id="Oval" cx="2" cy="161.365324" rx="2" ry="54.2774272"></ellipse>
                    </g>
                    <g id="Group" transform="translate(108.435371, 105.452160) rotate(-133.000000) translate(-108.435371, -105.452160) translate(106.435371, -0.047840)" fill="#722020">
                        <ellipse id="Oval" cx="2" cy="53" rx="2" ry="53"></ellipse>
                        <ellipse id="Oval" cx="2" cy="158" rx="2" ry="53"></ellipse>
                    </g>
                    <g id="Group" transform="translate(107.611836, 105.514484) rotate(-45.000000) translate(-107.611836, -105.514484) translate(105.611836, 0.014484)" fill="#722020">
                        <ellipse id="Oval" cx="2" cy="53" rx="2" ry="53"></ellipse>
                        <ellipse id="Oval" cx="2" cy="158" rx="2" ry="53"></ellipse>
                    </g>
                </g>
                <g id="Group-18" transform="translate(381.000000, 10.000000)">
                    <g id="Group-16" transform="translate(110.000000, 47.000000)">
                        <ellipse id="Oval-3" fill="#FAF6F0" cx="41.5" cy="46.7202018" rx="41.5" ry="46.5"></ellipse>
                        <path d="M61.8961666,28.9481461 C60.3596411,28.8760279 58.3722667,29.8290333 57.4559408,31.0785168 L56.3460367,32.5919598 C56.3460367,32.5919598 65.5492026,31.2849096 69.9391833,31.6205608 C74.3291641,31.956212 80.3014889,34.4235569 80.3014889,34.4235569 C80.3014889,34.4235569 74.655992,30.9736629 71.0864003,30.0291837 C67.5168086,29.0847045 61.8961666,28.9481461 61.8961666,28.9481461 Z" id="Path-488" fill="#3C3C3C"></path>
                        <path d="M23.4197561,19.8636752 C21.8832306,19.791557 19.8958562,20.7445624 18.9795304,21.9940459 L17.8696263,23.5074889 C17.8696263,23.5074889 27.0727921,22.2004387 31.4627729,22.5360899 C35.8527537,22.871741 41.8250785,25.339086 41.8250785,25.339086 C41.8250785,25.339086 36.1795815,21.889192 32.6099898,20.9447128 C29.0403982,20.0002336 23.4197561,19.8636752 23.4197561,19.8636752 Z" id="Path-488" fill="#3C3C3C" transform="translate(29.847352, 22.536090) scale(-1, 1) rotate(-27.000000) translate(-29.847352, -22.536090) "></path>
                    </g>
                    <g id="Group-14" transform="translate(85.000000, 0.000000)">
                        <ellipse id="Oval-4" fill="#3C3C3C" cx="126" cy="38" rx="18" ry="19"></ellipse>
                        <ellipse id="Oval-4" fill="#3C3C3C" cx="49" cy="19" rx="18" ry="19"></ellipse>
                        <path d="M39.3359998,26.6687289 L48.4063875,22.3306825 C85.2713391,4.69947667 121.937115,22.8404697 130.29855,62.8347081 L132.858406,75.0789569 L148.347455,106.220669 L131.849686,89.1115547 L140.849914,111.122437 L132.858406,105.144701 L140.849914,138.743049 C140.849914,138.743049 131.538866,138.50662 127.578145,140.988083 C123.617424,143.469546 115.156287,176.947864 115.156287,176.947864 L109.129707,176.947864 L101.08556,159.686498 C101.08556,159.686498 92.7622217,186.354439 87.1753885,190.484972 C81.5885553,194.615505 83.678109,160.841941 83.678109,160.841941 L85.6207716,152.291237 L76.3260685,159.686498 L81.6215429,145.104686 L64.2018652,162.529254 L91.1463052,116.85808 L77.4705072,123.755279 L96.3492907,103.23142 C98.9650599,100.387716 102.052621,95.0918828 103.239236,91.4223757 L106.32479,81.8805605 L106.165743,81.6686604 C101.856201,75.9270162 92.7772593,69.6361379 85.8808719,67.6156897 L65.6556447,61.6902652 L65.3279636,48.7835398 L56.9892114,57.6602759 L46.5114326,59.4693121 C44.3356424,59.8449722 41.7512901,61.7431539 40.7432006,63.7010946 L37.2349887,70.5148456 C29.3959744,85.7400065 31.2760176,109.251421 39.8556434,120.888069 L39.8556434,120.888069 L44.9139158,127.802386 L49.1478412,166.254192 L2.38138913,181.198791 L2.38138913,70.5266526 L23.0411978,50.392601 L0.360281019,52.5139698 L25.9805468,42.2238029 L7.48856914,46.5839188 L39.3359998,26.6687289 Z" id="Path-487" fill="#3C3C3C"></path>
                        <path d="M111.283634,28.4118412 L118.659168,34.7787601 C122.303178,37.9244464 126.016523,44.3046461 126.952282,49.0249299 L128.697729,57.8295466 L111.283634,28.4118412 Z" id="Path-490" fill="#CC3B4F"></path>
                        <path d="M42.1303556,8.10748344 L49.5058897,14.4744023 C53.1498998,17.6200886 56.8632446,24.0002883 57.7990043,28.7205721 L59.5444513,37.5251888 L42.1303556,8.10748344 Z" id="Path-490" fill="#CC3B4F" transform="translate(50.837403, 22.816336) scale(-1, 1) rotate(-35.000000) translate(-50.837403, -22.816336) "></path>
                    </g>
                    <g id="Group-9" transform="translate(0.000000, 46.446288)">
                        <g id="Group-8" transform="translate(60.178437, 60.638576) rotate(-7.000000) translate(-60.178437, -60.638576) translate(6.178437, 6.638576)">
                            <g id="Group-4" transform="translate(7.000000, -0.000000)">
                                <path d="M50,107.171825 C70.5724226,107.171825 87.2496662,104.047234 87.2496662,74.5 C87.2496662,57.7040015 82.5448407,47.9041721 74.114825,38.0957523 C65.6848093,28.2873325 58.8781172,21 50,21 C40.6315096,21 30.434781,33.1612081 23.8889892,41.3621475 C17.3431974,49.5630868 12.7503338,58.4083022 12.7503338,74.5 C12.7503338,104.047234 29.4275774,107.171825 50,107.171825 Z" id="Oval-28" fill="#FFFFFF" transform="translate(50.000000, 64.085912) scale(1, -1) translate(-50.000000, -64.085912) "></path>
                                <path d="M57.4065827,68.0372567 L62.0361052,57.1837839 C63.3366553,54.1347685 66.9988447,52.3434078 70.1934625,53.1768315 L71.4409869,53.5022902 C74.1104417,54.1987075 77.0129349,52.6494078 77.9145337,50.0686058 L77.9145337,50.0686058 L76.5950209,57.0319422 C76.1832779,59.2047934 74.1463573,61.5038261 72.0354048,62.1701403 L73.1634267,61.8140844 C69.9987801,62.8129934 64.7480359,63.622769 62.817078,63.622769 L62.817078,63.622769 L57.4065827,68.0372567 Z" id="Path-467" fill="#454545"></path>
                                <path d="M23,67.9686509 L27.6295225,57.1151781 C28.9300726,54.0661627 32.5922619,52.274802 35.7868798,53.1082257 L37.0344042,53.4336845 C39.703859,54.1301017 42.6063522,52.580802 43.507951,50 L43.507951,50 L42.1884382,56.9633364 C41.7766952,59.1361876 39.7397745,61.4352203 37.6288221,62.1015346 L38.756844,61.7454787 C35.5921974,62.7443876 30.3414532,63.5541633 28.4104953,63.5541633 L28.4104953,63.5541633 L23,67.9686509 Z" id="Path-467" fill="#454545" transform="translate(33.253975, 58.984325) scale(-1, 1) translate(-33.253975, -58.984325) "></path>
                                <path d="M46.3117482,31.3762767 C44.2670396,30.3536501 41.87039,31.2150412 40.9498964,33.3203405 L39.9121724,35.6937622 C38.9956121,37.7900656 38.9916788,41.1902873 39.8997436,43.2799847 L40.9623252,45.7252663 C41.8720213,47.8187179 43.2570424,51.2567368 44.0482026,53.3837197 L44.9122058,55.7065361 L44.9122058,55.7065361 C46.1164541,53.9785454 46.2988374,50.9058923 45.3175301,48.8392766 L43.1585566,44.2925171 C42.1781627,42.2278251 42.7158507,39.2717537 44.3590147,37.6904296 L46.36855,35.7565225 C48.0119386,34.1749823 47.6966771,32.0689256 45.6418958,31.0412613 L46.3117482,31.3762767 Z" id="Path-468" fill="#FF5FAF"></path>
                                <path d="M51.9457824,31.1291949 C53.8599939,30.1718342 55.9993575,30.7396384 56.7248857,32.3990243 L58.4555347,36.3572638 C59.1807491,38.0159318 59.181063,40.7127449 58.4614431,42.3687807 L56.7189773,46.3786557 C55.997026,48.0400568 54.906425,50.7454727 54.277269,52.4369177 L53.1090389,55.5776288 L52.8756888,55.242792 C51.8003162,53.6997265 51.5613628,51.1161417 52.3471761,49.4612328 L55.2192264,43.4127462 C56.0027096,41.7627447 55.4802836,39.3111541 54.0642074,37.9483715 L51.2507171,35.2407659 C49.8293346,33.8728767 50.2221509,31.9912403 52.1430628,31.0305284" id="Path-468" fill="#FF5FAF"></path>
                                <path d="M60,50.5642513 L64.3143997,36 L64.3143997,37.3321901 C64.3143997,39.5422314 65.4848995,39.965585 66.911637,38.2978208 L68.3611914,36.603385 L67.4072333,38.9581364 C66.5405002,41.0975817 64.7122733,44.3228113 63.3197321,46.1672422 L60,50.5642513 Z" id="Path-469" fill="#FF5FAF"></path>
                                <path d="M30.659749,50.5642513 L34.9741486,36 L34.9741486,37.3321901 C34.9741486,39.5422314 36.1446485,39.965585 37.571386,38.2978208 L39.0209403,36.603385 L38.0669823,38.9581364 C37.2002492,41.0975817 35.3720223,44.3228113 33.9794811,46.1672422 L30.659749,50.5642513 Z" id="Path-469" fill="#FF5FAF" transform="translate(34.840345, 43.282126) scale(-1, 1) translate(-34.840345, -43.282126) "></path>
                                <g id="Group-3" transform="translate(63.217623, 63.000000)" fill="#FF72B9">
                                    <path d="M0.477242123,15.4716725 L23.4505891,0.148653015 L23.4505891,0.148653015 C23.3672425,1.40720264 22.5676452,5.23167166 22.5676452,5.23167166 L22.5676452,5.23167166 L0.477242123,15.4716725 Z" id="Path-470"></path>
                                    <path d="M0.801068091,23.2096094 L21.3782715,9.58174045 L20.0486303,13.2685972 C19.6727654,14.3108033 18.5463088,15.5121377 17.5369779,15.9499619 L0.801068091,23.2096094 Z" id="Path-470"></path>
                                </g>
                                <g id="Group-3" transform="translate(25.000000, 76.000000) scale(-1, 1) translate(-25.000000, -76.000000) translate(13.000000, 64.000000)" fill="#FF72B9">
                                    <path d="M0.477242123,15.4716725 L23.4505891,0.148653015 L23.4505891,0.148653015 C23.3672425,1.40720264 22.5676452,5.23167166 22.5676452,5.23167166 L22.5676452,5.23167166 L0.477242123,15.4716725 Z" id="Path-470"></path>
                                    <path d="M0.801068091,23.2096094 L21.3782715,9.58174045 L20.0486303,13.2685972 C19.6727654,14.3108033 18.5463088,15.5121377 17.5369779,15.9499619 L0.801068091,23.2096094 Z" id="Path-470"></path>
                                </g>
                                <path d="M48.7959077,82.262147 C49.9062767,80.5763123 51.7104572,80.582259 52.8169093,82.262147 L53.9587239,83.9957246 C54.8722544,85.3827063 54.2761961,86.507077 52.6108029,86.507077 L49.0020142,86.507077 C47.3440475,86.507077 46.740468,85.3828502 47.6540932,83.9957246 L48.7959077,82.262147 Z" id="Triangle-2" fill="#363636" transform="translate(50.806409, 83.753539) scale(1, -1) translate(-50.806409, -83.753539) "></path>
                                <path d="M31,87 C31,87 38.7209977,91.4946234 42.1153786,92.2556946 C45.5097595,93.0167658 51.8195198,91.6680491 51.8195198,91.6680491 C51.8195198,91.6680491 56.586791,92.9688393 59.2757552,92.2556946 C61.9647195,91.5425499 70.7176235,87 70.7176235,87 C70.7176235,87 65.6407128,92.1955725 61.7864369,94.0482707 C57.932161,95.9009689 52.1895595,94.0482707 52.1895595,94.0482707 C52.1895595,94.0482707 42.6683297,95.4347938 39.3966706,94.0482707 C36.1250116,92.6617477 31,87 31,87 Z" id="Path-471" fill="#FF72B9"></path>
                                <g id="Group-5" transform="translate(-0.000000, 1.000000)">
                                    <path d="M21.1016998,12.1494101 C22.6510465,7.42473254 26.4158854,6.75224592 29.5020184,10.6364393 L28.5449528,9.43188079 C33.3963138,15.5377822 39.3236863,26.4939595 41.7789042,33.8875119 L42.7476244,36.80468 L5.50538408,36.0366763 L7.77753176,33.6163019 C13.111779,27.9340675 19.4039101,17.3267593 21.8373304,9.90613079 L21.1016998,12.1494101 Z" id="Triangle" fill="#FFFFFF" transform="translate(24.126504, 22.458697) scale(-1, 1) rotate(29.000000) translate(-24.126504, -22.458697) "></path>
                                    <path d="M20.2476289,17.9666763 C19.2692165,16.6261808 18.5530051,16.8859836 18.6476182,18.5415746 L19.7680117,38.1468336 L33.4222846,26.0936933 L31.9058551,25.7445671 C27.9352919,24.8304277 22.7676639,21.4193058 20.3653347,18.1279417 L20.2476289,17.9666763 Z" id="Path-2" fill="#FF5FAF"></path>
                                </g>
                                <g id="Group-5" transform="translate(76.141016, 22.500000) scale(-1, 1) translate(-76.141016, -22.500000) translate(52.141016, -0.000000)">
                                    <path d="M20.7647658,12.2564016 C22.3708728,7.54795012 26.2368013,6.83320473 29.4028784,10.6639896 L28.6092657,9.70376048 C33.5544927,15.6872221 39.6196175,26.4904771 42.1490015,33.812953 L43.1710036,36.7716124 L4.6290026,36.0075271 L7.1574045,33.4182878 C12.5800879,27.8651259 19.0080371,17.4064147 21.5124772,10.0644165 L20.7647658,12.2564016 Z" id="Triangle" fill="#FFFFFF" transform="translate(23.900003, 22.485662) scale(-1, 1) rotate(29.000000) translate(-23.900003, -22.485662) "></path>
                                    <path d="M19.8703769,18.0053756 C18.8673342,16.6842536 18.1338415,16.9528919 18.2317566,18.6000359 L19.3912521,38.1052681 L33.5220614,26.1136235 L31.9732554,25.7708262 C27.852771,24.8588391 22.4423789,21.3929963 19.887608,18.0280708 L19.8703769,18.0053756 Z" id="Path-2" fill="#FF5FAF"></path>
                                </g>
                            </g>
                            <path d="M94.0144732,46.8524866 L89.8452697,46.3751303 C89.2952603,46.3121565 88.4586973,46.4719622 87.9629158,46.7395347 L88.3737173,46.5178258 C87.3976761,47.0445937 86.5716285,48.3674872 86.5290453,49.4634059 L86.5626015,48.5998055 C86.4982116,50.2569389 87.6693588,52.1633632 89.1679935,52.8531189 L90.5323659,53.4810796 C92.5394825,54.4048672 92.9824588,56.4876775 91.5114021,58.1448588 L90.6657982,59.0974523 C88.1017733,61.9858889 84.5920097,67.1091119 82.8195126,70.5541141 L78.6456847,78.666311 L80.0585431,79.346558 L83.895124,72.4856062 C86.0078106,68.7074922 89.9426002,62.9311706 92.6876194,59.5790725 L93.4795907,58.6119515 C94.8784984,56.9036662 94.4971919,54.5472762 92.6448105,53.3596373 L89.5380595,51.3677697 C89.0747244,51.0707063 88.8269042,50.4017093 88.9834049,49.8773177 L89.362351,48.6075718 C89.5193588,48.0814813 90.0965518,47.7189487 90.6273969,47.7943999 L94.166572,48.2974378 L94.0144732,46.8524866 Z" id="Path-466" fill="#F3336A"></path>
                            <path d="M93.8729189,48.0290125 L94.1004031,47.4685791 C95.3361565,44.4241583 98.7834473,42.9998247 99.5012539,43.3061585 L99.5012539,43.3061585 L99.5012539,43.3061585 C100.851368,45.1677077 100.483868,48.9051299 100.433551,48.9818224 L100.433551,48.9818224 L100.433551,48.9818224 C99.5634756,50.5848336 97.1703717,53.3668516 95.1052211,55.1808612 L93.8729189,56.2633043 L88.8535936,78.0853009" id="Path-472" stroke="#F3336A" stroke-width="2"></path>
                            <g id="Group-6" transform="translate(75.000000, 71.000000)">
                                <ellipse id="Oval-2" stroke="#FFD98A" stroke-width="0.2" fill="#FFEE99" transform="translate(5.469611, 5.455397) rotate(29.000000) translate(-5.469611, -5.455397) " cx="5.46961144" cy="5.45539652" rx="4.03646629" ry="4"></ellipse>
                                <path d="M3.11018034,2.22499477 L4.17008078,3.52686524 L4.7388194,3.94705012 C5.38399838,4.42370923 6.55080062,4.86627945 7.35492017,4.93642857 L9.41698244,5.11631706" id="Path-473" stroke="#383838" stroke-width="0.1"></path>
                                <path d="M2.05367641,3.42503277 L3.35625003,4.90621123 C3.92499517,5.55294094 5.0836592,6.14463959 5.94977604,6.2283462 L9.32818743,6.55485568" id="Path-473" stroke="#383838" stroke-width="0.1"></path>
                                <polygon id="Path-474" fill="#565656" transform="translate(4.394707, 7.693982) rotate(15.000000) translate(-4.394707, -7.693982) " points="2.49499202 7.41981434 2.72265215 6.73289091 6.29442202 7.67298415 5.98806074 8.40611283 4.62085273 8.0976411 4.44286026 8.65507382 3.64331261 8.46667612 3.64331261 7.82799915"></polygon>
                            </g>
                            <g id="Group-6" transform="translate(89.383222, 79.489384) rotate(-25.000000) translate(-89.383222, -79.489384) translate(83.883222, 73.989384)">
                                <ellipse id="Oval-2" stroke="#FFD98A" stroke-width="0.2" fill="#FFEE99" transform="translate(5.469611, 5.455397) rotate(29.000000) translate(-5.469611, -5.455397) " cx="5.46961144" cy="5.45539652" rx="4.03646629" ry="4"></ellipse>
                                <path d="M3.11018034,2.22499477 L4.17008078,3.52686524 L4.7388194,3.94705012 C5.38399838,4.42370923 6.55080062,4.86627945 7.35492017,4.93642857 L9.41698244,5.11631706" id="Path-473" stroke="#383838" stroke-width="0.1"></path>
                                <path d="M2.05367641,3.42503277 L3.35625003,4.90621123 C3.92499517,5.55294094 5.0836592,6.14463959 5.94977604,6.2283462 L9.32818743,6.55485568" id="Path-473" stroke="#383838" stroke-width="0.1"></path>
                                <polygon id="Path-474" fill="#565656" transform="translate(4.394707, 7.693982) rotate(15.000000) translate(-4.394707, -7.693982) " points="2.49499202 7.41981434 2.72265215 6.73289091 6.29442202 7.67298415 5.98806074 8.40611283 4.62085273 8.0976411 4.44286026 8.65507382 3.64331261 8.46667612 3.64331261 7.82799915"></polygon>
                            </g>
                            <g id="Group-7" transform="translate(-0.000000, 41.000000)">
                                <path d="M19.3687885,3.49105101 L15.1995849,3.01369465 C14.6495755,2.95072088 13.8130125,3.11052658 13.3172311,3.37809905 L13.7280326,3.15639014 C12.7519913,3.68315808 11.9259437,5.00605156 11.8833605,6.10197031 L11.9169167,5.23836987 C11.8525269,6.89550328 13.0236741,8.80192754 14.5223088,9.49168328 L15.8866811,10.119644 C17.8937978,11.0434316 18.336774,13.1262419 16.8657174,14.7834231 L16.0201134,15.7360167 C13.4560886,18.6244533 9.94632501,23.7476762 8.17382783,27.1926785 L4,35.3048754 L5.41285832,35.9851224 L9.2494393,29.1241706 C11.3621259,25.3460565 15.2969155,19.569735 18.0419346,16.2176369 L18.833906,15.2505159 C20.2328137,13.5422305 19.8515071,11.1858406 17.9991258,9.9982017 L14.8923747,8.00633408 C14.4290397,7.70927069 14.1812194,7.04027368 14.3377202,6.51588208 L14.7166663,5.24613619 C14.873674,4.72004567 15.450867,4.35751308 15.9817122,4.43296433 L19.5208873,4.93600216 L19.3687885,3.49105101 Z" id="Path-466" fill="#F3336A"></path>
                                <path d="M19.0193253,4.76359759 L19.2468095,4.20316414 C20.4825629,1.15874335 23.9298537,-0.265590276 24.6476603,0.040743551 L24.6476603,0.040743551 L24.6476603,0.040743551 C25.9977743,1.90229278 25.6302743,5.63971496 25.5799573,5.71640747 L25.5799573,5.71640747 L25.5799573,5.71640747 C24.709882,7.31941864 22.3167781,10.1014366 20.2516275,11.9154462 L19.0193253,12.9978894 L14,34.819886" id="Path-472" stroke="#F3336A" stroke-width="2"></path>
                                <g id="Group-6" transform="translate(-0.000000, 27.000000)">
                                    <ellipse id="Oval-2" stroke="#FFD98A" stroke-width="0.2" fill="#FFEE99" transform="translate(5.469611, 5.455397) rotate(29.000000) translate(-5.469611, -5.455397) " cx="5.46961144" cy="5.45539652" rx="4.03646629" ry="4"></ellipse>
                                    <path d="M3.11018034,2.22499477 L4.17008078,3.52686524 L4.7388194,3.94705012 C5.38399838,4.42370923 6.55080062,4.86627945 7.35492017,4.93642857 L9.41698244,5.11631706" id="Path-473" stroke="#383838" stroke-width="0.1"></path>
                                    <path d="M2.05367641,3.42503277 L3.35625003,4.90621123 C3.92499517,5.55294094 5.0836592,6.14463959 5.94977604,6.2283462 L9.32818743,6.55485568" id="Path-473" stroke="#383838" stroke-width="0.1"></path>
                                    <polygon id="Path-474" fill="#565656" transform="translate(4.394707, 7.693982) rotate(15.000000) translate(-4.394707, -7.693982) " points="2.49499202 7.41981434 2.72265215 6.73289091 6.29442202 7.67298415 5.98806074 8.40611283 4.62085273 8.0976411 4.44286026 8.65507382 3.64331261 8.46667612 3.70076103 7.85660463"></polygon>
                                </g>
                                <g id="Group-6" transform="translate(14.309093, 35.309093) rotate(-25.000000) translate(-14.309093, -35.309093) translate(8.809093, 29.809093)">
                                    <ellipse id="Oval-2" stroke="#FFD98A" stroke-width="0.2" fill="#FFEE99" transform="translate(5.469611, 5.455397) rotate(29.000000) translate(-5.469611, -5.455397) " cx="5.46961144" cy="5.45539652" rx="4.03646629" ry="4"></ellipse>
                                    <path d="M3.11018034,2.22499477 L4.17008078,3.52686524 L4.7388194,3.94705012 C5.38399838,4.42370923 6.55080062,4.86627945 7.35492017,4.93642857 L9.41698244,5.11631706" id="Path-473" stroke="#383838" stroke-width="0.1"></path>
                                    <path d="M2.05367641,3.42503277 L3.35625003,4.90621123 C3.92499517,5.55294094 5.0836592,6.14463959 5.94977604,6.2283462 L9.32818743,6.55485568" id="Path-473" stroke="#383838" stroke-width="0.1"></path>
                                    <polygon id="Path-474" fill="#565656" transform="translate(4.394707, 7.693982) rotate(15.000000) translate(-4.394707, -7.693982) " points="2.49499202 7.41981434 2.72265215 6.73289091 6.29442202 7.67298415 5.98806074 8.40611283 4.62085273 8.0976411 4.44286026 8.65507382 3.64331261 8.46667612 3.64331261 7.82799915"></polygon>
                                </g>
                            </g>
                        </g>
                        <polygon id="Path-485" fill="#565656" points="87.7389889 81.775885 88.3351528 80.5299802 89.123418 80.9108236 88.6061745 82.3828927"></polygon>
                        <polygon id="Path-485" fill="#565656" points="12.9676237 88.3858816 13.6948179 86.9613237 14.2596345 87.1913488 13.7264983 88.5962201"></polygon>
                        <polygon id="Path-485" fill="#565656" transform="translate(23.502620, 89.426446) rotate(-30.000000) translate(-23.502620, -89.426446) " points="22.856615 90.033556 23.5838092 88.6089981 24.1486258 88.8390232 23.6154896 90.2438944"></polygon>
                        <polygon id="Path-485" fill="#565656" transform="translate(98.355464, 83.427958) rotate(-33.000000) translate(-98.355464, -83.427958) " points="97.7094585 84.0350674 98.4366527 82.6105094 99.0014693 82.8405346 98.4683331 84.2454058"></polygon>
                    </g>
                    <g id="Group-11" transform="translate(42.000000, 132.000000)">
                        <g id="Group-10">
                            <path d="M19.1356076,54.8551719 L19.2325992,52.0034712 L8.55764216,37.8059547 L4.89841267,30.0558039 L2.83017001,27.7174517 C0.266114473,24.8185342 -0.330180799,19.7086992 1.50343519,16.2947681 L1.13217135,16.9860084 C1.91402098,15.5303161 2.45986556,13.0092315 2.3516532,11.3596405 L2.25824476,9.93572062 C2.14989636,8.28405577 3.1485177,7.73110081 4.48683658,8.69929287 L4.40604538,8.64084537 C4.855054,8.96567571 5.31666302,9.6594029 5.44157651,10.2101631 L6.19971698,13.5529049 L6.19971698,13.5529049 C5.19477678,20.6496736 10.2871652,26.4027413 10.2871652,26.4027413 L10.2871652,26.4027413 L13.5647989,31.0367445 L16.6572876,20.4725077 C17.5873447,17.2953438 19.6717646,12.3902108 21.3167019,9.51005177 L24.0198766,4.77700028 C24.8395295,3.34185094 26.586164,1.39076925 27.9317771,0.411361529 L27.5233477,0.708637828 C27.9654636,0.386842742 28.6325745,0.440450214 29.0307888,0.846105969 L29.2180342,1.03685036 C29.608455,1.434567 29.7474281,2.15724643 29.5225871,2.66419488 L24.2028594,14.6585711 L24.2028594,14.6585711 C22.7829547,17.078459 22.5231732,24.7947666 22.9681155,27.667566 L22.9681155,27.667566 L30.3705493,15.2287146 C32.6313316,11.4297568 36.7618163,5.60810364 39.6053978,2.21476629 L40.7277223,0.875460442 C41.0794235,0.455763978 41.7018384,0.41260137 42.1102752,0.772317089 L41.8069657,0.505188374 C42.2188273,0.867920337 42.3746992,1.57012676 42.1533362,2.07768958 L39.2418153,8.7535109 L34.0458312,20.1950427 C33.1324813,22.2062347 32.1629671,25.6181004 31.8820462,27.8025517 L32.1131199,26.0057139 C31.9728547,27.0964209 32.3123242,27.2191966 32.8817442,26.2624706 L37.5672872,18.3899324 C38.4158039,16.9642748 39.1763697,14.473114 39.2667862,12.8124024 L39.4545646,9.36341201 L43.0053587,1.91957491 L43.0053587,1.91957491 C43.7899433,1.95335769 44.3065128,2.86098799 44.1579909,3.95535785 L42.469159,16.3993554 L40.5507997,21.8490207 C40.0017254,23.4088285 39.5452618,26.0258244 39.5315173,27.663572 L39.5166289,29.4376328 L39.5166289,29.4376328 C41.1472662,28.7534078 42.939268,26.0197979 43.5220515,23.3186209 L44.1096855,20.5949618 L43.2043822,15.4054314 L44.0395648,11.1862525 L44.0395648,11.1862525 C45.1426963,12.1723802 46.9825517,15.4913282 48.1101475,18.4958158 L48.1101475,18.4958158 L48.1101475,18.4958158 C48.4044697,21.1135697 46.7691403,27.2999619 46.3547423,28.1987338 L46.3547423,28.1987338 L45.8865993,38.7423867 C45.6904807,43.1594269 44.0333038,49.9884138 42.1826534,54.0008581 L42.0227734,54.3474981 L37.7534656,57.1001095 L34.003648,64.3043426 L19.1356076,54.8551719 Z" id="Path-475" fill="#F3EADC"></path>
                            <path d="M2.34826486,11.5021491 L3.76043551,11.5883728 L3.79241018,8.97715654 C3.79805027,8.51655781 3.43158197,8.19490511 3.22648621,8.19274902 C3.22648621,8.19274902 3.387777,8.22356586 3.22648621,8.19274902 C3.06519541,8.16193218 2.69910528,8.39500774 2.69910528,8.39500774 L2.60392687,8.48988524 C2.27844712,8.81433601 2.06672977,9.45622935 2.12755949,9.89827988 L2.34826486,11.5021491 Z" id="Path-476" fill="#FF72B9"></path>
                            <path d="M2.21974553,10.6749757 L3.35938483,10.6749757 L3.48380022,9.07425103 C3.51325315,8.69531047 3.25717443,8.28849991 3.06523816,8.22020177 L3.06523816,8.22020177 L3.03552329,8.22741694 C2.67000393,8.31616993 2.29363813,8.68889259 2.1970683,9.05171994 L2.20515729,9.02132839 C2.10761075,9.38782537 2.08694251,9.98735586 2.1592449,10.361719 L2.21974553,10.6749757 Z" id="Path-476" fill="#FF96CB"></path>
                            <path d="M28.0799872,0.291718113 C27.166055,0.774115278 26.0275157,1.89326265 25.610779,2.65629513 L25.610779,2.65629513 L28.9507534,3.95283373 L29.4318402,3.04899 C29.9137886,2.1435275 29.5789291,1.00371845 28.6851736,0.503861659 L28.1961889,0.230383824 L28.0799872,0.291718113 Z" id="Path-477" fill="#FF72B9"></path>
                            <path d="M42.2346492,1.10388124 C41.8711694,0.300129523 41.1242163,0.212697808 40.5766294,0.895691929 L39.0466161,2.80404676 L41.1866897,4.23756061 L41.7706034,3.40564372 C42.2760894,2.68546494 42.3943965,1.45712557 42.0277283,0.646323458 L42.2346492,1.10388124 Z" id="Path-478" fill="#FF72B9"></path>
                            <path d="M44.0978597,2.09687551 C43.5597737,1.61743855 42.8955063,1.77020686 42.617136,2.43106782 L41.7424568,4.50758797 L43.9697794,5.61326173 C43.9697794,5.61326173 44.410232,3.34564243 44.3681613,2.68186574 C44.3260906,2.01808905 44.0978597,2.09687551 44.0978597,2.09687551 Z" id="Path-479" fill="#FF72B9"></path>
                            <path d="M44.6482932,11.2327909 C43.9906107,10.8815403 43.4356031,11.2126446 43.408965,11.9634328 L43.3093683,14.770532 L46.0515963,13.9527072 C46.0515963,13.9527072 45.5483313,12.2296187 45.0953231,11.6435848 C44.6423149,11.0575508 44.6482932,11.2327909 44.6482932,11.2327909 Z" id="Path-480" fill="#FF72B9"></path>
                            <path d="M18.5604796,31.0283735 L18.3987434,32.7924758 C18.3297739,33.5447464 18.4629451,34.7392122 18.6924921,35.4489568 L18.9935228,36.3797247" id="Path-481" stroke="#CABDA8" stroke-width="0.5"></path>
                            <path d="M28.0123189,30.9966478 L27.0411595,32.8244184 C26.8791955,33.1292428 26.7478978,33.6549554 26.7478978,34.0114696 L26.7478978,36.1752698" id="Path-482" stroke="#CABDA8" stroke-width="0.5"></path>
                            <path d="M35.5120987,32.7304542 L35.2580626,33.2478616 C34.9041476,33.9686969 34.6417191,35.1997427 34.6718919,35.9969482 L34.7051112,36.8746434" id="Path-483" stroke="#CABDA8" stroke-width="0.5"></path>
                            <path d="M41.8087938,35.446288 L41.7860224,35.5309301 C41.6383261,36.0799214 41.5185946,36.9893646 41.5185946,37.4994253 L41.5185946,37.4994253" id="Path-484" stroke="#CABDA8" stroke-width="0.5"></path>
                        </g>
                        <path d="M26.2937777,2.10468725 L27.5515522,0.595801991 C27.9071017,0.169268083 28.5103285,0.14309162 28.8938623,0.53222713 L28.8642393,0.502171538 C29.4433034,1.08969313 29.5595894,2.13492098 29.1221507,2.83968666 L28.8696509,3.24649374 L26.2937777,2.10468725 Z" id="Path-486" fill="#FF96CB"></path>
                        <path d="M40,1.78145046 L40.8172483,0.751087948 C41.1575953,0.321988482 41.7147099,0.329761373 42.0539353,0.758758059 L41.9476907,0.624397284 C42.3333314,1.11209239 42.3616134,1.92457933 42.0075945,2.44392842 L41.6808559,2.92325695 L40,1.78145046 Z" id="Path-486" fill="#FF96CB"></path>
                        <path d="M42.1916437,3.04594787 L43.008892,2.01558536 C43.349239,1.58648589 43.9063535,1.59425878 44.245579,2.02325547 L44.1393344,1.88889469 C44.5249751,2.3765898 44.553257,3.18907674 44.1992381,3.70842583 L43.8724996,4.18775436 L42.1916437,3.04594787 Z" id="Path-486" fill="#FF96CB" transform="translate(43.319644, 2.942681) rotate(-16.000000) translate(-43.319644, -2.942681) "></path>
                        <path d="M43.1640921,12.4433622 L43.9813404,11.4129996 C44.3216874,10.9839002 44.878802,10.9916731 45.2180275,11.4206698 L45.1117828,11.286309 C45.4974236,11.7740041 45.5257055,12.586491 45.1716866,13.1058401 L44.8449481,13.5851686 L43.1640921,12.4433622 Z" id="Path-486" fill="#FF96CB" transform="translate(44.292092, 12.340096) rotate(-50.000000) translate(-44.292092, -12.340096) "></path>
                    </g>
                    <g id="Group-17" transform="translate(77.000000, 127.000000)">
                        <g id="Group-15" transform="translate(0.000000, 1.000000)" fill="#6C3D53">
                            <path d="M53.181572,0.339560233 L54.4582252,18.7619119 L54.4582252,18.7619119 C52.3115555,23.4978566 45.6684253,27.8540205 39.6330931,28.4903357 L18.2181331,30.748151 C12.1771085,31.3850664 6.5167345,36.7702666 5.57797554,42.75948 L0.483290947,75.2631939 L70.2379602,101.579619 L149.471554,69.0864722 L144.858669,57.3249201 C143.042983,52.6954351 137.923955,47.244569 133.403724,45.1401639 L102.89311,30.9358728 C99.8938233,29.5395474 96.8345621,25.8042171 96.0547192,22.5706373 L91.1548029,2.25337967 L81.3630312,7.26886029 C71.0409467,12.5559744 57.9830221,8.68748588 53.181572,0.339560233 L53.181572,0.339560233 Z" id="Path-489"></path>
                        </g>
                        <polygon id="Path-491" fill="#EC5379" points="52.8028094 0.543500658 71.3422283 20.0120016 91.2981372 2.89683569 97.8729845 28.2151722 68.2621581 45.9209167 51.0157333 25.0480988"></polygon>
                        <polygon id="Path-492" fill="#EC5379" points="63.491224 34.1300488 58.2811285 97.5779677 73.4840431 103.462735 86.3436153 94.5287413 80.8834918 38.1817281"></polygon>
                    </g>
                    <g id="Group-13" transform="translate(35.000000, 173.000000)">
                        <g id="Group-12" transform="translate(26.000000, 0.000000)">
                            <path d="M12.3711128,5.7492367 L8.92399075,0.709617868 C8.92399075,0.709617868 4.17968938,4.24906955 2.48230709,6.62249245 C0.784924797,8.99591534 0.583318923,11.7726233 0.583318923,11.7726233 C-0.133626491,15.1548419 0.968133462,20.1326512 3.0592659,22.9109299 L12.8988593,35.9838142 L12.3711128,5.7492367 Z" id="Path-493" fill="#F7BFBF" transform="translate(6.631694, 18.346716) rotate(1.000000) translate(-6.631694, -18.346716) "></path>
                            <path d="M23.9178851,5.9053293 L21.0907907,1 C21.0907907,1 16.3464893,4.53945169 14.6491071,6.91287458 C12.9517248,9.28629747 12.6438165,12.4841575 12.6438165,12.4841575 C11.9855803,15.6337802 12.9526102,20.3224428 14.8083705,22.9631703 L24.100617,36.1859397 L23.9178851,5.9053293 Z" id="Path-493" fill="#E7AEAE" transform="translate(18.268956, 18.592970) scale(-1, 1) translate(-18.268956, -18.592970) "></path>
                        </g>
                        <g id="Group-12" transform="translate(54.166022, 31.568492) rotate(79.000000) translate(-54.166022, -31.568492) translate(41.666022, 13.068492)">
                            <path d="M12.3711128,5.7492367 L8.92399075,0.709617868 C8.92399075,0.709617868 4.17968938,4.24906955 2.48230709,6.62249245 C0.784924797,8.99591534 0.583318923,11.7726233 0.583318923,11.7726233 C-0.133626491,15.1548419 0.968133462,20.1326512 3.0592659,22.9109299 L12.8988593,35.9838142 L12.3711128,5.7492367 Z" id="Path-493" fill="#F7BFBF" transform="translate(6.631694, 18.346716) rotate(1.000000) translate(-6.631694, -18.346716) "></path>
                            <path d="M23.9178851,5.9053293 L21.0907907,1 C21.0907907,1 16.3464893,4.53945169 14.6491071,6.91287458 C12.9517248,9.28629747 12.6438165,12.4841575 12.6438165,12.4841575 C11.9855803,15.6337802 12.9526102,20.3224428 14.8083705,22.9631703 L24.100617,36.1859397 L23.9178851,5.9053293 Z" id="Path-493" fill="#E7AEAE" transform="translate(18.268956, 18.592970) scale(-1, 1) translate(-18.268956, -18.592970) "></path>
                        </g>
                        <g id="Group-12" transform="translate(21.527431, 31.078400) rotate(-79.000000) translate(-21.527431, -31.078400) translate(9.027431, 12.578400)">
                            <path d="M12.3711128,5.7492367 L8.92399075,0.709617868 C8.92399075,0.709617868 4.17968938,4.24906955 2.48230709,6.62249245 C0.784924797,8.99591534 0.583318923,11.7726233 0.583318923,11.7726233 C-0.133626491,15.1548419 0.968133462,20.1326512 3.0592659,22.9109299 L12.8988593,35.9838142 L12.3711128,5.7492367 Z" id="Path-493" fill="#F7BFBF" transform="translate(6.631694, 18.346716) rotate(1.000000) translate(-6.631694, -18.346716) "></path>
                            <path d="M23.9178851,5.9053293 L21.0907907,1 C21.0907907,1 16.3464893,4.53945169 14.6491071,6.91287458 C12.9517248,9.28629747 12.6438165,12.4841575 12.6438165,12.4841575 C11.9855803,15.6337802 12.9526102,20.3224428 14.8083705,22.9631703 L24.100617,36.1859397 L23.9178851,5.9053293 Z" id="Path-493" fill="#E7AEAE" transform="translate(18.268956, 18.592970) scale(-1, 1) translate(-18.268956, -18.592970) "></path>
                        </g>
                        <g id="Group-12" transform="translate(25.135608, 46.598456) rotate(-132.000000) translate(-25.135608, -46.598456) translate(12.635608, 28.098456)">
                            <path d="M12.3711128,5.7492367 L8.92399075,0.709617868 C8.92399075,0.709617868 4.17968938,4.24906955 2.48230709,6.62249245 C0.784924797,8.99591534 0.583318923,11.7726233 0.583318923,11.7726233 C-0.133626491,15.1548419 0.968133462,20.1326512 3.0592659,22.9109299 L12.8988593,35.9838142 L12.3711128,5.7492367 Z" id="Path-493" fill="#F7BFBF" transform="translate(6.631694, 18.346716) rotate(1.000000) translate(-6.631694, -18.346716) "></path>
                            <path d="M23.9178851,5.9053293 L21.0907907,1 C21.0907907,1 16.3464893,4.53945169 14.6491071,6.91287458 C12.9517248,9.28629747 12.6438165,12.4841575 12.6438165,12.4841575 C11.9855803,15.6337802 12.9526102,20.3224428 14.8083705,22.9631703 L24.100617,36.1859397 L23.9178851,5.9053293 Z" id="Path-493" fill="#E7AEAE" transform="translate(18.268956, 18.592970) scale(-1, 1) translate(-18.268956, -18.592970) "></path>
                        </g>
                        <g id="Group-12" transform="translate(44.881647, 49.792465) rotate(-203.000000) translate(-44.881647, -49.792465) translate(32.381647, 31.292465)">
                            <path d="M12.3711128,5.7492367 L8.92399075,0.709617868 C8.92399075,0.709617868 4.17968938,4.24906955 2.48230709,6.62249245 C0.784924797,8.99591534 0.583318923,11.7726233 0.583318923,11.7726233 C-0.133626491,15.1548419 0.968133462,20.1326512 3.0592659,22.9109299 L12.8988593,35.9838142 L12.3711128,5.7492367 Z" id="Path-493" fill="#F7BFBF" transform="translate(6.631694, 18.346716) rotate(1.000000) translate(-6.631694, -18.346716) "></path>
                            <path d="M23.9178851,5.9053293 L21.0907907,1 C21.0907907,1 16.3464893,4.53945169 14.6491071,6.91287458 C12.9517248,9.28629747 12.6438165,12.4841575 12.6438165,12.4841575 C11.9855803,15.6337802 12.9526102,20.3224428 14.8083705,22.9631703 L24.100617,36.1859397 L23.9178851,5.9053293 Z" id="Path-493" fill="#E7AEAE" transform="translate(18.268956, 18.592970) scale(-1, 1) translate(-18.268956, -18.592970) "></path>
                        </g>
                        <circle id="Oval-5" fill="#DD8989" cx="39.5" cy="34.5" r="3.5"></circle>
                    </g>
                    <g id="Group-13" transform="translate(178.000000, 181.000000)">
                        <g id="Group-12" transform="translate(26.000000, 0.000000)">
                            <path d="M12.3711128,5.7492367 L8.92399075,0.709617868 C8.92399075,0.709617868 4.17968938,4.24906955 2.48230709,6.62249245 C0.784924797,8.99591534 0.583318923,11.7726233 0.583318923,11.7726233 C-0.133626491,15.1548419 0.968133462,20.1326512 3.0592659,22.9109299 L12.8988593,35.9838142 L12.3711128,5.7492367 Z" id="Path-493" fill="#F7BFBF" transform="translate(6.631694, 18.346716) rotate(1.000000) translate(-6.631694, -18.346716) "></path>
                            <path d="M23.9178851,5.9053293 L21.0907907,1 C21.0907907,1 16.3464893,4.53945169 14.6491071,6.91287458 C12.9517248,9.28629747 12.6438165,12.4841575 12.6438165,12.4841575 C11.9855803,15.6337802 12.9526102,20.3224428 14.8083705,22.9631703 L24.100617,36.1859397 L23.9178851,5.9053293 Z" id="Path-493" fill="#E7AEAE" transform="translate(18.268956, 18.592970) scale(-1, 1) translate(-18.268956, -18.592970) "></path>
                        </g>
                        <g id="Group-12" transform="translate(54.166022, 31.568492) rotate(79.000000) translate(-54.166022, -31.568492) translate(41.666022, 13.068492)">
                            <path d="M12.3711128,5.7492367 L8.92399075,0.709617868 C8.92399075,0.709617868 4.17968938,4.24906955 2.48230709,6.62249245 C0.784924797,8.99591534 0.583318923,11.7726233 0.583318923,11.7726233 C-0.133626491,15.1548419 0.968133462,20.1326512 3.0592659,22.9109299 L12.8988593,35.9838142 L12.3711128,5.7492367 Z" id="Path-493" fill="#F7BFBF" transform="translate(6.631694, 18.346716) rotate(1.000000) translate(-6.631694, -18.346716) "></path>
                            <path d="M23.9178851,5.9053293 L21.0907907,1 C21.0907907,1 16.3464893,4.53945169 14.6491071,6.91287458 C12.9517248,9.28629747 12.6438165,12.4841575 12.6438165,12.4841575 C11.9855803,15.6337802 12.9526102,20.3224428 14.8083705,22.9631703 L24.100617,36.1859397 L23.9178851,5.9053293 Z" id="Path-493" fill="#E7AEAE" transform="translate(18.268956, 18.592970) scale(-1, 1) translate(-18.268956, -18.592970) "></path>
                        </g>
                        <g id="Group-12" transform="translate(21.527431, 31.078400) rotate(-79.000000) translate(-21.527431, -31.078400) translate(9.027431, 12.578400)">
                            <path d="M12.3711128,5.7492367 L8.92399075,0.709617868 C8.92399075,0.709617868 4.17968938,4.24906955 2.48230709,6.62249245 C0.784924797,8.99591534 0.583318923,11.7726233 0.583318923,11.7726233 C-0.133626491,15.1548419 0.968133462,20.1326512 3.0592659,22.9109299 L12.8988593,35.9838142 L12.3711128,5.7492367 Z" id="Path-493" fill="#F7BFBF" transform="translate(6.631694, 18.346716) rotate(1.000000) translate(-6.631694, -18.346716) "></path>
                            <path d="M23.9178851,5.9053293 L21.0907907,1 C21.0907907,1 16.3464893,4.53945169 14.6491071,6.91287458 C12.9517248,9.28629747 12.6438165,12.4841575 12.6438165,12.4841575 C11.9855803,15.6337802 12.9526102,20.3224428 14.8083705,22.9631703 L24.100617,36.1859397 L23.9178851,5.9053293 Z" id="Path-493" fill="#E7AEAE" transform="translate(18.268956, 18.592970) scale(-1, 1) translate(-18.268956, -18.592970) "></path>
                        </g>
                        <g id="Group-12" transform="translate(25.135608, 46.598456) rotate(-132.000000) translate(-25.135608, -46.598456) translate(12.635608, 28.098456)">
                            <path d="M12.3711128,5.7492367 L8.92399075,0.709617868 C8.92399075,0.709617868 4.17968938,4.24906955 2.48230709,6.62249245 C0.784924797,8.99591534 0.583318923,11.7726233 0.583318923,11.7726233 C-0.133626491,15.1548419 0.968133462,20.1326512 3.0592659,22.9109299 L12.8988593,35.9838142 L12.3711128,5.7492367 Z" id="Path-493" fill="#F7BFBF" transform="translate(6.631694, 18.346716) rotate(1.000000) translate(-6.631694, -18.346716) "></path>
                            <path d="M23.9178851,5.9053293 L21.0907907,1 C21.0907907,1 16.3464893,4.53945169 14.6491071,6.91287458 C12.9517248,9.28629747 12.6438165,12.4841575 12.6438165,12.4841575 C11.9855803,15.6337802 12.9526102,20.3224428 14.8083705,22.9631703 L24.100617,36.1859397 L23.9178851,5.9053293 Z" id="Path-493" fill="#E7AEAE" transform="translate(18.268956, 18.592970) scale(-1, 1) translate(-18.268956, -18.592970) "></path>
                        </g>
                        <g id="Group-12" transform="translate(44.881647, 49.792465) rotate(-203.000000) translate(-44.881647, -49.792465) translate(32.381647, 31.292465)">
                            <path d="M12.3711128,5.7492367 L8.92399075,0.709617868 C8.92399075,0.709617868 4.17968938,4.24906955 2.48230709,6.62249245 C0.784924797,8.99591534 0.583318923,11.7726233 0.583318923,11.7726233 C-0.133626491,15.1548419 0.968133462,20.1326512 3.0592659,22.9109299 L12.8988593,35.9838142 L12.3711128,5.7492367 Z" id="Path-493" fill="#F7BFBF" transform="translate(6.631694, 18.346716) rotate(1.000000) translate(-6.631694, -18.346716) "></path>
                            <path d="M23.9178851,5.9053293 L21.0907907,1 C21.0907907,1 16.3464893,4.53945169 14.6491071,6.91287458 C12.9517248,9.28629747 12.6438165,12.4841575 12.6438165,12.4841575 C11.9855803,15.6337802 12.9526102,20.3224428 14.8083705,22.9631703 L24.100617,36.1859397 L23.9178851,5.9053293 Z" id="Path-493" fill="#E7AEAE" transform="translate(18.268956, 18.592970) scale(-1, 1) translate(-18.268956, -18.592970) "></path>
                        </g>
                        <circle id="Oval-5" fill="#DD8989" cx="39.5" cy="34.5" r="3.5"></circle>
                    </g>
                    <g id="Group-13" transform="translate(106.000000, 194.000000)">
                        <g id="Group-12" transform="translate(26.000000, 0.000000)">
                            <path d="M12.3711128,5.7492367 L8.92399075,0.709617868 C8.92399075,0.709617868 4.17968938,4.24906955 2.48230709,6.62249245 C0.784924797,8.99591534 0.583318923,11.7726233 0.583318923,11.7726233 C-0.133626491,15.1548419 0.968133462,20.1326512 3.0592659,22.9109299 L12.8988593,35.9838142 L12.3711128,5.7492367 Z" id="Path-493" fill="#F7BFBF" transform="translate(6.631694, 18.346716) rotate(1.000000) translate(-6.631694, -18.346716) "></path>
                            <path d="M23.9178851,5.9053293 L21.0907907,1 C21.0907907,1 16.3464893,4.53945169 14.6491071,6.91287458 C12.9517248,9.28629747 12.6438165,12.4841575 12.6438165,12.4841575 C11.9855803,15.6337802 12.9526102,20.3224428 14.8083705,22.9631703 L24.100617,36.1859397 L23.9178851,5.9053293 Z" id="Path-493" fill="#E7AEAE" transform="translate(18.268956, 18.592970) scale(-1, 1) translate(-18.268956, -18.592970) "></path>
                        </g>
                        <g id="Group-12" transform="translate(54.166022, 31.568492) rotate(79.000000) translate(-54.166022, -31.568492) translate(41.666022, 13.068492)">
                            <path d="M12.3711128,5.7492367 L8.92399075,0.709617868 C8.92399075,0.709617868 4.17968938,4.24906955 2.48230709,6.62249245 C0.784924797,8.99591534 0.583318923,11.7726233 0.583318923,11.7726233 C-0.133626491,15.1548419 0.968133462,20.1326512 3.0592659,22.9109299 L12.8988593,35.9838142 L12.3711128,5.7492367 Z" id="Path-493" fill="#F7BFBF" transform="translate(6.631694, 18.346716) rotate(1.000000) translate(-6.631694, -18.346716) "></path>
                            <path d="M23.9178851,5.9053293 L21.0907907,1 C21.0907907,1 16.3464893,4.53945169 14.6491071,6.91287458 C12.9517248,9.28629747 12.6438165,12.4841575 12.6438165,12.4841575 C11.9855803,15.6337802 12.9526102,20.3224428 14.8083705,22.9631703 L24.100617,36.1859397 L23.9178851,5.9053293 Z" id="Path-493" fill="#E7AEAE" transform="translate(18.268956, 18.592970) scale(-1, 1) translate(-18.268956, -18.592970) "></path>
                        </g>
                        <g id="Group-12" transform="translate(21.527431, 31.078400) rotate(-79.000000) translate(-21.527431, -31.078400) translate(9.027431, 12.578400)">
                            <path d="M12.3711128,5.7492367 L8.92399075,0.709617868 C8.92399075,0.709617868 4.17968938,4.24906955 2.48230709,6.62249245 C0.784924797,8.99591534 0.583318923,11.7726233 0.583318923,11.7726233 C-0.133626491,15.1548419 0.968133462,20.1326512 3.0592659,22.9109299 L12.8988593,35.9838142 L12.3711128,5.7492367 Z" id="Path-493" fill="#F7BFBF" transform="translate(6.631694, 18.346716) rotate(1.000000) translate(-6.631694, -18.346716) "></path>
                            <path d="M23.9178851,5.9053293 L21.0907907,1 C21.0907907,1 16.3464893,4.53945169 14.6491071,6.91287458 C12.9517248,9.28629747 12.6438165,12.4841575 12.6438165,12.4841575 C11.9855803,15.6337802 12.9526102,20.3224428 14.8083705,22.9631703 L24.100617,36.1859397 L23.9178851,5.9053293 Z" id="Path-493" fill="#E7AEAE" transform="translate(18.268956, 18.592970) scale(-1, 1) translate(-18.268956, -18.592970) "></path>
                        </g>
                        <g id="Group-12" transform="translate(25.135608, 46.598456) rotate(-132.000000) translate(-25.135608, -46.598456) translate(12.635608, 28.098456)">
                            <path d="M12.3711128,5.7492367 L8.92399075,0.709617868 C8.92399075,0.709617868 4.17968938,4.24906955 2.48230709,6.62249245 C0.784924797,8.99591534 0.583318923,11.7726233 0.583318923,11.7726233 C-0.133626491,15.1548419 0.968133462,20.1326512 3.0592659,22.9109299 L12.8988593,35.9838142 L12.3711128,5.7492367 Z" id="Path-493" fill="#F7BFBF" transform="translate(6.631694, 18.346716) rotate(1.000000) translate(-6.631694, -18.346716) "></path>
                            <path d="M23.9178851,5.9053293 L21.0907907,1 C21.0907907,1 16.3464893,4.53945169 14.6491071,6.91287458 C12.9517248,9.28629747 12.6438165,12.4841575 12.6438165,12.4841575 C11.9855803,15.6337802 12.9526102,20.3224428 14.8083705,22.9631703 L24.100617,36.1859397 L23.9178851,5.9053293 Z" id="Path-493" fill="#E7AEAE" transform="translate(18.268956, 18.592970) scale(-1, 1) translate(-18.268956, -18.592970) "></path>
                        </g>
                        <g id="Group-12" transform="translate(44.881647, 49.792465) rotate(-203.000000) translate(-44.881647, -49.792465) translate(32.381647, 31.292465)">
                            <path d="M12.3711128,5.7492367 L8.92399075,0.709617868 C8.92399075,0.709617868 4.17968938,4.24906955 2.48230709,6.62249245 C0.784924797,8.99591534 0.583318923,11.7726233 0.583318923,11.7726233 C-0.133626491,15.1548419 0.968133462,20.1326512 3.0592659,22.9109299 L12.8988593,35.9838142 L12.3711128,5.7492367 Z" id="Path-493" fill="#F7BFBF" transform="translate(6.631694, 18.346716) rotate(1.000000) translate(-6.631694, -18.346716) "></path>
                            <path d="M23.9178851,5.9053293 L21.0907907,1 C21.0907907,1 16.3464893,4.53945169 14.6491071,6.91287458 C12.9517248,9.28629747 12.6438165,12.4841575 12.6438165,12.4841575 C11.9855803,15.6337802 12.9526102,20.3224428 14.8083705,22.9631703 L24.100617,36.1859397 L23.9178851,5.9053293 Z" id="Path-493" fill="#E7AEAE" transform="translate(18.268956, 18.592970) scale(-1, 1) translate(-18.268956, -18.592970) "></path>
                        </g>
                        <circle id="Oval-5" fill="#DD8989" cx="39.5" cy="34.5" r="3.5"></circle>
                    </g>
                    <g id="Group-13" transform="translate(73.000000, 188.500000)">
                        <g id="Group-12" transform="translate(21.373333, 0.000000)">
                            <path d="M9.74226624,5.18877067 L7.30629999,0.639114773 C7.30629999,0.639114773 3.95366036,3.8344531 2.75417687,5.97712655 C1.55469339,8.11979999 1.18936463,11.7895211 1.18936463,11.7895211 C0.805805721,14.2006218 1.5062315,17.8717968 2.73827006,19.9629451 L10.1152071,32.4838754 L9.74226624,5.18877067 Z" id="Path-493" fill="#F79595" transform="translate(5.599748, 16.561495) rotate(1.000000) translate(-5.599748, -16.561495) "></path>
                            <path d="M18.0584034,5.33120006 L16.06059,0.902777778 C16.06059,0.902777778 12.7079504,4.0981161 11.5084669,6.24078955 C10.3089834,8.383463 9.89055378,12.3459328 9.89055378,12.3459328 C9.53632168,14.5953528 10.1388834,18.036289 11.2328747,20.0250465 L18.1875339,32.6678622 L18.0584034,5.33120006 Z" id="Path-493" fill="#DB7A7A" transform="translate(13.988278, 16.785320) scale(-1, 1) translate(-13.988278, -16.785320) "></path>
                        </g>
                        <g id="Group-12" transform="translate(42.411408, 28.133697) rotate(79.000000) translate(-42.411408, -28.133697) translate(32.911408, 11.633697)">
                            <path d="M9.74226624,5.18877067 L7.30629999,0.639114773 C7.30629999,0.639114773 3.95366036,3.8344531 2.75417687,5.97712655 C1.55469339,8.11979999 1.18936463,11.7895211 1.18936463,11.7895211 C0.805805721,14.2006218 1.5062315,17.8717968 2.73827006,19.9629451 L10.1152071,32.4838754 L9.74226624,5.18877067 Z" id="Path-493" fill="#F79595" transform="translate(5.599748, 16.561495) rotate(1.000000) translate(-5.599748, -16.561495) "></path>
                            <path d="M18.0584034,5.33120006 L16.06059,0.902777778 C16.06059,0.902777778 12.7079504,4.0981161 11.5084669,6.24078955 C10.3089834,8.383463 9.89055378,12.3459328 9.89055378,12.3459328 C9.53632168,14.5953528 10.1388834,18.036289 11.2328747,20.0250465 L18.1875339,32.6678622 L18.0584034,5.33120006 Z" id="Path-493" fill="#DB7A7A" transform="translate(13.988278, 16.785320) scale(-1, 1) translate(-13.988278, -16.785320) "></path>
                        </g>
                        <g id="Group-12" transform="translate(18.951426, 28.345671) rotate(-79.000000) translate(-18.951426, -28.345671) translate(9.451426, 11.845671)">
                            <path d="M9.74226624,5.18877067 L7.30629999,0.639114773 C7.30629999,0.639114773 3.95366036,3.8344531 2.75417687,5.97712655 C1.55469339,8.11979999 1.18936463,11.7895211 1.18936463,11.7895211 C0.805805721,14.2006218 1.5062315,17.8717968 2.73827006,19.9629451 L10.1152071,32.4838754 L9.74226624,5.18877067 Z" id="Path-493" fill="#F79595" transform="translate(5.599748, 16.561495) rotate(1.000000) translate(-5.599748, -16.561495) "></path>
                            <path d="M18.0584034,5.33120006 L16.06059,0.902777778 C16.06059,0.902777778 12.7079504,4.0981161 11.5084669,6.24078955 C10.3089834,8.383463 9.89055378,12.3459328 9.89055378,12.3459328 C9.53632168,14.5953528 10.1388834,18.036289 11.2328747,20.0250465 L18.1875339,32.6678622 L18.0584034,5.33120006 Z" id="Path-493" fill="#DB7A7A" transform="translate(13.988278, 16.785320) scale(-1, 1) translate(-13.988278, -16.785320) "></path>
                        </g>
                        <g id="Group-12" transform="translate(21.835879, 42.450521) rotate(-132.000000) translate(-21.835879, -42.450521) translate(12.335879, 25.950521)">
                            <path d="M9.74226624,5.18877067 L7.30629999,0.639114773 C7.30629999,0.639114773 3.95366036,3.8344531 2.75417687,5.97712655 C1.55469339,8.11979999 1.18936463,11.7895211 1.18936463,11.7895211 C0.805805721,14.2006218 1.5062315,17.8717968 2.73827006,19.9629451 L10.1152071,32.4838754 L9.74226624,5.18877067 Z" id="Path-493" fill="#F79595" transform="translate(5.599748, 16.561495) rotate(1.000000) translate(-5.599748, -16.561495) "></path>
                            <path d="M18.0584034,5.33120006 L16.06059,0.902777778 C16.06059,0.902777778 12.7079504,4.0981161 11.5084669,6.24078955 C10.3089834,8.383463 9.89055378,12.3459328 9.89055378,12.3459328 C9.53632168,14.5953528 10.1388834,18.036289 11.2328747,20.0250465 L18.1875339,32.6678622 L18.0584034,5.33120006 Z" id="Path-493" fill="#DB7A7A" transform="translate(13.988278, 16.785320) scale(-1, 1) translate(-13.988278, -16.785320) "></path>
                        </g>
                        <g id="Group-12" transform="translate(36.101888, 45.006667) rotate(-203.000000) translate(-36.101888, -45.006667) translate(26.601888, 28.506667)">
                            <path d="M9.74226624,5.18877067 L7.30629999,0.639114773 C7.30629999,0.639114773 3.95366036,3.8344531 2.75417687,5.97712655 C1.55469339,8.11979999 1.18936463,11.7895211 1.18936463,11.7895211 C0.805805721,14.2006218 1.5062315,17.8717968 2.73827006,19.9629451 L10.1152071,32.4838754 L9.74226624,5.18877067 Z" id="Path-493" fill="#F79595" transform="translate(5.599748, 16.561495) rotate(1.000000) translate(-5.599748, -16.561495) "></path>
                            <path d="M18.0584034,5.33120006 L16.06059,0.902777778 C16.06059,0.902777778 12.7079504,4.0981161 11.5084669,6.24078955 C10.3089834,8.383463 9.89055378,12.3459328 9.89055378,12.3459328 C9.53632168,14.5953528 10.1388834,18.036289 11.2328747,20.0250465 L18.1875339,32.6678622 L18.0584034,5.33120006 Z" id="Path-493" fill="#DB7A7A" transform="translate(13.988278, 16.785320) scale(-1, 1) translate(-13.988278, -16.785320) "></path>
                        </g>
                        <circle id="Oval-5" fill="#BD6868" cx="31.5" cy="30.5" r="3.5"></circle>
                    </g>
                    <g id="Group-13" transform="translate(152.000000, 196.000000)">
                        <g id="Group-12" transform="translate(21.373333, 0.000000)">
                            <path d="M9.74226624,5.18877067 L7.30629999,0.639114773 C7.30629999,0.639114773 3.95366036,3.8344531 2.75417687,5.97712655 C1.55469339,8.11979999 1.18936463,11.7895211 1.18936463,11.7895211 C0.805805721,14.2006218 1.5062315,17.8717968 2.73827006,19.9629451 L10.1152071,32.4838754 L9.74226624,5.18877067 Z" id="Path-493" fill="#F79595" transform="translate(5.599748, 16.561495) rotate(1.000000) translate(-5.599748, -16.561495) "></path>
                            <path d="M18.0584034,5.33120006 L16.06059,0.902777778 C16.06059,0.902777778 12.7079504,4.0981161 11.5084669,6.24078955 C10.3089834,8.383463 9.89055378,12.3459328 9.89055378,12.3459328 C9.53632168,14.5953528 10.1388834,18.036289 11.2328747,20.0250465 L18.1875339,32.6678622 L18.0584034,5.33120006 Z" id="Path-493" fill="#DB7A7A" transform="translate(13.988278, 16.785320) scale(-1, 1) translate(-13.988278, -16.785320) "></path>
                        </g>
                        <g id="Group-12" transform="translate(42.411408, 28.133697) rotate(79.000000) translate(-42.411408, -28.133697) translate(32.911408, 11.633697)">
                            <path d="M9.74226624,5.18877067 L7.30629999,0.639114773 C7.30629999,0.639114773 3.95366036,3.8344531 2.75417687,5.97712655 C1.55469339,8.11979999 1.18936463,11.7895211 1.18936463,11.7895211 C0.805805721,14.2006218 1.5062315,17.8717968 2.73827006,19.9629451 L10.1152071,32.4838754 L9.74226624,5.18877067 Z" id="Path-493" fill="#F79595" transform="translate(5.599748, 16.561495) rotate(1.000000) translate(-5.599748, -16.561495) "></path>
                            <path d="M18.0584034,5.33120006 L16.06059,0.902777778 C16.06059,0.902777778 12.7079504,4.0981161 11.5084669,6.24078955 C10.3089834,8.383463 9.89055378,12.3459328 9.89055378,12.3459328 C9.53632168,14.5953528 10.1388834,18.036289 11.2328747,20.0250465 L18.1875339,32.6678622 L18.0584034,5.33120006 Z" id="Path-493" fill="#DB7A7A" transform="translate(13.988278, 16.785320) scale(-1, 1) translate(-13.988278, -16.785320) "></path>
                        </g>
                        <g id="Group-12" transform="translate(18.951426, 28.345671) rotate(-79.000000) translate(-18.951426, -28.345671) translate(9.451426, 11.845671)">
                            <path d="M9.74226624,5.18877067 L7.30629999,0.639114773 C7.30629999,0.639114773 3.95366036,3.8344531 2.75417687,5.97712655 C1.55469339,8.11979999 1.18936463,11.7895211 1.18936463,11.7895211 C0.805805721,14.2006218 1.5062315,17.8717968 2.73827006,19.9629451 L10.1152071,32.4838754 L9.74226624,5.18877067 Z" id="Path-493" fill="#F79595" transform="translate(5.599748, 16.561495) rotate(1.000000) translate(-5.599748, -16.561495) "></path>
                            <path d="M18.0584034,5.33120006 L16.06059,0.902777778 C16.06059,0.902777778 12.7079504,4.0981161 11.5084669,6.24078955 C10.3089834,8.383463 9.89055378,12.3459328 9.89055378,12.3459328 C9.53632168,14.5953528 10.1388834,18.036289 11.2328747,20.0250465 L18.1875339,32.6678622 L18.0584034,5.33120006 Z" id="Path-493" fill="#DB7A7A" transform="translate(13.988278, 16.785320) scale(-1, 1) translate(-13.988278, -16.785320) "></path>
                        </g>
                        <g id="Group-12" transform="translate(21.835879, 42.450521) rotate(-132.000000) translate(-21.835879, -42.450521) translate(12.335879, 25.950521)">
                            <path d="M9.74226624,5.18877067 L7.30629999,0.639114773 C7.30629999,0.639114773 3.95366036,3.8344531 2.75417687,5.97712655 C1.55469339,8.11979999 1.18936463,11.7895211 1.18936463,11.7895211 C0.805805721,14.2006218 1.5062315,17.8717968 2.73827006,19.9629451 L10.1152071,32.4838754 L9.74226624,5.18877067 Z" id="Path-493" fill="#F79595" transform="translate(5.599748, 16.561495) rotate(1.000000) translate(-5.599748, -16.561495) "></path>
                            <path d="M18.0584034,5.33120006 L16.06059,0.902777778 C16.06059,0.902777778 12.7079504,4.0981161 11.5084669,6.24078955 C10.3089834,8.383463 9.89055378,12.3459328 9.89055378,12.3459328 C9.53632168,14.5953528 10.1388834,18.036289 11.2328747,20.0250465 L18.1875339,32.6678622 L18.0584034,5.33120006 Z" id="Path-493" fill="#DB7A7A" transform="translate(13.988278, 16.785320) scale(-1, 1) translate(-13.988278, -16.785320) "></path>
                        </g>
                        <g id="Group-12" transform="translate(36.101888, 45.006667) rotate(-203.000000) translate(-36.101888, -45.006667) translate(26.601888, 28.506667)">
                            <path d="M9.74226624,5.18877067 L7.30629999,0.639114773 C7.30629999,0.639114773 3.95366036,3.8344531 2.75417687,5.97712655 C1.55469339,8.11979999 1.18936463,11.7895211 1.18936463,11.7895211 C0.805805721,14.2006218 1.5062315,17.8717968 2.73827006,19.9629451 L10.1152071,32.4838754 L9.74226624,5.18877067 Z" id="Path-493" fill="#F79595" transform="translate(5.599748, 16.561495) rotate(1.000000) translate(-5.599748, -16.561495) "></path>
                            <path d="M18.0584034,5.33120006 L16.06059,0.902777778 C16.06059,0.902777778 12.7079504,4.0981161 11.5084669,6.24078955 C10.3089834,8.383463 9.89055378,12.3459328 9.89055378,12.3459328 C9.53632168,14.5953528 10.1388834,18.036289 11.2328747,20.0250465 L18.1875339,32.6678622 L18.0584034,5.33120006 Z" id="Path-493" fill="#DB7A7A" transform="translate(13.988278, 16.785320) scale(-1, 1) translate(-13.988278, -16.785320) "></path>
                        </g>
                        <circle id="Oval-5" fill="#BD6868" cx="31.5" cy="31.5" r="3.5"></circle>
                    </g>
                </g>
                <g id="Group-19" transform="translate(45.000000, 46.000000)">
                    <path d="M32.434995,10.5936838 C33.7091285,5.3294261 34.4263818,4.4230497 34.4263818,4.4230497 C35.7166982,1.38194131 39.3237728,-0.25143146 42.4688399,0.770206998 L42.7029271,0.846247503 C45.3274148,1.69878182 49.3035588,3.66480338 51.5745297,5.23102184 L59.9831638,11.0301969 L59.9831638,11.0301969 C66.7765182,7.0817848 83.9087062,9.79045674 84.6844326,10.1847892 L84.6844326,10.1847892 L87.3560882,8.13811794 C90.4252144,5.78695695 95.81951,2.69188401 99.3885062,1.23165741 L101.340358,0.433072665 C103.387336,-0.404432262 106.038807,0.404180316 107.263815,2.24100695 L107.293075,2.28488062 C108.825701,4.58295979 110.77588,8.56500399 111.65047,11.1836568 L114.383375,19.3663797 L117.180453,30.4091616 C119.077622,37.8991263 115.158031,47.0469876 108.365981,50.7297778 C108.365981,50.7297778 109.810283,50.177033 104.177846,52.8401896 C98.5454097,55.5033462 104.177846,52.8401896 104.177846,52.8401896 C95.5893896,57.3198953 75.6582794,59.5404236 59.6602774,57.7998577 L52.149564,56.9826999 C36.1516463,55.2421432 27.8220582,47.1048091 27.8220582,47.1048091 L27.8220582,47.1048091 L27.8220582,47.1048091 C24.7975375,41.538952 30.2566029,28.1215362 30.2566029,28.1215362 L30.2566029,28.1215362 C30.2566029,28.1215362 31.1608615,15.8579414 32.434995,10.5936838 Z" id="Path-494" fill="#FFFFFF"></path>
                    <path d="M36.6510404,23.2931043 C36.6510404,23.2931043 36.3532256,18.1196594 36.6510404,15.0039274 C36.9488552,11.8881955 37.4587713,9.17621212 37.4587713,9.17621212 C38.1941196,4.61249688 41.8098075,3.11955634 45.5476426,5.85114113 L44.0523997,4.7584277 C46.7296593,6.71495102 50.6459587,10.3308728 52.8127876,12.8500316 L53.2542587,13.3632866 L53.2542587,13.3632866 C48.7588994,14.2693875 42.4367389,17.6266748 39.1332273,20.8620863 L36.6510404,23.2931043 Z" id="Path-495" fill="#CB3D3D"></path>
                    <path d="M91.1323621,23.8084729 C91.1323621,23.8084729 90.8345473,18.6350281 91.1323621,15.5192961 C91.430177,12.4035641 91.940093,9.69158077 91.940093,9.69158077 C92.6754413,5.12786552 96.2911292,3.63492499 100.028964,6.36650977 L98.5337214,5.27379634 C101.210981,7.23031967 105.12728,10.8462415 107.294109,13.3654003 L107.73558,13.8786552 L107.73558,13.8786552 C103.240221,14.7847562 96.9180606,18.1420435 93.614549,21.377455 L91.1323621,23.8084729 Z" id="Path-495" fill="#CB3D3D" transform="translate(99.367790, 14.404236) scale(-1, 1) translate(-99.367790, -14.404236) "></path>
                    <path d="M27.4777229,46.6571732 L25.598906,48.2227967 L25.598906,48.2227967 C23.8048901,53.7872177 25.598906,56.2663921 25.598906,56.2663921 L25.598906,56.2663921 L25.598906,56.2663921 C30.4549692,59.0819112 39.1155097,62.7497961 44.9530503,64.461859 L41.7751834,63.5298384 C49.1947919,65.7058981 61.4729192,67.7197177 61.6589821,67.7271377 L61.6589821,67.7271377 L61.6589821,67.7271377 C62.3950212,70.8917265 67.7152882,74.8433768 68.7928435,75.1596098 L68.7928435,75.1596098 L70.766152,75.6006354 C75.618181,76.6850421 81.3768826,73.9731123 83.256508,70.275331 L83.256508,70.275331 L86.5397177,69.2802147 C95.0011963,66.7156037 108.415192,61.7393892 115.488733,58.612832 L110.912843,60.6354088 C113.440037,59.5183705 116.949353,56.9278108 118.757407,54.8419785 L118.963742,54.6039434 C119.685355,53.7714673 120.204677,52.2089846 120.122275,51.0950352 L120.167938,51.7123294 C120.004888,49.5081312 118.67978,46.3888169 117.200797,44.7368471 L115.932354,43.3200431 L113.243748,45.858643 C110.431406,48.5140756 105.217951,51.7768245 101.603567,53.1445324 L102.11942,52.9493301 C98.5030675,54.3177831 92.4656073,55.8514175 88.6390313,56.3741623 L82.2527655,57.2465839 L64.6893382,58.4211242 L52.4311305,57.2465839 L52.4311305,57.2465839 C48.3920432,56.6381541 41.1337567,54.0828324 37.420358,52.1607824 L37.420358,52.1607824 L27.4777229,46.6571732 Z" id="Path-496" fill="#D32E2E"></path>
                    <path d="M24.9699333,55.4957839 L14.4546578,68.870074 C12.4059336,71.475829 9.7307714,76.0757956 8.47667041,79.1513652 L7.55272445,81.4172594 C6.29989739,84.4897047 5.13150493,89.670253 4.94401612,92.9712719 L4.33993186,103.607073 L2.53068918,113.288094 L1.15825373,124.110359 C0.116632422,132.324007 0.360112401,145.610456 1.70023524,153.775225 L1.20607832,150.764548 C1.83205096,154.57832 3.31631112,160.651956 4.51829555,164.321327 L6.05730541,169.019555 L6.17318448,169.216302 C8.69819168,173.503412 14.6492031,175.977009 19.4644167,174.741419 L20.0462441,174.592122 L20.0462441,174.592122 C24.541807,172.590945 31.3313141,168.435926 35.2019417,165.318949 L32.3517879,167.614149 C35.788686,164.846449 41.8886482,161.220046 45.9564021,159.52271 L42.684317,160.888041 C48.8015587,158.335522 59.1239961,155.89339 65.7403076,155.433372 L70.7116605,155.087724 L82.8310871,155.322236 C86.6946885,155.396997 92.7494411,156.597679 96.3492331,158.00188 L98.8244213,158.967398 C103.971513,160.975167 111.49266,165.56777 115.625081,169.226776 L116.709959,170.187369 L118.090683,171.237299 C120.289214,172.909105 124.300689,174.401758 127.062182,174.571947 L129.58632,174.727509 C130.687132,174.795351 132.235531,174.245362 133.056757,173.488014 L134.613797,172.052087 C135.429654,171.299691 136.415343,169.863913 136.823395,168.824819 L137.581476,166.894382 C140.003728,160.726168 142.259648,150.366942 142.621332,143.735915 L142.744577,141.476366 C143.015145,136.515839 142.559897,128.526991 141.724706,123.614855 L136.581006,93.3624222 L135.092063,87.74599 L135.739188,87.7767512 C138.497374,87.9078621 142.120158,86.2541802 143.829314,84.0851651 L143.852386,84.0558852 C146.585269,80.5877034 148.606289,74.204851 148.365533,69.7823233 L148.129715,65.4505088 C148.039842,63.7996064 147.617444,61.1724163 147.179337,59.5569796 L144.82591,50.8791576 C143.815345,47.1528886 141.208029,41.5550922 139.011208,38.3889579 L133.369724,30.2582554 L134.035221,28.7100304 C135.342486,25.6687845 134.655667,21.1743141 132.48649,18.6542973 L132.168253,18.2845895 L132.168253,18.2845895 C128.7931,15.7844817 122.538486,15.7208615 118.19606,18.1436736 L118.845543,17.7813009 C116.918685,18.8563716 114.532823,21.3235447 113.51742,23.2902439 L112.75688,24.763306 C112.252069,25.7410574 111.948236,27.4300498 112.077066,28.5257088 L112.060579,28.385497 C112.447758,31.6783359 115.241364,35.3630588 117.901775,36.4523873 L117.901775,36.4523873 L115.882555,43.5304348 L117.380905,45.2596534 C119.191626,47.3493729 120.102424,51.2099779 119.416737,53.8767021 L119.587924,53.2109335 C119.313997,54.2762692 118.299509,55.5557609 117.316635,56.0715746 L100.921919,64.6755425 L83.2171471,68.5506199 L78.0157825,74.32679 L71.4801472,75.6072594 L67.3336339,74.4284917 L64.29855,71.5752907 L61.6619424,67.0129459 C61.6619424,67.0129459 46.4469106,64.8066783 38.9748291,62.4612855 C31.5027476,60.1158927 24.9699333,55.4957839 24.9699333,55.4957839 Z" id="Path-497" stroke="#858181" stroke-width="0.3" fill="#FFFFFF"></path>
                    <ellipse id="Oval-8" fill="#FFB9D7" cx="101.5" cy="36.5" rx="4.5" ry="2.5"></ellipse>
                    <ellipse id="Oval-8" fill="#FFB9D7" cx="37.5" cy="36.5" rx="4.5" ry="2.5"></ellipse>
                    <ellipse id="Oval-6" fill="#F2DA2E" cx="72.5" cy="66" rx="10.5" ry="10"></ellipse>
                    <path d="M56.5,25.9422513 C59.5375661,25.9422513 62,29.1789406 62,26.9805458 C62,24.7821511 59.5375661,23 56.5,23 C53.4624339,23 51,24.7821511 51,26.9805458 C51,29.1789406 53.4624339,25.9422513 56.5,25.9422513 Z" id="Oval-7" fill="#3B3B3B"></path>
                    <path d="M83.5,25.9422513 C86.5375661,25.9422513 89,29.1789406 89,26.9805458 C89,24.7821511 86.5375661,23 83.5,23 C80.4624339,23 78,24.7821511 78,26.9805458 C78,29.1789406 80.4624339,25.9422513 83.5,25.9422513 Z" id="Oval-7" fill="#3B3B3B"></path>
                    <path d="M69.3383901,35.4924149 C70.2560719,34.1158922 71.742995,34.1144924 72.6616099,35.4924149 L73.3383901,36.5075851 C74.2560719,37.8841078 73.6609799,39 71.9983345,39 L70.0016655,39 C68.3438914,39 67.742995,37.8855076 68.6616099,36.5075851 L69.3383901,35.4924149 Z" id="Triangle-3" fill="#FF9346" transform="translate(71.000000, 36.000000) scale(1, -1) translate(-71.000000, -36.000000) "></path>
                    <polygon id="Path-3" fill="#565353" points="71.8356186 71 72.9180186 71 72.971641 71.9417386 74.7877694 71.9417386 74.7877694 73.0236364 72.971641 73.0236364 72.971641 73.927805 71.964317 73.927805 71.964317 73.0236364 70 73.0236364 70 71.9417386 71.8356186 71.9417386"></polygon>
                    <path d="M64,39.1393647 L66.9365092,41.031304 C67.613905,41.4677378 68.5595849,41.2931824 69.0469801,40.6437742 L69.8900222,39.5205 C70.3782073,38.8700393 71.2258591,38.8264491 71.7667284,39.4053943 L73.0311982,40.7588798 C73.5794893,41.3457693 74.5624887,41.4485927 75.2281728,40.9875838 L77.8969494,39.1393647" id="Path-4" stroke="#484848"></path>
                    <circle id="Oval-11" fill="#D8D8D8" cx="64.5" cy="35.5" r="1"></circle>
                    <circle id="Oval-11" fill="#D8D8D8" cx="77.5" cy="35.5" r="1"></circle>
                    <circle id="Oval-11" fill="#D8D8D8" cx="66.5" cy="35.5" r="1"></circle>
                    <circle id="Oval-11" fill="#D8D8D8" cx="65.5" cy="37.5" r="1"></circle>
                    <circle id="Oval-11" fill="#D8D8D8" cx="76.5" cy="37.5" r="1"></circle>
                    <circle id="Oval-11" fill="#D8D8D8" cx="75.5" cy="35.5" r="1"></circle>
                </g>
                <path d="M169.36538,75.0234255 C172.402946,75.0234255 174.86538,78.4957424 174.86538,75.355659 C174.86538,72.2155755 172.402946,69.670035 169.36538,69.670035 C166.327814,69.670035 163.86538,72.2155755 163.86538,75.355659 C163.86538,78.4957424 166.327814,75.0234255 169.36538,75.0234255 Z" id="Oval-9" fill="#FFD7DD" transform="translate(169.365380, 73.170035) rotate(-20.000000) translate(-169.365380, -73.170035) "></path>
                <circle id="Oval-9" fill="#FFD7DD" cx="161" cy="72" r="2"></circle>
                <circle id="Oval-9" fill="#FFD7DD" cx="165" cy="68" r="2"></circle>
                <circle id="Oval-9" fill="#FFD7DD" cx="171" cy="66" r="2"></circle>
                <circle id="Oval-9" fill="#FFD7DD" cx="176" cy="69" r="2"></circle>
                <g id="Group-20" transform="translate(91.500000, 85.000000) scale(-1, 1) translate(-91.500000, -85.000000) translate(84.000000, 80.000000)" fill="#908A8A">
                    <path d="M7.5,0.553829416 C11.6421356,0.553829416 15,1.28208782 15,1.00594544 C15,0.729803068 11.6421356,0 7.5,0 C3.35786438,0 0,0.729803068 0,1.00594544 C0,1.28208782 3.35786438,0.553829416 7.5,0.553829416 Z" id="Oval-12"></path>
                    <path d="M7.46413916,2.97508163 C11.6062748,2.97508163 14.9641392,3.70334003 14.9641392,3.42719766 C14.9641392,3.15105528 11.6062748,2.42125221 7.46413916,2.42125221 C3.32200353,2.42125221 -0.0358608424,3.15105528 -0.0358608424,3.42719766 C-0.0358608424,3.70334003 3.32200353,2.97508163 7.46413916,2.97508163 Z" id="Oval-12" transform="translate(7.464139, 2.955479) rotate(11.000000) translate(-7.464139, -2.955479) "></path>
                    <path d="M6.97514497,5.78754608 C11.1172806,5.78754608 14.475145,6.51580448 14.475145,6.23966211 C14.475145,5.96351973 11.1172806,5.23371667 6.97514497,5.23371667 C2.83300934,5.23371667 -0.524855032,5.96351973 -0.524855032,6.23966211 C-0.524855032,6.51580448 2.83300934,5.78754608 6.97514497,5.78754608 Z" id="Oval-12" transform="translate(6.975145, 5.767943) rotate(26.000000) translate(-6.975145, -5.767943) "></path>
                </g>
                <path d="M107.094013,110.375129 L115.756543,113.010369 C116.542842,113.24957 117.818068,113.251099 118.602288,113.014553 L127.888904,110.213416" id="Path-498" stroke="#4E4E4E"></path>
                <path d="M74.7718034,141.515644 L80.4524441,145.253869" id="Path-499" stroke="#979797"></path>
                <path d="M77,140 L82.6806407,143.738225" id="Path-499" stroke="#979797"></path>
                <path d="M78,137 L83.6806407,140.738225" id="Path-499" stroke="#979797"></path>
                <g id="Group-21" transform="translate(84.726842, 120.078812) rotate(-21.000000) translate(-84.726842, -120.078812) translate(71.726842, 108.578812)" stroke="#8192C5" fill="#91A8EC">
                    <path d="M4.07979294,0.190872212 L1.57793797,4.13122656 C-0.473930288,7.36286395 0.0106331628,12.2203996 2.66146594,14.9821125 L6.83016695,19.3251837 L9.74589063,12.5817126 C10.843334,10.0435511 10.1657817,6.38970121 8.23115388,4.4192035 L4.07979294,0.190872212 Z" id="Path-500"></path>
                    <path d="M13.5752079,3.7410934 L11.0733529,7.68144775 C9.02148465,10.9130851 9.5060481,15.7706208 12.1568809,18.5323337 L16.3255819,22.8754049 L19.2413056,16.1319337 C20.3387489,13.5937723 19.6611966,9.9399224 17.7265688,7.96942469 L13.5752079,3.7410934 Z" id="Path-500" transform="translate(14.784719, 13.308249) rotate(60.000000) translate(-14.784719, -13.308249) "></path>
                </g>
                <path d="M81.6013898,124 L72.5451802,137.668361 C68.6258269,143.583764 68.4874412,153.261299 72.232896,159.278614 L77.2518358,167.341864 C78.1293286,168.751612 79.6923038,170.935533 80.7386401,172.214655 L81.3287692,172.936074 C82.7272732,174.645712 85.0170507,174.66506 86.4499361,172.971243 L89.5737631,169.278561 L94.2841517,155.412036 C96.4149423,149.139377 94.7250372,139.911266 90.5012737,134.790325 L81.6013898,124 Z" id="Path-500" fill="#91A8EC"></path>
                <path d="M136.5,80.5538294 C140.642136,80.5538294 144,81.2820878 144,81.0059454 C144,80.7298031 140.642136,80 136.5,80 C132.357864,80 129,80.7298031 129,81.0059454 C129,81.2820878 132.357864,80.5538294 136.5,80.5538294 Z" id="Oval-12" fill="#908A8A"></path>
                <path d="M136.464139,82.9750816 C140.606275,82.9750816 143.964139,83.70334 143.964139,83.4271977 C143.964139,83.1510553 140.606275,82.4212522 136.464139,82.4212522 C132.322004,82.4212522 128.964139,83.1510553 128.964139,83.4271977 C128.964139,83.70334 132.322004,82.9750816 136.464139,82.9750816 Z" id="Oval-12" fill="#908A8A" transform="translate(136.464139, 82.955479) rotate(11.000000) translate(-136.464139, -82.955479) "></path>
                <path d="M135.975145,85.7875461 C140.117281,85.7875461 143.475145,86.5158045 143.475145,86.2396621 C143.475145,85.9635197 140.117281,85.2337167 135.975145,85.2337167 C131.833009,85.2337167 128.475145,85.9635197 128.475145,86.2396621 C128.475145,86.5158045 131.833009,85.7875461 135.975145,85.7875461 Z" id="Oval-12" fill="#908A8A" transform="translate(135.975145, 85.767943) rotate(26.000000) translate(-135.975145, -85.767943) "></path>
                <path d="" id="Path-501" stroke="#979797"></path>
                <path d="M81.981528,124.544861 L84.3413699,174.286906 C84.3413699,174.286906 88.131054,171.342929 89.5735732,168.503558 C91.0160924,165.664186 94.9495825,153.775997 94.9495825,153.775997 C96.1563305,150.206715 95.7957668,144.56443 94.1216111,141.177971 C94.1216111,141.177971 92.4519371,137.618285 91.4759916,136.151869 C90.500046,134.685453 81.981528,124.544861 81.981528,124.544861 Z" id="Path-502" fill="#8192C5"></path>
                <path d="M73.4769656,142.702755 C85.4594481,142.702755 82.8274449,140.845034 82.8274449,140.845034 C87.1752217,137.494967 87.8164302,131.321894 83.3161952,128.081554 C83.3161952,128.081554 85.4594481,125.702755 73.4769656,125.702755 C66.0739256,125.702755 56.736013,120.66513 52.9196817,123.314996 C49.1033503,125.964862 51.8903051,133.112754 51.8903051,134.906859 C51.8903051,139.601279 61.494483,142.702755 73.4769656,142.702755 Z" id="Oval-10" stroke="#9C9C9C" stroke-width="0.5" fill="#FFFFFF" transform="translate(68.655823, 132.623748) rotate(31.000000) translate(-68.655823, -132.623748) "></path>
            </g>
        </g>
    </g>
</svg>