<?xml version="1.0" encoding="UTF-8" standalone="no"?>
<svg width="295px" height="295px" viewBox="0 0 295 295" version="1.1" xmlns="http://www.w3.org/2000/svg" xmlns:xlink="http://www.w3.org/1999/xlink">
    <!-- Generator: Sketch 43.1 (39012) - http://www.bohemiancoding.com/sketch -->
    <title>Group 3</title>
    <desc>Created with Sketch.</desc>
    <defs></defs>
    <g id="Page-1" stroke="none" stroke-width="1" fill="none" fill-rule="evenodd">
        <g id="Group-3">
            <g id="Group" fill="#EFEAD6">
                <circle id="Oval" cx="147.5" cy="147.5" r="147.5"></circle>
            </g>
            <g id="Group-2" transform="translate(73.000000, 67.000000)">
                <polygon id="Path-3" fill="#D9D9D9" points="23.4970727 0.608725176 22.5006817 131.697722 148.748972 131.697722 149.593968 0.819471618"></polygon>
                <path d="M23.3247554,0.844931359 L8.93881734,0.844931359 C4.51811925,0.844931359 0.934435377,4.42718447 0.934435377,8.85193064 L0.934435377,131.600395 L22.6145922,131.600395 L23.3247554,0.844931359 Z" id="Path-4" fill="#979696"></path>
                <path d="M0.839212753,131.527058 L0.413638529,150.341571 C0.276302282,156.413166 5.09290874,161.335167 11.1616132,161.335167 L23.6724557,161.335167 L23.5246486,154.633082 L8.77881936,154.80394 L8.98309203,137.553551 L23.6724557,137.553551 L23.6724557,131.527058 L0.839212753,131.527058 Z" id="Path-5" fill="#979696"></path>
                <polygon id="Path-6" fill="#FFFFFF" points="8.86649756 137.472242 8.86649756 154.87576 146.194729 155.291488 146.194729 136.84497"></polygon>
                <polygon id="Path-7" fill="#C5C5C5" points="23.3890832 154.784963 149.415317 155.209078 149.415317 160.969557 23.5706838 161.251645"></polygon>
                <polygon id="Path-8" fill="#C5C5C5" points="22.4265852 131.334127 148.494325 131.206445 148.716936 137.321805 22.4265852 137.321805"></polygon>
                <ellipse id="Oval-3" fill="#8F8E8E" cx="82.2857143" cy="52.6699507" rx="15.4285714" ry="15.9605911"></ellipse>
                <path d="M66.2381171,73.3055377 C69.2197219,71.8478913 74.3222854,70.7041573 77.6279694,70.7508368 L83.848358,70.838675 C88.814715,70.908805 96.5512275,72.543961 101.130533,74.49183 L98.362548,73.3144305 C102.430846,75.0449357 105.728853,80.033361 105.728853,84.4443009 L105.728853,90.8037104 L59.3701999,91.0033246 L58.8287102,85.2696014 C58.4128266,80.865895 61.2894786,75.7248273 65.263251,73.7821301 L66.2381171,73.3055377 Z" id="Path-9" fill="#8F8E8E"></path>
            </g>
        </g>
    </g>
</svg>