<?xml version="1.0" encoding="UTF-8" standalone="no"?>
<svg width="295px" height="295px" viewBox="0 0 295 295" version="1.1" xmlns="http://www.w3.org/2000/svg" xmlns:xlink="http://www.w3.org/1999/xlink">
    <!-- Generator: Sketch 43.1 (39012) - http://www.bohemiancoding.com/sketch -->
    <title>Group</title>
    <desc>Created with Sketch.</desc>
    <defs></defs>
    <g id="Page-1" stroke="none" stroke-width="1" fill="none" fill-rule="evenodd">
        <g id="Group">
            <circle id="Oval" fill="#F8B195" cx="147.5" cy="147.5" r="147.5"></circle>
            <rect id="Rectangle" fill="#FFFFFF" x="72" y="42" width="151" height="200"></rect>
            <rect id="Rectangle-3" fill="#938D8D" transform="translate(123.250000, 130.000000) scale(1, -1) translate(-123.250000, -130.000000) " x="99" y="125" width="48.5" height="10"></rect>
            <rect id="Rectangle-3" fill="#938D8D" transform="translate(140.250000, 107.000000) scale(1, -1) translate(-140.250000, -107.000000) " x="99" y="102" width="82.5" height="10"></rect>
            <rect id="Rectangle-3" fill="#938D8D" transform="translate(147.500000, 87.000000) scale(1, -1) translate(-147.500000, -87.000000) " x="99" y="82" width="97" height="10"></rect>
            <circle id="Oval-2" fill="#F8B195" cx="70" cy="72" r="10"></circle>
            <circle id="Oval-2" fill="#F8B195" cx="72" cy="102" r="10"></circle>
            <circle id="Oval-2" fill="#F8B195" cx="72" cy="132" r="10"></circle>
            <circle id="Oval-2" fill="#F8B195" cx="72" cy="162" r="10"></circle>
            <circle id="Oval-2" fill="#F8B195" cx="72" cy="192" r="10"></circle>
            <circle id="Oval-2" fill="#F8B195" cx="72" cy="222" r="10"></circle>
            <path d="M147.804084,243.832754 C147.804084,243.832754 143.401244,249.402906 145.642582,246.83608 C146.095411,246.31749 145.46269,247.628003 148.008837,243.425908 C150.679911,239.017636 150.032899,238.99982 155.054072,232.371029 C164.861577,219.423478 202.357243,172.877923 218.722834,158.712053 C236.88512,140.942508 218.722834,158.712053 218.722834,158.712053 C231.710165,143.879464 250.739575,133.83278 250.739575,133.83278 L250.739575,133.83278 L250.739575,133.83278 C253.12067,136.449399 239.06787,156.11779 219.364458,177.749432 L155.054072,248.353405 L155.054072,248.353405 C147.823912,252.511693 146.846041,245.809056 147.804084,243.832754 L147.804084,243.832754 Z" id="Path-2" fill="#7C7A7A" transform="translate(198.004584, 191.760721) rotate(180.000000) translate(-198.004584, -191.760721) "></path>
            <rect id="Rectangle-2" fill="#D8D8D8" transform="translate(210.342171, 172.103084) rotate(42.000000) translate(-210.342171, -172.103084) " x="207.194361" y="153.990495" width="6.29562014" height="36.2251786"></rect>
            <polygon id="Rectangle-3" fill="#938D8D" transform="translate(123.250000, 152.000000) scale(1, -1) translate(-123.250000, -152.000000) " points="99 147 130.309797 147 147.5 147 147.5 157 99 157"></polygon>
            <rect id="Rectangle-3" fill="#938D8D" transform="translate(121.750000, 176.000000) scale(1, -1) translate(-121.750000, -176.000000) " x="99" y="171" width="45.5" height="10"></rect>
            <rect id="Rectangle-3" fill="#938D8D" transform="translate(181.500000, 127.000000) scale(1, -1) translate(-181.500000, -127.000000) " x="167" y="122" width="29" height="10"></rect>
            <rect id="Rectangle-3" fill="#938D8D" transform="translate(111.000000, 197.000000) scale(1, -1) translate(-111.000000, -197.000000) " x="101" y="192" width="20" height="10"></rect>
        </g>
    </g>
</svg>