<?xml version="1.0" encoding="UTF-8" standalone="no"?>
<svg width="295px" height="295px" viewBox="0 0 295 295" version="1.1" xmlns="http://www.w3.org/2000/svg" xmlns:xlink="http://www.w3.org/1999/xlink">
    <!-- Generator: Sketch 43.1 (39012) - http://www.bohemiancoding.com/sketch -->
    <title>Group</title>
    <desc>Created with Sketch.</desc>
    <defs>
        <linearGradient x1="19.159558%" y1="18.9717194%" x2="74.6155519%" y2="73.8840275%" id="linearGradient-1">
            <stop stop-color="#2344AE" offset="0%"></stop>
            <stop stop-color="#7C6DD8" offset="100%"></stop>
        </linearGradient>
        <linearGradient x1="0%" y1="0%" x2="67.3260447%" y2="66.6659861%" id="linearGradient-2">
            <stop stop-color="#4323AE" offset="0%"></stop>
            <stop stop-color="#EE4FCB" offset="100%"></stop>
        </linearGradient>
        <linearGradient x1="0%" y1="0%" x2="101.999998%" y2="100.999999%" id="linearGradient-3">
            <stop stop-color="#8123AE" offset="0%"></stop>
            <stop stop-color="#E12369" offset="100%"></stop>
        </linearGradient>
        <linearGradient x1="50%" y1="0%" x2="50%" y2="100%" id="linearGradient-4">
            <stop stop-color="#F5515F" offset="0%"></stop>
            <stop stop-color="#9F031B" offset="100%"></stop>
        </linearGradient>
        <linearGradient x1="50%" y1="50.4216448%" x2="50%" y2="100%" id="linearGradient-5">
            <stop stop-color="#E24646" offset="0%"></stop>
            <stop stop-color="#FFA94B" offset="100%"></stop>
        </linearGradient>
        <linearGradient x1="50%" y1="0%" x2="50%" y2="100%" id="linearGradient-6">
            <stop stop-color="#F3F2A1" offset="0%"></stop>
            <stop stop-color="#F78F1C" offset="100%"></stop>
        </linearGradient>
        <linearGradient x1="50%" y1="0%" x2="50%" y2="65.8050845%" id="linearGradient-7">
            <stop stop-color="#B3F482" offset="0%"></stop>
            <stop stop-color="#F1F673" offset="100%"></stop>
        </linearGradient>
        <linearGradient x1="50%" y1="0%" x2="50%" y2="100%" id="linearGradient-8">
            <stop stop-color="#82F4CA" offset="0%"></stop>
            <stop stop-color="#5C9F41" offset="100%"></stop>
        </linearGradient>
    </defs>
    <g id="Page-1" stroke="none" stroke-width="1" fill="none" fill-rule="evenodd">
        <g id="Group" transform="translate(-1.000000, -1.000000)">
            <circle id="Oval" fill="#48CFAD" cx="148.5" cy="148.5" r="147.5"></circle>
            <circle id="Oval-2" fill="#FFFFFF" cx="149" cy="149" r="111"></circle>
            <circle id="Oval-3" stroke="#DBD8D8" fill="#FFFFFF" cx="149" cy="149" r="77"></circle>
            <path d="M93.6601002,96.3623766 L149.974083,150.083264 L150.979441,100.590107 L151.432085,72.1989986 C151.432085,72.1989986 143.530018,71.7058498 135.442798,73.0583224 C127.355577,74.4107951 123.470111,75.9792588 117.407361,78.5725116 C111.344612,81.1657643 106.221214,84.4488847 101.430763,88.3066819 C96.6403128,92.1644792 93.6601002,96.3623766 93.6601002,96.3623766 Z" id="Path-9" fill="url(#linearGradient-1)"></path>
            <path d="M151.347249,148.836183 C151.347249,148.836183 150.496894,113.449655 150.351667,95.7562189 C150.206441,78.0627825 150.717365,72.0953473 150.717365,72.0953473 C150.717365,72.0953473 157.017016,72.1652504 163.88269,73.5228021 C170.748363,74.8803537 174.943284,76.3946086 178.606026,77.985702 C181.217197,79.119993 185.425752,80.7768339 188.936842,83.0738464 C190.674266,84.2104983 194.563513,86.7388863 197.91313,89.3971804 C201.262747,92.0554746 204.195416,94.943614 204.195416,94.943614 C204.195416,94.943614 193.087052,106.830207 187.409312,112.620151 C181.731573,118.410096 151.347249,148.836183 151.347249,148.836183 Z" id="Path-8" fill="url(#linearGradient-2)"></path>
            <path d="M150.785184,151.428734 C150.785184,151.428734 185.442781,152.203901 202.746595,152.212409 C220.05041,152.220918 225.728413,151.465584 225.728413,151.465584 C225.728413,151.465584 225.731979,142.247477 224.175228,133.186998 C222.618477,124.126518 221.450063,123.37707 220.111424,119.887338 C218.451103,115.559006 215.477442,109.887673 212.297104,105.273123 C209.116767,100.658573 204.086184,95.0459306 204.086184,95.0459306 C204.086184,95.0459306 195.845067,103.32436 191.839141,107.561905 C187.833215,111.799449 150.785184,151.428734 150.785184,151.428734 Z" id="Path-7" fill="url(#linearGradient-3)"></path>
            <path d="M151.793839,152.184968 L204.075033,201.873757 C204.075033,201.873757 204.540843,201.78863 205.250932,201.084002 C205.961022,200.379375 209.84998,196.007995 212.739388,192.045317 C216.912682,186.321855 218.700508,182.141042 220.278814,178.429911 C221.876256,174.673788 223.877443,169.126553 224.764775,163.893384 C225.652107,158.660215 225.708844,151.005368 225.708844,151.005368 L151.793839,152.184968 Z" id="Path-6" fill="url(#linearGradient-4)"></path>
            <path d="M150.136169,225.674379 C150.136169,225.674379 157.051818,225.723401 163.911317,224.508928 C170.770816,223.294455 175.914369,221.326451 179.819132,219.589954 C183.902817,217.773888 190.23474,214.503379 195.184605,210.697444 C200.13447,206.891509 204.575719,201.799955 204.575719,201.799955 L151.043651,151.419016 L150.136169,207.122843 L150.136169,225.674379 Z" id="Path-5" fill="url(#linearGradient-5)"></path>
            <path d="M97.2910133,205.225658 C97.2910133,205.225658 101.046588,209.421849 105.962007,212.888489 C110.877426,216.355128 116.605409,218.868116 120.738873,220.441024 C124.643875,221.926995 131.466165,224.29515 137.5652,225.15886 C143.664234,226.02257 150.648631,225.529842 150.648631,225.529842 L150.054928,152.302082 L97.2910133,205.225658 Z" id="Path-4" fill="url(#linearGradient-6)"></path>
            <path d="M97.6006098,204.916495 C97.6006098,204.916495 102.478196,200.475516 104.782868,198.121801 C107.08754,195.768086 149.273193,152.144326 149.273193,152.144326 L72.4471772,152.002495 C72.4471772,152.002495 72.6990522,161.084417 73.7498141,165.481403 C74.800576,169.878389 79.7965133,182.756301 79.7965133,182.756301 C79.7965133,182.756301 85.5918917,192.925385 89.0530895,197.233428 C91.7091068,200.539288 95.0242657,203.81293 96.56151,204.916495 C97.2560601,205.415102 97.2041833,205.409639 97.3014108,205.312486 C97.3986383,205.215333 97.6006098,204.916495 97.6006098,204.916495 Z" id="Path-3" fill="url(#linearGradient-7)"></path>
            <path d="M72.2166463,152.065954 C72.2166463,152.065954 82.1303187,152.422063 86.9157314,152.412562 C91.7011441,152.40306 150.2928,151.370389 150.2928,151.370389 L93.5509623,95.9762829 C93.5509623,95.9762829 90.3650554,99.6339422 88.9307111,101.53622 C87.4963668,103.438497 83.886796,108.793237 83.886796,108.793237 C83.886796,108.793237 81.1525134,113.485741 79.9747169,115.933677 C78.7969204,118.381614 76.6902779,123.750507 76.6902779,123.750507 C76.6902779,123.750507 73.9064447,132.034271 73.2787971,136.254044 C72.9398758,138.532665 72.3130469,142.797401 72.2166463,146.244175 C72.1202458,149.69095 72.2166463,152.065954 72.2166463,152.065954 Z" id="Path-2" fill="url(#linearGradient-8)"></path>
            <circle id="Oval-4" fill="#3F3D3D" cx="149.5" cy="148.5" r="47.5"></circle>
            <circle id="Oval-5" fill="#FFFFFF" cx="119.5" cy="118.5" r="17.5"></circle>
        </g>
    </g>
</svg>